<?xml version="1.0" encoding="utf-8"?>
<!DOCTYPE svg PUBLIC "-//W3C//DTD SVG 20010904//EN" "http://www.w3.org/TR/2001/REC-SVG-20010904/DTD/svg10.dtd">
<svg version="1.0" xmlns="http://www.w3.org/2000/svg" width="1947px" height="1947px" viewBox="0 0 1947 1947" preserveAspectRatio="xMidYMid meet">
 <g fill="#ffffff">
  <path d="M946.5 1912.9 c-137.4 -3.3 -275.3 -37.7 -398.5 -99.4 -172.7 -86.5 -314.6 -222.2 -409 -391.5 -11.7 -20.9 -29.4 -56.7 -39.8 -80.5 -37.3 -85.3 -61.5 -174 -72.6 -266.5 -5.3 -43.9 -6.1 -57.7 -6.1 -115.5 0 -57.8 0.8 -71.6 6.1 -115.5 20.6 -171.3 86.9 -332.1 193.2 -469.3 48.4 -62.4 106.6 -120.6 168.9 -168.9 110.5 -85.6 236 -145.1 371.3 -176.2 78.6 -18 155.4 -25.5 240.5 -23.5 178.3 4.3 352.8 59.9 503 160.2 84.7 56.6 161.4 128 223.7 208.4 106.4 137.4 172.6 298 193.2 469.3 9.1 75 9.1 156 0 231 -20.6 171.2 -86.9 332.1 -193.2 469.3 -55.3 71.2 -122.7 136.3 -196.2 189.3 -155.1 111.9 -340.8 174.7 -530.5 179.2 -14.8 0.4 -39.1 0.4 -54 0.1z m79.5 -27.9 c178.5 -10.9 343.4 -68.9 486.1 -171 72.4 -51.9 139.6 -116.5 194.3 -187 108.1 -139.3 174.2 -306.8 190.1 -482 2.7 -30 3.5 -49.1 3.5 -85.5 0 -36.4 -0.8 -55.5 -3.5 -85.5 -16 -175.4 -81.9 -342.6 -190.3 -482.3 -46.9 -60.5 -104.5 -118 -165.2 -165.1 -148.4 -115.1 -324.4 -181 -515 -192.6 -21.3 -1.3 -83.7 -1.3 -105 0 -178.7 10.9 -342.8 68.7 -486.5 171.3 -71.7 51.3 -139.3 116.4 -193.9 186.7 -108.2 139.4 -174.1 306.7 -190.1 482 -4.9 54.3 -4.9 116.7 0 171 14.8 162.9 73.2 319.9 168.5 453.1 51.8 72.3 116.5 139.6 186.7 194.1 148 114.8 324.1 181 512.8 192.7 19.2 1.2 88.5 1.2 107.5 0.1z"/>
  <path d="M935.5 1842.3 c-127.2 -6.2 -241.8 -35.4 -352 -89.8 -116.4 -57.5 -214.1 -135.8 -297.6 -238.5 -94.2 -115.9 -158.6 -258.2 -183.3 -405.5 -9.3 -55.5 -12.6 -98.9 -12.1 -158.5 0.4 -47.6 2.3 -73.9 8.5 -117 17.1 -119.4 57.9 -232.6 120.6 -334.7 66.9 -109 158.3 -203.8 264.4 -274.3 62.4 -41.5 127.1 -73.8 197.5 -98.5 121.3 -42.6 252.7 -58 383 -45 130.1 13.1 258.3 56.4 370.2 125.1 109 66.9 203.8 158.3 274.3 264.4 41.5 62.4 73.8 127.1 98.5 197.5 33.1 94.2 50.2 196.5 49.4 295.5 -0.3 36 -3 79.7 -6.4 103.6 -0.2 1.7 -1.3 10 -2.5 18.5 -6.7 50.9 -19.4 104.5 -37.1 157.1 -3.8 11.3 -7.6 22.2 -8.4 24.2 -0.9 2 -1.6 3.9 -1.6 4.3 -0.1 0.5 -0.6 1.7 -1.2 2.8 -0.6 1.1 -1.2 2.2 -1.2 2.5 -0.1 0.3 -0.7 1.9 -1.4 3.5 -0.7 1.7 -1.4 3.5 -1.5 4 -0.1 0.6 -0.7 1.9 -1.3 3 -0.6 1.1 -1.2 2.3 -1.2 2.7 -0.2 0.8 -0.1 0.6 -8.6 21.3 -7.1 17.4 -27.5 58.9 -38.9 79.2 -14.2 25.4 -42.2 69.8 -47 74.6 -0.9 0.8 -1.6 2 -1.6 2.6 0 0.6 -0.4 1.1 -1 1.1 -0.5 0 -1 0.6 -1 1.3 0 0.7 -1.1 2.4 -2.5 3.9 -1.4 1.5 -2.5 3.1 -2.5 3.6 0 0.6 -0.7 1.2 -1.5 1.6 -0.8 0.3 -1.5 1.2 -1.5 2 0 0.8 -0.3 1.6 -0.8 1.8 -0.4 0.2 -5.8 6.9 -12.1 15.1 -25.3 32.8 -48.7 59.5 -79.2 89.9 -92.8 92.4 -204.5 162.4 -329.4 206.3 -79.2 27.8 -162.2 44 -248.5 48.5 -17.5 0.9 -65.9 1.1 -81.5 0.3z m31.8 -128.8 c13.4 -6.3 18.3 -18.1 17.5 -42.3 -0.3 -11.8 -0.6 -13.3 -3.3 -18.6 -3.8 -7.6 -10.3 -13.3 -21.7 -19.1 -21.4 -11 -23.2 -13.2 -22.6 -27.1 0.2 -6.9 0.7 -8.7 2.4 -10.4 4.6 -4.7 13.7 -4.2 17.3 0.9 1.6 2.2 2.1 4.4 2.1 9.5 l0 6.6 12.6 0 12.7 0 -0.5 -10.4 c-0.4 -8.7 -0.9 -11.3 -3.2 -16 -1.5 -3.1 -4.4 -7.2 -6.3 -9.1 -13.2 -12.8 -39.6 -12.3 -52.8 0.9 -6.3 6.3 -8.5 12.5 -9.2 25.6 -1.2 22.7 4.8 33.4 25 44.6 5.6 3.2 12.1 6.8 14.5 8.1 7.2 4.1 8.3 6.9 8 19.6 -0.3 10.9 -0.3 10.9 -3.6 13.8 -4.5 4.1 -10.8 4.1 -15.4 0 -3 -2.6 -3.3 -3.5 -3.6 -10 l-0.4 -7.1 -12.5 0 -12.6 0 0.5 9.3 c0.9 16 6.9 26.2 18.4 31.7 9.5 4.4 26.9 4.2 36.7 -0.5z m262.4 1.4 c7.5 -2.9 14.2 -9.6 17.4 -17.5 l2.4 -5.9 0.3 -60.7 0.3 -60.8 -12.5 0 -12.6 0 -0.2 58.5 -0.3 58.5 -2.7 2.6 c-2 2 -3.6 2.7 -6.8 2.7 -3.2 0 -4.8 -0.7 -6.8 -2.7 l-2.7 -2.6 -0.3 -58.5 -0.2 -58.5 -12.6 0 -12.5 0 0.3 60.8 0.3 60.7 2.4 5.9 c3.1 7.7 7.8 12.8 15.3 16.6 5.6 2.7 7 3 15.9 3 7.6 0 11.1 -0.5 15.6 -2.1z m-477.9 -71.1 c7.3 -39.8 13.3 -72.6 13.2 -73 0 -0.5 -5.8 -0.8 -13 -0.8 -12.6 0 -13 0.1 -13.4 2.3 -0.3 1.2 -3.3 22.6 -6.8 47.5 -3.4 24.8 -6.6 45.2 -7 45.2 -0.4 0 -0.8 -0.7 -0.8 -1.5 0 -1.9 -11.8 -86.9 -12.6 -90.7 l-0.6 -2.8 -12.9 0 c-9.6 0 -12.9 0.3 -12.9 1.3 0 0.6 5.9 33.5 13.2 73 l13.2 71.7 13.6 0 13.5 0 13.3 -72.2z m96.2 -0.8 l0 -73 -12.5 0 -12.5 0 0 73 0 73 12.5 0 12.5 0 0 -73z m270 61 l0 -12 -19.7 -0.2 -19.8 -0.3 -0.3 -18.2 -0.2 -18.3 17.5 0 17.5 0 0 -12 0 -12 -17.5 0 -17.5 0 0 -18.5 0 -18.5 20 0 20 0 0 -12 0 -12 -32.5 0 -32.5 0 0 73 0 73 32.5 0 32.5 0 0 -12z m-412.5 -163.4 c3.5 -2.3 5.2 -5.4 6 -10.8 l0.7 -4.8 -4 0 c-3.9 0 -4.1 0.2 -4.8 3.5 -0.8 4.4 -2.8 6.5 -5.9 6.5 -4.8 0 -5.5 -2.8 -5.5 -22.7 0 -17 0.1 -18.4 2 -20.3 3.9 -3.9 8.4 -1.8 9.6 4.5 0.6 3.3 0.9 3.5 4.6 3.5 l4 0 -0.7 -4.2 c-1.6 -9.4 -5.6 -13.2 -14.2 -13.2 -4.8 0 -5.7 0.3 -9.1 3.7 l-3.7 3.7 -0.3 21.3 c-0.3 20.8 -0.3 21.3 2 24.7 4.5 6.7 13 8.7 19.3 4.6z m149.5 -0.4 c5.3 -3.9 6 -7 6 -28.2 0 -17.6 -0.2 -19.8 -2 -22.7 -2.9 -4.8 -6.5 -6.7 -12.4 -6.7 -6.3 0 -11 2.4 -13.3 6.7 -1.6 2.8 -1.8 6 -1.8 23.8 l0 20.6 2.8 3.6 c1.5 2 4.2 4.1 6 4.6 4.3 1.4 11.6 0.5 14.7 -1.7z m255.6 0.2 c4.9 -3.3 5.4 -5.6 5.4 -27.9 0 -22.6 -0.5 -25.2 -5.8 -27.9 -7.2 -3.7 -14.8 -2.7 -19.7 2.4 l-3 3.1 -0.3 20.2 c-0.2 11 -0.1 21.1 0.2 22.3 0.9 3.5 5.5 8.3 8.9 9.4 4.2 1.2 11.1 0.5 14.3 -1.6z m-370.6 -10.9 l0 -12.5 5.5 0 5.5 0 0 12.5 0 12.5 4 0 4 0 0 -29.5 0 -29.5 -4 0 -4 0 0 13 0 13 -5.5 0 -5.5 0 0 -13 0 -13 -4 0 -4 0 0 29.5 0 29.5 4 0 4 0 0 -12.5z m47.4 7.5 c1.1 -8 1.1 -8 8.1 -8 l6.2 0 0.7 5 c1 7.5 1.3 8 5.7 8 2.1 0 3.9 -0.4 3.9 -0.8 0 -0.5 -2.6 -12.3 -5.9 -26.3 -3.2 -14 -6.2 -26.9 -6.6 -28.6 -0.6 -3 -1 -3.3 -4.4 -3.3 l-3.7 0 -6.3 27.3 c-3.5 14.9 -6.5 28.2 -6.8 29.5 -0.5 2 -0.2 2.2 4 2.2 l4.4 0 0.7 -5z m149.7 1.2 l2.9 -3.2 0 -22.6 0 -22.6 -3.4 -3.4 -3.4 -3.4 -10.6 0 -10.6 0 0 29.6 0 29.6 11.1 -0.4 11.1 -0.3 2.9 -3.3z m31.3 -1.2 c1.1 -8 1.1 -8 8.1 -8 l6.2 0 0.7 5 c1 7.5 1.3 8 5.7 8 2.1 0 3.9 -0.4 3.9 -0.8 0 -0.5 -2.6 -12.3 -5.9 -26.3 -3.2 -14 -6.2 -26.9 -6.6 -28.6 -0.6 -3 -1 -3.3 -4.4 -3.3 l-3.7 0 -6.3 27.3 c-3.5 14.9 -6.5 28.2 -6.8 29.5 -0.5 2 -0.2 2.2 4 2.2 l4.4 0 0.7 -5z m81.6 -7.5 l0 -12.5 8 0 8 0 0 -4 0 -4 -8 0 -8 0 0 -9 0 -9 9 0 9 0 0 -4 0 -4 -13 0 -13 0 0 29.5 0 29.5 4 0 4 0 0 -12.5z m96 -5.7 c0.1 -12.7 0.4 -17.8 1.1 -16.6 0.5 1 3.4 8.4 6.3 16.5 3 8.1 5.7 15.6 6.1 16.6 0.5 1.1 1.8 1.7 4.1 1.7 l3.4 0 0 -29.5 0 -29.5 -3.5 0 -3.5 0 0 20.3 c0 11.7 -0.4 19.6 -0.9 18.7 -0.5 -0.8 -3.7 -9.4 -7.1 -19 -3.4 -9.6 -6.5 -18.1 -6.7 -18.7 -0.3 -0.7 -2 -1.3 -3.9 -1.3 l-3.4 0 0 29.5 0 29.5 4 0 4 0 0 -18.2z m56.2 -7 l0.3 -25.3 5 -0.5 c5 -0.5 5 -0.5 5.3 -4.2 l0.3 -3.8 -14.5 0 -14.6 0 0 4 0 4 5 0 5 0 0 25.5 0 25.5 4 0 4 0 0.2 -25.2z m53.8 21.7 l0 -3.4 -8.7 -0.3 -8.8 -0.3 -0.3 -8.7 -0.3 -8.7 7.8 -0.3 7.8 -0.3 0.3 -3.7 0.3 -3.8 -8 0 -8.1 0 0 -9 0 -8.9 8.8 -0.3 8.7 -0.3 0.3 -3.7 0.3 -3.8 -13 0 -13.1 0 0 29.5 0 29.5 13 0 13 0 0 -3.5z m-465 -61.5 c0 -1.1 0.5 -2 1 -2 0.6 0 2.7 0.9 4.7 2 4.8 2.5 5.5 2.5 8.2 -0.4 1.6 -1.7 2.2 -3.3 1.9 -5.7 -0.3 -2.9 -0.7 -3.4 -3.1 -3.7 -2.2 -0.3 -3 0.1 -3.4 1.7 -0.6 2.4 -1.8 2.6 -5.3 0.6 -5.7 -3.3 -11 -0.6 -11 5.6 0 3.3 0.7 3.9 4.2 3.9 2.1 0 2.8 -0.5 2.8 -2z m-352.9 -109.2 c0.1 -46.4 0.4 -85.6 0.8 -87.3 l0.6 -3 1.7 4.5 c0.9 2.5 12.1 32.6 24.7 67 12.6 34.4 26.3 71.5 30.4 82.5 l7.4 20 15.1 0.3 15.2 0.3 0 -130.6 0 -130.5 -16.5 0 -16.5 0 -0.2 90.8 -0.3 90.7 -18.4 -51.5 c-10 -28.3 -24.6 -69.2 -32.4 -90.7 l-14.1 -39.3 -14.8 0 -14.8 0 0 130.5 0 130.5 16 0 16 0 0.1 -84.2z m231.9 68.2 l0 -16 -38.7 -0.2 -38.8 -0.3 -0.3 -40.2 -0.2 -40.3 34.5 0 34.5 0 -0.2 -16.2 -0.3 -16.3 -34 -0.5 -34 -0.5 0 -40.5 0 -40.5 38.8 -0.3 38.7 -0.2 0 -16.5 0 -16.5 -56 0 -56 0 0 130.5 0 130.5 56 0 56 0 0 -16z m101 -53.5 c6.4 -37.9 12.9 -76.5 14.5 -85.8 1.6 -9.2 3.2 -16.4 3.6 -16 0.6 0.7 7.3 42.2 23.6 147.6 l3.7 23.7 18.8 0 c10.8 0 18.8 -0.4 18.8 -0.9 0 -0.5 7.9 -58.2 17.5 -128.1 9.6 -69.9 17.5 -128.2 17.5 -129.6 l0 -2.4 -16.7 0.2 -16.8 0.3 -3.2 28 c-1.7 15.4 -6.6 58.4 -10.7 95.5 -4.2 37.1 -8 68.8 -8.4 70.5 -0.6 2.3 -1.7 -2.7 -4.6 -21 -2.2 -13.2 -9.4 -57.5 -16.1 -98.5 l-12.1 -74.5 -12.2 -0.3 c-9.3 -0.2 -12.3 0.1 -12.7 1 -0.2 0.7 -5.9 34.8 -12.5 75.8 -6.6 41 -13.7 84.5 -15.7 96.8 -2 12.3 -3.9 21.9 -4.3 21.5 -0.6 -0.6 -8.9 -72.5 -20.9 -180.3 l-1.6 -14.5 -17.3 -0.3 -17.4 -0.2 0.6 2.7 c0.3 1.6 8.2 58.6 17.6 126.8 9.3 68.2 17.3 125.7 17.6 127.8 l0.6 3.7 18.6 -0.2 18.6 -0.3 11.6 -69z m175 19.1 l0 -50.4 23.3 -0.5 c17.3 -0.3 24.6 -0.8 28.8 -2 20.4 -5.8 33.1 -19.5 37.3 -39.9 2.3 -11 2.3 -63.4 0.1 -74.6 -4.2 -21 -18.8 -36.1 -39.5 -40.9 -5 -1.2 -15.6 -1.6 -45.2 -2 l-38.8 -0.5 0 130.6 0 130.6 17 0 17 0 0 -50.4z m123.3 30.7 c2 -10.9 4.4 -23.7 5.3 -28.5 l1.6 -8.8 28.4 0 28.4 0 0.5 2.3 c0.3 1.2 2.5 13 5 26.2 2.5 13.2 4.7 25 5 26.3 0.5 2.2 0.7 2.2 18.5 2.2 15.2 0 18 -0.2 18 -1.5 0 -0.8 -12.9 -56.9 -28.6 -124.7 -15.7 -67.8 -29.1 -125.8 -29.8 -128.8 l-1.3 -5.5 -15.6 -0.3 c-8.6 -0.1 -15.7 0 -15.7 0.2 0 0.2 -13.5 58.8 -30 130.1 -16.5 71.4 -30 129.9 -30 130.1 0 0.2 8.2 0.4 18.3 0.4 l18.2 0 3.8 -19.7z m211.7 16.8 c8.2 -2.9 9.4 -3.5 15.3 -8 6.8 -5.1 13.1 -14.9 15.9 -24.6 l2.3 -8 0 -87 c0 -81.1 -0.1 -87.4 -1.8 -93.4 -1 -3.5 -2.8 -8.4 -3.9 -10.9 -3.3 -6.9 -12.1 -15.7 -19.1 -19.2 -12.5 -6 -14.5 -6.2 -57.9 -6.7 l-39.8 -0.5 0 130.7 0 130.6 41.3 -0.3 c40 -0.4 41.4 -0.5 47.7 -2.7z m170 -13.1 l0 -16 -39 0 -39 0 0 -40.5 0 -40.5 34.5 0 34.5 0 0 -16.5 0 -16.5 -34.5 0 -34.5 0 0 -41 0 -41 39 0 39 0 0 -16.5 0 -16.5 -56 0 -56 0 0 130.5 0 130.5 56 0 56 0 0 -16z m123 0 l0 -16 -37 0 -37 0 0 -114.5 0 -114.5 -17 0 -17 0 0 130.5 0 130.5 54 0 54 0 0 -16z m30.4 -180.1 c5.2 -1.4 12 -7.9 13.4 -12.7 1.5 -5.1 1.5 -27.9 0 -32.3 -1.9 -5.5 -4.9 -8.8 -10.6 -11.6 -4.5 -2.2 -6.9 -2.7 -13.1 -2.7 -12.8 0 -20.4 5.1 -23.6 15.6 -2 6.9 -2 22.8 0.1 29.9 1.8 6.2 7.1 11.9 12.5 13.6 4.5 1.4 16.4 1.6 21.3 0.2z m-342.4 -166.9 c32.3 -24.1 66.9 -55.9 88 -81 3 -3.6 5.7 -6.7 6.1 -7 0.3 -0.3 4.2 -5 8.6 -10.5 31.9 -40 60.7 -89 77.3 -131.5 1.8 -4.7 3.9 -9.9 4.7 -11.7 0.7 -1.7 1.3 -3.7 1.3 -4.5 0 -0.8 0.4 -1.8 0.9 -2.3 1 -1.1 6.1 -16.5 9.1 -27.5 1.2 -4.1 3 -10.6 4 -14.5 3 -10.6 8.6 -39.3 10.9 -55 8.8 -61.4 5.9 -123.3 -8.8 -184.8 -18.1 -75.7 -57 -151 -108.3 -210 -22.8 -26.1 -59 -59.5 -87.3 -80.6 -6 -4.5 -12.1 -9.1 -13.5 -10.1 -1.4 -1.1 -3 -2 -3.7 -2 -0.6 0 -1.3 -0.4 -1.5 -0.8 -0.4 -1 -21.2 -15 -23.6 -15.9 -0.9 -0.4 -4.8 -2.6 -8.5 -5.1 -3.8 -2.4 -7.2 -4.1 -7.5 -3.7 -0.4 0.4 0 1.2 0.9 1.9 1.7 1.2 3.9 2.9 18.8 15 29.4 23.8 60.4 54.9 81.7 82.1 53.2 67.8 87.8 137.2 107.4 215.4 6.8 27.3 10.2 47.3 13.2 78.6 1.7 18.3 1.7 97.1 0 113 -11.8 105.4 -52.1 204 -116.6 285 -19.1 24 -40.9 47.1 -73.6 78 l-13.5 12.7 10.5 -7 c5.8 -3.8 16.1 -11.1 23 -16.2z m-553.5 12.8 c-49.6 -45.7 -82.1 -83.2 -110.2 -127.3 -39.9 -62.6 -65.6 -129.3 -78.2 -203.5 -5.9 -34.6 -6.6 -42.9 -6.6 -86.5 0.1 -69.1 4.5 -104.4 20 -158 3.8 -13.2 11.4 -36.4 13.5 -41 0.9 -2.2 2.1 -5.1 2.4 -6.5 0.4 -1.4 1.3 -3.8 2.1 -5.5 0.7 -1.6 3.2 -7.5 5.5 -13 9 -20.9 26.3 -54 38.6 -73.6 3 -4.7 5.4 -9.1 5.4 -9.7 0 -0.6 0.3 -1.2 0.8 -1.4 1 -0.4 17.2 -23.7 17.2 -24.8 0 -0.4 0.7 -1 1.5 -1.4 0.8 -0.3 1.5 -1.2 1.5 -2.1 0 -0.8 0.3 -1.5 0.8 -1.5 0.4 0 1.8 -1.6 3.1 -3.5 1.3 -1.9 3.1 -4.4 4 -5.5 0.9 -1.1 2.4 -3 3.3 -4.3 5.5 -7.3 18.9 -22.9 29.4 -34.2 17.1 -18.4 32.4 -32.4 61.7 -56.4 7.5 -6.2 13.7 -11.4 13.7 -11.7 0 -2.2 -37.9 22 -58 37 -34.5 25.8 -72 61.2 -98.5 93.1 -21.1 25.3 -48.2 67.8 -62.5 98 -49.4 104.4 -61.9 210.3 -37.9 322.5 23 107.4 88 212 178.4 287.4 17.6 14.6 55.9 42.6 58.4 42.6 0.3 0 -3.9 -4.1 -9.4 -9.2z m142 -105.9 c14.3 -5.3 22.1 -22.5 16.6 -36.8 -2.5 -6.6 -6.4 -11.5 -11.7 -14.6 -4.7 -2.8 -6.2 -3.2 -13.5 -4.2 -14.8 -1.8 -29.4 10.6 -30.7 26.2 -1.7 21.7 18.8 37.1 39.3 29.4z m89 0 c14.3 -5.3 22.1 -22.5 16.6 -36.8 -2.5 -6.6 -6.4 -11.5 -11.7 -14.6 -4.7 -2.8 -6.2 -3.2 -13.5 -4.2 -14.8 -1.8 -29.4 10.6 -30.7 26.2 -1.7 21.7 18.8 37.1 39.3 29.4z m87 0 c14.3 -5.3 22.1 -22.5 16.6 -36.8 -2.5 -6.6 -6.4 -11.5 -11.7 -14.6 -4.7 -2.8 -6.2 -3.2 -13.5 -4.2 -14.8 -1.8 -29.4 10.6 -30.7 26.2 -1.7 21.7 18.8 37.1 39.3 29.4z m86 0 c14.3 -5.3 22.1 -22.5 16.6 -36.8 -2.5 -6.6 -6.4 -11.5 -11.7 -14.6 -4.7 -2.8 -6.2 -3.2 -13.5 -4.2 -14.8 -1.8 -29.4 10.6 -30.7 26.2 -1.7 21.7 18.8 37.1 39.3 29.4z m-350 -83 c14.3 -5.3 22.1 -22.5 16.6 -36.8 -2.6 -7 -6.7 -11.9 -12.5 -14.9 -5.6 -2.8 -6 -2.9 -12.7 -3.8 -14.8 -2 -29.4 10.4 -30.7 26.1 -1.7 21.7 18.8 37.1 39.3 29.4z m88 0 c14.3 -5.3 22.1 -22.5 16.6 -36.8 -2.6 -7 -6.7 -11.9 -12.5 -14.9 -5.6 -2.8 -6 -2.9 -12.7 -3.8 -14.8 -2 -29.4 10.4 -30.7 26.1 -1.7 21.7 18.8 37.1 39.3 29.4z m89 0 c14.3 -5.3 22.1 -22.5 16.6 -36.8 -2.6 -7 -6.7 -11.9 -12.5 -14.9 -5.6 -2.8 -6 -2.9 -12.7 -3.8 -14.8 -2 -29.4 10.4 -30.7 26.1 -1.7 21.7 18.8 37.1 39.3 29.4z m87 0 c14.3 -5.3 22.1 -22.5 16.6 -36.8 -2.6 -7 -6.7 -11.9 -12.5 -14.9 -5.6 -2.8 -6 -2.9 -12.7 -3.8 -14.8 -2 -29.4 10.4 -30.7 26.1 -1.7 21.7 18.8 37.1 39.3 29.4z m86 0 c14.3 -5.3 22.1 -22.5 16.6 -36.8 -2.6 -7 -6.7 -11.9 -12.5 -14.9 -5.6 -2.8 -6 -2.9 -12.7 -3.8 -14.8 -2 -29.4 10.4 -30.7 26.1 -1.7 21.7 18.8 37.1 39.3 29.4z m87 0 c14.3 -5.3 22.1 -22.5 16.6 -36.8 -2.6 -7 -6.7 -11.9 -12.5 -14.9 -5.6 -2.8 -6 -2.9 -12.7 -3.8 -14.8 -2 -29.4 10.4 -30.7 26.1 -1.7 21.7 18.8 37.1 39.3 29.4z m-437 -87 c14.3 -5.3 22.1 -22.5 16.6 -36.8 -2.5 -6.6 -6.4 -11.5 -11.7 -14.6 -4.7 -2.8 -6.2 -3.2 -13.5 -4.2 -14.8 -1.8 -29.4 10.6 -30.7 26.2 -1.7 21.7 18.8 37.1 39.3 29.4z m88 0 c14.3 -5.3 22.1 -22.5 16.6 -36.8 -2.5 -6.6 -6.4 -11.5 -11.7 -14.6 -4.7 -2.8 -6.2 -3.2 -13.5 -4.2 -14.8 -1.8 -29.4 10.6 -30.7 26.2 -1.7 21.7 18.8 37.1 39.3 29.4z m89 0 c14.3 -5.3 22.1 -22.5 16.6 -36.8 -2.5 -6.6 -6.4 -11.5 -11.7 -14.6 -4.7 -2.8 -6.2 -3.2 -13.5 -4.2 -14.8 -1.8 -29.4 10.6 -30.7 26.2 -1.7 21.7 18.8 37.1 39.3 29.4z m87 0 c14.3 -5.3 22.1 -22.5 16.6 -36.8 -2.5 -6.6 -6.4 -11.5 -11.7 -14.6 -4.7 -2.8 -6.2 -3.2 -13.5 -4.2 -14.8 -1.8 -29.4 10.6 -30.7 26.2 -1.7 21.7 18.8 37.1 39.3 29.4z m86 0 c14.3 -5.3 22.1 -22.5 16.6 -36.8 -2.5 -6.6 -6.4 -11.5 -11.7 -14.6 -4.7 -2.8 -6.2 -3.2 -13.5 -4.2 -14.8 -1.8 -29.4 10.6 -30.7 26.2 -1.7 21.7 18.8 37.1 39.3 29.4z m87 0 c14.3 -5.3 22.1 -22.5 16.6 -36.8 -2.5 -6.6 -6.4 -11.5 -11.7 -14.6 -4.7 -2.8 -6.2 -3.2 -13.5 -4.2 -14.8 -1.8 -29.4 10.6 -30.7 26.2 -1.7 21.7 18.8 37.1 39.3 29.4z m87 0 c14.3 -5.3 22.1 -22.5 16.6 -36.8 -2.5 -6.6 -6.4 -11.5 -11.7 -14.6 -4.7 -2.8 -6.2 -3.2 -13.5 -4.2 -14.8 -1.8 -29.4 10.6 -30.7 26.2 -1.7 21.7 18.8 37.1 39.3 29.4z m-610 -1 c14.3 -5.3 22.1 -22.5 16.6 -36.8 -2.5 -6.6 -6.4 -11.5 -11.7 -14.6 -4.7 -2.8 -6.2 -3.2 -13.5 -4.2 -14.8 -1.8 -29.4 10.6 -30.7 26.2 -1.7 21.7 18.8 37.1 39.3 29.4z m85.8 -81.9 c4.7 -1.8 9.7 -5.6 13.5 -10.4 2.3 -2.9 5.2 -12.3 5.2 -16.8 0 -10.7 -5.3 -20 -14.5 -25.5 -5.5 -3.3 -6.7 -3.6 -14 -3.7 -6.5 -0.1 -8.9 0.3 -12.9 2.3 -9.7 4.8 -15.5 13.2 -16.4 23.8 -1.7 22 18.7 37.9 39.1 30.3z m88 0 c4.7 -1.8 9.7 -5.6 13.5 -10.4 2.3 -2.9 5.2 -12.3 5.2 -16.8 0 -10.7 -5.3 -20 -14.5 -25.5 -5.5 -3.3 -6.7 -3.6 -14 -3.7 -6.5 -0.1 -8.9 0.3 -12.9 2.3 -9.7 4.8 -15.5 13.2 -16.4 23.8 -1.7 22 18.7 37.9 39.1 30.3z m89 0 c4.7 -1.8 9.7 -5.6 13.5 -10.4 2.3 -2.9 5.2 -12.3 5.2 -16.8 0 -10.7 -5.3 -20 -14.5 -25.5 -5.5 -3.3 -6.7 -3.6 -14 -3.7 -6.5 -0.1 -8.9 0.3 -12.9 2.3 -9.7 4.8 -15.5 13.2 -16.4 23.8 -1.7 22 18.7 37.9 39.1 30.3z m87 0 c4.7 -1.8 9.7 -5.6 13.5 -10.4 2.3 -2.9 5.2 -12.3 5.2 -16.8 0 -10.7 -5.3 -20 -14.5 -25.5 -5.5 -3.3 -6.7 -3.6 -14 -3.7 -6.5 -0.1 -8.9 0.3 -12.9 2.3 -9.7 4.8 -15.5 13.2 -16.4 23.8 -1.7 22 18.7 37.9 39.1 30.3z m86 0 c4.7 -1.8 9.7 -5.6 13.5 -10.4 2.3 -2.9 5.2 -12.3 5.2 -16.8 0 -10.7 -5.3 -20 -14.5 -25.5 -5.5 -3.3 -6.7 -3.6 -14 -3.7 -6.5 -0.1 -8.9 0.3 -12.9 2.3 -9.7 4.8 -15.5 13.2 -16.4 23.8 -1.7 22 18.7 37.9 39.1 30.3z m87 0 c4.7 -1.8 9.7 -5.6 13.5 -10.4 2.3 -2.9 5.2 -12.3 5.2 -16.8 0 -10.7 -5.3 -20 -14.5 -25.5 -5.5 -3.3 -6.7 -3.6 -14 -3.7 -6.5 -0.1 -8.9 0.3 -12.9 2.3 -9.7 4.8 -15.5 13.2 -16.4 23.8 -1.7 22 18.7 37.9 39.1 30.3z m87 0 c4.7 -1.8 9.7 -5.6 13.5 -10.4 2.3 -2.9 5.2 -12.3 5.2 -16.8 0 -10.7 -5.3 -20 -14.5 -25.5 -5.5 -3.3 -6.7 -3.6 -14 -3.7 -6.5 -0.1 -8.9 0.3 -12.9 2.3 -9.7 4.8 -15.5 13.2 -16.4 23.8 -1.7 22 18.7 37.9 39.1 30.3z m-609.8 -1.1 c14.3 -5.3 22.1 -22.5 16.6 -36.8 -2.7 -7.1 -6.6 -11.7 -12.8 -15 -18.9 -10.3 -41.4 1.4 -43.1 22.4 -1.7 21.7 18.8 37.1 39.3 29.4z m0 -86 c14.3 -5.3 22.1 -22.5 16.6 -36.8 -2.5 -6.6 -6.4 -11.5 -11.7 -14.6 -4.7 -2.8 -6.2 -3.2 -13.5 -4.2 -14.8 -1.8 -29.4 10.6 -30.7 26.2 -1.7 21.7 18.8 37.1 39.3 29.4z m86 0 c14.3 -5.3 22.1 -22.5 16.6 -36.8 -2.5 -6.6 -6.4 -11.5 -11.7 -14.6 -4.7 -2.8 -6.2 -3.2 -13.5 -4.2 -14.8 -1.8 -29.4 10.6 -30.7 26.2 -1.7 21.7 18.8 37.1 39.3 29.4z m88 0 c14.3 -5.3 22.1 -22.5 16.6 -36.8 -2.5 -6.6 -6.4 -11.5 -11.7 -14.6 -4.7 -2.8 -6.2 -3.2 -13.5 -4.2 -14.8 -1.8 -29.4 10.6 -30.7 26.2 -1.7 21.7 18.8 37.1 39.3 29.4z m89 0 c14.3 -5.3 22.1 -22.5 16.6 -36.8 -2.5 -6.6 -6.4 -11.5 -11.7 -14.6 -4.7 -2.8 -6.2 -3.2 -13.5 -4.2 -14.8 -1.8 -29.4 10.6 -30.7 26.2 -1.7 21.7 18.8 37.1 39.3 29.4z m87 0 c14.3 -5.3 22.1 -22.5 16.6 -36.8 -2.5 -6.6 -6.4 -11.5 -11.7 -14.6 -4.7 -2.8 -6.2 -3.2 -13.5 -4.2 -14.8 -1.8 -29.4 10.6 -30.7 26.2 -1.7 21.7 18.8 37.1 39.3 29.4z m86 0 c14.3 -5.3 22.1 -22.5 16.6 -36.8 -2.5 -6.6 -6.4 -11.5 -11.7 -14.6 -4.7 -2.8 -6.2 -3.2 -13.5 -4.2 -14.8 -1.8 -29.4 10.6 -30.7 26.2 -1.7 21.7 18.8 37.1 39.3 29.4z m87 0 c14.3 -5.3 22.1 -22.5 16.6 -36.8 -2.5 -6.6 -6.4 -11.5 -11.7 -14.6 -4.7 -2.8 -6.2 -3.2 -13.5 -4.2 -14.8 -1.8 -29.4 10.6 -30.7 26.2 -1.7 21.7 18.8 37.1 39.3 29.4z m87 0 c14.3 -5.3 22.1 -22.5 16.6 -36.8 -2.5 -6.6 -6.4 -11.5 -11.7 -14.6 -4.7 -2.8 -6.2 -3.2 -13.5 -4.2 -14.8 -1.8 -29.4 10.6 -30.7 26.2 -1.7 21.7 18.8 37.1 39.3 29.4z m-610 -83 c14.3 -5.3 22.1 -22.5 16.6 -36.8 -2.7 -7.1 -6.6 -11.7 -12.8 -15 -18.9 -10.3 -41.4 1.4 -43.1 22.4 -1.7 21.7 18.8 37.1 39.3 29.4z m86 0 c14.3 -5.3 22.1 -22.5 16.6 -36.8 -2.7 -7.1 -6.6 -11.7 -12.8 -15 -18.9 -10.3 -41.4 1.4 -43.1 22.4 -1.7 21.7 18.8 37.1 39.3 29.4z m88 0 c14.3 -5.3 22.1 -22.5 16.6 -36.8 -2.7 -7.1 -6.6 -11.7 -12.8 -15 -18.9 -10.3 -41.4 1.4 -43.1 22.4 -1.7 21.7 18.8 37.1 39.3 29.4z m89 0 c14.3 -5.3 22.1 -22.5 16.6 -36.8 -2.7 -7.1 -6.6 -11.7 -12.8 -15 -18.9 -10.3 -41.4 1.4 -43.1 22.4 -1.7 21.7 18.8 37.1 39.3 29.4z m87 0 c14.3 -5.3 22.1 -22.5 16.6 -36.8 -2.7 -7.1 -6.6 -11.7 -12.8 -15 -18.9 -10.3 -41.4 1.4 -43.1 22.4 -1.7 21.7 18.8 37.1 39.3 29.4z m86 0 c14.3 -5.3 22.1 -22.5 16.6 -36.8 -2.7 -7.1 -6.6 -11.7 -12.8 -15 -18.9 -10.3 -41.4 1.4 -43.1 22.4 -1.7 21.7 18.8 37.1 39.3 29.4z m87 0 c14.3 -5.3 22.1 -22.5 16.6 -36.8 -2.7 -7.1 -6.6 -11.7 -12.8 -15 -18.9 -10.3 -41.4 1.4 -43.1 22.4 -1.7 21.7 18.8 37.1 39.3 29.4z m87 0 c14.3 -5.3 22.1 -22.5 16.6 -36.8 -2.7 -7.1 -6.6 -11.7 -12.8 -15 -18.9 -10.3 -41.4 1.4 -43.1 22.4 -1.7 21.7 18.8 37.1 39.3 29.4z m-524 -88 c14.3 -5.3 22.1 -22.5 16.6 -36.8 -2.7 -7.1 -6.6 -11.7 -12.8 -15 -18.9 -10.3 -41.4 1.4 -43.1 22.4 -1.7 21.7 18.8 37.1 39.3 29.4z m88 0 c14.3 -5.3 22.1 -22.5 16.6 -36.8 -2.5 -6.6 -6.4 -11.5 -11.7 -14.6 -4.7 -2.8 -6.2 -3.2 -13.5 -4.2 -14.8 -1.8 -29.4 10.6 -30.7 26.2 -1.7 21.7 18.8 37.1 39.3 29.4z m89 0 c14.3 -5.3 22.1 -22.5 16.6 -36.8 -2.5 -6.6 -6.4 -11.5 -11.7 -14.6 -4.7 -2.8 -6.2 -3.2 -13.5 -4.2 -14.8 -1.8 -29.4 10.6 -30.7 26.2 -1.7 21.7 18.8 37.1 39.3 29.4z m87 0 c14.3 -5.3 22.1 -22.5 16.6 -36.8 -2.5 -6.6 -6.4 -11.5 -11.7 -14.6 -4.7 -2.8 -6.2 -3.2 -13.5 -4.2 -14.8 -1.8 -29.4 10.6 -30.7 26.2 -1.7 21.7 18.8 37.1 39.3 29.4z m86 0 c14.3 -5.3 22.1 -22.5 16.6 -36.8 -2.5 -6.6 -6.4 -11.5 -11.7 -14.6 -4.7 -2.8 -6.2 -3.2 -13.5 -4.2 -14.8 -1.8 -29.4 10.6 -30.7 26.2 -1.7 21.7 18.8 37.1 39.3 29.4z m87 0 c14.3 -5.3 22.1 -22.5 16.6 -36.8 -2.7 -7.1 -6.6 -11.7 -12.8 -15 -18.9 -10.3 -41.4 1.4 -43.1 22.4 -1.7 21.7 18.8 37.1 39.3 29.4z m-349 -83 c14.3 -5.3 22.1 -22.5 16.6 -36.8 -2.7 -7.1 -6.6 -11.7 -12.8 -15 -18.9 -10.3 -41.4 1.4 -43.1 22.4 -1.7 21.7 18.8 37.1 39.3 29.4z m89 0 c14.3 -5.3 22.1 -22.5 16.6 -36.8 -2.7 -7.1 -6.6 -11.7 -12.8 -15 -18.9 -10.3 -41.4 1.4 -43.1 22.4 -1.7 21.7 18.8 37.1 39.3 29.4z m87 0 c14.3 -5.3 22.1 -22.5 16.6 -36.8 -2.7 -7.1 -6.6 -11.7 -12.8 -15 -18.9 -10.3 -41.4 1.4 -43.1 22.4 -1.7 21.7 18.8 37.1 39.3 29.4z m86 0 c14.3 -5.3 22.1 -22.5 16.6 -36.8 -2.7 -7.1 -6.6 -11.7 -12.8 -15 -18.9 -10.3 -41.4 1.4 -43.1 22.4 -1.7 21.7 18.8 37.1 39.3 29.4z"/>
  <path d="M842.8 1534.3 c-2.9 -0.7 -3.8 -6.1 -3.8 -22.5 0 -19.1 0.9 -21.7 7.3 -21.8 1.5 0 3.6 0.9 4.7 2 1.9 1.9 2 3.3 2 20.5 0 17.2 -0.1 18.6 -2 20.5 -1.9 1.9 -4.4 2.3 -8.2 1.3z"/>
  <path d="M1097.2 1533.4 c-2.1 -1.5 -2.2 -2 -2.2 -20.5 0 -17.6 0.1 -19 2 -20.9 2.5 -2.5 7.2 -2.6 9.3 -0.2 1.5 1.6 1.7 4.6 1.7 21 0 18.6 -0.1 19.1 -2.2 20.6 -1.2 0.9 -3.2 1.6 -4.3 1.6 -1.1 0 -3.1 -0.7 -4.3 -1.6z"/>
  <path d="M791.6 1514.8 c0.8 -4 1.7 -9 2 -11.1 1.1 -6.3 2.1 -5.1 3.9 4.6 0.9 5 1.9 10.2 2.2 11.5 0.5 2.1 0.2 2.2 -4.5 2.2 l-5 0 1.4 -7.2z"/>
  <path d="M920.7 1534.3 c-0.4 -0.3 -0.7 -10.3 -0.7 -22 l0 -21.4 5.8 0.3 5.7 0.3 0.3 20.5 c0.2 18.4 0.1 20.6 -1.5 21.7 -1.8 1.4 -8.5 1.8 -9.6 0.6z"/>
  <path d="M972.6 1514.8 c0.8 -4 1.7 -9 2 -11.1 1.1 -6.3 2.1 -5.1 3.9 4.6 0.9 5 1.9 10.2 2.2 11.5 0.5 2.1 0.2 2.2 -4.5 2.2 l-5 0 1.4 -7.2z"/>
  <path d="M946 1271.5 l0 -47.5 19.8 0 c22.4 0 25.7 0.8 30.7 7.4 5.1 6.7 5.4 8.8 5.5 39.7 0 33 -0.4 35.2 -7.4 41.7 -5.7 5.3 -10.5 6.2 -31.6 6.2 l-17 0 0 -47.5z"/>
  <path d="M1082.6 1361.3 c0.4 -1.5 12 -62.4 20.1 -105.2 1.7 -9 2.4 -9 4.1 0.4 2.6 14.3 19.3 102.2 19.7 104.3 l0.5 2.2 -22.4 0 c-20.8 0 -22.4 -0.1 -22 -1.7z"/>
  <path d="M1226 1322.1 l0 -98.1 20.3 0 c19 0 20.5 0.1 24.7 2.3 3.2 1.5 5.2 3.5 7 6.7 l2.5 4.5 0 83.5 c0 89.3 0.1 87.2 -4.9 92.8 -4.6 5.2 -6.7 5.7 -28.8 6 l-20.8 0.4 0 -98.1z"/>
  <path d="M1587.5 1249.3 c-3.3 -0.9 -7.4 -4.3 -9.1 -7.5 -1.2 -2.4 -1.5 -5.7 -1.2 -16.1 0.3 -11.3 0.6 -13.6 2.3 -15.9 3 -4.1 8.1 -6.2 15 -6.2 7 0 11.3 1.9 14.7 6.6 2.1 3.1 2.3 4.3 2.3 16.8 0 11.9 -0.2 13.8 -2 16.2 -4 5.5 -13.7 8.1 -22 6.1z m4.5 -11.8 c0 -2.5 0.5 -4.5 1 -4.5 0.6 0 2 2 3.2 4.5 2 4.2 2.5 4.5 6 4.5 2.1 0 3.8 -0.3 3.8 -0.6 0 -0.4 -1.2 -2.8 -2.6 -5.4 l-2.6 -4.8 2.1 -2.3 c1.5 -1.6 2.1 -3.6 2.1 -6.6 0 -8.1 -4.4 -11.3 -15.7 -11.3 l-5.3 0 0 15.5 0 15.5 4 0 4 0 0 -4.5z"/>
  <path d="M1592 1222.2 c0 -4.4 1.7 -5.8 4.5 -3.8 1.1 0.8 1.6 2.2 1.3 4.1 -0.2 2.4 -0.8 3.1 -3 3.3 -2.6 0.3 -2.8 0.1 -2.8 -3.6z"/>
 </g>
</svg>