<svg width="633" height="633" xmlns="http://www.w3.org/2000/svg" xmlns:xlink="http://www.w3.org/1999/xlink" overflow="hidden"><defs><filter id="fx0" x="-10%" y="-10%" width="120%" height="120%" filterUnits="userSpaceOnUse" primitiveUnits="userSpaceOnUse"><feComponentTransfer color-interpolation-filters="sRGB"><feFuncR type="discrete" tableValues="0 0"/><feFuncG type="discrete" tableValues="0 0"/><feFuncB type="discrete" tableValues="0 0"/><feFuncA type="linear" slope="1" intercept="0"/></feComponentTransfer><feGaussianBlur stdDeviation="2.22222 2.22222"/></filter><clipPath id="clip1"><rect x="2" y="-13" width="633" height="633"/></clipPath><clipPath id="clip2"><rect x="3" y="-2" width="628" height="629"/></clipPath><clipPath id="clip3"><rect x="0" y="0" width="635" height="635"/></clipPath><clipPath id="clip4"><rect x="7" y="7" width="621" height="621"/></clipPath><clipPath id="clip5"><rect x="7" y="7" width="621" height="621"/></clipPath><clipPath id="clip6"><rect x="7" y="7" width="621" height="621"/></clipPath><clipPath id="clip7"><rect x="15" y="0" width="607" height="607"/></clipPath><clipPath id="clip8"><rect x="15" y="0" width="607" height="607"/></clipPath><clipPath id="clip9"><rect x="15" y="0" width="607" height="607"/></clipPath></defs><g clip-path="url(#clip1)" transform="translate(-2 13)"><g clip-path="url(#clip2)" filter="url(#fx0)" transform="translate(1 -14)"><g clip-path="url(#clip3)"><g clip-path="url(#clip4)"><g clip-path="url(#clip5)"><g clip-path="url(#clip6)"><path d="M308.914 616.226C265.221 615.177 221.37 604.238 182.192 584.617 127.274 557.111 82.1505 513.958 52.1316 460.122 48.411 453.475 42.7825 442.091 39.4753 434.523 27.614 407.398 19.9185 379.191 16.3887 349.777 14.7033 335.817 14.4489 331.428 14.4489 313.048 14.4489 294.668 14.7033 290.279 16.3887 276.319 22.9395 221.847 44.0227 170.713 77.8257 127.083 93.2168 107.24 111.724 88.733 131.535 73.3738 166.674 46.1532 206.583 27.2324 249.608 17.3427 274.602 11.6188 299.024 9.23379 326.086 9.86978 382.785 11.2372 438.275 28.9178 486.038 60.8129 512.973 78.8115 537.363 101.516 557.174 127.083 591.009 170.776 612.061 221.847 618.611 276.319 621.505 300.169 621.505 325.927 618.611 349.777 612.061 404.218 590.977 455.383 557.174 499.013 539.589 521.654 518.156 542.356 494.783 559.209 445.462 594.793 386.41 614.764 326.086 616.195 321.38 616.322 313.652 616.322 308.914 616.226ZM334.195 607.354C390.957 603.888 443.395 585.444 488.773 552.977 511.796 536.473 533.165 515.93 550.56 493.511 584.935 449.214 605.955 395.95 611.011 340.237 611.87 330.697 612.124 324.623 612.124 313.048 612.124 301.473 611.87 295.399 611.011 285.859 605.923 230.083 584.967 176.914 550.496 132.489 535.582 113.251 517.266 94.9658 497.963 79.9881 450.772 43.3867 394.805 22.4307 334.195 18.7419 327.422 18.3285 307.578 18.3285 300.805 18.7419 243.979 22.2081 191.796 40.5883 146.1 73.2148 123.299 89.528 101.803 110.23 84.4401 132.585 50.0328 176.914 29.0768 230.114 23.9888 285.859 22.4307 303.127 22.4307 322.97 23.9888 340.237 28.6952 392.038 47.2662 441.964 77.5713 484.321 94.0436 507.312 114.618 528.714 136.941 546.044 184.005 582.55 240.004 603.602 300.01 607.322 306.116 607.704 328.153 607.704 334.195 607.354Z" fill="#FFFFFF"/><path d="M305.416 593.776C264.967 591.804 228.524 582.519 193.481 565.22 156.466 546.935 125.398 522.036 98.8453 489.377 68.89 452.521 48.411 407.271 40.5565 360.43 37.5991 342.781 36.5497 328.98 36.7087 310.027 36.8359 294.89 37.4401 286.527 39.4117 272.821 44.8494 234.853 57.8237 198.855 77.7621 166.388 99.0361 131.726 128.101 101.58 161.841 79.1613 181.684 65.9644 202.258 55.6931 224.645 47.8386 263.218 34.2919 305.003 29.3948 346.438 33.5288 387.809 37.6945 428.576 51.4638 464.16 73.3102 498.822 94.5842 528.968 123.649 551.387 157.389 564.584 177.232 574.855 197.806 582.709 220.193 593.235 250.148 598.673 282.679 598.418 314.161 598.323 325.609 597.464 339.505 596.383 347.105 596.32 347.646 595.97 350.285 595.588 352.988 593.458 369.174 589.419 386.219 583.791 402.946 582.582 406.539 581.374 410.005 581.119 410.641 580.833 411.277 580.611 411.882 580.611 412.009 580.579 412.168 580.42 412.549 580.229 412.899 580.038 413.249 579.847 413.599 579.847 413.694 579.816 413.789 579.625 414.298 579.402 414.807 579.18 415.348 578.957 415.92 578.925 416.079 578.893 416.27 578.703 416.683 578.512 417.033 578.321 417.383 578.13 417.764 578.13 417.892 578.067 418.146 578.098 418.082 575.396 424.665 573.138 430.198 566.651 443.395 563.025 449.85 558.51 457.927 549.606 472.047 548.08 473.573 547.793 473.827 547.571 474.209 547.571 474.4 547.571 474.59 547.444 474.749 547.253 474.749 547.094 474.749 546.935 474.94 546.935 475.163 546.935 475.385 546.585 475.926 546.14 476.403 545.695 476.88 545.345 477.389 545.345 477.548 545.345 477.739 545.122 477.929 544.868 478.057 544.613 478.152 544.391 478.438 544.391 478.693 544.391 478.947 544.295 479.201 544.136 479.265 544.009 479.329 542.292 481.459 540.289 484.067 532.243 494.497 524.802 502.988 515.103 512.655 485.593 542.038 450.073 564.297 410.355 578.257 385.17 587.098 358.776 592.249 331.333 593.68 325.768 593.967 310.377 594.03 305.416 593.776ZM315.528 552.818C319.79 550.814 321.348 547.062 321.093 539.366 320.998 535.614 320.903 535.137 320.044 533.452 318.836 531.035 316.769 529.222 313.143 527.378 306.338 523.88 305.766 523.18 305.957 518.76 306.02 516.566 306.179 515.994 306.72 515.453 308.183 513.958 311.076 514.117 312.221 515.739 312.73 516.439 312.889 517.138 312.889 518.76L312.889 520.859 316.896 520.859 320.934 520.859 320.775 517.552C320.648 514.785 320.489 513.958 319.758 512.464 319.281 511.478 318.359 510.174 317.754 509.57 313.557 505.5 305.162 505.659 300.964 509.856 298.961 511.86 298.261 513.831 298.039 517.997 297.657 525.216 299.565 528.618 305.988 532.18 307.769 533.197 309.836 534.342 310.599 534.755 312.889 536.059 313.239 536.95 313.143 540.988 313.048 544.454 313.048 544.454 311.999 545.377 310.568 546.68 308.564 546.68 307.102 545.377 306.147 544.55 306.052 544.264 305.957 542.197L305.829 539.939 301.855 539.939 297.848 539.939 298.007 542.896C298.293 547.984 300.201 551.228 303.858 552.977 306.879 554.376 312.412 554.312 315.528 552.818ZM398.971 553.263C401.356 552.341 403.486 550.21 404.504 547.698L405.267 545.822 405.363 526.519 405.458 507.185 401.483 507.185 397.476 507.185 397.413 525.788 397.317 544.391 396.459 545.218C395.823 545.854 395.314 546.076 394.296 546.076 393.279 546.076 392.77 545.854 392.134 545.218L391.275 544.391 391.18 525.788 391.116 507.185 387.11 507.185 383.135 507.185 383.23 526.519 383.325 545.822 384.089 547.698C385.074 550.147 386.569 551.768 388.954 552.977 390.735 553.835 391.18 553.931 394.01 553.931 396.427 553.931 397.54 553.772 398.971 553.263ZM247 530.653C249.321 517.997 251.229 507.567 251.198 507.44 251.198 507.281 249.353 507.185 247.064 507.185 243.057 507.185 242.93 507.217 242.803 507.917 242.707 508.298 241.753 515.103 240.64 523.021 239.559 530.908 238.541 537.395 238.414 537.395 238.287 537.395 238.16 537.172 238.16 536.918 238.16 536.314 234.407 509.284 234.153 508.076L233.962 507.185 229.86 507.185C226.807 507.185 225.758 507.281 225.758 507.599 225.758 507.789 227.634 518.251 229.955 530.812L234.153 553.613 238.478 553.613 242.771 553.613 247 530.653ZM277.591 530.399 277.591 507.185 273.616 507.185 269.641 507.185 269.641 530.399 269.641 553.613 273.616 553.613 277.591 553.613 277.591 530.399ZM363.451 549.797 363.451 545.981 357.186 545.917 350.89 545.822 350.794 540.034 350.731 534.215 356.296 534.215 361.861 534.215 361.861 530.399 361.861 526.583 356.296 526.583 350.731 526.583 350.731 520.7 350.731 514.817 357.091 514.817 363.451 514.817 363.451 511.001 363.451 507.185 353.116 507.185 342.781 507.185 342.781 530.399 342.781 553.613 353.116 553.613 363.451 553.613 363.451 549.797ZM232.277 497.836C233.39 497.105 233.93 496.119 234.185 494.402L234.407 492.875 233.135 492.875C231.895 492.875 231.832 492.939 231.609 493.988 231.355 495.387 230.719 496.055 229.733 496.055 228.206 496.055 227.984 495.165 227.984 488.837 227.984 483.431 228.016 482.986 228.62 482.381 229.86 481.141 231.291 481.809 231.673 483.812 231.863 484.862 231.959 484.925 233.135 484.925L234.407 484.925 234.185 483.59C233.676 480.601 232.404 479.392 229.669 479.392 228.143 479.392 227.857 479.488 226.775 480.569L225.599 481.745 225.504 488.519C225.408 495.133 225.408 495.292 226.139 496.373 227.57 498.504 230.273 499.14 232.277 497.836ZM279.817 497.709C281.503 496.469 281.725 495.483 281.725 488.741 281.725 483.145 281.662 482.445 281.089 481.523 280.167 479.996 279.022 479.392 277.146 479.392 275.143 479.392 273.648 480.155 272.917 481.523 272.408 482.413 272.344 483.431 272.344 489.091L272.344 495.642 273.235 496.787C273.712 497.423 274.57 498.09 275.143 498.249 276.51 498.695 278.832 498.408 279.817 497.709ZM361.097 497.772C362.656 496.723 362.815 495.992 362.815 488.9 362.815 481.714 362.656 480.887 360.97 480.028 358.681 478.852 356.264 479.17 354.706 480.791L353.752 481.777 353.656 488.201C353.593 491.699 353.624 494.91 353.72 495.292 354.006 496.405 355.469 497.931 356.55 498.281 357.886 498.663 360.08 498.44 361.097 497.772ZM243.248 494.306 243.248 490.331 244.997 490.331 246.746 490.331 246.746 494.306 246.746 498.281 248.018 498.281 249.29 498.281 249.29 488.9 249.29 479.519 248.018 479.519 246.746 479.519 246.746 483.653 246.746 487.787 244.997 487.787 243.248 487.787 243.248 483.653 243.248 479.519 241.976 479.519 240.704 479.519 240.704 488.9 240.704 498.281 241.976 498.281 243.248 498.281 243.248 494.306ZM258.321 496.691C258.671 494.147 258.671 494.147 260.897 494.147L262.868 494.147 263.091 495.737C263.409 498.122 263.504 498.281 264.903 498.281 265.571 498.281 266.143 498.154 266.143 498.027 266.143 497.868 265.317 494.115 264.267 489.664 263.25 485.212 262.296 481.109 262.169 480.569 261.978 479.615 261.851 479.519 260.769 479.519L259.593 479.519 257.589 488.201C256.476 492.939 255.522 497.168 255.427 497.582 255.268 498.218 255.363 498.281 256.699 498.281L258.098 498.281 258.321 496.691ZM305.925 497.073 306.847 496.055 306.847 488.869 306.847 481.682 305.766 480.601 304.685 479.519 301.314 479.519 297.943 479.519 297.943 488.932 297.943 498.345 301.473 498.218 305.003 498.122 305.925 497.073ZM315.878 496.691C316.228 494.147 316.228 494.147 318.454 494.147L320.426 494.147 320.648 495.737C320.966 498.122 321.062 498.281 322.461 498.281 323.129 498.281 323.701 498.154 323.701 498.027 323.701 497.868 322.874 494.115 321.825 489.664 320.807 485.212 319.853 481.109 319.726 480.569 319.535 479.615 319.408 479.519 318.327 479.519L317.15 479.519 315.147 488.201C314.034 492.939 313.08 497.168 312.984 497.582 312.825 498.218 312.921 498.281 314.256 498.281L315.656 498.281 315.878 496.691ZM341.827 494.306 341.827 490.331 344.371 490.331 346.915 490.331 346.915 489.059 346.915 487.787 344.371 487.787 341.827 487.787 341.827 484.925 341.827 482.063 344.689 482.063 347.551 482.063 347.551 480.791 347.551 479.519 343.417 479.519 339.283 479.519 339.283 488.9 339.283 498.281 340.555 498.281 341.827 498.281 341.827 494.306ZM372.354 492.494C372.386 488.455 372.482 486.833 372.704 487.215 372.863 487.533 373.785 489.886 374.708 492.462 375.662 495.038 376.52 497.423 376.647 497.741 376.806 498.09 377.22 498.281 377.951 498.281L379.032 498.281 379.032 488.9 379.032 479.519 377.919 479.519 376.806 479.519 376.806 485.975C376.806 489.695 376.679 492.208 376.52 491.921 376.361 491.667 375.344 488.932 374.262 485.879 373.181 482.827 372.195 480.124 372.132 479.933 372.036 479.71 371.496 479.519 370.892 479.519L369.81 479.519 369.81 488.9 369.81 498.281 371.082 498.281 372.354 498.281 372.354 492.494ZM390.226 490.268 390.321 482.222 391.911 482.063C393.501 481.904 393.501 481.904 393.597 480.728L393.692 479.519 389.081 479.519 384.438 479.519 384.438 480.791 384.438 482.063 386.028 482.063 387.618 482.063 387.618 490.172 387.618 498.281 388.89 498.281 390.162 498.281 390.226 490.268ZM407.334 497.168 407.334 496.087 404.568 495.992 401.769 495.896 401.674 493.13 401.578 490.363 404.059 490.268 406.539 490.172 406.635 488.996 406.73 487.787 404.186 487.787 401.61 487.787 401.61 484.925 401.61 482.095 404.409 482 407.175 481.904 407.271 480.728 407.366 479.519 403.232 479.519 399.066 479.519 399.066 488.9 399.066 498.281 403.2 498.281 407.334 498.281 407.334 497.168ZM259.466 477.611C259.466 477.262 259.625 476.975 259.784 476.975 259.974 476.975 260.642 477.262 261.278 477.611 262.805 478.406 263.027 478.406 263.886 477.484 264.395 476.944 264.585 476.435 264.49 475.672 264.395 474.749 264.267 474.59 263.504 474.495 262.805 474.4 262.55 474.527 262.423 475.036 262.232 475.799 261.851 475.862 260.738 475.226 258.925 474.177 257.24 475.036 257.24 477.007 257.24 478.057 257.462 478.247 258.575 478.247 259.243 478.247 259.466 478.088 259.466 477.611ZM147.244 442.886C147.276 428.131 147.372 415.666 147.499 415.125L147.69 414.171 148.23 415.602C148.516 416.397 152.078 425.969 156.085 436.908 160.092 447.847 164.448 459.645 165.752 463.143L168.105 469.503 172.907 469.598 177.74 469.693 177.74 428.163 177.74 386.664 172.493 386.664 167.246 386.664 167.183 415.538 167.087 444.381 161.236 428.004C158.056 419.005 153.414 405.999 150.933 399.162L146.449 386.664 141.743 386.664 137.037 386.664 137.037 428.163 137.037 469.662 142.125 469.662 147.213 469.662 147.244 442.886ZM220.988 464.574 220.988 459.486 208.681 459.422 196.343 459.327 196.248 446.543 196.184 433.728 207.155 433.728 218.126 433.728 218.062 428.576 217.967 423.393 207.155 423.234 196.343 423.075 196.343 410.196 196.343 397.317 208.681 397.222 220.988 397.158 220.988 391.911 220.988 386.664 203.18 386.664 185.372 386.664 185.372 428.163 185.372 469.662 203.18 469.662 220.988 469.662 220.988 464.574ZM253.106 447.561C255.141 435.509 257.208 423.234 257.717 420.277 258.225 417.351 258.734 415.061 258.861 415.189 259.052 415.411 261.183 428.608 266.366 462.125L267.543 469.662 273.521 469.662C276.955 469.662 279.499 469.534 279.499 469.375 279.499 469.216 282.012 450.868 285.064 428.64 288.117 406.412 290.629 387.873 290.629 387.428L290.629 386.664 285.319 386.728 279.976 386.823 278.959 395.727C278.418 400.624 276.86 414.298 275.556 426.096 274.221 437.894 273.012 447.974 272.885 448.515 272.694 449.246 272.344 447.656 271.422 441.837 270.723 437.639 268.433 423.552 266.302 410.514L262.455 386.823 258.575 386.728C255.618 386.664 254.664 386.76 254.537 387.046 254.473 387.269 252.66 398.112 250.562 411.15 248.463 424.188 246.205 438.021 245.569 441.932 244.933 445.844 244.329 448.896 244.202 448.769 244.011 448.578 241.372 425.714 237.556 391.434L237.047 386.823 231.545 386.728 226.012 386.664 226.203 387.523C226.298 388.032 228.811 406.158 231.8 427.845 234.757 449.532 237.301 467.817 237.397 468.485L237.587 469.662 243.502 469.598 249.417 469.503 253.106 447.561ZM308.755 453.634 308.755 437.607 316.164 437.448C321.666 437.353 323.987 437.194 325.323 436.812 331.81 434.968 335.848 430.611 337.184 424.124 337.915 420.626 337.915 403.963 337.216 400.402 335.88 393.724 331.237 388.922 324.655 387.396 323.065 387.014 319.694 386.887 310.281 386.76L297.943 386.601 297.943 428.131 297.943 469.662 303.349 469.662 308.755 469.662 308.755 453.634ZM347.964 463.397C348.6 459.931 349.363 455.86 349.649 454.334L350.158 451.536 359.189 451.536 368.22 451.536 368.379 452.267C368.475 452.649 369.174 456.401 369.969 460.599 370.764 464.796 371.464 468.549 371.559 468.962 371.718 469.662 371.782 469.662 377.442 469.662 382.276 469.662 383.166 469.598 383.166 469.185 383.166 468.93 379.064 451.09 374.072 429.53 369.079 407.97 364.818 389.526 364.595 388.572L364.182 386.823 359.221 386.728C356.486 386.696 354.229 386.728 354.229 386.792 354.229 386.855 349.936 405.49 344.689 428.163 339.442 450.868 335.149 469.471 335.149 469.534 335.149 469.598 337.756 469.662 340.968 469.662L346.756 469.662 347.964 463.397ZM415.284 468.739C417.892 467.817 418.273 467.626 420.149 466.195 422.312 464.574 424.315 461.457 425.206 458.373L425.937 455.829 425.937 428.163C425.937 402.373 425.905 400.37 425.365 398.462 425.047 397.349 424.474 395.791 424.124 394.996 423.075 392.802 420.277 390.003 418.051 388.89 414.076 386.982 413.44 386.919 399.639 386.76L386.982 386.601 386.982 428.163 386.982 469.693 400.116 469.598C412.835 469.471 413.281 469.439 415.284 468.739ZM469.344 464.574 469.344 459.486 456.942 459.486 444.54 459.486 444.54 446.607 444.54 433.728 455.511 433.728 466.482 433.728 466.482 428.481 466.482 423.234 455.511 423.234 444.54 423.234 444.54 410.196 444.54 397.158 456.942 397.158 469.344 397.158 469.344 391.911 469.344 386.664 451.536 386.664 433.728 386.664 433.728 428.163 433.728 469.662 451.536 469.662 469.344 469.662 469.344 464.574ZM508.457 464.574 508.457 459.486 496.691 459.486 484.925 459.486 484.925 423.075 484.925 386.664 479.519 386.664 474.113 386.664 474.113 428.163 474.113 469.662 491.285 469.662 508.457 469.662 508.457 464.574ZM518.124 407.302C519.778 406.857 521.94 404.79 522.385 403.264 522.862 401.642 522.862 394.392 522.385 392.992 521.781 391.243 520.827 390.194 519.015 389.304 517.584 388.604 516.82 388.445 514.849 388.445 510.779 388.445 508.362 390.067 507.344 393.406 506.708 395.6 506.708 400.656 507.376 402.914 507.948 404.886 509.634 406.698 511.351 407.239 512.782 407.684 516.566 407.748 518.124 407.302ZM409.242 354.229C419.513 346.565 430.516 336.453 437.226 328.471 438.18 327.326 439.038 326.34 439.166 326.245 439.261 326.15 440.501 324.655 441.9 322.906 452.044 310.186 461.203 294.604 466.482 281.089 467.054 279.595 467.722 277.941 467.976 277.369 468.199 276.828 468.39 276.192 468.39 275.938 468.39 275.683 468.517 275.365 468.676 275.206 468.994 274.857 470.616 269.959 471.569 266.461 471.951 265.158 472.523 263.091 472.841 261.851 473.795 258.48 475.576 249.353 476.308 244.361 479.106 224.836 478.184 205.152 473.509 185.595 467.754 161.523 455.383 137.577 439.07 118.816 431.82 110.516 420.308 99.8947 411.309 93.185 409.401 91.754 407.461 90.2912 407.016 89.9732 406.571 89.6234 406.062 89.3372 405.84 89.3372 405.649 89.3372 405.426 89.21 405.363 89.0828 405.235 88.7648 398.621 84.3129 397.858 84.0267 397.572 83.8995 396.331 83.1999 395.155 82.4049 393.946 81.6417 392.865 81.1011 392.77 81.2283 392.643 81.3555 392.77 81.6099 393.056 81.8325 393.597 82.2141 394.296 82.7547 399.034 86.6024 408.384 94.1708 418.241 104.06 425.015 112.71 441.932 134.27 452.935 156.339 459.168 181.207 461.33 189.888 462.411 196.248 463.365 206.201 463.906 212.02 463.906 237.079 463.365 242.135 459.613 275.652 446.798 307.006 426.287 332.764 420.213 340.396 413.281 347.741 402.882 357.568L398.589 361.606 401.928 359.38C403.773 358.172 407.048 355.85 409.242 354.229ZM233.231 358.299C217.458 343.767 207.123 331.842 198.188 317.818 185.499 297.911 177.327 276.701 173.32 253.106 171.444 242.103 171.221 239.464 171.221 225.599 171.253 203.625 172.652 192.4 177.581 175.355 178.79 171.158 181.207 163.78 181.874 162.317 182.161 161.618 182.542 160.696 182.638 160.251 182.765 159.805 183.051 159.042 183.305 158.502 183.528 157.993 184.323 156.117 185.054 154.368 187.916 147.721 193.418 137.196 197.329 130.963 198.283 129.468 199.046 128.069 199.046 127.878 199.046 127.688 199.142 127.497 199.301 127.433 199.619 127.306 204.77 119.897 204.77 119.547 204.77 119.42 204.993 119.229 205.247 119.102 205.501 119.006 205.724 118.72 205.724 118.434 205.724 118.18 205.819 117.957 205.978 117.957 206.106 117.957 206.551 117.448 206.964 116.844 207.378 116.24 207.95 115.445 208.236 115.095 208.522 114.745 208.999 114.141 209.286 113.728 211.035 111.406 215.296 106.445 218.635 102.852 224.073 97.0009 228.938 92.549 238.255 84.9171 240.64 82.9455 242.612 81.2919 242.612 81.1965 242.612 80.4969 230.56 88.1924 224.168 92.9624 213.197 101.167 201.272 112.424 192.845 122.568 186.135 130.613 177.518 144.128 172.97 153.732 157.261 186.93 153.286 220.606 160.918 256.286 168.232 290.438 188.902 323.701 217.649 347.678 223.246 352.321 235.425 361.225 236.22 361.225 236.315 361.225 234.98 359.921 233.231 358.299ZM278.386 324.623C282.934 322.938 285.414 317.468 283.665 312.921 282.87 310.822 281.63 309.264 279.945 308.278 278.45 307.388 277.973 307.26 275.652 306.943 270.945 306.37 266.302 310.313 265.889 315.274 265.349 322.175 271.867 327.072 278.386 324.623ZM306.688 324.623C311.235 322.938 313.716 317.468 311.967 312.921 311.172 310.822 309.932 309.264 308.246 308.278 306.752 307.388 306.275 307.26 303.953 306.943 299.247 306.37 294.604 310.313 294.191 315.274 293.65 322.175 300.169 327.072 306.688 324.623ZM334.354 324.623C338.901 322.938 341.382 317.468 339.633 312.921 338.838 310.822 337.597 309.264 335.912 308.278 334.417 307.388 333.94 307.26 331.619 306.943 326.913 306.37 322.27 310.313 321.857 315.274 321.316 322.175 327.835 327.072 334.354 324.623ZM361.702 324.623C366.249 322.938 368.729 317.468 366.98 312.921 366.185 310.822 364.945 309.264 363.26 308.278 361.765 307.388 361.288 307.26 358.967 306.943 354.26 306.37 349.618 310.313 349.204 315.274 348.664 322.175 355.183 327.072 361.702 324.623ZM250.403 298.229C254.95 296.544 257.43 291.074 255.681 286.527 254.855 284.301 253.551 282.743 251.706 281.789 249.926 280.899 249.798 280.867 247.668 280.581 242.962 279.945 238.319 283.888 237.905 288.88 237.365 295.781 243.884 300.678 250.403 298.229ZM278.386 298.229C282.934 296.544 285.414 291.074 283.665 286.527 282.838 284.301 281.535 282.743 279.69 281.789 277.909 280.899 277.782 280.867 275.652 280.581 270.945 279.945 266.302 283.888 265.889 288.88 265.349 295.781 271.867 300.678 278.386 298.229ZM306.688 298.229C311.235 296.544 313.716 291.074 311.967 286.527 311.14 284.301 309.836 282.743 307.992 281.789 306.211 280.899 306.084 280.867 303.953 280.581 299.247 279.945 294.604 283.888 294.191 288.88 293.65 295.781 300.169 300.678 306.688 298.229ZM334.354 298.229C338.901 296.544 341.382 291.074 339.633 286.527 338.806 284.301 337.502 282.743 335.658 281.789 333.877 280.899 333.75 280.867 331.619 280.581 326.913 279.945 322.27 283.888 321.857 288.88 321.316 295.781 327.835 300.678 334.354 298.229ZM361.702 298.229C366.249 296.544 368.729 291.074 366.98 286.527 366.154 284.301 364.85 282.743 363.005 281.789 361.225 280.899 361.097 280.867 358.967 280.581 354.26 279.945 349.618 283.888 349.204 288.88 348.664 295.781 355.183 300.678 361.702 298.229ZM389.367 298.229C393.915 296.544 396.395 291.074 394.646 286.527 393.819 284.301 392.515 282.743 390.671 281.789 388.89 280.899 388.763 280.867 386.633 280.581 381.926 279.945 377.283 283.888 376.87 288.88 376.329 295.781 382.848 300.678 389.367 298.229ZM250.403 270.564C254.95 268.878 257.43 263.409 255.681 258.861 254.886 256.763 253.646 255.204 251.961 254.219 250.466 253.328 249.989 253.201 247.668 252.883 242.962 252.311 238.319 256.254 237.905 261.215 237.365 268.115 243.884 273.012 250.403 270.564ZM278.386 270.564C282.934 268.878 285.414 263.409 283.665 258.861 282.87 256.763 281.63 255.204 279.945 254.219 278.45 253.328 277.973 253.201 275.652 252.883 270.945 252.311 266.302 256.254 265.889 261.215 265.349 268.115 271.867 273.012 278.386 270.564ZM306.688 270.564C311.235 268.878 313.716 263.409 311.967 258.861 311.172 256.763 309.932 255.204 308.246 254.219 306.752 253.328 306.275 253.201 303.953 252.883 299.247 252.311 294.604 256.254 294.191 261.215 293.65 268.115 300.169 273.012 306.688 270.564ZM334.354 270.564C338.901 268.878 341.382 263.409 339.633 258.861 338.838 256.763 337.597 255.204 335.912 254.219 334.417 253.328 333.94 253.201 331.619 252.883 326.913 252.311 322.27 256.254 321.857 261.215 321.316 268.115 327.835 273.012 334.354 270.564ZM361.702 270.564C366.249 268.878 368.729 263.409 366.98 258.861 366.185 256.763 364.945 255.204 363.26 254.219 361.765 253.328 361.288 253.201 358.967 252.883 354.26 252.311 349.618 256.254 349.204 261.215 348.664 268.115 355.183 273.012 361.702 270.564ZM389.367 270.564C393.915 268.878 396.395 263.409 394.646 258.861 393.851 256.763 392.611 255.204 390.925 254.219 389.431 253.328 388.954 253.201 386.633 252.883 381.926 252.311 377.283 256.254 376.87 261.215 376.329 268.115 382.848 273.012 389.367 270.564ZM417.033 270.564C421.58 268.878 424.061 263.409 422.312 258.861 421.517 256.763 420.277 255.204 418.591 254.219 417.097 253.328 416.62 253.201 414.298 252.883 409.592 252.311 404.949 256.254 404.536 261.215 403.995 268.115 410.514 273.012 417.033 270.564ZM223.055 270.246C227.602 268.56 230.083 263.091 228.334 258.543 227.539 256.445 226.298 254.886 224.613 253.901 223.119 253.01 222.642 252.883 220.32 252.565 215.614 251.993 210.971 255.936 210.558 260.897 210.017 267.797 216.536 272.694 223.055 270.246ZM250.339 244.202C251.834 243.629 253.424 242.421 254.632 240.895 255.363 239.972 256.286 236.983 256.286 235.552 256.286 232.15 254.6 229.192 251.675 227.443 249.926 226.394 249.544 226.298 247.223 226.267 245.156 226.235 244.392 226.362 243.121 226.998 240.036 228.524 238.192 231.196 237.905 234.566 237.365 241.562 243.852 246.618 250.339 244.202ZM278.323 244.202C279.817 243.629 281.407 242.421 282.616 240.895 283.347 239.972 284.269 236.983 284.269 235.552 284.269 232.15 282.584 229.192 279.658 227.443 277.909 226.394 277.528 226.298 275.206 226.267 273.139 226.235 272.376 226.362 271.104 226.998 268.02 228.524 266.175 231.196 265.889 234.566 265.349 241.562 271.836 246.618 278.323 244.202ZM306.624 244.202C308.119 243.629 309.709 242.421 310.917 240.895 311.649 239.972 312.571 236.983 312.571 235.552 312.571 232.15 310.886 229.192 307.96 227.443 306.211 226.394 305.829 226.298 303.508 226.267 301.441 226.235 300.678 226.362 299.406 226.998 296.321 228.524 294.477 231.196 294.191 234.566 293.65 241.562 300.137 246.618 306.624 244.202ZM334.29 244.202C335.785 243.629 337.375 242.421 338.583 240.895 339.315 239.972 340.237 236.983 340.237 235.552 340.237 232.15 338.551 229.192 335.626 227.443 333.877 226.394 333.495 226.298 331.174 226.267 329.107 226.235 328.344 226.362 327.072 226.998 323.987 228.524 322.143 231.196 321.857 234.566 321.316 241.562 327.803 246.618 334.29 244.202ZM361.638 244.202C363.133 243.629 364.723 242.421 365.931 240.895 366.662 239.972 367.585 236.983 367.585 235.552 367.585 232.15 365.899 229.192 362.974 227.443 361.225 226.394 360.843 226.298 358.522 226.267 356.455 226.235 355.691 226.362 354.419 226.998 351.335 228.524 349.49 231.196 349.204 234.566 348.664 241.562 355.151 246.618 361.638 244.202ZM389.304 244.202C390.798 243.629 392.388 242.421 393.597 240.895 394.328 239.972 395.25 236.983 395.25 235.552 395.25 232.15 393.565 229.192 390.639 227.443 388.89 226.394 388.509 226.298 386.187 226.267 384.12 226.235 383.357 226.362 382.085 226.998 379.001 228.524 377.156 231.196 376.87 234.566 376.329 241.562 382.817 246.618 389.304 244.202ZM416.969 244.202C418.464 243.629 420.054 242.421 421.262 240.895 421.994 239.972 422.916 236.983 422.916 235.552 422.916 232.15 421.231 229.192 418.305 227.443 416.556 226.394 416.174 226.298 413.853 226.267 411.786 226.235 411.023 226.362 409.751 226.998 406.666 228.524 404.822 231.196 404.536 234.566 403.995 241.562 410.482 246.618 416.969 244.202ZM223.055 243.852C227.602 242.167 230.083 236.697 228.334 232.15 227.475 229.892 226.235 228.429 224.263 227.38 218.253 224.104 211.098 227.825 210.558 234.503 210.017 241.403 216.536 246.3 223.055 243.852ZM223.055 216.504C227.602 214.819 230.083 209.349 228.334 204.802 227.539 202.703 226.298 201.145 224.613 200.159 223.119 199.269 222.642 199.142 220.32 198.824 215.614 198.251 210.971 202.194 210.558 207.155 210.017 214.056 216.536 218.953 223.055 216.504ZM250.403 216.504C254.95 214.819 257.43 209.349 255.681 204.802 254.886 202.703 253.646 201.145 251.961 200.159 250.466 199.269 249.989 199.142 247.668 198.824 242.962 198.251 238.319 202.194 237.905 207.155 237.365 214.056 243.884 218.953 250.403 216.504ZM278.386 216.504C282.934 214.819 285.414 209.349 283.665 204.802 282.87 202.703 281.63 201.145 279.945 200.159 278.45 199.269 277.973 199.142 275.652 198.824 270.945 198.251 266.302 202.194 265.889 207.155 265.349 214.056 271.867 218.953 278.386 216.504ZM306.688 216.504C311.235 214.819 313.716 209.349 311.967 204.802 311.172 202.703 309.932 201.145 308.246 200.159 306.752 199.269 306.275 199.142 303.953 198.824 299.247 198.251 294.604 202.194 294.191 207.155 293.65 214.056 300.169 218.953 306.688 216.504ZM334.354 216.504C338.901 214.819 341.382 209.349 339.633 204.802 338.838 202.703 337.597 201.145 335.912 200.159 334.417 199.269 333.94 199.142 331.619 198.824 326.913 198.251 322.27 202.194 321.857 207.155 321.316 214.056 327.835 218.953 334.354 216.504ZM361.702 216.504C366.249 214.819 368.729 209.349 366.98 204.802 366.185 202.703 364.945 201.145 363.26 200.159 361.765 199.269 361.288 199.142 358.967 198.824 354.26 198.251 349.618 202.194 349.204 207.155 348.664 214.056 355.183 218.953 361.702 216.504ZM389.367 216.504C393.915 214.819 396.395 209.349 394.646 204.802 393.851 202.703 392.611 201.145 390.925 200.159 389.431 199.269 388.954 199.142 386.633 198.824 381.926 198.251 377.283 202.194 376.87 207.155 376.329 214.056 382.848 218.953 389.367 216.504ZM417.033 216.504C421.58 214.819 424.061 209.349 422.312 204.802 421.517 202.703 420.277 201.145 418.591 200.159 417.097 199.269 416.62 199.142 414.298 198.824 409.592 198.251 404.949 202.194 404.536 207.155 403.995 214.056 410.514 218.953 417.033 216.504ZM223.055 190.11C227.602 188.425 230.083 182.956 228.334 178.408 227.475 176.15 226.235 174.688 224.263 173.638 218.253 170.363 211.098 174.083 210.558 180.761 210.017 187.662 216.536 192.559 223.055 190.11ZM250.403 190.11C254.95 188.425 257.43 182.956 255.681 178.408 254.823 176.15 253.583 174.688 251.611 173.638 245.601 170.363 238.446 174.083 237.905 180.761 237.365 187.662 243.884 192.559 250.403 190.11ZM278.386 190.11C282.934 188.425 285.414 182.956 283.665 178.408 282.807 176.15 281.566 174.688 279.595 173.638 273.585 170.363 266.43 174.083 265.889 180.761 265.349 187.662 271.867 192.559 278.386 190.11ZM306.688 190.11C311.235 188.425 313.716 182.956 311.967 178.408 311.108 176.15 309.868 174.688 307.896 173.638 301.886 170.363 294.731 174.083 294.191 180.761 293.65 187.662 300.169 192.559 306.688 190.11ZM334.354 190.11C338.901 188.425 341.382 182.956 339.633 178.408 338.774 176.15 337.534 174.688 335.562 173.638 329.552 170.363 322.397 174.083 321.857 180.761 321.316 187.662 327.835 192.559 334.354 190.11ZM361.702 190.11C366.249 188.425 368.729 182.956 366.98 178.408 366.122 176.15 364.882 174.688 362.91 173.638 356.9 170.363 349.745 174.083 349.204 180.761 348.664 187.662 355.183 192.559 361.702 190.11ZM389.367 190.11C393.915 188.425 396.395 182.956 394.646 178.408 393.787 176.15 392.547 174.688 390.576 173.638 384.566 170.363 377.411 174.083 376.87 180.761 376.329 187.662 382.848 192.559 389.367 190.11ZM417.033 190.11C421.58 188.425 424.061 182.956 422.312 178.408 421.453 176.15 420.213 174.688 418.241 173.638 412.231 170.363 405.076 174.083 404.536 180.761 403.995 187.662 410.514 192.559 417.033 190.11ZM250.403 162.127C254.95 160.441 257.43 154.972 255.681 150.424 254.823 148.167 253.583 146.704 251.611 145.654 245.601 142.379 238.446 146.1 237.905 152.778 237.365 159.678 243.884 164.575 250.403 162.127ZM278.386 162.127C282.934 160.441 285.414 154.972 283.665 150.424 282.87 148.326 281.63 146.767 279.945 145.782 278.45 144.891 277.973 144.764 275.652 144.446 270.945 143.874 266.302 147.817 265.889 152.778 265.349 159.678 271.867 164.575 278.386 162.127ZM306.688 162.127C311.235 160.441 313.716 154.972 311.967 150.424 311.172 148.326 309.932 146.767 308.246 145.782 306.752 144.891 306.275 144.764 303.953 144.446 299.247 143.874 294.604 147.817 294.191 152.778 293.65 159.678 300.169 164.575 306.688 162.127ZM334.354 162.127C338.901 160.441 341.382 154.972 339.633 150.424 338.838 148.326 337.597 146.767 335.912 145.782 334.417 144.891 333.94 144.764 331.619 144.446 326.913 143.874 322.27 147.817 321.857 152.778 321.316 159.678 327.835 164.575 334.354 162.127ZM361.702 162.127C366.249 160.441 368.729 154.972 366.98 150.424 366.185 148.326 364.945 146.767 363.26 145.782 361.765 144.891 361.288 144.764 358.967 144.446 354.26 143.874 349.618 147.817 349.204 152.778 348.664 159.678 355.183 164.575 361.702 162.127ZM389.367 162.127C393.915 160.441 396.395 154.972 394.646 150.424 393.787 148.167 392.547 146.704 390.576 145.654 384.566 142.379 377.411 146.1 376.87 152.778 376.329 159.678 382.848 164.575 389.367 162.127ZM278.386 135.733C282.934 134.048 285.414 128.578 283.665 124.031 282.807 121.773 281.566 120.31 279.595 119.261 273.585 115.985 266.43 119.706 265.889 126.384 265.349 133.284 271.867 138.182 278.386 135.733ZM306.688 135.733C311.235 134.048 313.716 128.578 311.967 124.031 311.108 121.773 309.868 120.31 307.896 119.261 301.886 115.985 294.731 119.706 294.191 126.384 293.65 133.284 300.169 138.182 306.688 135.733ZM334.354 135.733C338.901 134.048 341.382 128.578 339.633 124.031 338.774 121.773 337.534 120.31 335.562 119.261 329.552 115.985 322.397 119.706 321.857 126.384 321.316 133.284 327.835 138.182 334.354 135.733ZM361.702 135.733C366.249 134.048 368.729 128.578 366.98 124.031 366.122 121.773 364.882 120.31 362.91 119.261 356.9 115.985 349.745 119.706 349.204 126.384 348.664 133.284 355.183 138.182 361.702 135.733Z" fill="#FFFFFF"/><path d="M275.938 495.833C275.016 495.61 274.729 493.893 274.729 488.678 274.729 482.604 275.016 481.777 277.051 481.745 277.528 481.745 278.196 482.032 278.545 482.381 279.15 482.986 279.181 483.431 279.181 488.9 279.181 494.37 279.15 494.815 278.545 495.419 277.941 496.023 277.146 496.151 275.938 495.833Z" fill="#FFFFFF"/><path d="M356.836 495.546C356.168 495.069 356.137 494.91 356.137 489.028 356.137 483.431 356.168 482.986 356.773 482.381 357.568 481.586 359.062 481.555 359.73 482.318 360.207 482.827 360.271 483.781 360.271 488.996 360.271 494.91 360.239 495.069 359.571 495.546 359.189 495.833 358.553 496.055 358.204 496.055 357.854 496.055 357.218 495.833 356.836 495.546Z" fill="#FFFFFF"/><path d="M259.656 489.632C259.911 488.36 260.197 486.77 260.292 486.102 260.642 484.099 260.96 484.48 261.533 487.565 261.819 489.155 262.137 490.808 262.232 491.222 262.391 491.89 262.296 491.921 260.801 491.921L259.211 491.921 259.656 489.632Z" fill="#FFFFFF"/><path d="M300.71 495.833C300.583 495.737 300.487 492.557 300.487 488.837L300.487 482.032 302.332 482.127 304.144 482.222 304.24 488.741C304.303 494.592 304.271 495.292 303.763 495.642 303.19 496.087 301.06 496.214 300.71 495.833Z" fill="#FFFFFF"/><path d="M317.214 489.632C317.468 488.36 317.754 486.77 317.85 486.102 318.2 484.099 318.518 484.48 319.09 487.565 319.376 489.155 319.694 490.808 319.79 491.222 319.949 491.89 319.853 491.921 318.359 491.921L316.769 491.921 317.214 489.632Z" fill="#FFFFFF"/><path d="M308.755 412.263 308.755 397.158 315.051 397.158C322.175 397.158 323.224 397.413 324.814 399.511 326.436 401.642 326.531 402.31 326.563 412.136 326.563 422.63 326.436 423.329 324.21 425.396 322.397 427.082 320.871 427.368 314.161 427.368L308.755 427.368 308.755 412.263Z" fill="#FFFFFF"/><path d="M352.193 440.819C352.321 440.342 356.009 420.976 358.585 407.366 359.126 404.504 359.348 404.504 359.889 407.493 360.716 412.04 366.026 439.992 366.154 440.66L366.313 441.36 359.189 441.36C352.575 441.36 352.066 441.328 352.193 440.819Z" fill="#FFFFFF"/><path d="M397.794 428.354 397.794 397.158 404.25 397.158C410.292 397.158 410.768 397.19 412.104 397.89 413.122 398.367 413.758 399.003 414.33 400.02L415.125 401.451 415.125 428.004C415.125 456.401 415.157 455.733 413.567 457.514 412.104 459.168 411.436 459.327 404.409 459.422L397.794 459.549 397.794 428.354Z" fill="#FFFFFF"/><path d="M512.75 405.204C511.701 404.917 510.397 403.836 509.856 402.819 509.475 402.055 509.379 401.006 509.475 397.699 509.57 394.105 509.666 393.374 510.206 392.643 511.16 391.339 512.782 390.671 514.976 390.671 517.202 390.671 518.569 391.275 519.651 392.77 520.318 393.756 520.382 394.137 520.382 398.112 520.382 401.896 520.318 402.501 519.746 403.264 518.474 405.013 515.39 405.84 512.75 405.204ZM514.181 401.451C514.181 400.656 514.34 400.02 514.499 400.02 514.69 400.02 515.135 400.656 515.517 401.451 516.153 402.787 516.312 402.882 517.425 402.882 518.092 402.882 518.633 402.787 518.633 402.691 518.633 402.564 518.251 401.801 517.806 400.974L516.979 399.448 517.647 398.716C518.124 398.208 518.315 397.572 518.315 396.618 518.315 394.042 516.916 393.024 513.323 393.024L511.637 393.024 511.637 397.953 511.637 402.882 512.909 402.882 514.181 402.882 514.181 401.451Z" fill="#FFFFFF"/><path d="M514.181 396.586C514.181 395.187 514.722 394.741 515.612 395.377 515.962 395.632 516.121 396.077 516.026 396.681 515.962 397.444 515.771 397.667 515.072 397.731 514.245 397.826 514.181 397.762 514.181 396.586Z" fill="#FFFFFF"/></g></g></g></g></g><g clip-path="url(#clip7)"><g clip-path="url(#clip8)"><g clip-path="url(#clip9)"><path d="M310.082 596.369C267.246 595.34 224.254 584.615 185.845 565.38 132.004 538.412 87.7652 496.106 58.3349 443.325 54.6873 436.809 49.1691 425.648 45.9268 418.228 34.298 391.635 26.7534 363.982 23.2929 335.144 21.6405 321.457 21.3911 317.155 21.3911 299.135 21.3911 281.116 21.6405 276.813 23.2929 263.127 29.7152 209.722 50.3849 159.591 83.5252 116.817 98.6145 97.3632 116.759 79.2186 136.182 64.1606 170.631 37.4738 209.758 18.9239 251.939 9.22815 276.443 3.61644 300.387 1.27822 326.918 1.90175 382.505 3.24232 436.907 20.5763 483.734 51.846 510.14 69.4917 534.052 91.7515 553.475 116.817 586.646 159.653 607.285 209.722 613.707 263.127 616.544 286.509 616.544 311.762 613.707 335.144 607.285 388.517 586.615 438.68 553.475 481.454 536.234 503.651 515.222 523.947 492.307 540.47 443.953 575.356 386.059 594.935 326.918 596.338 322.303 596.462 314.728 596.462 310.082 596.369ZM334.867 587.671C390.517 584.273 441.926 566.19 486.415 534.359 508.986 518.179 529.937 498.039 546.99 476.06 580.692 432.632 601.299 380.412 606.256 325.791 607.098 316.438 607.347 310.483 607.347 299.135 607.347 287.787 607.098 281.833 606.256 272.48 601.268 217.797 580.723 165.67 546.928 122.117 532.306 103.255 514.349 85.3292 495.425 70.6452 449.159 34.7614 394.289 14.2163 334.867 10.5999 328.227 10.1946 308.773 10.1946 302.133 10.5999 246.421 13.9981 195.261 32.0179 150.46 64.0047 128.107 79.998 107.032 100.294 90.0099 122.211 56.2772 165.67 35.7322 217.828 30.744 272.48 29.2163 289.408 29.2163 308.862 30.744 325.791 35.358 376.577 53.5649 425.524 83.2758 467.05 99.4251 489.591 119.596 510.572 141.482 527.563 187.622 563.353 242.524 583.992 301.353 587.64 307.339 588.014 328.944 588.014 334.867 587.671Z" fill="#FFFFFF"/><path d="M306.653 574.359C266.997 572.426 231.269 563.322 196.913 546.362 160.624 528.436 130.165 504.025 104.133 472.007 74.7647 435.874 54.6873 391.51 46.9867 345.588 44.0874 328.285 43.0586 314.755 43.2144 296.174 43.3391 281.334 43.9315 273.134 45.8644 259.697 51.1955 222.473 63.9154 187.182 83.4629 155.351 104.32 121.369 132.815 91.8138 165.893 69.8346 185.347 56.8965 205.518 46.8266 227.466 39.1261 265.282 25.845 306.248 21.0439 346.87 25.0968 387.43 29.1809 427.398 42.6802 462.284 64.0982 496.266 84.9551 525.822 113.45 547.801 146.528 560.739 165.982 570.809 186.153 578.509 208.101 588.829 237.469 594.16 269.362 593.91 300.227 593.817 311.45 592.975 325.074 591.915 332.525 591.853 333.055 591.51 335.643 591.136 338.293 589.047 354.161 585.087 370.872 579.569 387.27 578.385 390.793 577.2 394.191 576.95 394.815 576.67 395.439 576.452 396.031 576.452 396.156 576.42 396.311 576.265 396.686 576.077 397.029 575.89 397.371 575.703 397.714 575.703 397.808 575.672 397.901 575.485 398.4 575.267 398.899 575.049 399.429 574.83 399.99 574.799 400.146 574.768 400.333 574.581 400.738 574.394 401.081 574.207 401.424 574.02 401.798 574.02 401.923 573.958 402.173 573.989 402.11 571.339 408.564 569.125 413.988 562.765 426.926 559.211 433.255 554.784 441.174 546.055 455.016 544.558 456.513 544.278 456.762 544.06 457.136 544.06 457.323 544.06 457.51 543.935 457.666 543.748 457.666 543.592 457.666 543.436 457.853 543.436 458.071 543.436 458.29 543.093 458.82 542.657 459.287 542.22 459.755 541.877 460.254 541.877 460.41 541.877 460.597 541.659 460.784 541.41 460.908 541.16 461.002 540.942 461.283 540.942 461.532 540.942 461.781 540.848 462.031 540.693 462.093 540.568 462.156 538.884 464.244 536.92 466.801 529.033 477.027 521.737 485.351 512.229 494.828 483.297 523.635 448.473 545.458 409.534 559.145 384.843 567.812 358.967 572.862 332.062 574.265 326.606 574.546 311.517 574.608 306.653 574.359ZM316.567 534.204C320.745 532.24 322.272 528.561 322.023 521.016 321.929 517.337 321.836 516.87 320.994 515.217 319.809 512.848 317.783 511.071 314.229 509.263 307.557 505.833 306.996 505.147 307.183 500.814 307.245 498.663 307.401 498.102 307.931 497.572 309.365 496.106 312.202 496.262 313.325 497.852 313.824 498.538 313.979 499.224 313.979 500.814L313.979 502.872 317.908 502.872 321.867 502.872 321.711 499.629C321.586 496.917 321.431 496.106 320.714 494.641 320.246 493.675 319.342 492.396 318.749 491.804 314.634 487.813 306.404 487.969 302.288 492.085 300.324 494.049 299.638 495.982 299.42 500.066 299.046 507.143 300.917 510.479 307.214 513.97 308.96 514.968 310.987 516.09 311.735 516.496 313.979 517.774 314.322 518.647 314.229 522.606 314.135 526.004 314.135 526.004 313.107 526.908 311.704 528.187 309.74 528.187 308.305 526.908 307.37 526.098 307.277 525.817 307.183 523.791L307.058 521.577 303.161 521.577 299.233 521.577 299.389 524.477C299.67 529.465 301.54 532.645 305.125 534.359 308.087 535.731 313.512 535.669 316.567 534.204ZM398.373 534.64C400.712 533.736 402.8 531.647 403.798 529.184L404.546 527.345 404.64 508.421 404.733 489.466 400.836 489.466 396.908 489.466 396.846 507.704 396.752 525.942 395.91 526.753C395.287 527.376 394.788 527.594 393.79 527.594 392.793 527.594 392.294 527.376 391.67 526.753L390.829 525.942 390.735 507.704 390.673 489.466 386.745 489.466 382.848 489.466 382.941 508.421 383.035 527.345 383.783 529.184C384.749 531.585 386.215 533.175 388.553 534.359 390.299 535.201 390.735 535.295 393.51 535.295 395.879 535.295 396.97 535.139 398.373 534.64ZM249.382 512.474C251.658 500.066 253.529 489.84 253.498 489.715 253.498 489.559 251.689 489.466 249.445 489.466 245.517 489.466 245.392 489.497 245.267 490.183 245.174 490.557 244.238 497.229 243.147 504.992 242.087 512.723 241.09 519.083 240.965 519.083 240.84 519.083 240.715 518.865 240.715 518.616 240.715 518.023 237.037 491.523 236.787 490.339L236.6 489.466 232.578 489.466C229.586 489.466 228.557 489.559 228.557 489.871 228.557 490.058 230.396 500.315 232.672 512.63L236.787 534.983 241.027 534.983 245.236 534.983 249.382 512.474ZM279.374 512.224 279.374 489.466 275.477 489.466 271.58 489.466 271.58 512.224 271.58 534.983 275.477 534.983 279.374 534.983 279.374 512.224ZM363.55 531.242 363.55 527.501 357.408 527.438 351.235 527.345 351.141 521.671 351.079 515.966 356.535 515.966 361.991 515.966 361.991 512.224 361.991 508.483 356.535 508.483 351.079 508.483 351.079 502.716 351.079 496.948 357.314 496.948 363.55 496.948 363.55 493.207 363.55 489.466 353.417 489.466 343.285 489.466 343.285 512.224 343.285 534.983 353.417 534.983 363.55 534.983 363.55 531.242ZM234.948 480.3C236.039 479.583 236.569 478.617 236.818 476.933L237.037 475.437 235.79 475.437C234.574 475.437 234.511 475.499 234.293 476.528 234.044 477.899 233.42 478.554 232.454 478.554 230.957 478.554 230.739 477.681 230.739 471.477 230.739 466.177 230.77 465.741 231.363 465.148 232.578 463.933 233.981 464.587 234.356 466.551 234.543 467.58 234.636 467.643 235.79 467.643L237.037 467.643 236.818 466.333C236.32 463.403 235.073 462.218 232.391 462.218 230.895 462.218 230.614 462.311 229.554 463.371L228.401 464.525 228.307 471.165C228.214 477.65 228.214 477.806 228.931 478.866 230.334 480.955 232.984 481.578 234.948 480.3ZM281.556 480.175C283.209 478.959 283.427 477.993 283.427 471.384 283.427 465.897 283.364 465.211 282.803 464.307 281.899 462.81 280.777 462.218 278.937 462.218 276.973 462.218 275.508 462.966 274.791 464.307 274.292 465.18 274.23 466.177 274.23 471.727L274.23 478.149 275.103 479.271C275.57 479.895 276.412 480.549 276.973 480.705 278.314 481.142 280.59 480.861 281.556 480.175ZM361.243 480.238C362.77 479.209 362.926 478.492 362.926 471.54 362.926 464.494 362.77 463.683 361.118 462.841 358.873 461.688 356.504 462 354.976 463.59L354.041 464.556 353.947 470.854C353.885 474.283 353.916 477.432 354.01 477.806 354.29 478.897 355.724 480.394 356.784 480.737 358.094 481.111 360.245 480.892 361.243 480.238ZM245.704 476.839 245.704 472.942 247.418 472.942 249.133 472.942 249.133 476.839 249.133 480.737 250.38 480.737 251.627 480.737 251.627 471.54 251.627 462.343 250.38 462.343 249.133 462.343 249.133 466.395 249.133 470.448 247.418 470.448 245.704 470.448 245.704 466.395 245.704 462.343 244.457 462.343 243.21 462.343 243.21 471.54 243.21 480.737 244.457 480.737 245.704 480.737 245.704 476.839ZM260.481 479.178C260.824 476.684 260.824 476.684 263.006 476.684L264.939 476.684 265.158 478.242C265.469 480.581 265.563 480.737 266.935 480.737 267.589 480.737 268.15 480.612 268.15 480.487 268.15 480.331 267.34 476.652 266.311 472.288 265.313 467.923 264.378 463.901 264.253 463.371 264.066 462.436 263.942 462.343 262.882 462.343L261.728 462.343 259.764 470.854C258.673 475.499 257.738 479.645 257.644 480.051 257.488 480.674 257.582 480.737 258.891 480.737L260.263 480.737 260.481 479.178ZM307.152 479.552 308.056 478.554 308.056 471.508 308.056 464.463 306.996 463.403 305.936 462.343 302.631 462.343 299.327 462.343 299.327 471.571 299.327 480.799 302.787 480.674 306.248 480.581 307.152 479.552ZM316.91 479.178C317.253 476.684 317.253 476.684 319.435 476.684L321.368 476.684 321.586 478.242C321.898 480.581 321.992 480.737 323.363 480.737 324.018 480.737 324.579 480.612 324.579 480.487 324.579 480.331 323.769 476.652 322.74 472.288 321.742 467.923 320.807 463.901 320.682 463.371 320.495 462.436 320.371 462.343 319.311 462.343L318.157 462.343 316.193 470.854C315.102 475.499 314.167 479.645 314.073 480.051 313.917 480.674 314.011 480.737 315.32 480.737L316.692 480.737 316.91 479.178ZM342.35 476.839 342.35 472.942 344.844 472.942 347.338 472.942 347.338 471.695 347.338 470.448 344.844 470.448 342.35 470.448 342.35 467.643 342.35 464.837 345.156 464.837 347.961 464.837 347.961 463.59 347.961 462.343 343.909 462.343 339.856 462.343 339.856 471.54 339.856 480.737 341.103 480.737 342.35 480.737 342.35 476.839ZM372.279 475.062C372.31 471.103 372.404 469.513 372.622 469.887 372.778 470.199 373.682 472.506 374.586 475.031 375.521 477.557 376.363 479.895 376.488 480.207 376.644 480.549 377.049 480.737 377.766 480.737L378.826 480.737 378.826 471.54 378.826 462.343 377.735 462.343 376.644 462.343 376.644 468.671C376.644 472.319 376.519 474.782 376.363 474.501 376.207 474.252 375.209 471.571 374.149 468.578 373.089 465.585 372.123 462.935 372.061 462.748 371.967 462.53 371.437 462.343 370.845 462.343L369.785 462.343 369.785 471.54 369.785 480.737 371.032 480.737 372.279 480.737 372.279 475.062ZM389.8 472.88 389.893 464.993 391.452 464.837C393.011 464.681 393.011 464.681 393.105 463.527L393.198 462.343 388.678 462.343 384.126 462.343 384.126 463.59 384.126 464.837 385.685 464.837 387.243 464.837 387.243 472.787 387.243 480.737 388.49 480.737 389.738 480.737 389.8 472.88ZM406.573 479.645 406.573 478.585 403.86 478.492 401.117 478.398 401.023 475.686 400.93 472.974 403.362 472.88 405.793 472.787 405.887 471.633 405.98 470.448 403.486 470.448 400.961 470.448 400.961 467.643 400.961 464.868 403.704 464.774 406.417 464.681 406.51 463.527 406.604 462.343 402.551 462.343 398.467 462.343 398.467 471.54 398.467 480.737 402.52 480.737 406.573 480.737 406.573 479.645ZM261.603 460.472C261.603 460.129 261.759 459.848 261.915 459.848 262.102 459.848 262.757 460.129 263.381 460.472 264.877 461.251 265.095 461.251 265.937 460.347 266.436 459.817 266.623 459.318 266.529 458.57 266.436 457.666 266.311 457.51 265.563 457.417 264.877 457.323 264.628 457.448 264.503 457.947 264.316 458.695 263.942 458.757 262.851 458.134 261.073 457.105 259.421 457.947 259.421 459.88 259.421 460.908 259.639 461.096 260.731 461.096 261.385 461.096 261.603 460.94 261.603 460.472ZM151.583 426.428C151.614 411.962 151.707 399.741 151.832 399.211L152.019 398.276 152.549 399.678C152.83 400.458 156.322 409.842 160.25 420.566 164.178 431.291 168.449 442.857 169.727 446.287L172.034 452.522 176.742 452.616 181.481 452.709 181.481 411.993 181.481 371.308 176.337 371.308 171.193 371.308 171.13 399.616 171.037 427.893 165.3 411.837C162.183 403.014 157.631 390.263 155.199 383.56L150.803 371.308 146.189 371.308 141.575 371.308 141.575 411.993 141.575 452.678 146.563 452.678 151.552 452.678 151.583 426.428ZM223.88 447.69 223.88 442.702 211.815 442.639 199.719 442.546 199.625 430.013 199.563 417.449 210.319 417.449 221.074 417.449 221.012 412.398 220.919 407.317 210.319 407.161 199.719 407.005 199.719 394.379 199.719 381.752 211.815 381.659 223.88 381.596 223.88 376.452 223.88 371.308 206.422 371.308 188.963 371.308 188.963 411.993 188.963 452.678 206.422 452.678 223.88 452.678 223.88 447.69ZM255.368 431.011C257.364 419.195 259.39 407.161 259.889 404.261 260.388 401.393 260.886 399.148 261.011 399.273 261.198 399.491 263.287 412.43 268.369 445.289L269.522 452.678 275.383 452.678C278.75 452.678 281.244 452.553 281.244 452.397 281.244 452.241 283.707 434.253 286.7 412.461 289.693 390.669 292.156 372.493 292.156 372.056L292.156 371.308 286.95 371.37 281.712 371.464 280.714 380.193C280.184 384.995 278.657 398.4 277.379 409.967 276.069 421.533 274.885 431.416 274.76 431.946 274.573 432.663 274.23 431.104 273.326 425.399 272.64 421.284 270.395 407.473 268.306 394.69L264.534 371.464 260.731 371.37C257.831 371.308 256.896 371.402 256.771 371.682 256.709 371.901 254.932 382.532 252.874 395.314 250.817 408.096 248.603 421.658 247.979 425.492 247.356 429.327 246.764 432.32 246.639 432.195 246.452 432.008 243.864 409.592 240.123 375.985L239.624 371.464 234.231 371.37 228.806 371.308 228.993 372.15C229.087 372.649 231.55 390.419 234.48 411.681 237.38 432.943 239.874 450.87 239.967 451.524L240.154 452.678 245.953 452.616 251.752 452.522 255.368 431.011ZM309.927 436.965 309.927 421.252 317.191 421.096C322.584 421.003 324.86 420.847 326.169 420.473 332.529 418.665 336.489 414.394 337.798 408.034 338.515 404.604 338.515 388.268 337.829 384.776 336.52 378.229 331.968 373.522 325.515 372.025 323.956 371.651 320.651 371.526 311.423 371.402L299.327 371.246 299.327 411.962 299.327 452.678 304.627 452.678 309.927 452.678 309.927 436.965ZM348.367 446.536C348.99 443.138 349.738 439.147 350.019 437.651L350.518 434.908 359.372 434.908 368.226 434.908 368.382 435.625C368.475 435.999 369.161 439.678 369.941 443.793 370.72 447.908 371.406 451.587 371.499 451.992 371.655 452.678 371.718 452.678 377.267 452.678 382.006 452.678 382.879 452.616 382.879 452.21 382.879 451.961 378.857 434.471 373.962 413.334 369.068 392.196 364.89 374.114 364.672 373.179L364.267 371.464 359.403 371.37C356.722 371.339 354.508 371.37 354.508 371.433 354.508 371.495 350.3 389.764 345.156 411.993 340.012 434.253 335.803 452.491 335.803 452.553 335.803 452.616 338.359 452.678 341.508 452.678L347.182 452.678 348.367 446.536ZM414.367 451.774C416.923 450.87 417.297 450.683 419.137 449.28 421.257 447.69 423.221 444.634 424.094 441.61L424.811 439.116 424.811 411.993C424.811 386.709 424.78 384.745 424.25 382.875 423.938 381.783 423.377 380.256 423.034 379.476 422.005 377.325 419.261 374.582 417.079 373.49 413.182 371.62 412.558 371.558 399.028 371.402L386.62 371.246 386.62 411.993 386.62 452.709 399.496 452.616C411.966 452.491 412.403 452.46 414.367 451.774ZM467.366 447.69 467.366 442.702 455.207 442.702 443.049 442.702 443.049 430.075 443.049 417.449 453.805 417.449 464.56 417.449 464.56 412.305 464.56 407.161 453.805 407.161 443.049 407.161 443.049 394.379 443.049 381.596 455.207 381.596 467.366 381.596 467.366 376.452 467.366 371.308 449.908 371.308 432.449 371.308 432.449 411.993 432.449 452.678 449.908 452.678 467.366 452.678 467.366 447.69ZM505.713 447.69 505.713 442.702 494.178 442.702 482.643 442.702 482.643 407.005 482.643 371.308 477.343 371.308 472.043 371.308 472.043 411.993 472.043 452.678 488.878 452.678 505.713 452.678 505.713 447.69ZM515.19 391.542C516.812 391.105 518.932 389.079 519.368 387.582 519.836 385.992 519.836 378.884 519.368 377.512 518.776 375.798 517.84 374.769 516.063 373.896 514.66 373.21 513.912 373.054 511.979 373.054 507.989 373.054 505.619 374.644 504.622 377.917 503.998 380.069 503.998 385.026 504.653 387.239 505.214 389.172 506.866 390.949 508.55 391.479 509.953 391.916 513.663 391.978 515.19 391.542ZM408.443 339.508C418.513 331.995 429.3 322.081 435.878 314.256 436.814 313.133 437.655 312.167 437.78 312.073 437.874 311.98 439.089 310.515 440.461 308.8 450.406 296.329 459.385 281.053 464.56 267.803 465.122 266.338 465.776 264.717 466.026 264.156 466.244 263.626 466.431 263.002 466.431 262.753 466.431 262.503 466.556 262.192 466.711 262.036 467.023 261.693 468.613 256.892 469.549 253.462 469.923 252.184 470.484 250.158 470.796 248.942 471.731 245.637 473.477 236.689 474.194 231.795 476.937 212.653 476.033 193.355 471.45 174.181 465.807 150.581 453.68 127.105 437.686 108.711 430.578 100.574 419.293 90.1615 410.47 83.5833 408.599 82.1804 406.697 80.7463 406.261 80.4345 405.824 80.0916 405.326 79.811 405.107 79.811 404.92 79.811 404.702 79.6863 404.64 79.5616 404.515 79.2498 398.03 74.8852 397.282 74.6046 397.002 74.4799 395.786 73.794 394.632 73.0146 393.448 72.2664 392.388 71.7364 392.294 71.8611 392.169 71.9858 392.294 72.2352 392.575 72.4534 393.105 72.8275 393.79 73.3575 398.436 77.1298 407.602 84.5498 417.266 94.2456 423.907 102.725 440.492 123.863 451.279 145.499 457.39 169.879 459.51 178.39 460.57 184.625 461.505 194.383 462.035 200.089 462.035 224.655 461.505 229.612 457.826 262.472 445.262 293.212 425.154 318.465 419.199 325.947 412.403 333.149 402.208 342.782L397.999 346.741 401.273 344.559C403.081 343.374 406.292 341.098 408.443 339.508ZM235.883 343.499C220.42 329.251 210.288 317.56 201.527 303.812 189.088 284.295 181.075 263.501 177.147 240.368 175.308 229.581 175.09 226.994 175.09 213.401 175.121 191.858 176.493 180.853 181.325 164.143 182.51 160.027 184.879 152.794 185.534 151.36 185.814 150.674 186.188 149.77 186.282 149.334 186.407 148.897 186.687 148.149 186.937 147.619 187.155 147.12 187.934 145.281 188.651 143.566 191.457 137.05 196.851 126.731 200.685 120.621 201.621 119.155 202.369 117.784 202.369 117.597 202.369 117.409 202.462 117.222 202.618 117.16 202.93 117.035 207.98 109.771 207.98 109.428 207.98 109.304 208.199 109.117 208.448 108.992 208.698 108.898 208.916 108.618 208.916 108.337 208.916 108.088 209.009 107.87 209.165 107.87 209.29 107.87 209.726 107.371 210.132 106.778 210.537 106.186 211.098 105.407 211.379 105.064 211.659 104.721 212.127 104.128 212.408 103.723 214.122 101.447 218.3 96.5838 221.573 93.0609 226.904 87.3244 231.674 82.9598 240.809 75.4775 243.147 73.5446 245.08 71.9234 245.08 71.8299 245.08 71.144 233.264 78.6886 226.998 83.3651 216.242 91.4085 204.551 102.445 196.289 112.39 189.711 120.278 181.262 133.528 176.804 142.943 161.403 175.491 157.506 208.506 164.989 243.486 172.159 276.969 192.424 309.579 220.607 333.086 226.094 337.638 238.034 346.367 238.814 346.367 238.907 346.367 237.598 345.089 235.883 343.499ZM280.153 310.483C284.611 308.831 287.043 303.469 285.329 299.011 284.549 296.953 283.333 295.425 281.681 294.459 280.216 293.586 279.748 293.461 277.472 293.15 272.858 292.588 268.306 296.454 267.901 301.318 267.371 308.083 273.762 312.884 280.153 310.483ZM307.9 310.483C312.358 308.831 314.79 303.469 313.075 299.011 312.296 296.953 311.08 295.425 309.428 294.459 307.962 293.586 307.495 293.461 305.219 293.15 300.605 292.588 296.053 296.454 295.648 301.318 295.118 308.083 301.509 312.884 307.9 310.483ZM335.023 310.483C339.482 308.831 341.913 303.469 340.199 299.011 339.419 296.953 338.203 295.425 336.551 294.459 335.086 293.586 334.618 293.461 332.342 293.15 327.728 292.588 323.176 296.454 322.771 301.318 322.241 308.083 328.632 312.884 335.023 310.483ZM361.835 310.483C366.293 308.831 368.725 303.469 367.01 299.011 366.231 296.953 365.015 295.425 363.363 294.459 361.897 293.586 361.43 293.461 359.154 293.15 354.54 292.588 349.988 296.454 349.583 301.318 349.053 308.083 355.444 312.884 361.835 310.483ZM252.718 284.607C257.176 282.955 259.608 277.593 257.893 273.134 257.083 270.952 255.805 269.424 253.996 268.489 252.251 267.616 252.126 267.585 250.037 267.304 245.423 266.681 240.871 270.547 240.466 275.441 239.936 282.207 246.327 287.008 252.718 284.607ZM280.153 284.607C284.611 282.955 287.043 277.593 285.329 273.134 284.518 270.952 283.24 269.424 281.432 268.489 279.686 267.616 279.561 267.585 277.472 267.304 272.858 266.681 268.306 270.547 267.901 275.441 267.371 282.207 273.762 287.008 280.153 284.607ZM307.9 284.607C312.358 282.955 314.79 277.593 313.075 273.134 312.265 270.952 310.987 269.424 309.178 268.489 307.432 267.616 307.308 267.585 305.219 267.304 300.605 266.681 296.053 270.547 295.648 275.441 295.118 282.207 301.509 287.008 307.9 284.607ZM335.023 284.607C339.482 282.955 341.913 277.593 340.199 273.134 339.388 270.952 338.11 269.424 336.302 268.489 334.556 267.616 334.431 267.585 332.342 267.304 327.728 266.681 323.176 270.547 322.771 275.441 322.241 282.207 328.632 287.008 335.023 284.607ZM361.835 284.607C366.293 282.955 368.725 277.593 367.01 273.134 366.2 270.952 364.921 269.424 363.113 268.489 361.367 267.616 361.243 267.585 359.154 267.304 354.54 266.681 349.988 270.547 349.583 275.441 349.053 282.207 355.444 287.008 361.835 284.607ZM388.958 284.607C393.416 282.955 395.848 277.593 394.133 273.134 393.323 270.952 392.045 269.424 390.236 268.489 388.49 267.616 388.366 267.585 386.277 267.304 381.663 266.681 377.111 270.547 376.706 275.441 376.176 282.207 382.567 287.008 388.958 284.607ZM252.718 257.484C257.176 255.832 259.608 250.469 257.893 246.011 257.114 243.954 255.898 242.426 254.246 241.459 252.781 240.586 252.313 240.462 250.037 240.15 245.423 239.589 240.871 243.455 240.466 248.318 239.936 255.083 246.327 259.885 252.718 257.484ZM280.153 257.484C284.611 255.832 287.043 250.469 285.329 246.011 284.549 243.954 283.333 242.426 281.681 241.459 280.216 240.586 279.748 240.462 277.472 240.15 272.858 239.589 268.306 243.455 267.901 248.318 267.371 255.083 273.762 259.885 280.153 257.484ZM307.9 257.484C312.358 255.832 314.79 250.469 313.075 246.011 312.296 243.954 311.08 242.426 309.428 241.459 307.962 240.586 307.495 240.462 305.219 240.15 300.605 239.589 296.053 243.455 295.648 248.318 295.118 255.083 301.509 259.885 307.9 257.484ZM335.023 257.484C339.482 255.832 341.913 250.469 340.199 246.011 339.419 243.954 338.203 242.426 336.551 241.459 335.086 240.586 334.618 240.462 332.342 240.15 327.728 239.589 323.176 243.455 322.771 248.318 322.241 255.083 328.632 259.885 335.023 257.484ZM361.835 257.484C366.293 255.832 368.725 250.469 367.01 246.011 366.231 243.954 365.015 242.426 363.363 241.459 361.897 240.586 361.43 240.462 359.154 240.15 354.54 239.589 349.988 243.455 349.583 248.318 349.053 255.083 355.444 259.885 361.835 257.484ZM388.958 257.484C393.416 255.832 395.848 250.469 394.133 246.011 393.354 243.954 392.138 242.426 390.486 241.459 389.02 240.586 388.553 240.462 386.277 240.15 381.663 239.589 377.111 243.455 376.706 248.318 376.176 255.083 382.567 259.885 388.958 257.484ZM416.081 257.484C420.54 255.832 422.971 250.469 421.257 246.011 420.477 243.954 419.261 242.426 417.609 241.459 416.144 240.586 415.676 240.462 413.4 240.15 408.786 239.589 404.234 243.455 403.829 248.318 403.299 255.083 409.69 259.885 416.081 257.484ZM225.907 257.172C230.365 255.52 232.797 250.158 231.082 245.699 230.303 243.642 229.087 242.114 227.434 241.148 225.969 240.275 225.501 240.15 223.226 239.838 218.612 239.277 214.06 243.143 213.655 248.006 213.125 254.772 219.516 259.573 225.907 257.172ZM252.656 231.639C254.121 231.078 255.68 229.893 256.865 228.397 257.582 227.492 258.486 224.562 258.486 223.159 258.486 219.823 256.834 216.924 253.965 215.209 252.251 214.18 251.877 214.087 249.601 214.056 247.574 214.024 246.826 214.149 245.579 214.773 242.555 216.269 240.747 218.888 240.466 222.193 239.936 229.051 246.296 234.008 252.656 231.639ZM280.091 231.639C281.556 231.078 283.115 229.893 284.3 228.397 285.017 227.492 285.921 224.562 285.921 223.159 285.921 219.823 284.269 216.924 281.4 215.209 279.686 214.18 279.312 214.087 277.036 214.056 275.009 214.024 274.261 214.149 273.014 214.773 269.99 216.269 268.182 218.888 267.901 222.193 267.371 229.051 273.731 234.008 280.091 231.639ZM307.838 231.639C309.303 231.078 310.862 229.893 312.047 228.397 312.764 227.492 313.668 224.562 313.668 223.159 313.668 219.823 312.015 216.924 309.147 215.209 307.432 214.18 307.058 214.087 304.782 214.056 302.756 214.024 302.008 214.149 300.761 214.773 297.737 216.269 295.928 218.888 295.648 222.193 295.118 229.051 301.478 234.008 307.838 231.639ZM334.961 231.639C336.426 231.078 337.985 229.893 339.17 228.397 339.887 227.492 340.791 224.562 340.791 223.159 340.791 219.823 339.139 216.924 336.27 215.209 334.556 214.18 334.182 214.087 331.906 214.056 329.879 214.024 329.131 214.149 327.884 214.773 324.86 216.269 323.052 218.888 322.771 222.193 322.241 229.051 328.601 234.008 334.961 231.639ZM361.773 231.639C363.238 231.078 364.797 229.893 365.981 228.397 366.698 227.492 367.602 224.562 367.602 223.159 367.602 219.823 365.95 216.924 363.082 215.209 361.367 214.18 360.993 214.087 358.717 214.056 356.691 214.024 355.943 214.149 354.696 214.773 351.671 216.269 349.863 218.888 349.583 222.193 349.053 229.051 355.413 234.008 361.773 231.639ZM388.896 231.639C390.361 231.078 391.92 229.893 393.105 228.397 393.822 227.492 394.726 224.562 394.726 223.159 394.726 219.823 393.073 216.924 390.205 215.209 388.49 214.18 388.116 214.087 385.841 214.056 383.814 214.024 383.066 214.149 381.819 214.773 378.795 216.269 376.986 218.888 376.706 222.193 376.176 229.051 382.536 234.008 388.896 231.639ZM416.019 231.639C417.484 231.078 419.043 229.893 420.228 228.397 420.945 227.492 421.849 224.562 421.849 223.159 421.849 219.823 420.197 216.924 417.328 215.209 415.614 214.18 415.24 214.087 412.964 214.056 410.937 214.024 410.189 214.149 408.942 214.773 405.918 216.269 404.11 218.888 403.829 222.193 403.299 229.051 409.659 234.008 416.019 231.639ZM225.907 231.296C230.365 229.644 232.797 224.281 231.082 219.823 230.24 217.61 229.024 216.176 227.091 215.147 221.199 211.936 214.185 215.583 213.655 222.13 213.125 228.895 219.516 233.697 225.907 231.296ZM225.907 204.484C230.365 202.832 232.797 197.47 231.082 193.012 230.303 190.954 229.087 189.426 227.434 188.46 225.969 187.587 225.501 187.462 223.226 187.151 218.612 186.589 214.06 190.455 213.655 195.319 213.125 202.084 219.516 206.885 225.907 204.484ZM252.718 204.484C257.176 202.832 259.608 197.47 257.893 193.012 257.114 190.954 255.898 189.426 254.246 188.46 252.781 187.587 252.313 187.462 250.037 187.151 245.423 186.589 240.871 190.455 240.466 195.319 239.936 202.084 246.327 206.885 252.718 204.484ZM280.153 204.484C284.611 202.832 287.043 197.47 285.329 193.012 284.549 190.954 283.333 189.426 281.681 188.46 280.216 187.587 279.748 187.462 277.472 187.151 272.858 186.589 268.306 190.455 267.901 195.319 267.371 202.084 273.762 206.885 280.153 204.484ZM307.9 204.484C312.358 202.832 314.79 197.47 313.075 193.012 312.296 190.954 311.08 189.426 309.428 188.46 307.962 187.587 307.495 187.462 305.219 187.151 300.605 186.589 296.053 190.455 295.648 195.319 295.118 202.084 301.509 206.885 307.9 204.484ZM335.023 204.484C339.482 202.832 341.913 197.47 340.199 193.012 339.419 190.954 338.203 189.426 336.551 188.46 335.086 187.587 334.618 187.462 332.342 187.151 327.728 186.589 323.176 190.455 322.771 195.319 322.241 202.084 328.632 206.885 335.023 204.484ZM361.835 204.484C366.293 202.832 368.725 197.47 367.01 193.012 366.231 190.954 365.015 189.426 363.363 188.46 361.897 187.587 361.43 187.462 359.154 187.151 354.54 186.589 349.988 190.455 349.583 195.319 349.053 202.084 355.444 206.885 361.835 204.484ZM388.958 204.484C393.416 202.832 395.848 197.47 394.133 193.012 393.354 190.954 392.138 189.426 390.486 188.46 389.02 187.587 388.553 187.462 386.277 187.151 381.663 186.589 377.111 190.455 376.706 195.319 376.176 202.084 382.567 206.885 388.958 204.484ZM416.081 204.484C420.54 202.832 422.971 197.47 421.257 193.012 420.477 190.954 419.261 189.426 417.609 188.46 416.144 187.587 415.676 187.462 413.4 187.151 408.786 186.589 404.234 190.455 403.829 195.319 403.299 202.084 409.69 206.885 416.081 204.484ZM225.907 178.608C230.365 176.956 232.797 171.594 231.082 167.135 230.24 164.922 229.024 163.488 227.091 162.459 221.199 159.248 214.185 162.895 213.655 169.442 213.125 176.208 219.516 181.009 225.907 178.608ZM252.718 178.608C257.176 176.956 259.608 171.594 257.893 167.135 257.052 164.922 255.836 163.488 253.903 162.459 248.011 159.248 240.996 162.895 240.466 169.442 239.936 176.208 246.327 181.009 252.718 178.608ZM280.153 178.608C284.611 176.956 287.043 171.594 285.329 167.135 284.487 164.922 283.271 163.488 281.338 162.459 275.446 159.248 268.431 162.895 267.901 169.442 267.371 176.208 273.762 181.009 280.153 178.608ZM307.9 178.608C312.358 176.956 314.79 171.594 313.075 167.135 312.234 164.922 311.018 163.488 309.085 162.459 303.193 159.248 296.178 162.895 295.648 169.442 295.118 176.208 301.509 181.009 307.9 178.608ZM335.023 178.608C339.482 176.956 341.913 171.594 340.199 167.135 339.357 164.922 338.141 163.488 336.208 162.459 330.316 159.248 323.301 162.895 322.771 169.442 322.241 176.208 328.632 181.009 335.023 178.608ZM361.835 178.608C366.293 176.956 368.725 171.594 367.01 167.135 366.168 164.922 364.952 163.488 363.02 162.459 357.127 159.248 350.113 162.895 349.583 169.442 349.053 176.208 355.444 181.009 361.835 178.608ZM388.958 178.608C393.416 176.956 395.848 171.594 394.133 167.135 393.292 164.922 392.076 163.488 390.143 162.459 384.251 159.248 377.236 162.895 376.706 169.442 376.176 176.208 382.567 181.009 388.958 178.608ZM416.081 178.608C420.54 176.956 422.971 171.594 421.257 167.135 420.415 164.922 419.199 163.488 417.266 162.459 411.374 159.248 404.359 162.895 403.829 169.442 403.299 176.208 409.69 181.009 416.081 178.608ZM252.718 151.173C257.176 149.521 259.608 144.159 257.893 139.7 257.052 137.487 255.836 136.053 253.903 135.024 248.011 131.813 240.996 135.46 240.466 142.007 239.936 148.773 246.327 153.574 252.718 151.173ZM280.153 151.173C284.611 149.521 287.043 144.159 285.329 139.7 284.549 137.643 283.333 136.115 281.681 135.149 280.216 134.276 279.748 134.151 277.472 133.839 272.858 133.278 268.306 137.144 267.901 142.007 267.371 148.773 273.762 153.574 280.153 151.173ZM307.9 151.173C312.358 149.521 314.79 144.159 313.075 139.7 312.296 137.643 311.08 136.115 309.428 135.149 307.962 134.276 307.495 134.151 305.219 133.839 300.605 133.278 296.053 137.144 295.648 142.007 295.118 148.773 301.509 153.574 307.9 151.173ZM335.023 151.173C339.482 149.521 341.913 144.159 340.199 139.7 339.419 137.643 338.203 136.115 336.551 135.149 335.086 134.276 334.618 134.151 332.342 133.839 327.728 133.278 323.176 137.144 322.771 142.007 322.241 148.773 328.632 153.574 335.023 151.173ZM361.835 151.173C366.293 149.521 368.725 144.159 367.01 139.7 366.231 137.643 365.015 136.115 363.363 135.149 361.897 134.276 361.43 134.151 359.154 133.839 354.54 133.278 349.988 137.144 349.583 142.007 349.053 148.773 355.444 153.574 361.835 151.173ZM388.958 151.173C393.416 149.521 395.848 144.159 394.133 139.7 393.292 137.487 392.076 136.053 390.143 135.024 384.251 131.813 377.236 135.46 376.706 142.007 376.176 148.773 382.567 153.574 388.958 151.173ZM280.153 125.297C284.611 123.645 287.043 118.282 285.329 113.824 284.487 111.611 283.271 110.177 281.338 109.148 275.446 105.937 268.431 109.584 267.901 116.131 267.371 122.896 273.762 127.698 280.153 125.297ZM307.9 125.297C312.358 123.645 314.79 118.282 313.075 113.824 312.234 111.611 311.018 110.177 309.085 109.148 303.193 105.937 296.178 109.584 295.648 116.131 295.118 122.896 301.509 127.698 307.9 125.297ZM335.023 125.297C339.482 123.645 341.913 118.282 340.199 113.824 339.357 111.611 338.141 110.177 336.208 109.148 330.316 105.937 323.301 109.584 322.771 116.131 322.241 122.896 328.632 127.698 335.023 125.297ZM361.835 125.297C366.293 123.645 368.725 118.282 367.01 113.824 366.168 111.611 364.952 110.177 363.02 109.148 357.127 105.937 350.113 109.584 349.583 116.131 349.053 122.896 355.444 127.698 361.835 125.297Z" fill="#FFFFFF"/><path d="M277.753 478.336C276.849 478.118 276.568 476.434 276.568 471.321 276.568 465.367 276.849 464.556 278.844 464.525 279.312 464.525 279.966 464.805 280.309 465.148 280.902 465.741 280.933 466.177 280.933 471.54 280.933 476.902 280.902 477.338 280.309 477.931 279.717 478.523 278.937 478.648 277.753 478.336Z" fill="#FFFFFF"/><path d="M357.065 478.055C356.41 477.588 356.379 477.432 356.379 471.664 356.379 466.177 356.41 465.741 357.003 465.148 357.782 464.369 359.247 464.338 359.902 465.086 360.37 465.585 360.432 466.52 360.432 471.633 360.432 477.432 360.401 477.588 359.746 478.055 359.372 478.336 358.748 478.554 358.405 478.554 358.063 478.554 357.439 478.336 357.065 478.055Z" fill="#FFFFFF"/><path d="M261.791 472.257C262.04 471.01 262.321 469.451 262.414 468.796 262.757 466.832 263.069 467.206 263.63 470.23 263.911 471.789 264.222 473.41 264.316 473.815 264.472 474.47 264.378 474.501 262.913 474.501L261.354 474.501 261.791 472.257Z" fill="#FFFFFF"/><path d="M302.039 478.336C301.914 478.242 301.821 475.125 301.821 471.477L301.821 464.805 303.629 464.899 305.406 464.993 305.5 471.384C305.562 477.12 305.531 477.806 305.032 478.149 304.471 478.585 302.382 478.71 302.039 478.336Z" fill="#FFFFFF"/><path d="M318.219 472.257C318.469 471.01 318.749 469.451 318.843 468.796 319.186 466.832 319.498 467.206 320.059 470.23 320.339 471.789 320.651 473.41 320.745 473.815 320.901 474.47 320.807 474.501 319.342 474.501L317.783 474.501 318.219 472.257Z" fill="#FFFFFF"/><path d="M309.927 396.405 309.927 381.596 316.099 381.596C323.083 381.596 324.112 381.846 325.671 383.903 327.26 385.992 327.354 386.647 327.385 396.28 327.385 406.568 327.26 407.254 325.078 409.281 323.301 410.933 321.805 411.214 315.227 411.214L309.927 411.214 309.927 396.405Z" fill="#FFFFFF"/><path d="M352.513 424.401C352.638 423.934 356.254 404.947 358.78 391.604 359.31 388.798 359.528 388.798 360.058 391.729 360.868 396.187 366.075 423.591 366.2 424.245L366.355 424.931 359.372 424.931C352.887 424.931 352.388 424.9 352.513 424.401Z" fill="#FFFFFF"/><path d="M397.22 412.18 397.22 381.596 403.549 381.596C409.472 381.596 409.94 381.627 411.249 382.313 412.247 382.781 412.87 383.405 413.431 384.402L414.211 385.805 414.211 411.837C414.211 439.678 414.242 439.023 412.683 440.769 411.249 442.39 410.594 442.546 403.704 442.639L397.22 442.764 397.22 412.18Z" fill="#FFFFFF"/><path d="M509.922 389.484C508.893 389.203 507.615 388.143 507.085 387.146 506.711 386.397 506.617 385.369 506.711 382.126 506.804 378.603 506.898 377.886 507.428 377.169 508.363 375.891 509.953 375.236 512.104 375.236 514.286 375.236 515.627 375.829 516.687 377.294 517.342 378.26 517.404 378.635 517.404 382.532 517.404 386.242 517.342 386.834 516.78 387.582 515.533 389.297 512.509 390.107 509.922 389.484ZM511.325 385.805C511.325 385.026 511.48 384.402 511.636 384.402 511.823 384.402 512.26 385.026 512.634 385.805 513.258 387.114 513.413 387.208 514.505 387.208 515.159 387.208 515.689 387.114 515.689 387.021 515.689 386.896 515.315 386.148 514.879 385.337L514.068 383.841 514.723 383.124C515.19 382.625 515.378 382.002 515.378 381.066 515.378 378.541 514.006 377.543 510.483 377.543L508.831 377.543 508.831 382.376 508.831 387.208 510.078 387.208 511.325 387.208 511.325 385.805Z" fill="#FFFFFF"/><path d="M511.325 381.035C511.325 379.663 511.855 379.227 512.728 379.85 513.07 380.1 513.226 380.536 513.133 381.129 513.07 381.877 512.883 382.095 512.198 382.157 511.387 382.251 511.325 382.189 511.325 381.035Z" fill="#FFFFFF"/></g></g></g></g></svg>