<svg xmlns="http://www.w3.org/2000/svg" width="187.693" height="50.394" viewBox="0 0 187.693 50.394">
  <g id="Group_49" data-name="Group 49" transform="translate(-225.737 -425.697)">
    <g id="Group_45" data-name="Group 45" transform="translate(225.737 425.697)">
      <g id="Group_44" data-name="Group 44">
        <g id="Group_43" data-name="Group 43">
          <path id="Path_81" data-name="Path 81" d="M250.525,447.305l-1.967,4.231h-5.692v-.73l11.746-25.023h2.517L268.8,450.806v.73h-5.654l-2.007-4.231Zm1.788-4.6h7.076l-3.536-8.427Z" transform="translate(-217.489 -425.655)" fill="#fff"/>
          <path id="Path_82" data-name="Path 82" d="M313.755,430.709H303.613v5.179H313.1v4.778h-9.485V446.5h10.434v4.96H298.106V425.931h15.649Z" transform="translate(-190.89 -425.584)" fill="#fff"/>
          <path id="Path_83" data-name="Path 83" d="M342.579,447.305l-1.967,4.231H334.92v-.73l11.745-25.023h2.517l11.673,25.023v.73H355.2l-2.006-4.231Zm1.788-4.6h7.076l-3.536-8.427Z" transform="translate(-173.163 -425.655)" fill="#fff"/>
          <g id="Group_40" data-name="Group 40" transform="translate(55.082 0.322)">
            <path id="Path_84" data-name="Path 84" d="M282.714,450.669v.767h-5.837L272.947,445h-4.56v6.434h-5.471V425.93c3.649,0,7.26-.037,10.907,0,5.836,0,9.011,5.212,9.011,9.737,0,3.246-1.643,7.073-4.56,8.5Zm-8.928-10.154c2.3,0,3.794-2.771,3.757-4.957,0-2.153-1.422-4.849-3.757-4.849h-5.471v9.806Z" transform="translate(-262.916 -425.914)" fill="#fff"/>
          </g>
          <g id="Group_41" data-name="Group 41" transform="translate(81.196 0.322)">
            <path id="Path_85" data-name="Path 85" d="M300.339,450.669v.767H294.5L290.573,445h-4.56v6.434h-5.47V425.93c3.648,0,7.258-.037,10.905,0,5.837,0,9.011,5.212,9.011,9.737,0,3.246-1.642,7.073-4.56,8.5Zm-8.926-10.154c2.3,0,3.793-2.771,3.756-4.957,0-2.153-1.422-4.849-3.756-4.849H285.94v9.806Z" transform="translate(-280.543 -425.914)" fill="#fff"/>
          </g>
          <path id="Path_86" data-name="Path 86" d="M311.915,451.465V425.931h5.471v25.534Z" transform="translate(-184.24 -425.584)" fill="#fff"/>
          <g id="Group_42" data-name="Group 42" transform="translate(138.909 0.322)">
            <path id="Path_87" data-name="Path 87" d="M339.3,450.669v.767h-5.837L329.529,445h-4.56v6.434H319.5V425.93c3.648,0,7.26-.037,10.907,0,5.836,0,9.009,5.212,9.009,9.737,0,3.246-1.642,7.073-4.559,8.5Zm-8.928-10.154c2.3,0,3.794-2.771,3.757-4.957,0-2.153-1.422-4.849-3.757-4.849H324.9v9.806Z" transform="translate(-319.498 -425.914)" fill="#fff"/>
          </g>
          <path id="Path_88" data-name="Path 88" d="M244.666,444.041A6.585,6.585,0,0,1,238.758,447c-4.559,0-7.514-3.757-7.514-8.135,0-4.85,3.03-8.243,7.553-8.243a6.427,6.427,0,0,1,5.873,2.945l4.16-3A12.032,12.032,0,0,0,238.8,425.7c-6.713-.111-13.06,4.668-13.06,13.166,0,8.464,6.347,13.1,13.06,13.1a11.757,11.757,0,0,0,10.168-5.111l-4.159-2.744Z" transform="translate(-225.737 -425.697)" fill="#fff"/>
        </g>
      </g>
    </g>
    <g id="Group_46" data-name="Group 46" transform="translate(264.215 467.189)">
      <path id="Path_89" data-name="Path 89" d="M251.709,453.8h3.209a4.291,4.291,0,0,1,4.575,4.279v.025a4.309,4.309,0,0,1-4.575,4.3h-3.209Zm1.511,1.378v5.854h1.7a2.807,2.807,0,0,0,2.988-2.9v-.025a2.825,2.825,0,0,0-2.988-2.926Z" transform="translate(-251.709 -453.655)" fill="#fff"/>
      <path id="Path_90" data-name="Path 90" d="M258.943,453.8h6.382v1.353h-4.87v2.239h4.316v1.353h-4.316v2.313h4.931v1.351h-6.443Z" transform="translate(-248.226 -453.655)" fill="#fff"/>
      <path id="Path_91" data-name="Path 91" d="M265.247,453.8h1.4l4.609,5.951V453.8h1.489v8.608h-1.267l-4.748-6.123v6.123h-1.486Z" transform="translate(-245.19 -453.655)" fill="#fff"/>
      <path id="Path_92" data-name="Path 92" d="M274.862,455.2h-2.73v-1.4h6.985v1.4h-2.73v7.206h-1.524Z" transform="translate(-241.875 -453.655)" fill="#fff"/>
      <path id="Path_93" data-name="Path 93" d="M281.211,453.761h1.4l3.785,8.668h-1.6l-.873-2.077h-4.073l-.885,2.077h-1.548Zm2.164,5.251-1.489-3.443-1.476,3.443Z" transform="translate(-239.327 -453.675)" fill="#fff"/>
      <path id="Path_94" data-name="Path 94" d="M285.221,453.8h1.514v7.231h4.525v1.376h-6.039Z" transform="translate(-235.572 -453.655)" fill="#fff"/>
      <path id="Path_95" data-name="Path 95" d="M294.077,458.179v-.025a4.355,4.355,0,0,1,4.437-4.451,4.483,4.483,0,0,1,3.369,1.341l-.972,1.119a3.413,3.413,0,0,0-2.409-1.07,2.9,2.9,0,0,0-2.84,3.036v.025a2.9,2.9,0,0,0,2.84,3.05,3.357,3.357,0,0,0,2.47-1.107l.975.984a4.448,4.448,0,0,1-3.493,1.524A4.328,4.328,0,0,1,294.077,458.179Z" transform="translate(-231.308 -453.703)" fill="#fff"/>
      <path id="Path_96" data-name="Path 96" d="M301.2,453.8h1.511v7.231h4.525v1.376H301.2Z" transform="translate(-227.877 -453.655)" fill="#fff"/>
      <path id="Path_97" data-name="Path 97" d="M307.141,453.8h1.513v8.608h-1.513Z" transform="translate(-225.017 -453.655)" fill="#fff"/>
      <path id="Path_98" data-name="Path 98" d="M310.455,453.8h1.4l4.612,5.951V453.8h1.487v8.608h-1.267l-4.745-6.123v6.123h-1.487Z" transform="translate(-223.421 -453.655)" fill="#fff"/>
      <path id="Path_99" data-name="Path 99" d="M317.812,453.8h1.513v8.608h-1.513Z" transform="translate(-219.879 -453.655)" fill="#fff"/>
      <path id="Path_100" data-name="Path 100" d="M320.87,458.179v-.025a4.355,4.355,0,0,1,4.437-4.451,4.481,4.481,0,0,1,3.369,1.341l-.972,1.119a3.412,3.412,0,0,0-2.407-1.07,2.9,2.9,0,0,0-2.842,3.036v.025a2.9,2.9,0,0,0,2.842,3.05,3.36,3.36,0,0,0,2.47-1.107l.973.984a4.448,4.448,0,0,1-3.493,1.524A4.328,4.328,0,0,1,320.87,458.179Z" transform="translate(-218.406 -453.703)" fill="#fff"/>
    </g>
  </g>
</svg>
