<svg width="1320" height="504" xmlns="http://www.w3.org/2000/svg" xmlns:xlink="http://www.w3.org/1999/xlink" overflow="hidden"><defs><filter id="fx0" x="-10%" y="-10%" width="120%" height="120%" filterUnits="userSpaceOnUse" primitiveUnits="userSpaceOnUse"><feComponentTransfer color-interpolation-filters="sRGB"><feFuncR type="discrete" tableValues="0 0"/><feFuncG type="discrete" tableValues="0 0"/><feFuncB type="discrete" tableValues="0 0"/><feFuncA type="linear" slope="0.4" intercept="0"/></feComponentTransfer><feGaussianBlur stdDeviation="2.22222 2.22222"/></filter><clipPath id="clip1"><rect x="-20" y="108" width="1320" height="504"/></clipPath><clipPath id="clip2"><rect x="12" y="71" width="1299" height="399"/></clipPath><clipPath id="clip3"><rect x="0" y="0" width="1322" height="506"/></clipPath><clipPath id="clip4"><rect x="8" y="8" width="1306" height="490"/></clipPath><clipPath id="clip5"><rect x="8" y="8" width="1306" height="490"/></clipPath><clipPath id="clip6"><rect x="8" y="8" width="1306" height="490"/></clipPath><clipPath id="clip7"><rect x="0" y="120" width="1280" height="480"/></clipPath><clipPath id="clip8"><rect x="0" y="120" width="1280" height="480"/></clipPath><clipPath id="clip9"><rect x="0" y="120" width="1280" height="480"/></clipPath></defs><g clip-path="url(#clip1)" transform="translate(20 -108)"><g clip-path="url(#clip2)" filter="url(#fx0)" transform="translate(-21 107)"><g clip-path="url(#clip3)"><g clip-path="url(#clip4)"><g clip-path="url(#clip5)"><g clip-path="url(#clip6)"><path d="M371.215 451.952C359.731 450.225 350.578 446.512 350.578 443.576 350.578 443.058 349.973 442.022 349.283 441.244 348.592 440.467 347.728 437.963 347.469 435.804 346.951 432.437 347.124 431.746 348.246 431.746 349.11 431.746 349.714 432.955 350.146 435.459 351.096 441.072 352.737 443.23 355.845 442.54 357.658 442.108 358.522 442.367 358.867 443.23 359.644 445.389 370.006 445.994 376.569 444.353 389.349 441.072 400.919 433.214 416.721 416.894L426.997 406.273 423.543 405.669C419.225 404.891 411.281 404.978 408.432 405.755 407.223 406.1 404.028 406.014 401.265 405.582 397.034 404.978 394.27 405.237 383.736 407.482 370.611 410.245 367.761 410.677 369.143 409.468 370.093 408.604 379.677 405.496 384.081 404.546 385.636 404.201 387.103 403.51 387.363 402.905 387.794 401.697 411.972 401.697 423.197 402.819 429.156 403.423 429.846 403.337 430.364 401.869 430.71 400.919 430.624 400.142 430.105 399.97 429.587 399.797 429.156 399.02 429.156 398.329 429.156 397.293 429.76 397.12 431.746 397.552 434.337 397.983 434.509 397.724 447.116 378.814 471.726 342.116 487.269 317.333 491.413 308.353 493.745 303.431 495.644 299.2 495.644 299.027 495.644 298.768 494.263 300.409 492.536 302.654 490.895 304.899 484.16 312.066 477.684 318.542 462.745 333.567 460.846 334.603 448.066 334.603 440.64 334.603 438.481 334.344 437.272 333.135 436.236 332.272 434.768 331.926 433.473 332.185L431.228 332.617 429.242 319.319 427.256 306.108 430.364 296.61C435.459 281.585 444.785 266.128 456.183 254.039 460.759 249.29 461.018 248.081 457.392 249.463 453.765 250.844 445.303 251.449 441.503 250.585L437.963 249.808 427.342 262.415C412.058 280.549 376.137 316.211 367.416 321.996 357.399 328.559 347.469 333.222 339.87 335.035 333.481 336.503 332.876 336.503 325.277 335.035 308.094 331.667 297.646 326.486 293.933 319.319 291.083 313.793 293.501 298.855 299.2 287.025 307.49 269.755 325.968 252.053 351.441 236.77 358.436 232.538 362.58 230.639 365.43 230.293 367.675 229.948 370.265 229.257 371.215 228.653 372.597 227.876 374.237 227.789 378.641 228.566 386.499 229.948 388.571 231.416 388.571 235.733 388.571 244.455 381.836 254.298 370.524 262.329 367.416 264.488 360.94 269.582 356.19 273.554 350.75 278.044 342.029 283.916 332.617 289.443 324.414 294.192 317.506 298.423 317.247 298.855 316.211 300.582 314.743 313.275 315.261 315.865 316.383 321.392 322.86 325.796 331.322 326.918 340.561 328.127 354.55 323.032 367.502 313.793 375.36 308.18 389.608 295.055 396.343 287.284 399.451 283.657 402.387 280.721 402.992 280.721 405.15 280.549 417.844 261.638 419.743 255.68 420.262 253.953 421.643 251.449 422.679 249.981 426.997 244.109 428.551 239.964 428.033 235.129 427.601 230.984 427.86 230.207 430.364 226.494 433.3 222.176 435.632 220.536 440.295 219.672 442.799 219.154 443.058 219.327 445.13 223.731 447.721 229.344 447.721 230.207 445.562 235.388 444.612 237.633 443.921 239.533 444.008 239.619 444.18 239.705 446.771 240.655 449.879 241.691 455.319 243.418 455.751 243.418 460.241 242.21 469.74 239.446 481.483 235.388 486.75 233.057L492.104 230.639 492.881 233.057C493.658 235.302 492.968 236.165 479.67 250.499 467.495 263.451 464.559 267.164 458.169 277.613 454.197 284.262 448.757 292.465 446.253 295.832 442.885 300.323 440.899 304.295 438.74 310.512 435.804 318.888 435.804 319.147 437.186 322.083 438.913 325.709 440.985 327.091 446.08 328.041 453.247 329.422 456.96 327.868 464.818 320.442 489.686 297.041 504.711 279.771 512.569 265.61 517.232 257.062 522.844 251.449 537.783 240.224 547.713 232.797 563.342 224.681 569.3 223.903 574.136 223.299 574.827 224.767 570.596 226.494 565.587 228.653 548.317 249.204 549.699 251.363 549.958 251.794 553.067 249.895 556.78 247.304 568.523 238.842 583.721 232.452 583.721 235.906 583.721 236.683 582.253 237.46 579.662 238.065 576.381 238.669 575.863 239.015 577.158 239.619 578.194 240.051 581.044 239.619 585.361 238.151 590.456 236.51 591.924 235.733 591.924 234.438 591.924 233.229 592.787 232.625 594.946 232.107 599.609 231.07 603.236 232.02 605.653 234.956 608.676 238.497 612.216 250.154 612.216 256.543 612.216 267.423 607.639 281.067 599.263 294.883 593.91 303.776 590.456 307.403 579.49 315.865 571.459 321.996 571.373 322.083 574.395 322.083 578.626 322.083 585.966 319.406 595.378 314.397 600.818 311.548 603.754 310.512 604.272 311.03 604.876 311.634 606.171 311.289 608.244 309.994 612.216 307.576 612.302 306.022 608.33 308.353 606.69 309.389 605.308 309.994 605.308 309.735 605.308 309.476 612.216 303.345 620.678 296.178 641.661 278.044 644.77 274.936 647.792 268.978 649.26 266.128 654.182 256.803 658.931 248.254L667.393 232.711 674.387 232.452C681.554 232.279 684.749 233.143 684.749 235.302 684.749 236.251 684.145 236.338 681.986 235.647 678.359 234.611 676.373 234.611 677.41 235.647 677.928 236.079 679.396 236.597 680.777 236.77L683.281 237.029 676.805 249.549C673.265 256.457 666.789 268.373 662.471 276.058 655.045 289.011 654.441 290.479 653.664 296.782 652.541 305.763 651.937 308.267 650.987 308.267 650.555 308.267 650.21 309.994 650.21 312.152 650.21 315.175 650.469 315.865 651.505 315.52 652.196 315.175 652.8 315.347 652.8 315.865 652.8 317.851 657.463 321.219 660.14 321.219 666.27 321.219 685.181 304.554 699.429 286.679 703.314 281.671 707.114 277.44 707.804 277.354 708.495 277.181 709.359 276.058 709.79 274.936 710.222 273.813 711.258 272.863 711.949 272.863 713.59 272.863 713.763 272.518 707.027 282.535 695.197 300.236 681.123 315.434 669.206 323.378 661.694 328.386 657.722 330.027 652.627 330.199 650.382 330.199 648.483 330.545 648.483 330.977 648.483 332.013 644.251 331.667 641.661 330.286 638.725 328.818 635.185 324.759 632.94 320.269 631.126 316.815 630.608 309.994 632.076 309.994 632.594 309.994 632.94 310.425 632.94 310.857 632.94 311.375 633.371 311.721 633.803 311.721 634.321 311.721 634.667 310.771 634.667 309.562 634.667 308.18 634.149 307.403 633.371 307.403 632.681 307.403 632.076 306.885 632.076 306.281 632.076 304.64 635.789 294.019 638.466 288.061 639.675 285.298 640.711 282.88 640.711 282.794 640.711 282.707 636.566 286.852 631.472 292.033 609.021 314.916 593.133 325.191 569.473 332.013 558.593 335.121 554.362 335.639 554.362 333.826 554.362 332.703 553.326 332.444 548.231 332.444 542.791 332.444 542.1 332.617 541.669 334.171 541.237 335.812 540.719 335.898 537.178 335.38 535.02 335.035 532.861 334.603 532.343 334.344 531.911 334.085 530.098 333.912 528.284 334.085 525.78 334.258 525.003 333.999 525.003 332.963 525.003 332.185 524.399 331.581 523.708 331.581 523.017 331.581 522.413 332.272 522.413 333.049 522.413 334.344 522.326 334.344 521.29 332.876 520.254 331.495 519.304 331.408 513.605 331.926 508.079 332.444 506.956 332.272 505.747 330.977 505.057 330.113 504.366 329.077 504.366 328.559 504.279 328.127 503.675 327.695 502.984 327.695 502.121 327.695 500.566 330.199 498.753 334.258 492.968 347.728 481.915 366.207 467.322 386.844 462.832 393.234 459.032 399.279 459.032 400.142 458.946 402.042 457.91 401.697 481.051 407.568 503.416 413.267 529.062 418.362 546.59 420.607 562.565 422.679 582.339 423.111 605.999 421.989 619.297 421.298 620.851 421.384 620.851 422.593 620.851 423.543 620.074 423.975 618.519 423.975 617.138 423.975 605.74 424.752 593.133 425.615 567.401 427.429 560.752 427.256 531.479 423.457 516.8 421.557 475.87 415.253 455.751 411.799L449.966 410.763 440.036 420.262C423.802 435.718 408.604 445.648 394.184 450.138 385.031 452.902 380.109 453.333 371.215 451.952ZM480.965 411.109C480.965 410.418 466.113 405.323 459.205 403.683 456.356 402.905 453.333 403.855 453.333 405.41 453.333 406.877 453.42 406.877 468.013 409.641 480.706 412.058 480.965 412.145 480.965 411.109ZM530.011 326.314C538.646 323.896 548.836 319.492 553.844 316.124 558.507 312.843 569.473 299.977 576.985 288.838 586.57 274.59 594.428 256.371 593.91 249.722 593.651 246.872 593.219 246.268 589.765 244.627 587.693 243.505 584.411 242.641 582.425 242.641 577.935 242.641 567.573 247.736 550.476 258.53L537.524 266.56 532.602 274.677C528.457 281.412 523.276 291.429 516.886 304.813 516.368 306.022 515.073 307.317 514.123 307.749 512.483 308.526 504.711 321.392 504.711 323.378 504.711 324.069 518.527 327.609 522.758 328.041 523.276 328.127 526.471 327.35 530.011 326.314ZM650.987 323.723C649.691 323.205 648.396 321.996 648.137 320.96 647.705 319.147 647.619 319.147 646.237 320.528 644.079 322.687 646.065 324.673 650.123 324.587 653.145 324.5 653.145 324.5 650.987 323.723ZM475.87 315.002C480.015 309.821 477.597 311.289 472.244 317.333 468.703 321.219 468.185 321.996 470.344 320.528 471.812 319.492 474.316 316.988 475.87 315.002ZM644.77 317.247C645.029 316.47 644.51 315.088 643.388 314.052L641.575 312.239 641.575 314.052C641.575 318.024 643.647 320.183 644.77 317.247ZM306.54 300.15C307.058 296.437 308.094 291.774 308.785 289.874 310.166 286.075 310.425 283.312 309.303 284.521 307.317 286.852 303.949 298.682 303.949 303.517 303.949 310.253 305.158 308.698 306.54 300.15ZM445.994 293.587C447.548 290.651 447.548 290.133 446.425 290.133 445.735 290.133 442.971 294.537 442.971 295.746 442.971 297.128 444.871 295.832 445.994 293.587ZM647.274 288.838C647.792 286.852 647.274 284.952 646.41 285.902 645.547 286.938 645.115 290.997 645.892 290.997 646.324 290.997 646.928 290.047 647.274 288.838ZM362.753 261.034C368.538 255.421 372.683 248.168 371.129 246.354 370.438 245.491 370.438 244.886 371.043 244.282 372.165 243.159 371.043 238.583 369.143 236.683 368.02 235.474 367.243 235.647 362.408 238.065 354.895 241.778 347.901 247.304 339.266 256.198 328.99 266.819 322.687 275.627 320.442 282.276 319.492 285.384 318.629 288.147 318.629 288.493 318.629 288.838 327.436 283.916 338.316 277.44 351.787 269.41 359.385 264.315 362.753 261.034ZM449.016 280.117C449.016 279.426 448.67 279.081 448.152 279.34 447.721 279.599 447.289 280.462 447.289 281.153 447.289 281.844 447.721 282.189 448.152 281.93 448.67 281.671 449.016 280.808 449.016 280.117ZM605.394 274.159C606.69 270.359 607.467 266.905 607.121 266.56 606.776 266.215 605.394 268.805 604.099 272.432 602.804 276.058 601.509 279.599 601.25 280.376 600.904 281.239 601.077 281.585 601.854 281.326 602.458 281.153 604.013 277.872 605.394 274.159ZM571.286 243.937C572.668 242.9 572.754 242.728 571.459 242.641 569.473 242.641 567.314 243.591 567.314 244.455 567.314 245.663 569.387 245.404 571.286 243.937ZM380.627 237.288C380.8 234.783 380.455 233.834 378.555 232.366 377.26 231.416 375.705 230.552 375.101 230.552 373.374 230.552 372.597 232.452 374.065 233.229 374.756 233.575 376.051 235.474 376.914 237.46 378.814 241.605 380.282 241.519 380.627 237.288Z" fill="#FFFFFF" transform="matrix(1.00132 0 0 1 8.2 8.2)"/><path d="M625.168 420.952C625.168 420.262 625.945 419.657 626.895 419.657 627.845 419.657 628.622 420.262 628.622 420.952 628.622 421.643 627.845 422.248 626.895 422.248 625.945 422.248 625.168 421.643 625.168 420.952Z" fill="#FFFFFF" transform="matrix(1.00132 0 0 1 8.2 8.2)"/><path d="M631.213 420.175C631.213 419.225 631.99 418.794 633.458 418.794 636.135 418.794 635.876 420.78 633.112 421.211 631.817 421.384 631.213 421.039 631.213 420.175Z" fill="#FFFFFF" transform="matrix(1.00132 0 0 1 8.2 8.2)"/><path d="M638.121 418.535C638.121 417.671 639.675 416.894 642.438 416.203 647.878 414.908 664.543 406.446 679.568 397.379 690.276 390.989 691.484 389.953 694.852 384.945 696.838 381.923 699.515 378.469 700.897 377.173L703.314 374.842 703.487 378.641C703.66 382.354 703.487 382.613 697.702 387.535 694.42 390.385 691.312 392.889 690.707 393.062 689.93 393.321 689.93 393.839 690.794 395.22 691.916 396.947 692.003 396.947 710.395 392.284 720.584 389.608 729.046 387.708 729.305 387.967 729.564 388.226 729.564 389.262 729.219 390.298 728.701 391.939 728.183 392.198 725.161 391.766 722.829 391.421 721.62 391.68 721.361 392.457 721.102 393.062 720.239 393.407 719.375 393.148 714.885 392.025 684.317 402.56 667.048 411.281 662.126 413.785 647.533 418.276 641.143 419.312 638.811 419.657 638.121 419.484 638.121 418.535Z" fill="#FFFFFF" transform="matrix(1.00132 0 0 1 8.2 8.2)"/><path d="M843.632 409.727C843.632 398.329 834.392 393.321 805.465 389.003 801.666 388.399 801.062 386.844 804.602 386.844 808.747 386.844 822.044 389.435 829.039 391.68 840.437 395.307 846.222 401.092 846.222 409.123 846.222 411.799 845.877 412.749 844.927 412.749 843.977 412.749 843.632 411.799 843.632 409.727Z" fill="#FFFFFF" transform="matrix(1.00132 0 0 1 8.2 8.2)"/><path d="M732.846 389.694C731.55 388.485 732.328 387.708 734.832 387.708 736.559 387.708 737.422 388.14 737.422 389.003 737.422 390.298 733.968 390.817 732.846 389.694Z" fill="#FFFFFF" transform="matrix(1.00132 0 0 1 8.2 8.2)"/><path d="M742.603 387.276C742.603 386.326 743.553 385.981 746.057 385.981 748.561 385.981 749.511 386.326 749.511 387.276 749.511 388.226 748.561 388.571 746.057 388.571 743.553 388.571 742.603 388.226 742.603 387.276Z" fill="#FFFFFF" transform="matrix(1.00132 0 0 1 8.2 8.2)"/><path d="M787.677 386.672C787.937 385.981 790.182 385.463 793.808 385.29 798.557 385.117 799.594 385.29 799.594 386.413 799.594 387.449 798.385 387.708 793.463 387.708 788.973 387.708 787.418 387.449 787.677 386.672Z" fill="#FFFFFF" transform="matrix(1.00132 0 0 1 8.2 8.2)"/><path d="M756.592 385.808C756.937 384.945 760.477 384.599 769.63 384.427 780.51 384.254 782.324 384.427 782.324 385.549 782.324 386.672 780.424 386.844 769.285 386.844 759.269 386.844 756.333 386.585 756.592 385.808Z" fill="#FFFFFF" transform="matrix(1.00132 0 0 1 8.2 8.2)"/><path d="M131.51 343.065C128.488 342.461 129.092 341.338 133.496 339.352 147.916 333.049 166.309 313.361 186.342 282.794 189.45 278.044 194.199 271.482 196.876 268.114 208.792 253.435 233.488 217.082 256.716 180.038 265.697 165.79 273.295 155.17 287.37 137.295 306.108 113.636 306.108 113.549 315.175 107.332 320.183 103.964 326.659 99.906 329.681 98.3517 332.617 96.7975 335.035 95.5022 335.035 95.3295 335.035 94.0343 294.364 85.1403 293.587 86.3492 292.983 87.2127 266.819 86.3492 266.819 85.3994 266.819 85.054 268.632 84.5359 270.964 84.3632 273.209 84.1905 271.223 84.0178 266.56 83.9314 261.724 83.8451 258.27 84.1041 258.53 84.5359 259.22 85.5721 251.19 86.1765 228.653 86.8673 216.564 87.2127 209.829 87.1264 209.829 86.6083 209.829 86.0902 212.764 85.4857 216.305 85.2267 222.522 84.7086 227.962 82.8089 227.962 81.2546 227.962 80.5638 252.399 79.0095 262.07 79.0959 297.732 79.5276 313.534 81.1683 337.971 87.1264L348.074 89.5441 355.931 86.1765C364.653 82.4635 371.992 80.3048 376.224 80.3048 380.282 80.3048 379.764 81.4273 374.756 83.1543 372.424 84.0178 368.884 85.9175 366.811 87.4717 361.89 91.2711 360.508 92.0483 361.285 90.8394 362.149 89.3714 360.767 89.5441 358.695 91.0984 357.745 91.7892 357.486 92.3937 358.09 92.3937 358.695 92.3937 359.126 92.8254 358.954 93.3435 358.867 93.8616 361.717 95.3295 365.257 96.6248 379.332 101.892 388.571 108.196 395.997 117.694 411.799 137.986 412.317 155.342 397.552 174.512 391.421 182.456 374.497 196.876 371.215 196.876 370.524 196.876 364.653 199.208 358.09 202.057 341.338 209.397 328.559 213.023 316.211 214.232 303.776 215.355 288.665 214.319 287.111 212.074 285.816 210.347 284.952 210.26 284.952 211.987 284.952 213.11 284.521 213.023 282.535 211.556 280.376 209.915 269.237 206.375 266.474 206.375 265.956 206.375 264.142 208.62 262.588 211.383 255.853 222.695 240.396 246.095 239.446 246.268 238.928 246.441 231.848 256.457 223.817 268.546 200.33 303.863 192.904 313.016 179.865 322.86 173.476 327.609 165.963 331.581 163.286 331.581 162.337 331.581 161.473 332.185 161.3 332.963 161.128 333.912 156.724 335.898 148.175 339.007 141.095 341.597 134.877 343.583 134.359 343.583 133.841 343.497 132.546 343.238 131.51 343.065ZM329.422 202.662C345.051 198.517 349.11 196.444 357.831 188.241 369.229 177.361 375.964 165.963 380.023 150.42 382.268 141.958 383.218 124.257 381.663 119.68 379.418 112.772 363.444 99.0425 356.363 97.8337 354.723 97.5746 351.873 97.8337 350.06 98.4381 342.893 100.77 340.216 103.619 324.241 126.156 315.693 138.245 300.409 159.228 290.133 172.785 279.944 186.428 270.877 198.69 270.014 200.157L268.46 202.834 272.173 203.87C279.858 205.943 284.089 206.202 300.495 206.029 316.815 205.857 317.679 205.77 329.422 202.662ZM389.435 163.977C389.435 163.027 389.09 162.509 388.571 162.768 388.14 163.027 387.708 163.891 387.708 164.582 387.708 165.272 388.14 165.79 388.571 165.79 389.09 165.79 389.435 165.013 389.435 163.977ZM398.761 147.484C399.02 142.822 398.847 140.749 398.156 140.749 397.638 140.749 397.206 139.281 397.206 137.295 397.206 134.705 396.602 133.237 394.616 131.078L392.025 128.229 392.543 130.646C392.889 132.114 392.716 132.978 392.112 132.978 391.507 132.978 391.162 135.655 391.162 140.749 391.162 148.434 391.162 148.521 393.234 148.521 394.357 148.521 395.566 149.039 395.738 149.643 395.997 150.161 396.257 149.816 396.257 148.78 396.343 147.657 396.775 146.794 397.206 146.794 398.329 146.794 398.329 147.139 396.775 152.838 395.134 158.883 395.22 161.041 396.947 157.156 397.724 155.515 398.502 151.111 398.761 147.484ZM402.474 136.432C401.697 134.446 401.61 134.618 401.61 137.813 401.524 139.799 401.783 142.735 402.215 144.29 402.819 147.053 402.819 147.053 403.078 142.908 403.251 140.49 402.905 137.554 402.474 136.432ZM385.722 135.396C385.549 134.273 385.376 135.137 385.376 137.295 385.376 139.454 385.549 140.317 385.722 139.281 385.895 138.159 385.895 136.432 385.722 135.396ZM385.981 121.666C385.981 121.148 385.204 119.766 384.254 118.557 382.268 115.967 382.182 116.14 383.477 119.939 384.427 122.53 385.981 123.652 385.981 121.666ZM384.427 111.131C382.872 109.491 379.937 107.332 377.951 106.21 373.719 103.878 374.065 104.396 380.627 109.836 386.326 114.585 388.399 115.276 384.427 111.131Z" fill="#FFFFFF" transform="matrix(1.00132 0 0 1 8.2 8.2)"/><path d="M664.889 338.921C664.889 338.23 665.58 337.625 666.443 337.625 667.738 337.539 667.738 337.453 666.53 336.762 665.062 335.898 658.844 336.589 658.844 337.625 658.844 337.971 657.895 338.489 656.686 338.662 655.218 339.007 654.527 338.748 654.527 337.971 654.527 337.28 655.391 336.762 656.599 336.762 657.722 336.762 659.104 336.157 659.708 335.553 660.226 334.862 662.903 333.826 665.58 333.222 680.691 329.94 699.947 307.576 711.604 279.771 712.64 277.181 718.512 266.733 724.643 256.716 730.946 246.182 735.609 237.46 735.523 236.424 735.523 235.302 737.681 230.552 740.444 225.803 752.102 205.511 780.424 149.816 779.561 148.866 779.215 148.607 775.934 147.484 772.221 146.362L765.486 144.462 771.789 143.771C775.157 143.426 778.006 142.735 778.006 142.303 778.006 141.267 767.385 142.131 765.14 143.34 764.277 143.771 763.154 143.771 762.55 143.34 760.823 142.303 763.5 141.095 769.803 139.972 779.215 138.331 779.733 138.331 779.733 139.54 779.733 140.317 780.77 140.749 782.756 140.749 785.778 140.749 785.864 140.577 788.973 133.582 799.766 109.491 811.337 92.7391 818.504 90.9257 819.713 90.6667 824.808 87.5581 829.989 84.1041 839.746 77.5416 846.309 74.6057 852.698 73.8286 854.857 73.5695 856.584 73.4832 856.584 73.6559 856.584 73.8286 853.13 76.5054 848.985 79.7003 836.033 89.2851 826.189 101.374 818.59 116.658 816.345 121.234 813.064 126.847 811.337 129.092 809.61 131.337 808.229 133.755 808.229 134.359 808.229 135.05 807.883 135.568 807.365 135.568 806.933 135.568 806.502 135.223 806.502 134.705 806.502 134.273 806.156 133.841 805.811 133.841 804.861 133.841 801.752 140.577 802.443 141.267 802.702 141.526 803.134 140.922 803.479 139.972 804.257 137.382 805.984 137.727 805.293 140.317L804.775 142.476 814.273 142.476C823.34 142.476 823.858 142.563 823.34 144.117 822.735 146.017 822.822 146.017 845.79 148.089 910.984 153.874 948.287 154.824 977.387 151.456 1020.73 146.448 1052.42 130.819 1071.68 105.001 1074.53 101.115 1078.16 96.6248 1079.62 94.8978 1081.18 93.2571 1082.82 91.0984 1083.42 90.1486 1084.37 88.5943 1084.46 88.5943 1084.46 90.3213 1084.63 95.5886 1064.69 119.68 1053.55 127.624 1049.83 130.301 1048.37 131.769 1049.32 131.942 1050.09 132.114 1059.85 128.315 1070.9 123.479 1081.96 118.73 1091.71 114.931 1092.58 115.19 1093.44 115.363 1096.89 113.981 1100.18 112.081 1103.54 110.268 1106.82 108.886 1107.51 109.145 1108.21 109.404 1115.2 107.246 1123.14 104.396 1155.87 92.5663 1184.28 84.7086 1202.41 82.3771 1208.11 81.6863 1215.37 80.4775 1218.56 79.7867 1221.67 79.0095 1228.49 78.146 1233.67 77.8006 1257.16 76.2464 1272.61 80.9092 1283.84 92.7391 1288.16 97.3156 1290.92 103.533 1290.92 108.627 1290.92 112.168 1288.76 110.182 1288.24 106.123 1287.03 96.2794 1279.78 89.8032 1263.98 84.5359L1255.95 81.8591 1237.38 82.2908C1217.09 82.7225 1206.82 84.1905 1182.55 90.3213 1175.3 92.221 1169.34 93.2571 1167.7 92.9981 1165.54 92.6527 1165.02 92.8254 1165.46 93.7752 1165.8 94.7251 1165.28 94.8978 1163.12 94.3797 1161.05 94.0343 1160.45 94.1206 1160.88 94.8978 1161.4 95.5886 1160.97 95.7613 1159.32 95.3295 1156.22 94.5524 1152.76 95.5886 1152.76 97.2292 1152.76 98.2654 1152.24 98.5244 1150.6 98.0927 1149.31 97.7473 1148.44 97.92 1148.44 98.5244 1148.44 99.0425 1147.58 99.3016 1146.54 99.2152 1145.42 99.0425 1144.13 99.2152 1143.7 99.4743 1140.15 101.719 1112.09 112.513 1110.28 112.34 1108.9 112.254 1107.86 112.599 1107.86 113.031 1107.86 113.463 1107.17 113.636 1106.31 113.377 1105.44 113.204 1099.31 115.363 1092.66 118.385 1060.63 132.546 1023.84 146.276 1002.51 151.888 986.712 156.033 979.286 157.069 956.145 158.192 943.106 158.796 934.298 159.573 934.298 160.005 934.298 161.3 963.398 160.005 980.063 158.019 996.988 155.947 996.47 156.033 996.47 157.415 996.47 158.71 984.899 160.35 959.34 162.768 937.321 164.841 924.8 165.359 924.8 164.236 924.8 162.596 916.424 162.941 915.82 164.495 915.474 165.618 914.438 165.79 910.811 165.359 900.104 164.15 874.199 160.264 850.367 156.292 833.529 153.443 822.217 151.975 817.295 151.975 810.301 151.975 809.956 151.888 810.733 150.334 811.51 149.039 811.337 148.607 809.697 148.175 808.66 147.916 806.415 147.657 804.775 147.743 801.839 147.743 801.58 148.003 796.485 156.983 793.549 162.077 785.605 176.93 778.87 189.968 741.049 262.761 714.626 310.339 708.841 316.124 702.71 322.255 689.498 330.027 674.387 336.33 664.975 340.302 664.889 340.302 664.889 338.921ZM913.143 162.423C912.02 161.387 896.305 160.523 896.305 161.473 896.305 162.337 900.19 162.855 908.394 163.027 911.589 163.114 913.575 162.855 913.143 162.423ZM920.483 158.883C920.483 158.019 905.112 158.537 904.163 159.401 903.99 159.573 907.53 159.746 912.107 159.746 917.288 159.746 920.483 159.401 920.483 158.883ZM900.622 158.019C900.622 157.587 899.327 157.156 897.686 157.156 896.046 157.156 894.405 157.587 894.146 158.019 893.801 158.537 895.01 158.883 897.082 158.883 899.068 158.883 900.622 158.537 900.622 158.019Z" fill="#FFFFFF" transform="matrix(1.00132 0 0 1 8.2 8.2)"/><path d="M762.464 332.963C758.923 330.372 754.692 326.918 753.051 325.191 750.202 322.255 750.029 321.651 749.166 313.102L748.302 304.122 751.065 298.596C752.533 295.66 755.556 290.479 757.801 287.111 759.959 283.83 762.377 279.253 762.982 277.008 765.14 269.841 773.862 259.825 790.441 245.577 799.594 237.719 800.025 237.374 809.438 234.352 829.47 227.876 841.387 226.494 851.23 229.603 854.08 230.466 857.62 232.02 859.002 233.057 862.024 235.215 862.629 235.302 862.629 233.747 862.629 231.934 865.564 229.689 867.982 229.689 871.523 229.689 877.481 232.107 880.071 234.611 881.453 235.906 882.489 237.201 882.489 237.46 882.489 237.806 881.107 239.792 879.467 241.864 876.617 245.577 876.531 245.663 878.085 247.39 879.812 249.29 881.884 253.176 882.834 256.284 883.352 257.752 883.093 258.184 881.884 258.184 880.762 258.184 879.467 256.63 877.912 253.349 875.495 248.513 875.495 248.513 873.681 250.067 866.773 256.198 848.813 292.81 847.604 303.345 846.999 309.044 848.036 311.462 852.612 314.225 855.203 315.865 855.634 315.865 861.765 314.656 876.185 311.721 885.425 307.921 887.324 304.122 887.843 303.086 890.001 300.927 892.074 299.373 895.182 296.955 905.285 285.816 917.288 271.568 921.087 266.992 920.742 269.928 916.51 278.217 911.243 288.32 901.486 301.359 893.973 308.267 884.561 316.902 874.027 323.896 868.5 325.018 867.205 325.364 865.478 326.227 864.615 327.177 863.233 328.559 862.283 328.645 855.375 328.041 845.877 327.177 839.314 325.277 836.033 322.514 833.27 320.183 831.543 313.966 831.543 306.108 831.543 302.913 831.111 301.186 830.075 300.236 828.607 299.027 828.003 299.286 821.181 304.554 805.724 316.47 791.736 325.105 783.187 328.127 780.079 329.25 777.143 330.631 776.625 331.236 776.02 332.013 774.639 332.185 772.566 331.84 769.199 331.322 768.422 332.272 770.667 334.171 772.394 335.639 772.307 337.625 770.494 337.625 769.63 337.625 766.004 335.467 762.464 332.963ZM791.909 315.002C795.881 312.325 803.048 306.885 807.797 302.827 812.546 298.768 816.604 295.66 816.864 295.919 817.554 296.61 798.989 314.052 796.14 315.261 793.204 316.643 792.772 317.765 795.19 317.765 799.594 317.765 814.532 303.172 831.111 282.794 837.242 275.281 843.373 264.488 839.487 267.942 836.81 270.359 835.601 269.669 837.76 266.819 838.796 265.351 840.178 264.401 840.782 264.574 841.473 264.919 842.941 263.02 844.582 259.738 846.049 256.803 849.331 251.017 851.921 246.872 854.512 242.728 856.584 239.015 856.584 238.583 856.584 238.237 852.526 237.978 847.517 238.151 840.351 238.41 838.451 238.669 838.451 239.705 838.451 240.569 837.242 240.914 833.788 240.914 822.303 240.914 810.128 247.65 795.19 262.243 782.324 274.763 775.416 285.557 771.789 298.768 770.321 303.949 769.371 309.13 769.63 310.166 769.976 311.289 771.357 314.052 772.825 316.383L775.502 320.528 780.079 320.183C783.878 319.837 785.951 318.974 791.909 315.002ZM762.982 315.002C762.723 312.498 762.204 309.562 761.945 308.526 761.514 307.058 761.773 306.54 762.809 306.54 763.845 306.54 764.19 305.676 764.19 303.086 764.19 301.186 763.845 299.632 763.327 299.632 762.895 299.632 762.464 300.409 762.464 301.359 762.464 302.309 761.859 303.345 761.082 303.69 759.873 304.122 759.787 305.072 760.218 309.907 760.996 317.161 761.6 319.492 762.636 319.492 763.241 319.492 763.327 317.851 762.982 315.002ZM840.178 309.217C840.178 304.554 839.055 296.178 838.451 296.178 838.105 296.178 837.242 298.509 836.465 301.272 835.256 306.194 835.256 306.54 837.069 309.044 839.314 312.325 840.178 312.411 840.178 309.217ZM833.615 290.479C834.479 288.32 833.702 288.147 831.975 290.133 830.679 291.601 830.593 291.86 831.716 291.86 832.493 291.86 833.356 291.256 833.615 290.479ZM846.654 275.54C847.086 274.072 846.999 273.641 846.136 273.9 845.445 274.159 844.841 275.454 844.668 276.836 844.323 279.685 845.618 278.908 846.654 275.54ZM783.015 256.889C786.814 252.658 789.75 248.945 789.491 248.686 788.886 248.081 774.552 262.933 774.552 264.142 774.552 266.042 776.02 264.833 783.015 256.889ZM819.886 239.36C824.635 237.46 830.766 235.474 833.529 234.87 836.206 234.352 838.278 233.575 838.019 233.143 837.069 231.589 831.284 231.33 826.535 232.711 822.822 233.834 809.697 238.756 808.488 239.533 807.797 240.051 809.524 243.505 810.301 243.159 810.819 242.987 815.137 241.26 819.886 239.36Z" fill="#FFFFFF" transform="matrix(1.00132 0 0 1 8.2 8.2)"/><path d="M58.4584 276.317C39.1162 272.863 25.8184 263.279 17.9606 247.131L14.2476 239.619 14.2476 225.371C14.334 211.556 14.4203 210.865 17.1835 202.748 24.4368 181.506 42.7429 160.005 72.9651 137.295 78.6641 132.978 86.8673 127.71 91.0984 125.552 103.446 119.162 106.469 117.262 105.346 116.571 104.569 116.053 104.569 115.794 105.432 115.19 106.037 114.844 106.641 114.931 106.814 115.449 107.073 116.053 108.8 115.449 111.218 113.981 113.463 112.599 119.248 110.009 124.17 108.282 130.301 106.037 132.891 104.655 132.632 103.878 132.287 103.015 132.719 102.842 134.273 103.274 135.482 103.533 136.432 103.446 136.432 102.928 136.432 100.856 156.378 95.5022 179.865 91.0984 193.336 88.6806 193.422 88.6806 193.422 89.7168 193.422 90.1486 191.35 90.753 188.932 91.0984 170.712 93.3435 144.808 103.015 105.778 122.184 85.054 132.46 77.0235 137.986 65.1936 150.42 46.1105 170.453 39.0298 183.837 33.2444 210.951 32.381 214.578 31.4311 217.6 30.9994 217.6 30.5676 217.6 30.2222 218.377 30.2222 219.327 30.2222 220.277 30.654 221.054 31.1721 221.054 31.8629 221.054 32.0356 222.781 31.7765 226.494 31.5175 229.516 31.8629 234.093 32.5536 237.029 33.2444 239.878 33.7625 243.418 33.7625 244.8 33.7625 246.268 34.5397 249.549 35.4895 252.226 36.9575 256.371 37.5619 256.975 39.1162 256.716 40.5841 256.457 41.534 257.234 43.4337 260.17 45.8514 264.142 46.3695 265.524 44.9016 264.66 44.4698 264.401 44.0381 264.488 44.0381 265.006 44.0381 266.128 51.8095 269.755 58.1994 271.568 62.6032 272.863 66.0571 273.036 82.3771 272.604 102.928 272.173 111.304 270.791 126.07 265.524 142.131 259.825 165.877 246.009 182.197 232.97 190.141 226.667 185.046 232.02 175.721 239.878 165.1 248.772 156.551 254.126 140.317 261.811 126.243 268.46 114.931 272.604 104.051 275.022 96.9702 276.663 65.021 277.526 58.4584 276.317ZM24.1778 246.7C22.3644 243.159 20.6375 238.756 20.2921 236.77 19.9467 234.783 19.3422 233.143 18.9105 233.143 17.4425 233.143 18.1333 238.756 20.2057 243.073 21.8463 246.786 26.3365 253.003 27.2 253.003 27.3727 253.003 25.9911 250.154 24.1778 246.7ZM30.1359 238.583C29.186 234.352 28.927 234.006 28.6679 236.165 28.3225 238.928 30.2222 246.354 30.8267 244.627 31.0857 244.023 30.7403 241.26 30.1359 238.583ZM25.9048 222.954C25.9048 221.14 25.7321 220.881 25.0413 221.917 23.9187 223.644 23.9187 226.494 25.0413 225.803 25.5594 225.544 25.9048 224.249 25.9048 222.954ZM33.3308 198.69C33.6762 196.703 33.5898 195.926 33.0717 196.444 31.8629 197.74 30.2222 204.043 30.3086 206.893 30.3949 209.051 30.5676 208.965 31.6038 205.597 32.2946 203.439 33.0717 200.33 33.3308 198.69ZM30.2222 187.205C30.2222 185.564 30.0495 185.478 29.3587 186.514 28.2362 188.155 28.2362 189.105 29.3587 189.105 29.8768 189.105 30.2222 188.241 30.2222 187.205Z" fill="#FFFFFF" transform="matrix(1.00132 0 0 1 8.2 8.2)"/><path d="M695.111 210.347C688.894 208.62 683.886 205.511 683.886 203.439 683.886 202.662 713.072 187.378 714.54 187.378 715.144 187.378 711.949 195.149 709.013 201.021 706.682 205.597 701.242 211.642 699.601 211.469 699.256 211.469 697.27 210.951 695.111 210.347Z" fill="#FFFFFF" transform="matrix(1.00132 0 0 1 8.2 8.2)"/><path d="M707.2 185.305C707.2 183.837 707.632 183.06 708.582 183.06 709.445 183.06 709.79 183.665 709.618 184.96 709.186 187.723 707.2 187.982 707.2 185.305Z" fill="#FFFFFF" transform="matrix(1.00132 0 0 1 8.2 8.2)"/><path d="M444.957 177.016C442.971 175.893 442.022 174.512 441.676 172.353 441.158 169.935 440.554 169.244 438.481 168.813 434.941 168.036 429.76 162.596 428.465 158.364 427.947 156.378 427.429 152.147 427.429 148.866 427.429 136.518 434.509 128.66 445.562 128.66 456.701 128.66 463.695 136.432 463.695 149.039 463.695 159.228 460.759 165.013 453.851 168.295 451.606 169.244 449.879 170.712 449.879 171.317 449.879 174.166 451.606 177.016 453.333 177.016 454.283 177.016 455.06 177.448 455.06 177.879 455.06 179.434 447.893 178.829 444.957 177.016ZM448.757 167.949C452.124 165.531 453.765 159.401 453.765 148.952 453.765 138.072 451.779 132.114 447.807 130.215 444.439 128.747 441.503 130.474 439.258 135.396 436.754 140.922 436.495 156.292 438.913 162.596 441.331 168.64 444.871 170.626 448.757 167.949Z" fill="#FFFFFF" transform="matrix(1.00132 0 0 1 8.2 8.2)"/><path d="M481.397 169.072C480.015 168.554 477.857 167.345 476.82 166.309 472.762 162.682 472.33 160.696 472.33 145.671 472.33 131.855 472.244 131.51 470.43 130.56 468.876 129.869 470.258 129.61 477.079 129.61 483.21 129.61 485.11 129.869 483.728 130.474L481.742 131.251 482.001 147.571C482.26 163.545 482.347 163.977 484.333 166.136 485.887 167.777 487.355 168.381 489.773 168.381 494.177 168.381 495.903 167.345 498.408 163.459 500.221 160.437 500.394 159.055 500.739 146.189L500.998 132.201 498.149 130.905 495.213 129.697 501.257 129.61C506.956 129.61 507.215 129.697 505.057 130.819L502.725 132.114 502.466 146.103C502.121 161.818 501.343 164.409 495.644 168.122 492.536 170.281 486.06 170.712 481.397 169.072Z" fill="#FFFFFF" transform="matrix(1.00132 0 0 1 8.2 8.2)"/><path d="M552.117 157.069C545.986 149.902 540.114 142.994 539.078 141.699L537.178 139.454 537.092 153.011 537.092 166.568 539.51 167.863C541.755 169.158 541.755 169.158 536.488 169.244 530.616 169.244 529.839 168.813 533.206 167.517L535.365 166.654 535.365 149.125 535.365 131.596 533.034 130.646C530.702 129.783 530.875 129.697 534.674 129.61 536.919 129.524 539.683 129.869 540.891 130.387 542.014 130.819 546.418 135.137 550.649 139.972 554.794 144.894 559.284 149.989 560.579 151.456L562.911 154.133 562.997 143.167 562.997 132.201 560.665 130.905C558.334 129.61 558.42 129.61 564.292 129.61L570.336 129.61 567.573 130.992 564.724 132.46 564.724 151.284C564.724 161.646 564.378 170.108 564.033 170.108 563.601 170.108 558.248 164.236 552.117 157.069Z" fill="#FFFFFF" transform="matrix(1.00132 0 0 1 8.2 8.2)"/><path d="M511.446 168.295C512.742 167.517 512.914 165.704 512.914 149.384 512.914 133.064 512.742 131.251 511.446 130.474 510.324 129.783 512.137 129.61 518.095 129.61 524.658 129.61 525.867 129.869 524.399 130.56 522.413 131.51 522.413 131.683 522.413 149.557 522.413 167.431 522.413 167.604 524.399 168.381 525.694 168.899 523.881 169.158 518.095 169.158 512.137 169.158 510.324 168.985 511.446 168.295Z" fill="#FFFFFF" transform="matrix(1.00132 0 0 1 8.2 8.2)"/><path d="M582.684 168.381C584.584 167.604 584.584 167.431 584.584 149.384L584.584 131.251 581.216 131.251C578.194 131.251 577.849 131.51 577.331 134.014 576.813 136.777 574.568 139.886 573.186 139.886 572.841 139.886 572.495 137.554 572.495 134.705L572.495 129.524 589.333 129.524 606.171 129.524 606.171 134.705C606.171 141.44 604.272 141.785 601.595 135.568 599.954 131.596 599.523 131.251 596.932 131.251L594.083 131.251 594.083 149.384C594.083 167.431 594.083 167.604 596.069 168.381 597.364 168.899 595.378 169.158 589.333 169.158 583.289 169.158 581.303 168.899 582.684 168.381Z" fill="#FFFFFF" transform="matrix(1.00132 0 0 1 8.2 8.2)"/><path d="M604.79 168.036C606.949 166.999 608.157 164.668 614.806 148.607 618.951 138.504 622.75 129.869 623.269 129.351 624.391 128.229 623.873 127.365 633.803 151.111 637.257 159.401 640.797 166.913 641.747 167.777 643.474 169.158 643.388 169.244 638.725 169.244 632.94 169.244 630.263 167.345 628.104 161.905L626.636 158.019 619.556 158.019 612.475 158.019 610.662 162.337 608.848 166.654 611.18 167.949C613.425 169.158 613.338 169.158 607.898 169.158 602.631 169.072 602.458 169.072 604.79 168.036ZM625.168 155.688C625.168 155.256 623.959 151.975 622.405 148.175L619.556 141.44 617.224 146.794C615.843 149.816 614.547 153.097 614.288 154.22 613.77 156.206 613.857 156.292 619.469 156.292 622.578 156.292 625.168 156.033 625.168 155.688Z" fill="#FFFFFF" transform="matrix(1.00132 0 0 1 8.2 8.2)"/><path d="M662.989 168.381C664.889 167.604 664.889 167.431 664.889 149.557 664.889 131.683 664.889 131.51 662.989 130.56 661.435 129.783 663.335 129.61 672.229 129.783 681.727 129.956 683.972 130.301 686.908 131.855 691.484 134.273 693.902 136.95 695.543 141.526 699.515 152.838 694.42 165.013 684.404 167.949 679.568 169.417 659.449 169.763 662.989 168.381ZM682.072 165.704C685.44 162.509 686.562 158.451 686.562 149.384 686.562 139.886 685.44 136 681.727 133.15 680.432 132.114 678.187 131.251 676.891 131.251L674.387 131.251 674.387 149.384 674.387 167.517 677.237 167.517C678.964 167.517 680.864 166.827 682.072 165.704Z" fill="#FFFFFF" transform="matrix(1.00132 0 0 1 8.2 8.2)"/><path d="M698.22 167.949C700.638 166.827 701.587 165.013 708.668 148.003 712.985 137.641 716.871 129.006 717.303 128.919 717.735 128.747 721.707 137.468 726.197 148.175 732.069 162.164 734.918 167.949 736.127 168.467 737.336 168.899 736.213 169.158 732.673 169.158 726.283 169.244 724.47 168.122 721.966 162.337L720.066 158.019 713.158 158.019 706.25 158.019 704.61 161.991C702.451 166.999 702.451 166.999 705.3 168.122 707.286 168.899 706.855 169.072 701.587 169.072 695.802 169.072 695.629 169.072 698.22 167.949ZM719.289 155.947C719.289 155.774 718.253 153.356 717.044 150.593 715.835 147.743 714.453 144.549 713.935 143.34 713.158 141.354 712.985 141.613 710.568 147.225 706.423 157.069 706.25 156.292 713.158 156.292 716.526 156.292 719.289 156.119 719.289 155.947Z" fill="#FFFFFF" transform="matrix(1.00132 0 0 1 8.2 8.2)"/><path d="M999.06 155.86C999.06 155.17 999.837 154.565 1000.79 154.565 1001.74 154.565 1002.51 155.17 1002.51 155.86 1002.51 156.551 1001.74 157.156 1000.79 157.156 999.837 157.156 999.06 156.551 999.06 155.86Z" fill="#FFFFFF" transform="matrix(1.00132 0 0 1 8.2 8.2)"/><path d="M1004.85 154.997C1004.41 154.047 1004.85 153.702 1006.49 153.702 1007.87 153.702 1008.56 154.133 1008.39 154.824 1007.78 156.378 1005.36 156.551 1004.85 154.997Z" fill="#FFFFFF" transform="matrix(1.00132 0 0 1 8.2 8.2)"/><path d="M195.149 88.9397C195.149 88.5079 196.099 88.0762 197.308 88.0762 198.517 88.0762 199.467 88.5079 199.467 88.9397 199.467 89.4578 198.517 89.8032 197.308 89.8032 196.099 89.8032 195.149 89.4578 195.149 88.9397Z" fill="#FFFFFF" transform="matrix(1.00132 0 0 1 8.2 8.2)"/><path d="M202.921 87.6444C202.921 86.8673 203.698 86.3492 205.079 86.3492 206.461 86.3492 207.238 86.8673 207.238 87.6444 207.238 88.4216 206.461 88.9397 205.079 88.9397 203.698 88.9397 202.921 88.4216 202.921 87.6444Z" fill="#FFFFFF" transform="matrix(1.00132 0 0 1 8.2 8.2)"/><path d="M208.965 81.1683C208.965 80.7365 209.57 80.3048 210.26 80.3048 210.951 80.3048 211.556 80.7365 211.556 81.1683 211.556 81.6863 210.951 82.0317 210.26 82.0317 209.57 82.0317 208.965 81.6863 208.965 81.1683Z" fill="#FFFFFF" transform="matrix(1.00132 0 0 1 8.2 8.2)"/></g></g></g></g></g><g clip-path="url(#clip7)"><g clip-path="url(#clip8)"><g clip-path="url(#clip9)"><path d="M363.936 443.09C352.677 441.397 343.704 437.757 343.704 434.878 343.704 434.37 343.111 433.354 342.434 432.593 341.757 431.831 340.91 429.376 340.656 427.259 340.148 423.958 340.317 423.28 341.418 423.28 342.265 423.28 342.857 424.466 343.28 426.921 344.212 432.423 345.82 434.54 348.868 433.862 350.646 433.439 351.492 433.693 351.831 434.54 352.593 436.656 362.751 437.249 369.185 435.64 381.714 432.423 393.058 424.72 408.55 408.72L418.624 398.307 415.238 397.714C411.005 396.952 403.217 397.037 400.423 397.799 399.238 398.138 396.106 398.053 393.397 397.63 389.249 397.037 386.54 397.291 376.212 399.492 363.344 402.201 360.55 402.624 361.905 401.439 362.836 400.593 372.233 397.545 376.55 396.614 378.074 396.275 379.513 395.598 379.767 395.005 380.19 393.82 403.894 393.82 414.899 394.921 420.741 395.513 421.418 395.429 421.926 393.989 422.265 393.058 422.18 392.296 421.672 392.127 421.164 391.958 420.741 391.196 420.741 390.518 420.741 389.503 421.333 389.333 423.28 389.757 425.82 390.18 425.989 389.926 438.349 371.386 462.476 335.407 477.714 311.111 481.778 302.307 484.063 297.481 485.926 293.333 485.926 293.164 485.926 292.91 484.571 294.519 482.878 296.72 481.27 298.921 474.667 305.947 468.317 312.296 453.672 327.026 451.81 328.042 439.28 328.042 432 328.042 429.884 327.788 428.698 326.603 427.683 325.757 426.243 325.418 424.974 325.672L422.772 326.095 420.825 313.058 418.878 300.106 421.926 290.794C426.921 276.064 436.063 260.91 447.238 249.058 451.725 244.402 451.979 243.217 448.423 244.571 444.868 245.926 436.571 246.519 432.847 245.672L429.376 244.91 418.963 257.27C403.979 275.048 368.762 310.011 360.212 315.683 350.392 322.116 340.656 326.688 333.206 328.466 326.942 329.905 326.349 329.905 318.899 328.466 302.053 325.164 291.81 320.085 288.169 313.058 285.376 307.64 287.746 292.995 293.333 281.397 301.46 264.466 319.577 247.111 344.55 232.127 351.407 227.979 355.471 226.116 358.265 225.778 360.466 225.439 363.005 224.762 363.936 224.169 365.291 223.407 366.899 223.323 371.217 224.085 378.921 225.439 380.952 226.878 380.952 231.111 380.952 239.661 374.349 249.312 363.259 257.185 360.212 259.302 353.862 264.296 349.206 268.19 343.873 272.593 335.323 278.349 326.095 283.767 318.053 288.423 311.28 292.571 311.026 292.995 310.011 294.688 308.571 307.132 309.079 309.672 310.18 315.09 316.529 319.407 324.825 320.508 333.884 321.693 347.598 316.698 360.296 307.64 368 302.138 381.968 289.27 388.571 281.651 391.619 278.095 394.497 275.217 395.09 275.217 397.206 275.048 409.651 256.508 411.513 250.667 412.021 248.974 413.376 246.519 414.392 245.079 418.624 239.323 420.148 235.259 419.64 230.519 419.217 226.455 419.471 225.693 421.926 222.053 424.804 217.82 427.09 216.212 431.661 215.365 434.116 214.857 434.37 215.026 436.402 219.344 438.942 224.847 438.942 225.693 436.825 230.772 435.894 232.974 435.217 234.836 435.302 234.921 435.471 235.005 438.011 235.937 441.058 236.952 446.392 238.645 446.815 238.645 451.217 237.46 460.529 234.751 472.042 230.772 477.206 228.487L482.455 226.116 483.217 228.487C483.979 230.688 483.302 231.534 470.265 245.587 458.328 258.286 455.45 261.926 449.185 272.169 445.291 278.688 439.958 286.73 437.503 290.032 434.201 294.434 432.254 298.328 430.138 304.423 427.259 312.635 427.259 312.889 428.614 315.767 430.307 319.323 432.339 320.677 437.333 321.608 444.36 322.963 448 321.439 455.704 314.159 480.085 291.217 494.815 274.286 502.518 260.402 507.09 252.021 512.593 246.519 527.238 235.513 536.974 228.233 552.296 220.275 558.138 219.513 562.878 218.921 563.556 220.36 559.407 222.053 554.497 224.169 537.566 244.317 538.921 246.434 539.175 246.857 542.222 244.995 545.862 242.455 557.376 234.159 572.275 227.894 572.275 231.28 572.275 232.042 570.836 232.804 568.296 233.397 565.079 233.989 564.571 234.328 565.841 234.921 566.857 235.344 569.651 234.921 573.884 233.481 578.878 231.873 580.317 231.111 580.317 229.841 580.317 228.656 581.164 228.063 583.28 227.556 587.852 226.54 591.407 227.471 593.778 230.349 596.741 233.82 600.212 245.249 600.212 251.513 600.212 262.18 595.725 275.556 587.513 289.101 582.265 297.82 578.878 301.376 568.127 309.672 560.254 315.683 560.169 315.767 563.132 315.767 567.28 315.767 574.476 313.143 583.704 308.233 589.037 305.439 591.915 304.423 592.423 304.931 593.016 305.524 594.286 305.185 596.317 303.915 600.212 301.545 600.296 300.021 596.402 302.307 594.794 303.323 593.439 303.915 593.439 303.661 593.439 303.407 600.212 297.397 608.508 290.37 629.079 272.593 632.127 269.545 635.09 263.704 636.529 260.91 641.354 251.767 646.011 243.386L654.307 228.148 661.164 227.894C668.19 227.725 671.323 228.571 671.323 230.688 671.323 231.619 670.73 231.704 668.614 231.026 665.058 230.011 663.111 230.011 664.127 231.026 664.635 231.45 666.074 231.958 667.429 232.127L669.884 232.381 663.534 244.656C660.063 251.429 653.714 263.111 649.482 270.646 642.201 283.344 641.608 284.783 640.847 290.963 639.746 299.767 639.153 302.222 638.222 302.222 637.799 302.222 637.46 303.915 637.46 306.032 637.46 308.995 637.714 309.672 638.73 309.333 639.407 308.995 640 309.164 640 309.672 640 311.619 644.571 314.921 647.196 314.921 653.206 314.921 671.746 298.582 685.714 281.058 689.524 276.148 693.249 272 693.926 271.915 694.603 271.746 695.45 270.646 695.873 269.545 696.296 268.444 697.312 267.513 697.989 267.513 699.598 267.513 699.767 267.175 693.164 276.995 681.566 294.349 667.767 309.249 656.085 317.037 648.72 321.947 644.825 323.556 639.831 323.725 637.63 323.725 635.767 324.063 635.767 324.487 635.767 325.503 631.619 325.164 629.079 323.81 626.201 322.37 622.73 318.392 620.529 313.989 618.751 310.603 618.243 303.915 619.683 303.915 620.19 303.915 620.529 304.339 620.529 304.762 620.529 305.27 620.952 305.608 621.376 305.608 621.884 305.608 622.222 304.677 622.222 303.492 622.222 302.138 621.714 301.376 620.952 301.376 620.275 301.376 619.683 300.868 619.683 300.275 619.683 298.667 623.323 288.254 625.947 282.413 627.132 279.704 628.148 277.333 628.148 277.249 628.148 277.164 624.085 281.228 619.09 286.307 597.079 308.741 581.503 318.815 558.307 325.503 547.64 328.55 543.492 329.058 543.492 327.28 543.492 326.18 542.476 325.926 537.482 325.926 532.148 325.926 531.471 326.095 531.048 327.619 530.624 329.228 530.116 329.312 526.645 328.804 524.529 328.466 522.413 328.042 521.905 327.788 521.481 327.534 519.704 327.365 517.926 327.534 515.471 327.704 514.709 327.45 514.709 326.434 514.709 325.672 514.116 325.079 513.439 325.079 512.762 325.079 512.169 325.757 512.169 326.519 512.169 327.788 512.085 327.788 511.069 326.349 510.053 324.995 509.122 324.91 503.534 325.418 498.116 325.926 497.016 325.757 495.831 324.487 495.153 323.64 494.476 322.624 494.476 322.116 494.392 321.693 493.799 321.27 493.122 321.27 492.275 321.27 490.751 323.725 488.974 327.704 483.302 340.91 472.466 359.026 458.159 379.259 453.757 385.524 450.032 391.45 450.032 392.296 449.947 394.159 448.931 393.82 471.619 399.577 493.545 405.164 518.688 410.159 535.873 412.36 551.534 414.392 570.921 414.815 594.116 413.714 607.153 413.037 608.677 413.122 608.677 414.307 608.677 415.238 607.915 415.661 606.392 415.661 605.037 415.661 593.862 416.423 581.503 417.27 556.275 419.048 549.757 418.878 521.058 415.153 506.667 413.291 466.54 407.111 446.815 403.725L441.143 402.709 431.407 412.021C415.492 427.175 400.593 436.91 386.455 441.312 377.481 444.021 372.656 444.444 363.936 443.09ZM471.534 403.048C471.534 402.37 456.974 397.376 450.201 395.767 447.407 395.005 444.444 395.937 444.444 397.46 444.444 398.899 444.529 398.899 458.836 401.608 471.28 403.979 471.534 404.063 471.534 403.048ZM519.619 319.915C528.085 317.545 538.074 313.228 542.984 309.926 547.556 306.709 558.307 294.095 565.672 283.175 575.069 269.206 582.773 251.344 582.265 244.825 582.011 242.032 581.587 241.439 578.201 239.831 576.169 238.73 572.952 237.884 571.005 237.884 566.603 237.884 556.444 242.878 539.683 253.46L526.984 261.333 522.159 269.291C518.095 275.894 513.016 285.714 506.751 298.836 506.243 300.021 504.974 301.291 504.042 301.714 502.434 302.476 494.815 315.09 494.815 317.037 494.815 317.714 508.36 321.185 512.508 321.608 513.016 321.693 516.148 320.931 519.619 319.915ZM638.222 317.376C636.952 316.868 635.683 315.683 635.429 314.667 635.005 312.889 634.921 312.889 633.566 314.243 631.45 316.36 633.397 318.307 637.376 318.222 640.339 318.138 640.339 318.138 638.222 317.376ZM466.54 308.825C470.603 303.746 468.233 305.185 462.984 311.111 459.513 314.921 459.005 315.683 461.122 314.243 462.561 313.228 465.016 310.772 466.54 308.825ZM632.127 311.026C632.381 310.265 631.873 308.91 630.772 307.894L628.995 306.116 628.995 307.894C628.995 311.788 631.026 313.905 632.127 311.026ZM300.529 294.265C301.037 290.624 302.053 286.053 302.73 284.19 304.085 280.466 304.339 277.757 303.238 278.942 301.291 281.228 297.989 292.825 297.989 297.566 297.989 304.169 299.175 302.646 300.529 294.265ZM437.249 287.831C438.772 284.952 438.772 284.444 437.672 284.444 436.995 284.444 434.286 288.762 434.286 289.947 434.286 291.302 436.148 290.032 437.249 287.831ZM634.582 283.175C635.09 281.228 634.582 279.365 633.735 280.296 632.889 281.312 632.466 285.291 633.227 285.291 633.651 285.291 634.243 284.36 634.582 283.175ZM355.64 255.915C361.312 250.413 365.376 243.302 363.852 241.524 363.175 240.677 363.175 240.085 363.767 239.492 364.868 238.392 363.767 233.905 361.905 232.042 360.804 230.857 360.042 231.026 355.302 233.397 347.936 237.037 341.079 242.455 332.614 251.175 322.54 261.587 316.36 270.222 314.159 276.741 313.228 279.788 312.381 282.497 312.381 282.836 312.381 283.175 321.016 278.349 331.683 272 344.889 264.127 352.339 259.132 355.64 255.915ZM440.212 274.624C440.212 273.947 439.873 273.608 439.365 273.862 438.942 274.116 438.519 274.963 438.519 275.64 438.519 276.317 438.942 276.656 439.365 276.402 439.873 276.148 440.212 275.302 440.212 274.624ZM593.524 268.783C594.794 265.058 595.556 261.672 595.217 261.333 594.878 260.995 593.524 263.534 592.254 267.09 590.984 270.646 589.714 274.116 589.46 274.878 589.122 275.725 589.291 276.064 590.053 275.81 590.646 275.64 592.169 272.423 593.524 268.783ZM560.085 239.153C561.439 238.138 561.524 237.968 560.254 237.884 558.307 237.884 556.19 238.815 556.19 239.661 556.19 240.847 558.222 240.593 560.085 239.153ZM373.164 232.635C373.333 230.18 372.995 229.249 371.132 227.81 369.862 226.878 368.339 226.032 367.746 226.032 366.053 226.032 365.291 227.894 366.73 228.656 367.407 228.995 368.677 230.857 369.524 232.804 371.386 236.868 372.825 236.783 373.164 232.635Z" fill="#FFFFFF" transform="matrix(1.00132 0 0 1 0 120)"/><path d="M612.91 412.698C612.91 412.021 613.672 411.429 614.603 411.429 615.534 411.429 616.296 412.021 616.296 412.698 616.296 413.376 615.534 413.968 614.603 413.968 613.672 413.968 612.91 413.376 612.91 412.698Z" fill="#FFFFFF" transform="matrix(1.00132 0 0 1 0 120)"/><path d="M618.836 411.936C618.836 411.005 619.598 410.582 621.037 410.582 623.661 410.582 623.407 412.529 620.698 412.952 619.429 413.122 618.836 412.783 618.836 411.936Z" fill="#FFFFFF" transform="matrix(1.00132 0 0 1 0 120)"/><path d="M625.608 410.328C625.608 409.481 627.132 408.72 629.841 408.042 635.175 406.772 651.513 398.476 666.243 389.587 676.741 383.323 677.926 382.307 681.228 377.397 683.175 374.434 685.799 371.048 687.153 369.778L689.524 367.492 689.693 371.217C689.862 374.857 689.693 375.111 684.021 379.936 680.804 382.73 677.757 385.185 677.164 385.354 676.402 385.608 676.402 386.116 677.249 387.471 678.349 389.164 678.434 389.164 696.466 384.593 706.455 381.968 714.751 380.106 715.005 380.36 715.259 380.614 715.259 381.63 714.921 382.646 714.413 384.254 713.905 384.508 710.942 384.085 708.656 383.746 707.471 384 707.217 384.762 706.963 385.354 706.116 385.693 705.27 385.439 700.868 384.339 670.899 394.667 653.968 403.217 649.143 405.672 634.836 410.074 628.571 411.09 626.286 411.429 625.608 411.259 625.608 410.328Z" fill="#FFFFFF" transform="matrix(1.00132 0 0 1 0 120)"/><path d="M827.09 401.693C827.09 390.518 818.032 385.608 789.672 381.376 785.947 380.783 785.354 379.259 788.825 379.259 792.889 379.259 805.926 381.799 812.783 384 823.958 387.556 829.63 393.228 829.63 401.101 829.63 403.725 829.291 404.656 828.36 404.656 827.429 404.656 827.09 403.725 827.09 401.693Z" fill="#FFFFFF" transform="matrix(1.00132 0 0 1 0 120)"/><path d="M718.476 382.053C717.206 380.868 717.968 380.106 720.423 380.106 722.116 380.106 722.963 380.529 722.963 381.376 722.963 382.646 719.577 383.153 718.476 382.053Z" fill="#FFFFFF" transform="matrix(1.00132 0 0 1 0 120)"/><path d="M728.042 379.683C728.042 378.751 728.974 378.413 731.429 378.413 733.884 378.413 734.815 378.751 734.815 379.683 734.815 380.614 733.884 380.952 731.429 380.952 728.974 380.952 728.042 380.614 728.042 379.683Z" fill="#FFFFFF" transform="matrix(1.00132 0 0 1 0 120)"/><path d="M772.233 379.09C772.487 378.413 774.688 377.905 778.243 377.735 782.899 377.566 783.915 377.735 783.915 378.836 783.915 379.852 782.73 380.106 777.905 380.106 773.503 380.106 771.979 379.852 772.233 379.09Z" fill="#FFFFFF" transform="matrix(1.00132 0 0 1 0 120)"/><path d="M741.757 378.243C742.095 377.397 745.566 377.058 754.54 376.889 765.206 376.72 766.984 376.889 766.984 377.989 766.984 379.09 765.122 379.259 754.201 379.259 744.381 379.259 741.503 379.005 741.757 378.243Z" fill="#FFFFFF" transform="matrix(1.00132 0 0 1 0 120)"/><path d="M128.931 336.339C125.968 335.746 126.561 334.645 130.878 332.698 145.016 326.519 163.048 307.217 182.688 277.249 185.735 272.593 190.392 266.159 193.016 262.857 204.698 248.466 228.91 212.825 251.683 176.508 260.487 162.54 267.936 152.127 281.735 134.603 300.106 111.407 300.106 111.323 308.995 105.228 313.905 101.926 320.254 97.9471 323.217 96.4233 326.095 94.8995 328.466 93.6296 328.466 93.4603 328.466 92.1905 288.593 83.4709 287.831 84.6561 287.238 85.5026 261.587 84.6561 261.587 83.7249 261.587 83.3862 263.365 82.8783 265.651 82.709 267.852 82.5397 265.905 82.3704 261.333 82.2857 256.593 82.2011 253.206 82.455 253.46 82.8783 254.138 83.8942 246.265 84.4868 224.169 85.164 212.317 85.5026 205.714 85.418 205.714 84.9101 205.714 84.4021 208.593 83.8095 212.063 83.5555 218.159 83.0476 223.492 81.1852 223.492 79.6614 223.492 78.9841 247.45 77.4603 256.931 77.545 291.894 77.9683 307.386 79.5767 331.344 85.418L341.249 87.7884 348.952 84.4868C357.503 80.8466 364.698 78.7302 368.847 78.7302 372.825 78.7302 372.317 79.8307 367.407 81.5238 365.122 82.3704 361.651 84.2328 359.619 85.7566 354.794 89.4815 353.439 90.2434 354.201 89.0582 355.048 87.619 353.693 87.7884 351.661 89.3122 350.73 89.9894 350.476 90.582 351.069 90.582 351.661 90.582 352.085 91.0053 351.915 91.5132 351.831 92.0212 354.624 93.4603 358.095 94.7302 371.894 99.8942 380.952 106.074 388.233 115.386 403.725 135.28 404.233 152.296 389.757 171.09 383.746 178.878 367.153 193.016 363.936 193.016 363.259 193.016 357.503 195.302 351.069 198.095 334.645 205.291 322.116 208.847 310.011 210.032 297.82 211.132 283.005 210.116 281.481 207.915 280.212 206.222 279.365 206.138 279.365 207.831 279.365 208.931 278.942 208.847 276.995 207.407 274.878 205.799 263.958 202.328 261.249 202.328 260.741 202.328 258.963 204.529 257.439 207.238 250.836 218.328 235.683 241.27 234.751 241.439 234.243 241.608 227.302 251.429 219.429 263.28 196.402 297.905 189.122 306.878 176.339 316.529 170.074 321.185 162.709 325.079 160.085 325.079 159.153 325.079 158.307 325.672 158.138 326.434 157.968 327.365 153.651 329.312 145.27 332.36 138.328 334.899 132.233 336.847 131.725 336.847 131.217 336.762 129.947 336.508 128.931 336.339ZM322.963 198.688C338.286 194.624 342.265 192.593 350.815 184.55 361.989 173.884 368.593 162.709 372.571 147.471 374.772 139.175 375.704 121.82 374.18 117.333 371.979 110.561 356.317 97.1005 349.376 95.9153 347.767 95.6614 344.974 95.9153 343.196 96.5079 336.169 98.7936 333.545 101.587 317.884 123.683 309.503 135.534 294.519 156.106 284.444 169.397 274.455 182.772 265.566 194.794 264.72 196.233L263.196 198.857 266.836 199.873C274.37 201.905 278.519 202.159 294.603 201.989 310.603 201.82 311.45 201.735 322.963 198.688ZM381.799 160.762C381.799 159.831 381.46 159.323 380.952 159.577 380.529 159.831 380.106 160.677 380.106 161.355 380.106 162.032 380.529 162.54 380.952 162.54 381.46 162.54 381.799 161.778 381.799 160.762ZM390.942 144.593C391.196 140.021 391.026 137.989 390.349 137.989 389.841 137.989 389.418 136.55 389.418 134.603 389.418 132.063 388.825 130.624 386.878 128.508L384.339 125.714 384.847 128.085C385.185 129.524 385.016 130.37 384.423 130.37 383.831 130.37 383.492 132.995 383.492 137.989 383.492 145.524 383.492 145.608 385.524 145.608 386.624 145.608 387.81 146.116 387.979 146.709 388.233 147.217 388.487 146.878 388.487 145.862 388.571 144.762 388.995 143.915 389.418 143.915 390.518 143.915 390.518 144.254 388.995 149.841 387.386 155.767 387.471 157.884 389.164 154.074 389.926 152.466 390.688 148.148 390.942 144.593ZM394.582 133.757C393.82 131.81 393.735 131.979 393.735 135.111 393.651 137.058 393.905 139.937 394.328 141.46 394.921 144.169 394.921 144.169 395.175 140.106 395.344 137.735 395.005 134.857 394.582 133.757ZM378.159 132.741C377.989 131.64 377.82 132.487 377.82 134.603 377.82 136.72 377.989 137.566 378.159 136.55 378.328 135.45 378.328 133.757 378.159 132.741ZM378.413 119.28C378.413 118.772 377.651 117.418 376.72 116.233 374.772 113.693 374.688 113.862 375.958 117.587 376.889 120.127 378.413 121.228 378.413 119.28ZM376.889 108.952C375.365 107.344 372.487 105.228 370.54 104.127 366.392 101.841 366.73 102.349 373.164 107.683 378.751 112.339 380.783 113.016 376.889 108.952Z" fill="#FFFFFF" transform="matrix(1.00132 0 0 1 0 120)"/><path d="M651.852 332.275C651.852 331.598 652.529 331.005 653.376 331.005 654.646 330.921 654.646 330.836 653.46 330.159 652.021 329.312 645.926 329.989 645.926 331.005 645.926 331.344 644.995 331.852 643.81 332.021 642.37 332.36 641.693 332.106 641.693 331.344 641.693 330.667 642.54 330.159 643.725 330.159 644.825 330.159 646.18 329.566 646.772 328.974 647.28 328.296 649.905 327.28 652.529 326.688 667.344 323.471 686.222 301.545 697.651 274.286 698.667 271.746 704.423 261.503 710.434 251.683 716.614 241.354 721.185 232.804 721.101 231.788 721.101 230.688 723.217 226.032 725.926 221.376 737.354 201.481 765.122 146.878 764.275 145.947 763.937 145.693 760.72 144.593 757.079 143.492L750.476 141.63 756.656 140.952C759.958 140.614 762.751 139.937 762.751 139.513 762.751 138.497 752.339 139.344 750.138 140.529 749.291 140.952 748.19 140.952 747.598 140.529 745.905 139.513 748.529 138.328 754.709 137.228 763.937 135.619 764.444 135.619 764.444 136.804 764.444 137.566 765.46 137.989 767.407 137.989 770.37 137.989 770.455 137.82 773.503 130.963 784.085 107.344 795.429 90.9206 802.455 89.1429 803.64 88.8889 808.635 85.8413 813.714 82.455 823.28 76.0212 829.714 73.1429 835.979 72.381 838.095 72.127 839.788 72.0423 839.788 72.2116 839.788 72.381 836.402 75.0053 832.339 78.1376 819.64 87.5344 809.989 99.3862 802.54 114.37 800.339 118.857 797.122 124.36 795.429 126.561 793.735 128.762 792.381 131.132 792.381 131.725 792.381 132.402 792.042 132.91 791.534 132.91 791.111 132.91 790.688 132.571 790.688 132.063 790.688 131.64 790.349 131.217 790.011 131.217 789.079 131.217 786.032 137.82 786.709 138.497 786.963 138.751 787.386 138.159 787.725 137.228 788.487 134.688 790.18 135.026 789.503 137.566L788.995 139.683 798.307 139.683C807.196 139.683 807.704 139.767 807.196 141.291 806.603 143.153 806.688 143.153 829.206 145.185 893.122 150.857 929.693 151.788 958.222 148.487 1000.72 143.577 1031.79 128.254 1050.67 102.942 1053.46 99.1323 1057.02 94.7302 1058.46 93.037 1059.98 91.4286 1061.59 89.3122 1062.18 88.381 1063.11 86.8571 1063.2 86.8571 1063.2 88.5503 1063.36 93.7143 1043.81 117.333 1032.89 125.122 1029.25 127.746 1027.81 129.185 1028.74 129.354 1029.5 129.524 1039.07 125.799 1049.9 121.058 1060.74 116.402 1070.31 112.677 1071.15 112.931 1072 113.101 1075.39 111.746 1078.6 109.884 1081.9 108.106 1085.12 106.751 1085.8 107.005 1086.48 107.259 1093.33 105.143 1101.12 102.349 1133.21 90.7513 1161.06 83.0476 1178.84 80.7619 1184.42 80.0847 1191.53 78.8995 1194.67 78.2222 1197.71 77.4603 1204.4 76.6138 1209.48 76.2751 1232.51 74.7513 1247.66 79.3227 1258.67 90.9206 1262.9 95.4074 1265.61 101.503 1265.61 106.497 1265.61 109.968 1263.49 108.021 1262.98 104.042 1261.8 94.3915 1254.69 88.0423 1239.2 82.8783L1231.32 80.254 1213.12 80.6773C1193.23 81.1005 1183.15 82.5397 1159.37 88.5503 1152.25 90.4127 1146.41 91.4286 1144.8 91.1746 1142.69 90.836 1142.18 91.0053 1142.6 91.9365 1142.94 92.8677 1142.43 93.037 1140.32 92.5291 1138.29 92.1905 1137.69 92.2751 1138.12 93.037 1138.62 93.7143 1138.2 93.8836 1136.59 93.4603 1133.54 92.6984 1130.16 93.7143 1130.16 95.3227 1130.16 96.3386 1129.65 96.5926 1128.04 96.1693 1126.77 95.8307 1125.93 96 1125.93 96.5926 1125.93 97.1005 1125.08 97.3545 1124.06 97.2698 1122.96 97.1005 1121.69 97.2698 1121.27 97.5238 1117.8 99.7249 1090.29 110.307 1088.51 110.138 1087.15 110.053 1086.14 110.392 1086.14 110.815 1086.14 111.238 1085.46 111.407 1084.61 111.153 1083.77 110.984 1077.76 113.101 1071.24 116.063 1039.83 129.947 1003.77 143.407 982.857 148.91 967.365 152.974 960.085 153.989 937.397 155.09 924.614 155.683 915.979 156.444 915.979 156.868 915.979 158.138 944.508 156.868 960.847 154.921 977.439 152.889 976.931 152.974 976.931 154.328 976.931 155.598 965.587 157.206 940.529 159.577 918.942 161.608 906.667 162.116 906.667 161.016 906.667 159.407 898.455 159.746 897.862 161.27 897.524 162.37 896.508 162.54 892.952 162.116 882.455 160.931 857.058 157.122 833.693 153.228 817.185 150.434 806.095 148.995 801.27 148.995 794.413 148.995 794.074 148.91 794.836 147.386 795.598 146.116 795.429 145.693 793.82 145.27 792.804 145.016 790.603 144.762 788.995 144.847 786.116 144.847 785.862 145.101 780.868 153.905 777.989 158.899 770.201 173.46 763.598 186.243 726.518 257.608 700.614 304.254 694.942 309.926 688.931 315.937 675.979 323.556 661.164 329.735 651.936 333.63 651.852 333.63 651.852 332.275ZM895.238 159.238C894.138 158.222 878.73 157.376 878.73 158.307 878.73 159.153 882.54 159.661 890.582 159.831 893.714 159.915 895.661 159.661 895.238 159.238ZM902.434 155.767C902.434 154.921 887.365 155.429 886.434 156.275 886.265 156.444 889.735 156.614 894.222 156.614 899.302 156.614 902.434 156.275 902.434 155.767ZM882.963 154.921C882.963 154.497 881.693 154.074 880.085 154.074 878.476 154.074 876.868 154.497 876.614 154.921 876.275 155.429 877.46 155.767 879.492 155.767 881.439 155.767 882.963 155.429 882.963 154.921Z" fill="#FFFFFF" transform="matrix(1.00132 0 0 1 0 120)"/><path d="M747.513 326.434C744.042 323.894 739.894 320.508 738.286 318.815 735.492 315.937 735.323 315.344 734.476 306.963L733.63 298.159 736.339 292.741C737.778 289.862 740.741 284.783 742.942 281.481 745.058 278.265 747.429 273.778 748.021 271.577 750.138 264.55 758.688 254.73 774.942 240.762 783.915 233.058 784.339 232.72 793.566 229.757 813.206 223.407 824.889 222.053 834.54 225.101 837.333 225.947 840.804 227.471 842.159 228.487 845.122 230.603 845.714 230.688 845.714 229.164 845.714 227.386 848.593 225.185 850.963 225.185 854.434 225.185 860.275 227.556 862.815 230.011 864.169 231.28 865.185 232.55 865.185 232.804 865.185 233.143 863.831 235.09 862.222 237.122 859.429 240.762 859.344 240.847 860.868 242.54 862.561 244.402 864.593 248.212 865.524 251.259 866.032 252.698 865.778 253.122 864.593 253.122 863.492 253.122 862.222 251.598 860.698 248.381 858.328 243.64 858.328 243.64 856.55 245.164 849.778 251.175 832.169 287.069 830.984 297.397 830.392 302.984 831.407 305.354 835.894 308.063 838.434 309.672 838.857 309.672 844.868 308.487 859.005 305.608 868.063 301.884 869.926 298.159 870.434 297.143 872.55 295.026 874.582 293.503 877.63 291.132 887.534 280.212 899.302 266.243 903.026 261.757 902.688 264.635 898.54 272.762 893.376 282.667 883.81 295.45 876.444 302.222 867.217 310.688 856.889 317.545 851.471 318.646 850.201 318.984 848.508 319.831 847.661 320.762 846.307 322.116 845.376 322.201 838.603 321.608 829.291 320.762 822.857 318.899 819.64 316.19 816.931 313.905 815.238 307.81 815.238 300.106 815.238 296.974 814.815 295.28 813.799 294.349 812.36 293.164 811.767 293.418 805.079 298.582 789.926 310.265 776.212 318.73 767.831 321.693 764.783 322.794 761.905 324.148 761.397 324.741 760.804 325.503 759.45 325.672 757.418 325.333 754.116 324.825 753.354 325.757 755.556 327.619 757.249 329.058 757.164 331.005 755.386 331.005 754.54 331.005 750.984 328.889 747.513 326.434ZM776.381 308.825C780.275 306.201 787.302 300.868 791.958 296.889 796.614 292.91 800.593 289.862 800.847 290.116 801.524 290.794 783.323 307.894 780.529 309.079 777.651 310.434 777.227 311.534 779.598 311.534 783.915 311.534 798.561 297.228 814.815 277.249 820.825 269.884 826.836 259.302 823.026 262.688 820.402 265.058 819.217 264.381 821.333 261.587 822.349 260.148 823.704 259.217 824.296 259.386 824.974 259.725 826.413 257.862 828.021 254.645 829.46 251.767 832.677 246.095 835.217 242.032 837.757 237.968 839.788 234.328 839.788 233.905 839.788 233.566 835.81 233.312 830.899 233.481 823.873 233.735 822.011 233.989 822.011 235.005 822.011 235.852 820.825 236.19 817.439 236.19 806.18 236.19 794.243 242.794 779.598 257.101 766.984 269.376 760.212 279.958 756.656 292.91 755.217 297.989 754.286 303.069 754.54 304.085 754.878 305.185 756.233 307.894 757.672 310.18L760.296 314.243 764.783 313.905C768.508 313.566 770.54 312.72 776.381 308.825ZM748.021 308.825C747.767 306.37 747.259 303.492 747.005 302.476 746.582 301.037 746.836 300.529 747.852 300.529 748.868 300.529 749.206 299.683 749.206 297.143 749.206 295.28 748.868 293.757 748.36 293.757 747.937 293.757 747.513 294.519 747.513 295.45 747.513 296.381 746.921 297.397 746.159 297.735 744.974 298.159 744.889 299.09 745.312 303.831 746.074 310.942 746.667 313.228 747.683 313.228 748.275 313.228 748.36 311.619 748.021 308.825ZM823.704 303.153C823.704 298.582 822.603 290.37 822.011 290.37 821.672 290.37 820.825 292.656 820.063 295.365 818.878 300.19 818.878 300.529 820.656 302.984 822.857 306.201 823.704 306.286 823.704 303.153ZM817.27 284.783C818.116 282.667 817.354 282.497 815.661 284.444 814.392 285.884 814.307 286.138 815.407 286.138 816.169 286.138 817.016 285.545 817.27 284.783ZM830.053 270.138C830.476 268.698 830.392 268.275 829.545 268.529 828.868 268.783 828.275 270.053 828.106 271.407 827.767 274.201 829.037 273.439 830.053 270.138ZM767.661 251.852C771.386 247.704 774.265 244.063 774.011 243.81 773.418 243.217 759.365 257.778 759.365 258.963 759.365 260.825 760.804 259.64 767.661 251.852ZM803.81 234.667C808.466 232.804 814.476 230.857 817.185 230.265 819.81 229.757 821.841 228.995 821.587 228.571 820.656 227.048 814.984 226.794 810.328 228.148 806.688 229.249 793.82 234.074 792.635 234.836 791.958 235.344 793.651 238.73 794.413 238.392 794.921 238.222 799.153 236.529 803.81 234.667Z" fill="#FFFFFF" transform="matrix(1.00132 0 0 1 0 120)"/><path d="M57.3122 270.899C38.3492 267.513 25.3122 258.116 17.6085 242.286L13.9683 234.921 13.9683 220.952C14.0529 207.407 14.1376 206.73 16.8466 198.772 23.9577 177.947 41.9048 156.868 71.5344 134.603 77.1217 130.37 85.164 125.206 89.3122 123.09 101.418 116.825 104.381 114.963 103.28 114.286 102.519 113.778 102.519 113.524 103.365 112.931 103.958 112.593 104.55 112.677 104.72 113.185 104.974 113.778 106.667 113.185 109.037 111.746 111.238 110.392 116.91 107.852 121.735 106.159 127.746 103.958 130.286 102.603 130.032 101.841 129.693 100.995 130.116 100.825 131.64 101.249 132.825 101.503 133.757 101.418 133.757 100.91 133.757 98.8783 153.312 93.6296 176.339 89.3122 189.545 86.9418 189.63 86.9418 189.63 87.9577 189.63 88.381 187.598 88.9735 185.228 89.3122 167.365 91.5132 141.968 100.995 103.704 119.788 83.3862 129.862 75.5132 135.28 63.9153 147.471 45.2063 167.111 38.2645 180.233 32.5926 206.815 31.746 210.37 30.8148 213.333 30.3915 213.333 29.9683 213.333 29.6296 214.095 29.6296 215.026 29.6296 215.958 30.0529 216.72 30.5608 216.72 31.2381 216.72 31.4074 218.413 31.1534 222.053 30.8995 225.016 31.2381 229.503 31.9153 232.381 32.5926 235.175 33.1005 238.645 33.1005 240 33.1005 241.439 33.8624 244.656 34.7936 247.28 36.2328 251.344 36.8254 251.937 38.3492 251.683 39.7884 251.429 40.7196 252.19 42.582 255.069 44.9524 258.963 45.4603 260.317 44.0212 259.471 43.5979 259.217 43.1746 259.302 43.1746 259.81 43.1746 260.91 50.7937 264.466 57.0582 266.243 61.3757 267.513 64.7619 267.683 80.7619 267.259 100.91 266.836 109.122 265.481 123.598 260.317 139.344 254.73 162.624 241.185 178.624 228.402 186.413 222.222 181.418 227.471 172.275 235.175 161.862 243.894 153.481 249.143 137.566 256.677 123.767 263.196 112.677 267.259 102.011 269.63 95.0688 271.238 63.746 272.085 57.3122 270.899ZM23.7037 241.862C21.9259 238.392 20.2328 234.074 19.8942 232.127 19.5556 230.18 18.963 228.571 18.5397 228.571 17.1005 228.571 17.7778 234.074 19.8095 238.307 21.418 241.947 25.8201 248.042 26.6667 248.042 26.836 248.042 25.4815 245.249 23.7037 241.862ZM29.545 233.905C28.6138 229.757 28.3598 229.418 28.1058 231.534 27.7672 234.243 29.6296 241.524 30.2222 239.831 30.4762 239.238 30.1376 236.529 29.545 233.905ZM25.3968 218.582C25.3968 216.804 25.2275 216.55 24.5503 217.566 23.4497 219.259 23.4497 222.053 24.5503 221.376 25.0582 221.122 25.3968 219.852 25.3968 218.582ZM32.6772 194.794C33.0159 192.847 32.9312 192.085 32.4233 192.593 31.2381 193.862 29.6296 200.042 29.7143 202.836 29.7989 204.952 29.9683 204.868 30.9841 201.566 31.6614 199.45 32.4233 196.402 32.6772 194.794ZM29.6296 183.534C29.6296 181.926 29.4603 181.841 28.7831 182.857 27.6825 184.466 27.6825 185.397 28.7831 185.397 29.291 185.397 29.6296 184.55 29.6296 183.534Z" fill="#FFFFFF" transform="matrix(1.00132 0 0 1 0 120)"/><path d="M681.481 206.222C675.386 204.529 670.476 201.481 670.476 199.45 670.476 198.688 699.09 183.704 700.529 183.704 701.122 183.704 697.989 191.323 695.111 197.079 692.825 201.566 687.492 207.492 685.884 207.323 685.545 207.323 683.598 206.815 681.481 206.222Z" fill="#FFFFFF" transform="matrix(1.00132 0 0 1 0 120)"/><path d="M693.333 181.672C693.333 180.233 693.757 179.471 694.688 179.471 695.534 179.471 695.873 180.063 695.704 181.333 695.28 184.042 693.333 184.296 693.333 181.672Z" fill="#FFFFFF" transform="matrix(1.00132 0 0 1 0 120)"/><path d="M436.233 173.545C434.286 172.444 433.354 171.09 433.016 168.974 432.508 166.603 431.915 165.926 429.884 165.503 426.413 164.741 421.333 159.407 420.064 155.259 419.556 153.312 419.048 149.164 419.048 145.947 419.048 133.841 425.989 126.138 436.825 126.138 447.746 126.138 454.603 133.757 454.603 146.116 454.603 156.106 451.725 161.778 444.952 164.995 442.751 165.926 441.058 167.365 441.058 167.958 441.058 170.751 442.751 173.545 444.444 173.545 445.376 173.545 446.138 173.968 446.138 174.392 446.138 175.915 439.111 175.323 436.233 173.545ZM439.958 164.656C443.259 162.286 444.868 156.275 444.868 146.032 444.868 135.365 442.921 129.524 439.026 127.661 435.725 126.222 432.847 127.915 430.646 132.741 428.19 138.159 427.936 153.228 430.307 159.407 432.677 165.333 436.148 167.28 439.958 164.656Z" fill="#FFFFFF" transform="matrix(1.00132 0 0 1 0 120)"/><path d="M471.958 165.757C470.603 165.249 468.487 164.063 467.471 163.048 463.492 159.492 463.069 157.545 463.069 142.815 463.069 129.27 462.984 128.931 461.206 128 459.683 127.323 461.037 127.069 467.725 127.069 473.735 127.069 475.598 127.323 474.243 127.915L472.296 128.677 472.55 144.677C472.804 160.339 472.889 160.762 474.836 162.878 476.36 164.487 477.799 165.079 480.169 165.079 484.487 165.079 486.18 164.063 488.635 160.254 490.413 157.291 490.582 155.937 490.921 143.323L491.175 129.608 488.381 128.339 485.503 127.153 491.429 127.069C497.016 127.069 497.27 127.153 495.153 128.254L492.868 129.524 492.614 143.238C492.275 158.645 491.513 161.185 485.926 164.825 482.878 166.942 476.529 167.365 471.958 165.757Z" fill="#FFFFFF" transform="matrix(1.00132 0 0 1 0 120)"/><path d="M541.291 153.989C535.28 146.963 529.524 140.19 528.508 138.921L526.645 136.72 526.561 150.011 526.561 163.302 528.931 164.571C531.132 165.841 531.132 165.841 525.968 165.926 520.212 165.926 519.45 165.503 522.751 164.233L524.868 163.386 524.868 146.201 524.868 129.016 522.582 128.085C520.296 127.238 520.466 127.153 524.19 127.069 526.392 126.984 529.101 127.323 530.286 127.831 531.386 128.254 535.704 132.487 539.852 137.228 543.915 142.053 548.317 147.048 549.587 148.487L551.873 151.111 551.958 140.36 551.958 129.608 549.672 128.339C547.386 127.069 547.471 127.069 553.227 127.069L559.153 127.069 556.444 128.423 553.651 129.862 553.651 148.317C553.651 158.476 553.312 166.772 552.974 166.772 552.55 166.772 547.302 161.016 541.291 153.989Z" fill="#FFFFFF" transform="matrix(1.00132 0 0 1 0 120)"/><path d="M501.418 164.995C502.688 164.233 502.857 162.455 502.857 146.455 502.857 130.455 502.688 128.677 501.418 127.915 500.317 127.238 502.095 127.069 507.936 127.069 514.37 127.069 515.556 127.323 514.116 128 512.169 128.931 512.169 129.101 512.169 146.624 512.169 164.148 512.169 164.317 514.116 165.079 515.386 165.587 513.608 165.841 507.936 165.841 502.095 165.841 500.317 165.672 501.418 164.995Z" fill="#FFFFFF" transform="matrix(1.00132 0 0 1 0 120)"/><path d="M571.259 165.079C573.122 164.317 573.122 164.148 573.122 146.455L573.122 128.677 569.82 128.677C566.857 128.677 566.518 128.931 566.011 131.386 565.503 134.095 563.302 137.143 561.947 137.143 561.608 137.143 561.27 134.857 561.27 132.063L561.27 126.984 577.778 126.984 594.286 126.984 594.286 132.063C594.286 138.667 592.423 139.005 589.799 132.91 588.19 129.016 587.767 128.677 585.227 128.677L582.434 128.677 582.434 146.455C582.434 164.148 582.434 164.317 584.381 165.079 585.651 165.587 583.704 165.841 577.778 165.841 571.852 165.841 569.905 165.587 571.259 165.079Z" fill="#FFFFFF" transform="matrix(1.00132 0 0 1 0 120)"/><path d="M592.931 164.741C595.048 163.725 596.233 161.439 602.751 145.693 606.815 135.788 610.54 127.323 611.048 126.815 612.148 125.714 611.64 124.868 621.376 148.148 624.762 156.275 628.233 163.64 629.164 164.487 630.857 165.841 630.772 165.926 626.201 165.926 620.529 165.926 617.905 164.063 615.788 158.73L614.349 154.921 607.407 154.921 600.466 154.921 598.688 159.153 596.91 163.386 599.196 164.656C601.397 165.841 601.312 165.841 595.979 165.841 590.815 165.757 590.646 165.757 592.931 164.741ZM612.91 152.635C612.91 152.212 611.725 148.995 610.201 145.27L607.407 138.667 605.122 143.915C603.767 146.878 602.497 150.095 602.243 151.196 601.735 153.143 601.82 153.228 607.323 153.228 610.37 153.228 612.91 152.974 612.91 152.635Z" fill="#FFFFFF" transform="matrix(1.00132 0 0 1 0 120)"/><path d="M649.989 165.079C651.852 164.317 651.852 164.148 651.852 146.624 651.852 129.101 651.852 128.931 649.989 128 648.466 127.238 650.328 127.069 659.048 127.238 668.36 127.407 670.561 127.746 673.439 129.27 677.926 131.64 680.296 134.265 681.905 138.751 685.799 149.841 680.804 161.778 670.984 164.656 666.243 166.095 646.518 166.434 649.989 165.079ZM668.698 162.455C672 159.323 673.101 155.344 673.101 146.455 673.101 137.143 672 133.333 668.36 130.54 667.09 129.524 664.889 128.677 663.619 128.677L661.164 128.677 661.164 146.455 661.164 164.233 663.958 164.233C665.651 164.233 667.513 163.556 668.698 162.455Z" fill="#FFFFFF" transform="matrix(1.00132 0 0 1 0 120)"/><path d="M684.529 164.656C686.899 163.556 687.831 161.778 694.772 145.101 699.005 134.942 702.815 126.476 703.238 126.392 703.661 126.222 707.556 134.772 711.958 145.27 717.714 158.984 720.508 164.656 721.693 165.164 722.878 165.587 721.778 165.841 718.307 165.841 712.042 165.926 710.265 164.825 707.81 159.153L705.947 154.921 699.175 154.921 692.402 154.921 690.794 158.815C688.677 163.725 688.677 163.725 691.471 164.825 693.418 165.587 692.995 165.757 687.831 165.757 682.159 165.757 681.989 165.757 684.529 164.656ZM705.185 152.889C705.185 152.72 704.169 150.349 702.984 147.64 701.799 144.847 700.444 141.714 699.936 140.529 699.175 138.582 699.005 138.836 696.635 144.339 692.571 153.989 692.402 153.228 699.175 153.228 702.476 153.228 705.185 153.058 705.185 152.889Z" fill="#FFFFFF" transform="matrix(1.00132 0 0 1 0 120)"/><path d="M979.471 152.804C979.471 152.127 980.233 151.534 981.164 151.534 982.095 151.534 982.857 152.127 982.857 152.804 982.857 153.481 982.095 154.074 981.164 154.074 980.233 154.074 979.471 153.481 979.471 152.804Z" fill="#FFFFFF" transform="matrix(1.00132 0 0 1 0 120)"/><path d="M985.143 151.958C984.72 151.026 985.143 150.688 986.751 150.688 988.106 150.688 988.783 151.111 988.614 151.788 988.021 153.312 985.651 153.481 985.143 151.958Z" fill="#FFFFFF" transform="matrix(1.00132 0 0 1 0 120)"/><path d="M191.323 87.1958C191.323 86.7725 192.254 86.3492 193.439 86.3492 194.624 86.3492 195.556 86.7725 195.556 87.1958 195.556 87.7037 194.624 88.0423 193.439 88.0423 192.254 88.0423 191.323 87.7037 191.323 87.1958Z" fill="#FFFFFF" transform="matrix(1.00132 0 0 1 0 120)"/><path d="M198.942 85.9259C198.942 85.164 199.704 84.6561 201.058 84.6561 202.413 84.6561 203.175 85.164 203.175 85.9259 203.175 86.6878 202.413 87.1958 201.058 87.1958 199.704 87.1958 198.942 86.6878 198.942 85.9259Z" fill="#FFFFFF" transform="matrix(1.00132 0 0 1 0 120)"/><path d="M204.868 79.5767C204.868 79.1534 205.46 78.7302 206.138 78.7302 206.815 78.7302 207.407 79.1534 207.407 79.5767 207.407 80.0847 206.815 80.4233 206.138 80.4233 205.46 80.4233 204.868 80.0847 204.868 79.5767Z" fill="#FFFFFF" transform="matrix(1.00132 0 0 1 0 120)"/></g></g></g></g></svg>