<?xml version="1.0" encoding="utf-8"?>
<!DOCTYPE svg PUBLIC "-//W3C//DTD SVG 20010904//EN" "http://www.w3.org/TR/2001/REC-SVG-20010904/DTD/svg10.dtd">
<svg version="1.0" xmlns="http://www.w3.org/2000/svg" width="1754px" height="1240px" viewBox="0 0 1754 1240" preserveAspectRatio="xMidYMid meet">
 <g fill="#ffffff">
  <path d="M495.5 929.4 c-16.4 -3.4 -25.9 -7 -36.4 -13.8 -18.5 -11.9 -30.3 -30.1 -34.6 -53.1 -2.4 -12.4 -1.6 -32.1 1.5 -42 11.8 -37.2 44.1 -59.6 82.4 -57.2 21.6 1.3 41.1 12.3 55.2 31 5.7 7.7 12.1 20.2 13 25.6 0.9 5.5 -2.5 12.2 -7.9 16 -11.1 7.6 -35.4 17.7 -66.2 27.7 -11.5 3.7 -21.6 7.2 -22.3 7.7 -2.5 1.9 0.5 10 6 16.3 8.6 9.8 28.2 13.2 44.3 7.5 7.2 -2.5 17.5 -9.3 25.6 -16.6 3.4 -3.2 6.8 -5.5 8.1 -5.5 6.4 0 15.8 8.2 15.8 13.9 0 6.4 -15.3 22.7 -28.5 30.4 -8.7 5.1 -23.2 10.2 -33.1 11.7 -6.8 0.9 -19 1.2 -22.9 0.4z m2.2 -88.8 c24.3 -7.7 28.1 -10 29 -17.7 0.9 -8.1 -3.7 -20.7 -9.9 -26.8 -4.4 -4.4 -8.6 -6.1 -15.1 -6.1 -10.5 0 -16.7 3.7 -21.4 12.7 -7.1 13.5 -8 33.6 -1.7 39.1 3.4 3 6.3 2.8 19.1 -1.2z"/>
  <path d="M927.5 928.6 c-9.1 -1.8 -15.4 -4 -24 -8.3 -9.5 -4.8 -14.2 -8.2 -21 -15 -15.6 -15.6 -23.5 -36.1 -23.5 -61 0 -27.8 13.2 -53.1 35.4 -67.7 15.2 -10.1 30.8 -14.3 49.1 -13.3 27.8 1.5 51 17.7 64.9 45.4 4.7 9.5 5.4 13.8 2.8 19.5 -4.1 9.3 -23.8 19.1 -68.1 33.8 -14.5 4.9 -26.8 9.5 -27.2 10.2 -2.1 3.8 4.2 14.7 11.5 19.5 5.6 3.9 9.8 5.2 18.8 6 15.5 1.4 29.4 -4.4 45.3 -18.8 7.3 -6.6 8.9 -7 15.5 -3.6 5 2.5 9 7.7 9 11.7 0 5.8 -11.9 19.4 -24.3 27.7 -7.9 5.3 -18.2 9.8 -28.2 12.5 -9.4 2.5 -27 3.2 -36 1.4z m7 -88.1 c13.7 -4.2 23.2 -8.3 25.9 -11.3 6.5 -7.3 -1 -30.4 -11.8 -36.6 -5.6 -3.3 -11.1 -4 -16.9 -2.2 -10.4 3.1 -15.8 9.4 -19.2 22.2 -2.1 7.9 -2.1 22.3 -0.1 26.3 3.2 6.2 6.3 6.4 22.1 1.6z"/>
  <path d="M1261.8 929 c-25.3 -4.6 -47.2 -19.1 -59.1 -39.1 -5 -8.5 -9.2 -22.1 -10.7 -34.3 -6.2 -51.9 32.9 -95.1 83.5 -92.3 12 0.7 19.7 2.6 28.9 7.3 14.9 7.5 27.7 20.8 36 37.5 6.6 13.1 6.2 19.9 -1.5 26.4 -8.3 7 -39.6 20.3 -70.5 30 -9.8 3.1 -18.4 6.1 -19.1 6.7 -2.4 2 -1.3 6.6 3.5 14 4.8 7.5 17.2 12.8 29.7 12.8 13.2 0 25.6 -5.5 40 -17.7 4.8 -4 9.5 -7.3 10.4 -7.3 3.1 0.1 9.7 3.7 12.4 6.9 4.3 5.1 3.8 9.6 -2 17.3 -10.1 13.2 -29 25.3 -46.8 29.9 -8.9 2.3 -27.3 3.3 -34.7 1.9z m8.2 -89.5 c14.6 -4.7 21.6 -8 23.7 -11.1 3.6 -5.6 0.7 -20.4 -5.8 -29.3 -10.2 -14.1 -30.5 -12.3 -39.1 3.4 -7 12.7 -7.7 33.7 -1.5 39.6 2.9 2.8 7.7 2.2 22.7 -2.6z"/>
  <path d="M805.2 925.9 c-7.9 -2.8 -15.6 -9.4 -18.8 -16.4 l-2.4 -5 0 -44.2 c0 -46.7 -0.4 -52.3 -4.4 -56.7 -5.7 -6 -16 -5.5 -22.7 1.3 -6.5 6.4 -6.9 9.5 -6.9 50 0 42.1 -0.1 41.7 9.6 47.1 3.3 1.9 6.3 3.8 6.7 4.4 0.4 0.6 0.5 4.7 0.2 9.1 -0.9 12.4 2.2 11.5 -42.4 11.5 -28.6 0 -38.1 -0.3 -39.4 -1.3 -2.1 -1.5 -4.1 -16.1 -2.6 -18.9 0.5 -1 2.9 -2.7 5.2 -3.9 6.8 -3.4 9.5 -6.6 10.7 -12.5 0.7 -3.5 1 -19.4 0.8 -47.1 -0.3 -47.9 -0.1 -46.6 -9.3 -52.6 l-5 -3.3 0.3 -5.9 c0.2 -3.3 0.9 -7.1 1.5 -8.5 l1.2 -2.5 29 0 29 0 2.3 3.6 2.4 3.7 8.2 -3.8 c23.2 -10.7 39.9 -12.4 53.8 -5.4 9.1 4.6 14.6 10.9 18.4 20.9 1.7 4.6 1.9 8.9 2.1 55 0.2 27.5 0.5 51 0.8 52.3 0.7 2.9 3 2.8 8 -0.3 2.2 -1.3 4.8 -2.5 5.9 -2.5 2.6 0 8.6 6.6 8.6 9.6 0 6.8 -7.9 15.6 -18.4 20.5 -5.9 2.8 -8.2 3.3 -16.5 3.6 -7.9 0.3 -10.7 0 -15.9 -1.8z"/>
  <path d="M1477.5 925.9 c-8.7 -2.8 -14.4 -7.4 -18.5 -15 l-3.5 -6.4 -0.5 -48 c-0.5 -51 -0.5 -50.4 -5.5 -54.4 -8.6 -6.7 -23.3 0.1 -26.3 12.2 -0.8 3 -1.2 16.7 -1.2 40.7 0 41.3 0 41.3 7.5 45.8 9.6 5.6 9.6 5.7 8.9 14.6 -1.1 12.5 2.2 11.6 -42.4 11.6 -44.6 0 -41.3 0.9 -42.4 -11.6 -0.7 -8.9 -0.7 -9 8.9 -14.6 7.6 -4.6 7.5 -3.6 7.5 -54.3 0 -50.1 0.1 -49.3 -7.2 -54.4 -7.3 -5.2 -7.1 -4.7 -6.3 -12 1.1 -10.6 -0.5 -10.1 31.2 -10.1 16.9 0 28.2 0.4 29.4 1 1 0.6 2.6 2.4 3.4 4 l1.5 2.9 8.2 -3.9 c11 -5.1 19.2 -7.8 28.3 -9.2 17 -2.6 33.5 4.7 40.9 18.1 5.2 9.6 5.6 14.2 5.6 66.9 0 54.8 -0.5 51.7 8.2 46.8 6.1 -3.4 8.6 -3 12.2 2.2 3.3 4.8 3.3 6.7 -0.2 12.3 -9 14.1 -29.9 20.6 -47.7 14.8z"/>
  <path d="M226.3 926 c-1.7 -0.7 -2.3 -2 -2.8 -6.7 -0.3 -3.2 -0.8 -7 -1 -8.4 -0.6 -3.8 1.4 -5.9 8.6 -9.4 11.4 -5.5 10.4 2.5 10.7 -82.8 0.3 -86.6 1.2 -79 -10.7 -84.8 -4 -2 -7.7 -4.3 -8.2 -5.1 -1 -1.8 0.7 -13.7 2.3 -15.5 1.6 -2 84.1 -1.9 85.7 0.1 0.6 0.7 1.4 4.6 1.7 8.7 l0.7 7.4 -6.4 3.5 c-9.8 5.4 -9.9 5.8 -9.9 33.5 0 12.7 0.5 23.7 1 24.5 0.8 1.2 4.7 1.6 22.9 1.8 14.6 0.2 22.7 -0.1 24.1 -0.8 1.9 -1 2 -2 2 -26.1 l0 -25.1 -3.3 -3.2 c-1.8 -1.7 -5.4 -4.3 -8 -5.9 l-4.9 -2.7 0.7 -6.8 c1.2 -11.3 -3.5 -10.2 45 -10.2 48.8 0 44.2 -1.1 44.7 10.6 l0.3 6.9 -7.7 3.8 c-12.4 5.9 -11.3 -2 -11.3 84.2 0 86.2 -1 78.5 11.1 84.2 4.1 1.9 7.7 3.9 8 4.4 0.3 0.5 0.2 4.6 -0.2 9.1 -1.1 12.9 3 11.9 -47.4 11.6 -30.8 -0.2 -43.2 -0.6 -44.1 -1.5 -0.6 -0.6 -1.2 -4.9 -1.3 -10.5 l-0.1 -9.3 7 -3.5 c12 -6 11.6 -4.5 11.3 -42.9 l-0.3 -32.6 -23.4 -0.3 c-16.7 -0.2 -23.7 0.1 -24.8 0.9 -2.1 1.8 -1.5 63 0.7 67.4 1.1 2.1 3.7 4.1 9 6.8 4.1 2.1 7.8 4.4 8.2 5.2 1.1 1.9 -0.3 16.2 -1.8 18.3 -1.1 1.6 -4.6 1.7 -43.6 1.9 -23.3 0.1 -43.3 -0.2 -44.5 -0.7z"/>
  <path d="M588.3 926 c-2.1 -0.9 -2.4 -1.8 -3.8 -13.6 -0.7 -5.8 -1 -5.5 8.7 -11.4 8.6 -5.3 8.3 -3.3 8.3 -54.5 0 -51.5 0.3 -49.4 -9 -55.7 l-5 -3.4 0.3 -6.4 c0.6 -11.7 -1.4 -11 32.6 -11 27.1 0 29.4 0.1 30.9 1.8 1.5 1.7 1.7 7.4 1.7 60.8 0.1 67.6 -0.4 63.5 9 69 8.5 5.1 8.3 4.6 7.5 13.8 -1 12.5 2.1 11.6 -41.9 11.5 -20.4 0 -38.1 -0.4 -39.3 -0.9z"/>
  <path d="M1023.2 925.3 c-1.6 -1.4 -2.2 -3.5 -2.7 -10 l-0.7 -8.1 4 -2.9 c2.2 -1.5 5.4 -3.6 7.1 -4.5 6.3 -3.4 6.1 -1.4 6.1 -82.3 0 -83.1 0.4 -78.4 -7.7 -83.4 -10 -6.2 -9.6 -5.6 -8.8 -12.5 1.2 -10.4 -1.6 -9.6 32.1 -9.6 l29.5 0 2.4 2.5 2.5 2.4 0 53.1 c0 29.1 0.3 53 0.6 53 0.5 0 24.2 -21 30.6 -27.2 1.5 -1.4 2.8 -3.3 2.8 -4.2 0 -0.9 -2.5 -2.8 -6 -4.6 -5.5 -2.8 -6 -3.3 -5.9 -6.3 0.1 -6.6 1.6 -13.9 3 -14.8 0.8 -0.5 16.6 -0.9 35.1 -0.9 27.7 0 33.9 0.2 35.1 1.4 1.8 1.8 3 15.5 1.6 17.2 -0.6 0.7 -3.3 2 -6 2.9 -6.7 2.3 -14.2 8 -29.1 22.6 l-12.7 12.4 6.2 11 c3.4 6.1 11.8 21.3 18.7 33.9 6.9 12.5 14.2 24.8 16.3 27.1 2 2.4 6.6 5.9 10.1 7.9 8.8 4.9 8.9 5.1 8 14.6 -1 11.6 0.3 11.2 -29.8 10.8 -23 -0.3 -24.7 -0.4 -26.5 -2.3 -1.8 -1.8 -10.4 -17 -32.1 -56.7 -3.6 -6.5 -6.7 -11.8 -7 -11.8 -0.3 0 -3.2 2.7 -6.5 6 l-6 6.1 0 10.2 c0 5.6 0.3 11.4 0.7 12.9 1.2 4.1 5.6 8.6 10.9 11.3 2.7 1.4 5.3 3.3 5.8 4.4 1.3 2.3 -0.2 16.8 -1.9 18.5 -0.8 0.8 -12.2 1.2 -39.4 1.4 -35.5 0.2 -38.4 0.1 -40.4 -1.5z"/>
  <path d="M613.5 759.8 c-5.5 -2 -12.1 -7.6 -14.9 -12.8 -9.2 -16.9 1.2 -36.4 21.3 -39.6 6.6 -1 16.1 2 21.6 6.8 6.9 6.1 9 10.7 9 20.3 0 6.9 -0.4 8.6 -2.7 12.7 -3.3 5.5 -9 10.3 -14.8 12.3 -4.8 1.7 -15.1 1.9 -19.5 0.3z"/>
  <path d="M1499 754.1 c-18.1 -5.6 -27.5 -25.5 -19.8 -42.2 10.9 -23.6 43.8 -24.5 55.5 -1.5 8.1 15.9 0.3 36.3 -16.2 42.5 -5.7 2.1 -14.6 2.7 -19.5 1.2z m21.2 -9.6 c6.9 -4.9 10.1 -10.4 10.6 -18.1 0.5 -8.2 -1.4 -13.6 -6.9 -19.2 -14.1 -14.2 -38.2 -5.5 -40.6 14.6 -1.1 9.9 3.9 19.1 12.9 23.6 4.6 2.4 6.3 2.7 12.5 2.4 6.1 -0.3 7.8 -0.8 11.5 -3.3z"/>
  <path d="M1494.2 723.3 l0.3 -16.8 7.5 -0.3 c12.8 -0.6 18.5 2.5 18.5 9.8 0 2.7 -0.8 4.7 -2.3 6.3 -2 2.1 -2.1 2.6 -0.8 3.6 0.8 0.7 2.2 3.6 3.1 6.4 0.9 2.9 1.9 5.8 2.1 6.5 0.4 0.8 -0.7 1.2 -3.9 1.2 l-4.4 0 -1.3 -4.7 c-1.5 -5.6 -4.1 -8.3 -8.1 -8.3 l-2.9 0 0 6.5 0 6.5 -4 0 -4 0 0.2 -16.7z m16.6 -4.2 c0.8 -0.4 1.2 -1.9 1 -3.2 -0.3 -2.1 -0.9 -2.4 -5 -2.7 l-4.8 -0.3 0 3.5 c0 3.5 0.1 3.6 3.8 3.6 2 0 4.3 -0.4 5 -0.9z"/>
  <path d="M747.5 644.8 c-5.2 -2.8 -7.5 -6.1 -7.5 -10.5 l0 -4.4 3.8 3 c4.6 3.7 8.3 4.7 11.4 3 5 -2.6 74.9 -50 105.8 -71.7 7.4 -5.3 14 -9.5 14.5 -9.5 0.6 0 11.4 7.2 24 15.9 64.1 44.6 97 66.4 100 66.4 1.3 0 4.4 -1.5 6.8 -3.4 l4.5 -3.5 0.6 2.4 c1.4 5.7 -5.9 13.5 -12.7 13.5 -2.4 0 -43 -27.1 -98.7 -65.7 l-24.5 -17 -7.5 5.3 c-14.1 10 -65.5 45.2 -89.4 61.3 -24.1 16.2 -26.6 17.4 -31.1 14.9z"/>
  <path d="M752.5 623.1 c-0.6 -1 0.7 -5.3 14.3 -47.1 26.2 -80.3 31.2 -96.4 30.5 -97 -0.4 -0.4 -27.7 -20.1 -60.5 -44 -32.9 -23.8 -59.8 -43.9 -59.8 -44.6 0 -1.2 12 -1.4 75.3 -1.4 l75.3 0 10.8 -33.2 c33.8 -104.4 35.7 -109.9 37.3 -109.6 1.2 0.2 3.4 5.6 7.3 17.8 3.1 9.6 13.4 41.7 23 71.3 l17.4 53.7 75.3 0 c64.5 0 75.3 0.2 75.3 1.4 0 0.8 -27.1 21.1 -60.2 45.2 -33.2 24 -60.4 43.8 -60.5 43.9 -0.2 0.1 0.9 3.7 2.3 8.1 4.1 12.7 25.9 79.8 33.9 104.4 10.3 31.6 9.9 30 8.7 31.2 -0.8 0.8 -2.7 -0.1 -6.3 -2.7 -2.9 -2.1 -30.1 -21.8 -60.3 -43.8 -30.3 -22 -55.5 -40 -56.1 -40 -0.5 0 -27.8 19.5 -60.4 43.2 -32.7 23.8 -60 43.5 -60.7 43.8 -0.7 0.2 -1.5 0 -1.9 -0.6z"/>
  <path d="M653.8 603.9 c-1.2 -0.6 -1.8 -2.2 -1.8 -4.4 0 -3.3 0.1 -3.4 2.9 -2.4 3.6 1.3 7.1 -0.3 7.1 -3 0 -1 -2.3 -3.7 -5.1 -6.1 -5.7 -4.8 -7.3 -8 -6.4 -12.6 0.9 -5 5 -8.4 10.1 -8.4 6.5 0 7.4 0.7 7.4 5.2 0 3.4 -0.2 3.9 -1.4 2.9 -0.8 -0.7 -2.7 -1.1 -4.3 -0.9 -3.7 0.4 -4.3 4 -1.2 6.5 9.9 8.1 11.3 10.9 8.6 17.6 -2.4 5.6 -10.8 8.6 -15.9 5.6z"/>
  <path d="M706.6 603.4 c-2.1 -2.1 -2 -4.7 0.3 -6.8 4.1 -3.7 9.7 1.4 6.6 6 -1.8 2.8 -4.6 3.1 -6.9 0.8z"/>
  <path d="M1064 603.8 c-1.4 -0.7 -3.3 -3 -4.4 -5.2 -1.6 -3.3 -1.7 -4.4 -0.7 -7.7 0.7 -2.2 2 -4.5 3.1 -5.1 1.8 -1.2 1.8 -1.2 -0.1 -3.6 -4.7 -6 -0.6 -15.2 6.6 -15.2 5 0 7.4 1.5 9.1 5.7 1.7 3.9 0.5 9.7 -2.1 10.7 -1.1 0.4 -0.7 1.3 1.7 3.6 2.7 2.8 3 3.6 2.5 7.7 -0.6 5.8 -3.9 9.3 -9.3 9.9 -2.2 0.3 -5 -0.1 -6.4 -0.8z m7.4 -7.4 c1.1 -2.8 0.6 -6.1 -1 -7.5 -1.4 -1.1 -1.8 -1 -3 0.6 -1.7 2.2 -1.8 4 -0.4 6.6 1.3 2.3 3.6 2.5 4.4 0.3z m-0.9 -20 c0 -1.9 -0.5 -2.9 -1.5 -2.9 -1.6 0 -2.5 2.8 -1.6 5.1 1 2.5 3.1 1 3.1 -2.2z"/>
  <path d="M1115.9 602.1 c-1.7 -1.7 -2.9 -4 -2.9 -5.5 0 -2.3 0.4 -2.6 3.4 -2.6 2.5 0 3.5 0.5 3.9 2 0.8 3 4.3 2.6 5.1 -0.6 1 -3.7 -0.2 -6.3 -3 -7 -2.1 -0.5 -2.5 -1.2 -2.2 -3.8 0.2 -2.3 0.8 -3.2 2.5 -3.4 2.7 -0.4 4.1 -4.5 2.3 -6.7 -1.4 -1.7 -4 -0.3 -4 2.1 0 0.9 -1.2 1.4 -3.6 1.4 -3.5 0 -3.5 -0.1 -2.9 -3.2 1.1 -5.2 4.2 -7.8 9 -7.8 7.4 0 11.7 7.9 8.1 14.9 -1.6 3 -1.6 3.3 0.4 5.8 3.7 4.7 2.1 13.2 -3.1 15.9 -4.7 2.4 -9.7 1.8 -13 -1.5z"/>
  <path d="M623 585.5 l0 -18.5 8 0 8 0 0 4 0 4 -4 0 c-3.9 0 -4 0.1 -4 3.5 0 3.3 0.2 3.5 3.5 3.5 3.3 0 3.5 0.2 3.5 3.5 0 3.3 -0.2 3.5 -3.5 3.5 -3.4 0 -3.5 0.1 -3.5 4 l0 4 4 0 c3.9 0 4 0.1 4 3.5 l0 3.5 -8 0 -8 0 0 -18.5z"/>
  <path d="M685 589.6 l0 -14.5 -2.7 -0.3 c-2.5 -0.3 -2.8 -0.7 -2.8 -3.8 l0 -3.5 10 0 10 0 0.3 3.8 c0.3 3.5 0.2 3.7 -2.7 3.7 l-3.1 0 0 14.5 0 14.5 -4.5 0 -4.5 0 0 -14.4z"/>
  <path d="M1041 589 c0 -12.7 -0.2 -15 -1.5 -15 -1.1 0 -1.5 -1.1 -1.5 -3.6 l0 -3.5 5.3 0.3 5.2 0.3 0.3 18.3 0.2 18.2 -4 0 -4 0 0 -15z"/>
  <path d="M1087 603.6 c0 -0.3 6.9 -18.5 10.5 -27.8 0.6 -1.6 0.1 -1.8 -4.5 -1.8 l-5.1 0 0.3 -3.2 0.3 -3.3 9.8 -0.3 c6 -0.2 9.7 0.1 9.7 0.7 0 0.8 -8.9 25.2 -12.5 34.4 -0.5 1.2 -1.8 1.7 -4.6 1.7 -2.1 0 -3.9 -0.2 -3.9 -0.4z"/>
  <path d="M755 474.9 c-42.4 -32.3 -87.9 -68 -90 -70.6 -1.9 -2.5 -2.7 -7.3 -1.4 -8.6 0.4 -0.3 3.9 2 7.8 5.2 10.5 8.5 66.2 51.5 88.1 68.1 23.9 18 21.8 15.9 20.4 19.8 -0.6 1.8 -1.4 3.2 -1.7 3.2 -0.4 0 -10.8 -7.7 -23.2 -17.1z"/>
  <path d="M971.4 489.1 c-0.4 -1.7 -0.6 -3.3 -0.6 -3.6 0.1 -0.3 12.9 -10.3 28.4 -22.2 38.2 -29.2 85.6 -66.2 86.3 -67.4 1.1 -1.6 2.5 0.1 2.5 3 0 1.6 -1 4 -2.1 5.5 -3 3.8 -108.7 85.8 -112.5 87.3 -1 0.3 -1.6 -0.4 -2 -2.6z"/>
 </g>
</svg>