<svg width="784" height="748" xmlns="http://www.w3.org/2000/svg" xmlns:xlink="http://www.w3.org/1999/xlink" overflow="hidden"><defs><filter id="fx0" x="-10%" y="-10%" width="120%" height="120%" filterUnits="userSpaceOnUse" primitiveUnits="userSpaceOnUse"><feComponentTransfer color-interpolation-filters="sRGB"><feFuncR type="discrete" tableValues="0 0"/><feFuncG type="discrete" tableValues="0 0"/><feFuncB type="discrete" tableValues="0 0"/><feFuncA type="linear" slope="0.4" intercept="0"/></feComponentTransfer><feGaussianBlur stdDeviation="2.22222 2.22222"/></filter><clipPath id="clip1"><rect x="248" y="-14" width="784" height="748"/></clipPath><clipPath id="clip2"><rect x="51" y="23" width="717" height="716"/></clipPath><clipPath id="clip3"><rect x="0" y="0" width="786" height="750"/></clipPath><clipPath id="clip4"><rect x="8" y="7" width="770" height="736"/></clipPath><clipPath id="clip5"><rect x="8" y="7" width="770" height="736"/></clipPath><clipPath id="clip6"><rect x="8" y="7" width="770" height="736"/></clipPath><clipPath id="clip7"><rect x="263" y="0" width="754" height="720"/></clipPath><clipPath id="clip8"><rect x="263" y="0" width="755" height="720"/></clipPath><clipPath id="clip9"><rect x="263" y="0" width="755" height="720"/></clipPath></defs><g clip-path="url(#clip1)" transform="translate(-248 14)"><g clip-path="url(#clip2)" filter="url(#fx0)" transform="translate(247 -15)"><g clip-path="url(#clip3)"><g clip-path="url(#clip4)"><g clip-path="url(#clip5)"><g clip-path="url(#clip6)"><path d="M110.212 664.214C79.0171 633.02 53.4628 607.171 53.4628 606.828 53.4628 606.19 201.834 457.622 202.472 457.622 202.668 457.622 203.944 459.339 205.268 461.399 210.418 469.345 218.56 478.468 226.604 485.286 243.82 499.853 262.949 508.535 286.443 512.36 290.956 513.096 296.792 513.243 333.186 513.39 364.381 513.537 374.73 513.734 374.73 514.175 374.73 515.009 168.629 721.013 167.746 721.013 167.353 721.013 141.456 695.458 110.212 664.214Z" fill="#FFFFFF" transform="matrix(1 0 0 1.00087 8.46001 7.8)"/><path d="M530.312 617.864C473.612 561.164 427.212 514.469 427.212 514.126 427.212 513.685 450.412 513.537 541.397 513.537L655.533 513.537 701.786 559.79C727.193 585.197 747.989 606.337 747.989 606.73 747.989 607.514 634.736 721.013 633.951 721.013 633.657 721.013 587.061 674.613 530.312 617.864Z" fill="#FFFFFF" transform="matrix(1 0 0 1.00087 8.46001 7.8)"/><path d="M292.819 480.871C273.74 478.517 256.229 470.031 242.741 456.641 230.577 444.624 223.22 431.332 219.639 414.803 218.707 410.438 218.56 408.328 218.511 398.519 218.511 388.464 218.658 386.698 219.639 382.186 221.16 375.466 223.71 368.158 226.506 362.713 238.768 338.68 260.153 322.935 286.934 318.276 292.329 317.295 308.024 317.442 314.155 318.521 331.224 321.415 345.939 329.115 357.416 341.083 369.188 353.345 375.662 366.539 378.262 383.559 378.654 386.159 378.899 392.633 378.899 400.971L378.899 414.214 316.461 414.361 254.022 414.46 254.316 415.588C254.856 417.402 257.946 422.847 260.055 425.741 264.96 432.411 274.868 440.259 282.372 443.398 288.601 445.998 292.917 446.93 300.324 447.175 309.937 447.567 316.215 446.194 325.044 441.829 332.303 438.248 336.963 434.324 343.977 425.986L345.203 424.514 347.95 426.476C357.171 433.098 372.278 444.624 372.278 445.066 372.278 445.409 371.052 447.175 369.58 449.039 357.073 464.832 340.494 474.985 319.796 479.547 315.038 480.577 312.635 480.773 304.346 480.92 298.95 481.018 293.751 480.969 292.819 480.871ZM342.064 380.175C342.456 379.586 338.483 371.885 336.473 369.286 332.647 364.234 326.025 358.741 320.532 355.994 309.251 350.353 294.781 349.765 282.421 354.424 274.868 357.269 266.137 363.694 261.085 370.071 258.142 373.847 255.052 378.948 255.052 380.077 255.052 380.714 341.672 380.861 342.064 380.175Z" fill="#FFFFFF" transform="matrix(1 0 0 1.00087 8.46001 7.8)"/><path d="M483.127 480.724C479.743 479.694 477.193 477.536 475.476 474.299 474.691 472.827 474.495 471.012 474.299 461.301L474.053 450.02 471.699 449.873 469.345 449.725 469.492 445.949 469.639 442.172 478.615 442.025 487.542 441.927 487.542 445.802 487.542 449.725 485.236 449.873 482.882 450.02 482.735 458.603C482.588 468.511 482.784 470.031 484.354 471.65 485.335 472.631 486.021 472.827 488.67 472.827 492.349 472.827 495.046 471.993 498.087 469.884L500.294 468.364 500.196 459.192 500.049 450.02 497.744 449.873 495.39 449.725 495.39 445.802 495.39 441.927 504.365 442.025 513.292 442.172 513.439 445.949 513.586 449.725 511.232 449.873 508.878 450.02 508.878 461.056 508.878 472.092 511.576 472.337 514.273 472.582 514.42 476.653 514.567 480.675 507.406 480.675 500.294 480.675 500.294 479.547C500.294 477.781 499.853 477.683 497.891 478.958 496.91 479.596 495.144 480.381 493.918 480.626 491.368 481.215 484.942 481.264 483.127 480.724Z" fill="#FFFFFF" transform="matrix(1 0 0 1.00087 8.46001 7.8)"/><path d="M614.087 480.871C613.4 480.724 611.536 480.185 609.918 479.596 595.056 474.397 588.238 456.298 595.448 441.191 601.628 428.242 618.305 422.945 631.94 429.616 636.845 432.019 639.052 433.834 641.456 437.414 647.293 446.145 648.077 457.132 643.516 466.745 640.671 472.631 635.717 477.193 629.537 479.498 626.741 480.528 625.074 480.822 620.708 480.92 617.765 481.018 614.773 480.969 614.087 480.871ZM624.878 472.239C628.752 471.111 632.627 468.168 634.785 464.734 640.916 454.876 637.434 441.583 627.526 436.728 624.927 435.452 624.142 435.354 619.482 435.305 614.773 435.305 614.087 435.403 611.389 436.728 607.809 438.493 604.768 441.583 602.953 445.262 601.678 447.813 601.579 448.499 601.579 453.698 601.579 458.996 601.678 459.535 603.149 462.625 607.024 470.816 616.049 474.789 624.878 472.239Z" fill="#FFFFFF" transform="matrix(1 0 0 1.00087 8.46001 7.8)"/><path d="M711.448 480.724C701.442 478.075 695.507 468.658 697.028 457.769 698.941 444.428 713.361 437.267 726.114 443.3 729.988 445.164 733.029 448.254 734.893 452.227 736.119 454.826 736.463 456.2 736.61 459.682 736.953 466.745 734.991 472.19 730.626 476.064 726.751 479.596 723.612 480.773 717.824 480.969 715.127 481.067 712.282 480.969 711.448 480.724ZM721.503 471.846C725.476 469.835 728.026 465.666 728.026 461.203 728.026 452.766 719.639 446.93 712.38 450.363 709.584 451.638 706.69 455.219 705.807 458.358 704.189 464.195 708.162 471.061 714.097 472.631 716.696 473.318 719.002 473.072 721.503 471.846Z" fill="#FFFFFF" transform="matrix(1 0 0 1.00087 8.46001 7.8)"/><path d="M415.931 476.506 415.931 472.337 418.138 472.337 420.345 472.337 420.247 453.845 420.1 435.305 418.04 435.158 415.931 435.011 415.931 431.332 415.931 427.703 422.7 427.703 429.419 427.703 430.94 430.302C432.362 432.706 449.137 459.045 451.393 462.38 451.982 463.263 452.619 463.999 452.865 463.999 453.061 463.999 453.159 457.524 453.11 449.676L452.963 435.305 450.657 435.158 448.303 435.011 448.303 431.332 448.303 427.703 457.377 427.703 466.451 427.703 466.451 431.332 466.451 435.011 464.146 435.158 461.791 435.305 461.644 458.015 461.546 480.724 457.279 480.577 453.012 480.43 449.774 475.28C447.96 472.435 444.673 467.285 442.417 463.753 440.161 460.271 436.777 454.876 434.864 451.835 432.951 448.793 430.891 445.703 430.302 444.968L429.223 443.643 429.321 457.867 429.419 472.092 431.774 472.239 434.079 472.386 434.079 476.555 434.079 480.675 425.005 480.675 415.931 480.675 415.931 476.506Z" fill="#FFFFFF" transform="matrix(1 0 0 1.00087 8.46001 7.8)"/><path d="M521.385 476.506 521.385 472.337 523.592 472.337 525.8 472.337 525.702 461.203 525.554 450.02 522.955 449.873 520.355 449.725 520.502 445.949 520.649 442.172 527.516 442.172 534.383 442.172 534.53 443.545C534.628 444.281 534.775 444.87 534.874 444.87 534.972 444.87 535.854 444.33 536.836 443.692 540.122 441.436 547.577 440.701 551.893 442.221 553.169 442.613 555.032 443.791 556.062 444.821L557.926 446.733 559.986 444.821C562.831 442.221 566.314 441.289 572.101 441.534 577.006 441.78 579.213 442.515 581.715 444.968 584.609 447.714 584.854 448.941 585.148 461.056L585.393 472.092 587.601 472.337 589.808 472.582 589.955 476.653 590.102 480.675 580.979 480.675 571.905 480.675 571.905 476.555 571.905 472.386 574.26 472.239 576.565 472.092 576.712 463.606C576.908 450.755 576.27 449.48 569.796 449.873 567.049 450.069 565.578 450.461 563.518 451.54L560.869 452.963 560.722 462.674 560.624 472.337 562.831 472.337 565.038 472.337 565.038 476.506 565.038 480.675 556.21 480.675 547.381 480.675 547.381 476.555 547.381 472.386 549.49 472.239 551.55 472.092 551.55 461.938C551.55 449.578 551.746 450.02 545.762 450.02 541.642 450.069 539.68 450.706 536.002 453.306L534.628 454.238 534.628 463.312 534.628 472.337 537.081 472.337 539.582 472.337 539.435 476.408 539.288 480.43 530.361 480.577 521.385 480.675 521.385 476.506Z" fill="#FFFFFF" transform="matrix(1 0 0 1.00087 8.46001 7.8)"/><path d="M652.05 480.037C651.903 479.645 651.854 477.83 651.952 475.966L652.099 472.582 654.307 472.337 656.514 472.092 656.661 461.203 656.759 450.314 653.963 450.167 651.118 450.02 651.118 446.096 651.118 442.172 658.083 442.025 665.097 441.878 665.195 456.985 665.342 472.092 667.697 472.239 670.002 472.386 670.002 476.555 670.002 480.675 661.173 480.675C654.208 480.675 652.247 480.528 652.05 480.037Z" fill="#FFFFFF" transform="matrix(1 0 0 1.00087 8.46001 7.8)"/><path d="M683.883 479.89C679.518 478.272 678.831 475.623 678.831 460.516L678.831 449.823 676.771 449.676 674.662 449.529 674.662 445.851 674.662 442.172 676.771 442.025 678.831 441.878 678.831 438.101 678.88 434.324 682.706 431.283C684.815 429.566 686.777 428.193 687.12 428.193 687.512 428.193 687.66 430.253 687.66 435.011L687.66 441.878 690.259 442.025 692.81 442.172 692.957 445.998 693.104 449.774 690.357 449.774 687.66 449.774 687.758 460.712 687.905 471.601 690.504 471.748 693.055 471.895 693.055 475.77C693.055 477.879 692.859 479.743 692.564 479.939 691.436 480.675 685.845 480.626 683.883 479.89Z" fill="#FFFFFF" transform="matrix(1 0 0 1.00087 8.46001 7.8)"/><path d="M53.4628 463.263 53.4628 446.341 65.3816 446.243 77.2513 446.096 77.2513 370.806 77.2513 295.517 65.3816 295.37 53.4628 295.272 53.4628 278.105 53.4628 260.938 134.638 260.938 215.813 260.938 215.813 289.386 215.813 317.834 198.401 317.834 180.989 317.834 180.989 306.847C180.989 300.814 180.842 295.517 180.695 295.076 180.4 294.389 176.967 294.291 146.41 294.291 115.852 294.291 112.419 294.389 112.125 295.076 111.978 295.517 111.831 308.858 111.831 324.75L111.831 353.639 146.312 353.738 180.744 353.885 180.891 370.414 180.989 386.992 146.557 387.091 112.076 387.238 112.076 416.667 112.076 446.096 123.995 446.243 135.864 446.341 135.864 463.263 135.864 480.185 94.6635 480.185 53.4628 480.185 53.4628 463.263Z" fill="#FFFFFF" transform="matrix(1 0 0 1.00087 8.46001 7.8)"/><path d="M657.495 435.894C656.661 435.207 656.121 434.128 655.925 432.804 655.729 431.185 655.876 430.597 657.004 429.272 658.132 427.899 658.623 427.703 660.634 427.703 663.331 427.703 664.901 428.929 665.392 431.479 666.225 435.698 660.781 438.739 657.495 435.894Z" fill="#FFFFFF" transform="matrix(1 0 0 1.00087 8.46001 7.8)"/><path d="M420.591 413.871C420.443 413.528 420.296 399.009 420.198 381.597L420.1 349.961 408.476 349.814 396.802 349.716 396.802 333.53 396.802 317.344 426.133 317.442 455.415 317.589 455.415 365.902 455.415 414.214 438.101 414.361C424.514 414.46 420.738 414.361 420.591 413.871Z" fill="#FFFFFF" transform="matrix(1 0 0 1.00087 8.46001 7.8)"/><path d="M510.987 381.499 510.84 348.489 501.177 348.342 491.466 348.244 491.466 333.039 491.466 317.834 500.981 317.834C509.221 317.834 510.546 317.736 510.791 317.049 510.938 316.608 511.085 310.133 511.085 302.678L511.085 289.043 520.748 281.244C526.094 276.977 533.647 270.846 537.571 267.707 541.495 264.518 544.978 261.919 545.272 261.919 545.762 261.919 545.909 267.952 546.008 289.778L546.155 317.589 557.828 317.736 569.453 317.834 569.453 333.039 569.453 348.244 557.681 348.244 545.909 348.244 545.811 381.254 545.664 414.214 528.399 414.361 511.085 414.46 510.987 381.499Z" fill="#FFFFFF" transform="matrix(1 0 0 1.00087 8.46001 7.8)"/><path d="M583.824 413.135C583.628 412.35 583.432 406.71 583.432 400.481 583.432 390.671 583.579 388.464 584.56 383.559 589.857 357.171 604.473 337.453 627.232 326.172 639.69 319.992 650.53 317.638 666.078 317.687 680.057 317.736 689.769 319.649 700.805 324.603 728.37 336.914 745.046 360.702 748.038 391.897 748.578 397.734 748.431 408.427 747.695 412.645L747.352 414.46 729.302 414.46C719.002 414.46 711.203 414.263 711.203 414.018 711.203 413.773 711.546 411.86 711.988 409.751 713.214 403.816 712.723 392.584 711.007 386.796 709.241 380.91 706.347 375.221 702.619 370.218 692.957 357.367 680.989 351.089 666.078 351.04 656.514 350.991 648.96 353.149 641.554 358.103 631.401 364.872 623.455 376.104 620.12 388.219 618.943 392.535 618.795 394.006 618.795 400.481 618.795 405.386 619.09 408.868 619.58 410.879 619.973 412.547 620.218 414.067 620.071 414.214 619.924 414.361 611.782 414.46 602.021 414.46L584.167 414.46 583.824 413.135Z" fill="#FFFFFF" transform="matrix(1 0 0 1.00087 8.46001 7.8)"/><path d="M360.261 302.335C355.749 299.196 343.683 293.506 336.571 291.201 322.886 286.688 311.899 285.168 296.106 285.609 279.92 286.051 266.48 289.092 253.139 295.321 250.883 296.351 248.823 297.234 248.627 297.234 248.381 297.234 248.136 281.931 248.087 263.292L247.94 229.302 194.722 229.154 141.505 229.056 97.5084 185.011C73.2784 160.83 53.4628 140.671 53.4628 140.279 53.4628 139.249 165.784 27.0257 167.206 26.6333 168.187 26.3881 181.577 39.5821 280.852 138.856 342.751 200.755 393.369 251.521 393.369 251.668 393.369 251.815 392.486 253.581 391.407 255.493 387.041 263.488 384.981 271.287 384.883 280.165L384.834 285.462 374.73 285.56 364.675 285.707 364.528 294.928C364.381 305.474 364.479 305.278 360.261 302.335Z" fill="#FFFFFF" transform="matrix(1 0 0 1.00087 8.46001 7.8)"/><path d="M430.4 299.049C427.359 298.018 425.299 296.841 422.945 294.634 412.988 285.462 415.735 268.786 428.095 262.998 430.547 261.821 431.479 261.674 436.041 261.674 440.112 261.674 441.681 261.87 443.398 262.655 449.922 265.499 454.091 270.748 455.17 277.516 456.543 285.854 452.08 294.389 444.428 298.068 442.172 299.147 440.897 299.392 437.022 299.539 434.079 299.637 431.627 299.441 430.4 299.049Z" fill="#FFFFFF" transform="matrix(1 0 0 1.00087 8.46001 7.8)"/><path d="M578.134 285.119C577.938 284.972 577.791 264.518 577.791 239.749 577.791 214.979 577.644 194.722 577.448 194.722 577.202 194.722 573.18 197.911 568.423 201.736 563.665 205.562 552.727 214.391 544.144 221.307 535.56 228.272 522.317 238.915 514.764 244.997 507.21 251.128 497.891 258.633 494.016 261.772 490.19 264.862 486.757 267.314 486.365 267.167 486.021 267.02 485.335 265.696 484.893 264.175 482.882 257.75 478.075 250.098 472.68 244.605 462.821 234.599 449.431 229.056 434.962 229.056 433.049 229.056 431.627 228.86 431.627 228.566 431.627 227.83 633.118 26.4862 633.853 26.4862 634.638 26.4862 747.695 139.543 747.891 140.573 748.038 141.112 723.612 165.882 676.084 213.41L604.032 285.462 591.23 285.462C584.216 285.462 578.281 285.315 578.134 285.119Z" fill="#FFFFFF" transform="matrix(1 0 0 1.00087 8.46001 7.8)"/></g></g></g></g></g><g clip-path="url(#clip7)"><g clip-path="url(#clip8)"><g clip-path="url(#clip9)"><path d="M108.051 651.191C77.4677 620.607 52.4145 595.266 52.4145 594.929 52.4145 594.304 197.877 448.649 198.502 448.649 198.694 448.649 199.945 450.332 201.243 452.352 206.292 460.142 214.274 469.086 222.161 475.77 239.039 490.052 257.793 498.563 280.827 502.314 285.251 503.035 290.973 503.18 326.653 503.324 357.236 503.468 367.383 503.66 367.383 504.093 367.383 504.911 165.322 706.875 164.457 706.875 164.072 706.875 138.682 681.822 108.051 651.191Z" fill="#FFFFFF" transform="matrix(1 0 0 1.00087 263 0)"/><path d="M519.914 605.749C464.326 550.16 418.835 504.382 418.835 504.045 418.835 503.612 441.58 503.468 530.781 503.468L642.679 503.468 688.025 548.814C712.934 573.723 733.323 594.448 733.323 594.833 733.323 595.602 622.29 706.875 621.521 706.875 621.233 706.875 575.55 661.385 519.914 605.749Z" fill="#FFFFFF" transform="matrix(1 0 0 1.00087 263 0)"/><path d="M287.078 471.442C268.372 469.134 251.205 460.815 237.981 447.688 226.056 435.906 218.843 422.875 215.332 406.67 214.419 402.39 214.274 400.322 214.226 390.705 214.226 380.847 214.371 379.116 215.332 374.692 216.823 368.104 219.324 360.939 222.065 355.601 234.086 332.039 255.052 316.603 281.307 312.035 286.597 311.073 301.985 311.217 307.996 312.275 324.73 315.112 339.156 322.662 350.408 334.395 361.949 346.417 368.296 359.352 370.845 376.038 371.23 378.587 371.47 384.934 371.47 393.109L371.47 406.092 310.256 406.237 249.041 406.333 249.33 407.439C249.859 409.218 252.888 414.556 254.956 417.393 259.765 423.933 269.478 431.627 276.835 434.704 282.942 437.253 287.174 438.166 294.435 438.407 303.86 438.791 310.015 437.445 318.671 433.165 325.788 429.655 330.356 425.808 337.232 417.633L338.434 416.191 341.127 418.114C350.168 424.606 364.978 435.906 364.978 436.339 364.978 436.676 363.776 438.407 362.334 440.234 350.071 455.718 333.818 465.672 313.526 470.144 308.861 471.154 306.505 471.346 298.378 471.49 293.089 471.587 287.991 471.539 287.078 471.442ZM335.357 372.72C335.742 372.143 331.847 364.594 329.875 362.045 326.124 357.092 319.633 351.706 314.247 349.014 303.187 343.484 289.001 342.906 276.883 347.475 269.478 350.264 260.919 356.563 255.966 362.814 253.08 366.517 250.051 371.518 250.051 372.624 250.051 373.249 334.972 373.393 335.357 372.72Z" fill="#FFFFFF" transform="matrix(1 0 0 1.00087 263 0)"/><path d="M473.654 471.298C470.336 470.288 467.836 468.172 466.153 464.999 465.383 463.556 465.191 461.777 464.999 452.256L464.758 441.196 462.45 441.052 460.142 440.907 460.286 437.205 460.43 433.502 469.23 433.358 477.982 433.261 477.982 437.06 477.982 440.907 475.722 441.052 473.414 441.196 473.27 449.611C473.125 459.324 473.318 460.815 474.857 462.402 475.818 463.364 476.491 463.556 479.088 463.556 482.695 463.556 485.339 462.739 488.321 460.671L490.485 459.18 490.389 450.188 490.244 441.196 487.984 441.052 485.676 440.907 485.676 437.06 485.676 433.261 494.476 433.358 503.228 433.502 503.372 437.205 503.516 440.907 501.208 441.052 498.9 441.196 498.9 452.015 498.9 462.835 501.545 463.075 504.189 463.316 504.334 467.307 504.478 471.25 497.457 471.25 490.485 471.25 490.485 470.144C490.485 468.413 490.052 468.317 488.128 469.567 487.167 470.192 485.436 470.961 484.233 471.202 481.733 471.779 475.434 471.827 473.654 471.298Z" fill="#FFFFFF" transform="matrix(1 0 0 1.00087 263 0)"/><path d="M602.046 471.442C601.373 471.298 599.545 470.769 597.959 470.192 583.388 465.095 576.704 447.351 583.773 432.54 589.832 419.845 606.181 414.652 619.549 421.192 624.358 423.548 626.522 425.327 628.878 428.837 634.601 437.397 635.37 448.168 630.898 457.593 628.109 463.364 623.252 467.836 617.193 470.096 614.452 471.106 612.817 471.394 608.538 471.49 605.652 471.587 602.719 471.539 602.046 471.442ZM612.625 462.979C616.424 461.873 620.223 458.988 622.339 455.622 628.349 445.956 624.935 432.925 615.222 428.164 612.673 426.914 611.904 426.818 607.335 426.77 602.719 426.77 602.046 426.866 599.401 428.164 595.891 429.895 592.909 432.925 591.13 436.531 589.88 439.032 589.784 439.705 589.784 444.802 589.784 449.996 589.88 450.525 591.323 453.554 595.121 461.585 603.969 465.48 612.625 462.979Z" fill="#FFFFFF" transform="matrix(1 0 0 1.00087 263 0)"/><path d="M697.498 471.298C687.688 468.701 681.87 459.469 683.361 448.793 685.236 435.714 699.373 428.693 711.876 434.608 715.675 436.435 718.656 439.465 720.484 443.36 721.686 445.908 722.022 447.255 722.167 450.669 722.503 457.593 720.58 462.931 716.3 466.73 712.501 470.192 709.424 471.346 703.749 471.539 701.105 471.635 698.316 471.539 697.498 471.298ZM707.356 462.594C711.251 460.623 713.751 456.535 713.751 452.16 713.751 443.889 705.529 438.166 698.412 441.532 695.671 442.783 692.834 446.293 691.968 449.371 690.381 455.093 694.276 461.825 700.095 463.364 702.643 464.037 704.903 463.797 707.356 462.594Z" fill="#FFFFFF" transform="matrix(1 0 0 1.00087 263 0)"/><path d="M407.776 467.163 407.776 463.075 409.939 463.075 412.103 463.075 412.007 444.947 411.863 426.77 409.843 426.626 407.776 426.481 407.776 422.875 407.776 419.316 414.411 419.316 420.999 419.316 422.49 421.865C423.885 424.221 440.33 450.044 442.542 453.314 443.119 454.179 443.744 454.901 443.985 454.901 444.177 454.901 444.273 448.553 444.225 440.859L444.081 426.77 441.821 426.626 439.513 426.481 439.513 422.875 439.513 419.316 448.409 419.316 457.305 419.316 457.305 422.875 457.305 426.481 455.045 426.626 452.737 426.77 452.592 449.034 452.496 471.298 448.313 471.154 444.129 471.01 440.955 465.96C439.176 463.171 435.954 458.122 433.742 454.66 431.53 451.246 428.212 445.956 426.337 442.975 424.462 439.994 422.442 436.964 421.865 436.243L420.807 434.945 420.903 448.89 420.999 462.835 423.308 462.979 425.568 463.123 425.568 467.211 425.568 471.25 416.672 471.25 407.776 471.25 407.776 467.163Z" fill="#FFFFFF" transform="matrix(1 0 0 1.00087 263 0)"/><path d="M511.162 467.163 511.162 463.075 513.326 463.075 515.49 463.075 515.394 452.16 515.249 441.196 512.701 441.052 510.152 440.907 510.296 437.205 510.441 433.502 517.173 433.502 523.905 433.502 524.049 434.848C524.145 435.57 524.29 436.147 524.386 436.147 524.482 436.147 525.348 435.618 526.309 434.993 529.531 432.781 536.84 432.059 541.072 433.55 542.322 433.935 544.149 435.089 545.159 436.099L546.987 437.974 549.006 436.099C551.795 433.55 555.209 432.636 560.884 432.877 565.692 433.117 567.856 433.839 570.309 436.243 573.146 438.936 573.386 440.138 573.675 452.015L573.915 462.835 576.079 463.075 578.243 463.316 578.387 467.307 578.531 471.25 569.587 471.25 560.691 471.25 560.691 467.211 560.691 463.123 563 462.979 565.26 462.835 565.404 454.516C565.596 441.917 564.971 440.667 558.624 441.052 555.931 441.244 554.488 441.629 552.469 442.686L549.872 444.081 549.728 453.602 549.631 463.075 551.795 463.075 553.959 463.075 553.959 467.163 553.959 471.25 545.304 471.25 536.648 471.25 536.648 467.211 536.648 463.123 538.716 462.979 540.735 462.835 540.735 452.881C540.735 440.763 540.928 441.196 535.061 441.196 531.022 441.244 529.098 441.869 525.492 444.418L524.145 445.331 524.145 454.227 524.145 463.075 526.55 463.075 529.002 463.075 528.858 467.066 528.714 471.01 519.962 471.154 511.162 471.25 511.162 467.163Z" fill="#FFFFFF" transform="matrix(1 0 0 1.00087 263 0)"/><path d="M639.265 470.625C639.121 470.24 639.073 468.461 639.169 466.634L639.313 463.316 641.477 463.075 643.641 462.835 643.785 452.16 643.881 441.484 641.14 441.34 638.351 441.196 638.351 437.349 638.351 433.502 645.18 433.358 652.056 433.213 652.152 448.024 652.297 462.835 654.605 462.979 656.865 463.123 656.865 467.211 656.865 471.25 648.209 471.25C641.381 471.25 639.457 471.106 639.265 470.625Z" fill="#FFFFFF" transform="matrix(1 0 0 1.00087 263 0)"/><path d="M670.473 470.481C666.194 468.894 665.52 466.297 665.52 451.486L665.52 441.003 663.501 440.859 661.433 440.715 661.433 437.108 661.433 433.502 663.501 433.358 665.52 433.213 665.52 429.511 665.568 425.808 669.319 422.827C671.387 421.144 673.31 419.797 673.647 419.797 674.032 419.797 674.176 421.817 674.176 426.481L674.176 433.213 676.725 433.358 679.225 433.502 679.369 437.253 679.514 440.955 676.821 440.955 674.176 440.955 674.272 451.679 674.416 462.354 676.965 462.498 679.466 462.642 679.466 466.441C679.466 468.509 679.273 470.336 678.985 470.529 677.879 471.25 672.397 471.202 670.473 470.481Z" fill="#FFFFFF" transform="matrix(1 0 0 1.00087 263 0)"/><path d="M52.4145 454.179 52.4145 437.589 64.0996 437.493 75.7366 437.349 75.7366 363.536 75.7366 289.723 64.0996 289.578 52.4145 289.482 52.4145 272.652 52.4145 255.821 131.998 255.821 211.582 255.821 211.582 283.712 211.582 311.602 194.511 311.602 177.44 311.602 177.44 300.831C177.44 294.916 177.296 289.723 177.152 289.29 176.863 288.617 173.497 288.52 143.539 288.52 113.581 288.52 110.215 288.617 109.926 289.29 109.782 289.723 109.638 302.802 109.638 318.382L109.638 346.705 143.443 346.802 177.2 346.946 177.344 363.151 177.44 379.404 143.683 379.501 109.878 379.645 109.878 408.497 109.878 437.349 121.563 437.493 133.2 437.589 133.2 454.179 133.2 470.769 92.8074 470.769 52.4145 470.769 52.4145 454.179Z" fill="#FFFFFF" transform="matrix(1 0 0 1.00087 263 0)"/><path d="M644.603 427.347C643.785 426.674 643.256 425.616 643.064 424.317 642.872 422.73 643.016 422.153 644.122 420.855 645.228 419.509 645.709 419.316 647.68 419.316 650.325 419.316 651.864 420.518 652.345 423.019 653.162 427.154 647.824 430.136 644.603 427.347Z" fill="#FFFFFF" transform="matrix(1 0 0 1.00087 263 0)"/><path d="M412.344 405.756C412.199 405.419 412.055 391.186 411.959 374.115L411.863 343.099 400.466 342.955 389.022 342.858 389.022 326.99 389.022 311.121 417.778 311.217 446.485 311.362 446.485 358.727 446.485 406.092 429.511 406.237C416.191 406.333 412.488 406.237 412.344 405.756Z" fill="#FFFFFF" transform="matrix(1 0 0 1.00087 263 0)"/><path d="M500.968 374.019 500.823 341.656 491.35 341.512 481.829 341.416 481.829 326.509 481.829 311.602 491.158 311.602C499.236 311.602 500.535 311.506 500.775 310.833 500.919 310.4 501.064 304.052 501.064 296.743L501.064 283.375 510.537 275.729C515.778 271.546 523.184 265.535 527.031 262.457 530.878 259.332 534.292 256.783 534.58 256.783 535.061 256.783 535.205 262.698 535.302 284.096L535.446 311.362 546.89 311.506 558.287 311.602 558.287 326.509 558.287 341.416 546.746 341.416 535.205 341.416 535.109 373.778 534.965 406.092 518.038 406.237 501.064 406.333 500.968 374.019Z" fill="#FFFFFF" transform="matrix(1 0 0 1.00087 263 0)"/><path d="M572.376 405.035C572.184 404.265 571.992 398.735 571.992 392.628 571.992 383.011 572.136 380.847 573.098 376.038 578.291 350.168 592.621 330.837 614.933 319.777 627.147 313.718 637.774 311.41 653.018 311.458 666.723 311.506 676.244 313.381 687.063 318.238 714.088 330.308 730.438 353.63 733.371 384.213 733.9 389.935 733.755 400.418 733.034 404.554L732.698 406.333 715.002 406.333C704.903 406.333 697.258 406.141 697.258 405.9 697.258 405.66 697.594 403.784 698.027 401.717 699.229 395.898 698.748 384.886 697.065 379.212 695.334 373.442 692.497 367.864 688.842 362.959 679.369 350.36 667.636 344.205 653.018 344.157 643.641 344.109 636.236 346.224 628.974 351.081 619.021 357.717 611.23 368.729 607.961 380.607 606.807 384.838 606.662 386.281 606.662 392.628 606.662 397.437 606.951 400.851 607.432 402.823 607.816 404.458 608.057 405.948 607.912 406.092 607.768 406.237 599.786 406.333 590.217 406.333L572.713 406.333 572.376 405.035Z" fill="#FFFFFF" transform="matrix(1 0 0 1.00087 263 0)"/><path d="M353.197 296.407C348.773 293.329 336.944 287.751 329.971 285.491 316.555 281.067 305.784 279.576 290.3 280.009 274.431 280.442 261.255 283.423 248.176 289.53 245.964 290.54 243.944 291.406 243.752 291.406 243.511 291.406 243.271 276.403 243.223 258.13L243.078 224.805 190.904 224.661 138.73 224.565 95.5964 181.383C71.8416 157.676 52.4145 137.913 52.4145 137.528 52.4145 136.518 162.533 26.4958 163.928 26.1111 164.889 25.8707 178.017 38.806 275.345 136.134 336.03 196.819 385.656 246.589 385.656 246.733 385.656 246.877 384.79 248.608 383.732 250.484 379.452 258.322 377.433 265.968 377.337 274.671L377.289 279.865 367.383 279.961 357.525 280.105 357.381 289.146C357.236 299.484 357.333 299.292 353.197 296.407Z" fill="#FFFFFF" transform="matrix(1 0 0 1.00087 263 0)"/><path d="M421.961 293.185C418.98 292.175 416.96 291.021 414.652 288.857 404.89 279.865 407.583 263.515 419.701 257.841 422.105 256.687 423.019 256.543 427.491 256.543 431.482 256.543 433.021 256.735 434.704 257.504 441.1 260.293 445.187 265.439 446.245 272.075 447.591 280.249 443.215 288.617 435.714 292.223 433.502 293.281 432.252 293.521 428.453 293.666 425.568 293.762 423.163 293.57 421.961 293.185Z" fill="#FFFFFF" transform="matrix(1 0 0 1.00087 263 0)"/><path d="M566.798 279.528C566.606 279.384 566.462 259.332 566.462 235.048 566.462 210.764 566.317 190.904 566.125 190.904 565.885 190.904 561.942 194.03 557.277 197.781 552.613 201.532 541.889 210.187 533.474 216.967 525.059 223.796 512.076 234.23 504.67 240.193 497.265 246.204 488.128 253.561 484.33 256.639 480.579 259.668 477.213 262.073 476.828 261.928 476.491 261.784 475.818 260.486 475.385 258.995 473.414 252.696 468.701 245.194 463.412 239.809 453.746 229.999 440.619 224.565 426.433 224.565 424.558 224.565 423.163 224.373 423.163 224.084 423.163 223.363 620.704 25.9668 621.425 25.9668 622.194 25.9668 733.034 136.807 733.227 137.817 733.371 138.346 709.424 162.629 662.828 209.225L592.188 279.865 579.638 279.865C572.761 279.865 566.943 279.721 566.798 279.528Z" fill="#FFFFFF" transform="matrix(1 0 0 1.00087 263 0)"/></g></g></g></g></svg>