<svg width="1285" height="317" xmlns="http://www.w3.org/2000/svg" xmlns:xlink="http://www.w3.org/1999/xlink" xml:space="preserve" overflow="hidden"><g transform="matrix(1 0 0 1 0 -484)"><path d="M147.386 311.871C106.807 305.618 76.8193 290.688 52.1912 264.401-4.21102 204.298-2.67974 111.018 55.7641 53.0844 99.6609 9.4429 166.272-2.93496 223.057 21.9484 240.028 29.3496 255.596 39.9409 268.867 53.212 291.071 75.1604 304.214 99.5333 310.85 130.414 314.04 145.089 314.04 176.48 310.85 191.155 301.407 235.052 274.993 271.037 236.328 292.857 215.528 304.597 191.155 311.233 166.527 311.999 158.105 312.254 149.555 312.126 147.386 311.871ZM192.686 289.029C230.585 279.714 262.742 253.937 280.352 218.846 282.521 214.635 286.222 205.447 288.519 198.428 292.73 185.795 292.73 185.413 292.73 161.423 292.857 139.474 292.602 136.284 289.795 126.969 278.31 88.6867 254.193 59.4647 220.122 42.493 202.384 33.5606 183.243 29.3496 161.423 29.3496 87.4106 29.3496 27.8183 91.6216 31.0084 165.634 33.0501 215.145 62.0169 258.786 106.296 279.459 119.95 285.712 127.352 288.264 139.091 290.433 151.342 292.602 181.329 291.837 192.686 289.029Z" fill="#FFFFFF" transform="matrix(1 0 0 -1.00093 0 800.88)"/><path d="M151.342 242.198C145.344 230.33 140.367 220.377 140.367 219.994 140.367 219.611 142.92 221.398 145.982 223.822 148.917 226.374 151.852 228.416 152.362 228.416 152.745 228.416 153.128 198.556 153.128 161.933L153.128 95.4499 147.769 96.3431C140.623 97.4916 130.669 102.085 125.31 106.424 119.312 111.656 115.229 119.44 113.698 128.755 112.166 137.943 112.294 138.709 117.398 155.17 122.63 171.886 123.141 177.501 120.078 189.113 117.143 200.47 113.825 207.106 104.127 221.908 99.6609 228.671 96.8535 231.989 96.4707 230.841 95.1946 227.523 86.7726 185.923 87.1554 185.413 87.4106 185.157 89.5799 187.837 92.0045 191.41 94.429 194.855 96.7259 197.79 97.1087 197.79 98.8952 197.79 102.468 186.561 102.979 179.287 103.489 172.78 102.851 169.334 98.8952 157.212 94.429 143.685 94.1738 141.899 94.8118 131.69 95.4499 119.823 98.5124 110.635 104.893 101.32 111.784 90.9836 127.224 81.6683 143.302 78.2229L153.128 76.1812 153.128 66.7383 153.128 57.423 162.061 57.423 170.993 57.423 170.993 66.9935C170.993 75.7984 171.248 76.564 173.545 76.564 180.564 76.564 196.77 81.0303 204.554 85.1137 218.846 92.6425 226.885 104.382 229.692 121.737 231.351 132.583 230.585 138.709 224.971 155.68 221.27 166.782 220.632 170.1 221.398 175.459 222.163 181.457 226.247 192.686 227.65 192.686 228.033 192.686 230.713 189.368 233.648 185.413 237.093 180.564 238.625 179.16 238.114 181.202 237.731 182.988 235.179 194.217 232.627 206.213 227.268 231.351 228.927 230.841 216.549 211.189 206.34 194.983 203.788 187.199 203.66 172.269 203.533 161.805 204.171 158.488 207.871 147.386 211.444 136.539 211.955 133.477 211.317 126.714 209.913 110.763 202.001 101.83 185.668 97.4916 182.222 96.4707 177.373 95.7051 175.204 95.7051L170.993 95.7051 170.993 162.061C170.993 205.319 171.376 228.416 172.269 228.416 172.907 228.416 175.842 226.374 178.649 223.822 181.457 221.27 183.754 219.866 183.754 220.632 183.754 221.525 178.905 231.479 173.035 242.963L162.316 263.891 151.342 242.198Z" fill="#FFFFFF" transform="matrix(1 0 0 -1.00093 0 800.88)"/><path d="M749.307 210.551C741.14 208.765 729.273 202.001 723.403 195.621 720.595 192.559 716.384 186.178 714.215 181.457 710.514 173.673 710.132 171.886 710.132 160.146 710.132 148.151 710.387 146.875 714.598 138.709 720.213 127.607 730.804 117.398 741.012 113.442 749.562 110.125 766.789 109.359 775.211 111.911 789.375 116.25 802.391 128.5 807.751 142.537 811.707 152.618 811.834 168.569 807.878 178.905 804.561 187.327 796.649 197.663 789.631 202.257 778.146 209.913 761.94 213.231 749.307 210.551ZM773.297 190.006C781.208 186.433 784.526 183.116 788.737 174.183 793.204 164.996 793.459 158.488 789.886 148.789 785.164 136.284 773.807 128.372 760.536 128.372 750.711 128.372 744.841 130.797 737.695 138.07 722.509 153.256 727.486 181.329 747.138 190.262 754.156 193.452 765.896 193.324 773.297 190.006Z" fill="#FFFFFF" transform="matrix(1 0 0 -1.00093 0 800.88)"/><path d="M463.212 160.912 463.212 111.018 473.421 111.018 483.63 111.018 483.63 128.755 483.63 146.365 496.901 147.003C507.364 147.641 511.703 148.407 517.19 150.959 540.287 161.55 540.542 194.473 517.701 206.34 511.32 209.785 510.172 209.913 487.203 210.296L463.212 210.806 463.212 160.912ZM510.044 189.368C517.445 183.881 516.68 172.014 508.641 167.037 505.578 165.123 502.26 164.613 494.221 164.613L483.63 164.613 483.63 178.777 483.63 192.941 494.987 192.431C504.174 192.176 507.109 191.538 510.044 189.368Z" fill="#FFFFFF" transform="matrix(1 0 0 -1.00093 0 800.88)"/><path d="M580.611 160.912 580.611 111.018 590.181 111.018 599.752 111.018 599.752 128.883 599.752 146.748 606.387 146.748 613.023 146.748 627.06 132.839C634.844 125.182 643.776 117.781 646.839 116.25 653.474 112.804 667 109.742 675.423 109.742L681.42 109.742 681.42 118.547 681.42 127.224 673.253 127.862C662.279 128.755 654.75 132.583 644.542 142.537L636.12 150.576 639.565 153.128C641.352 154.532 644.797 158.743 647.221 162.316 651.05 168.441 651.432 169.845 651.432 178.777 651.432 187.71 651.05 188.986 646.839 195.366 643.648 200.215 640.203 203.405 635.354 206.085 628.463 209.913 628.336 209.913 604.601 210.296L580.611 210.806 580.611 160.912ZM625.273 190.389C628.591 188.858 630.25 186.816 631.653 182.86 633.312 178.011 633.185 176.991 631.271 172.907 628.336 166.782 622.849 164.613 609.96 164.613L599.752 164.613 599.752 178.649 599.752 192.686 610.343 192.686C617.744 192.686 622.083 192.048 625.273 190.389Z" fill="#FFFFFF" transform="matrix(1 0 0 -1.00093 0 800.88)"/><path d="M843.481 201.619 843.481 192.686 859.431 192.686 875.382 192.686 875.382 151.852 875.382 111.018 885.591 111.018 895.799 111.018 895.799 151.852 895.799 192.686 911.75 192.686 927.701 192.686 927.701 201.619 927.701 210.551 885.591 210.551 843.481 210.551 843.481 201.619Z" fill="#FFFFFF" transform="matrix(1 0 0 -1.00093 0 800.88)"/><path d="M969.811 160.785 969.811 111.018 999.799 111.018 1029.79 111.018 1029.79 119.95 1029.79 128.883 1009.37 128.883 988.952 128.883 988.952 141.005 988.952 153.128 1004.27 153.128 1019.58 153.128 1019.58 162.061 1019.58 170.993 1004.27 170.993 988.952 170.993 988.952 181.84 988.952 192.686 1009.37 192.686 1029.79 192.686 1029.79 201.619 1029.79 210.551 999.799 210.551 969.811 210.551 969.811 160.785Z" fill="#FFFFFF" transform="matrix(1 0 0 -1.00093 0 800.88)"/><path d="M1078.28 180.819C1078.28 146.11 1079.04 142.026 1088.23 129.904 1094.48 121.482 1103.93 114.846 1113.37 111.911 1121.03 109.614 1137.74 109.997 1145.65 112.804 1154.97 115.995 1164.79 123.779 1170.54 132.456 1178.32 144.323 1179.09 148.534 1179.09 181.457L1179.09 210.551 1169.64 210.551 1160.07 210.551 1159.69 180.308C1159.31 150.831 1159.18 149.81 1156.24 144.451 1143.36 121.992 1112.22 122.885 1100.61 146.11L1096.78 153.766 1096.4 182.222 1096.01 210.551 1087.08 210.551 1078.28 210.551 1078.28 180.819Z" fill="#FFFFFF" transform="matrix(1 0 0 -1.00093 0 800.88)"/><path d="M1239.32 208.382C1233.96 205.83 1230.51 201.363 1228.85 195.111 1224.13 177.756 1242.38 163.464 1258.07 172.397 1265.6 176.735 1267.77 180.564 1267.77 190.389 1267.77 198.046 1267.39 199.322 1263.94 203.022 1256.93 210.424 1247.61 212.465 1239.32 208.382ZM1257.82 204.809C1263.31 201.108 1266.11 195.366 1265.48 188.475 1264.33 175.332 1249.65 167.93 1239.06 175.076 1226.94 183.243 1227.96 199.577 1240.98 205.702 1246.72 208.382 1252.84 207.999 1257.82 204.809Z" fill="#FFFFFF" transform="matrix(1 0 0 -1.00093 0 800.88)"/><path d="M1241.61 190.134C1241.61 184.137 1242 182.478 1243.53 182.478 1244.55 182.478 1245.44 183.626 1245.44 185.03 1245.44 186.433 1246.21 187.582 1247.1 187.582 1247.99 187.582 1249.65 186.433 1250.93 185.03 1253.35 182.095 1258.2 181.584 1258.2 184.264 1258.2 185.157 1257.05 186.306 1255.65 186.689 1253.61 187.199 1253.23 188.092 1253.74 190.517 1254.88 194.728 1251.57 197.79 1245.95 197.79L1241.61 197.79 1241.61 190.134ZM1249.91 192.686C1250.29 192.048 1249.53 191.41 1248.12 191.41 1246.59 191.41 1245.44 192.048 1245.44 192.686 1245.44 193.452 1246.21 193.962 1247.23 193.962 1248.25 193.962 1249.53 193.452 1249.91 192.686Z" fill="#FFFFFF" transform="matrix(1 0 0 -1.00093 0 800.88)"/><path d="M1049.44 49.2562C1048.03 45.5556 1049.57 43.0035 1054.03 41.4722 1056.46 40.7066 1058.63 39.0477 1058.88 37.8992 1059.39 35.2195 1054.8 33.9434 1051.35 35.7299 1049.18 37.006 1048.8 36.8783 1049.18 35.4747 1049.95 33.3054 1057.48 32.5397 1059.9 34.5814 1063.35 37.5164 1061.94 40.5789 1055.82 43.3863 1050.71 45.5556 1050.08 46.1936 1051.61 47.9801 1052.76 49.3838 1054.41 49.7666 1057.73 49.1286 1061.05 48.6182 1061.82 48.7458 1060.41 49.639 1057.48 51.6807 1050.2 51.2979 1049.44 49.2562Z" fill="#FFFFFF" transform="matrix(1 0 0 -1.00093 0 800.88)"/><path d="M1075.72 48.4906C1074.32 47.0869 1073.17 44.79 1073.17 43.2587 1073.17 40.3237 1075.47 35.6023 1077.51 34.1986 1079.94 32.5397 1085.17 33.0501 1088.23 35.2195 1091.8 37.7716 1092.19 45.8108 1088.74 48.8734 1085.55 51.8083 1078.79 51.5531 1075.72 48.4906ZM1087.21 47.2145C1088.61 45.8108 1089.76 43.5139 1089.76 42.1102 1089.76 39.0477 1085.42 34.4538 1082.49 34.4538 1076.75 34.4538 1073.43 43.5139 1077.77 47.7249 1080.45 50.5323 1084.15 50.2771 1087.21 47.2145Z" fill="#FFFFFF" transform="matrix(1 0 0 -1.00093 0 800.88)"/><path d="M1103.8 42.1102 1103.8 33.1778 1109.54 33.1778C1112.73 33.1778 1115.28 33.8158 1115.28 34.4538 1115.28 35.2195 1113.24 35.7299 1110.82 35.7299L1106.35 35.7299 1106.35 43.3863C1106.35 47.5973 1105.84 51.0427 1105.07 51.0427 1104.31 51.0427 1103.8 47.2145 1103.8 42.1102Z" fill="#FFFFFF" transform="matrix(1 0 0 -1.00093 0 800.88)"/><path d="M1128.04 44.1519C1128.04 36.1127 1130.09 33.1778 1135.7 33.1778 1141.31 33.1778 1143.36 36.1127 1143.36 44.1519 1143.36 47.9801 1142.85 51.0427 1142.08 51.0427 1141.44 51.0427 1140.8 47.8525 1140.8 44.0243 1140.8 37.7716 1140.42 36.7507 1137.61 35.4747 1132.77 33.3054 1130.6 35.9851 1130.6 44.1519 1130.6 47.9801 1130.09 51.0427 1129.32 51.0427 1128.68 51.0427 1128.04 47.9801 1128.04 44.1519Z" fill="#FFFFFF" transform="matrix(1 0 0 -1.00093 0 800.88)"/><path d="M1157.39 49.8942C1160.33 49.1286 1160.71 48.2354 1161.35 40.8342L1161.99 32.5397 1162.63 40.8342C1163.14 48.2354 1163.39 49.1286 1166.33 49.8942 1168.37 50.5323 1166.96 50.7875 1161.86 50.7875 1156.76 50.7875 1155.35 50.5323 1157.39 49.8942Z" fill="#FFFFFF" transform="matrix(1 0 0 -1.00093 0 800.88)"/><path d="M1180.36 42.1102C1180.36 37.006 1180.87 33.1778 1181.64 33.1778 1182.4 33.1778 1182.91 37.006 1182.91 42.1102 1182.91 47.2145 1182.4 51.0427 1181.64 51.0427 1180.87 51.0427 1180.36 47.2145 1180.36 42.1102Z" fill="#FFFFFF" transform="matrix(1 0 0 -1.00093 0 800.88)"/><path d="M1198.23 48.4906C1196.82 47.0869 1195.68 44.2795 1195.68 42.1102 1195.68 34.5814 1204.22 30.6256 1210.73 35.2195 1214.31 37.7716 1214.69 45.8108 1211.24 48.8734 1208.05 51.8083 1201.29 51.5531 1198.23 48.4906ZM1209.71 47.2145C1211.12 45.8108 1212.26 43.5139 1212.26 42.1102 1212.26 39.3029 1208.05 34.4538 1205.5 34.4538 1202.06 34.4538 1198.23 38.4096 1198.23 42.1102 1198.23 49.1286 1204.86 52.0636 1209.71 47.2145Z" fill="#FFFFFF" transform="matrix(1 0 0 -1.00093 0 800.88)"/><path d="M1227.83 41.855 1227.96 32.5397 1228.73 40.0685 1229.49 47.5973 1234.6 40.8342C1241.87 31.0084 1242.89 31.136 1242.89 41.9826 1242.89 47.2145 1242.38 51.0427 1241.61 51.0427 1240.98 51.0427 1240.34 48.2354 1240.34 44.6624 1240.34 41.217 1239.95 38.282 1239.44 38.282 1238.81 38.282 1236.51 41.217 1234.08 44.6624 1231.79 48.2354 1229.36 51.0427 1228.73 51.0427 1228.09 51.0427 1227.7 46.8317 1227.83 41.855Z" fill="#FFFFFF" transform="matrix(1 0 0 -1.00093 0 800.88)"/><path d="M1257.18 49.5114C1254.25 46.5765 1255.52 43.6415 1260.5 42.1102 1267.01 39.9409 1268.16 38.6648 1265.48 36.1127 1263.69 34.1986 1262.67 34.1986 1259.48 35.3471 1257.31 36.1127 1255.65 36.2403 1255.65 35.6023 1255.65 33.9434 1261.52 32.7949 1265.22 33.6882 1267.65 34.3262 1268.41 35.3471 1268.41 37.7716 1268.41 40.4513 1267.39 41.4722 1263.31 43.0035 1256.42 45.6832 1256.8 49.2562 1263.69 48.8734 1266.62 48.6182 1268.16 49.001 1267.77 49.7666 1266.62 51.5531 1258.97 51.2979 1257.18 49.5114Z" fill="#FFFFFF" transform="matrix(1 0 0 -1.00093 0 800.88)"/></g></svg>