<?xml version="1.0" encoding="utf-8"?>
<!DOCTYPE svg PUBLIC "-//W3C//DTD SVG 20010904//EN" "http://www.w3.org/TR/2001/REC-SVG-20010904/DTD/svg10.dtd">
<svg version="1.0" xmlns="http://www.w3.org/2000/svg" width="865px" height="413px" viewBox="0 0 865 413" preserveAspectRatio="xMidYMid meet">
 <g fill="#FFFFFF">
  <path d="M33.80 373.65 c-0.15 -0.20 -0.30 -7.60 -0.30 -16.50 l0 -16.15 1.35 -0.55 c0.90 -0.35 4.05 -0.40 8.90 -0.15 8.70 0.40 11.60 1.35 14.25 4.70 2.45 3.05 3.15 9.80 1.40 13.25 -0.90 1.70 -5.05 5.75 -6 5.75 -0.45 0 -1 0.25 -1.15 0.50 -0.15 0.30 -2.10 0.50 -4.25 0.50 -5.60 0 -5.50 -0.10 -5.50 4.55 0 2.15 -0.15 3.95 -0.35 4 -2.30 0.25 -8.15 0.30 -8.35 0.10z m16.90 -17.40 c1 -0.90 1.30 -1.70 1.30 -3.25 0 -2.10 -0.70 -3.95 -1.70 -4.60 -0.30 -0.20 -2.20 -0.40 -4.15 -0.40 l-3.65 0 0 4.40 c0 2.45 0.15 4.60 0.35 4.75 0.15 0.20 1.70 0.35 3.40 0.35 2.60 0 3.30 -0.20 4.45 -1.25z"/>
  <path d="M225.40 373.45 c-0.50 -0.30 3.70 -10.55 4.95 -12 0.35 -0.40 0.65 -1.15 0.65 -1.55 0 -0.45 0.35 -1.05 0.75 -1.40 0.40 -0.35 0.75 -0.95 0.75 -1.35 0 -0.45 0.45 -1.60 0.95 -2.60 0.55 -1 2.35 -4.65 4 -8.15 l3 -6.40 1.75 0 c1.75 0 1.80 0.05 4.10 4.90 1.25 2.65 3.05 6.45 4 8.40 0.95 1.90 1.70 3.65 1.70 3.85 0 0.20 1.70 3.85 3.75 8.15 2.10 4.25 3.65 7.95 3.50 8.25 -0.40 0.60 -7.05 0.60 -8.25 -0.05 -0.50 -0.25 -1.35 -1.25 -1.95 -2.25 l-1 -1.75 -6 0 -6 0 -1.15 2.10 -1.15 2.05 -3.90 0.05 c-2.20 0.05 -4.15 -0.10 -4.45 -0.25z m19.55 -12.05 c0 -1.60 -2.10 -5.65 -2.85 -5.65 -0.60 0 -2.55 4.60 -2.60 6.15 0 0.40 0.85 0.60 2.75 0.60 2.55 0 2.75 -0.10 2.70 -1.10z"/>
  <path d="M428.50 373.80 c-0.20 -4.75 0.05 -32.50 0.25 -32.85 0.45 -0.65 13.90 -0.55 16.25 0.15 4.20 1.20 7.50 3.45 9.75 6.45 1.05 1.45 2.75 7.30 2.75 9.45 0 2.90 -1.10 7 -2.50 9.20 -1.60 2.60 -5.15 5.55 -7.60 6.25 -1.20 0.35 -2.60 0.80 -3.15 1 -1.20 0.45 -15.75 0.75 -15.75 0.35z m16.45 -9 c2.15 -1.60 3.05 -3.40 3.40 -6.60 0.35 -3.40 -0.45 -5.70 -2.85 -7.90 -1.65 -1.50 -2.45 -1.85 -4.95 -2.10 -2.65 -0.30 -3 -0.25 -3.50 0.75 -0.55 1.05 -0.75 15.75 -0.20 16.70 0.10 0.20 1.60 0.35 3.35 0.35 2.50 0 3.40 -0.25 4.75 -1.20z"/>
  <path d="M628.85 373.70 c-0.20 -0.20 -0.35 -7.60 -0.35 -16.45 0 -12.30 0.15 -16.25 0.65 -16.65 0.75 -0.60 19.30 -0.35 19.95 0.30 0.25 0.25 0.40 1.90 0.30 3.65 l-0.15 3.20 -5.85 0.15 -5.90 0.15 0 2.20 0 2.25 2.90 0.10 c1.55 0.05 3.80 0.10 5 0.15 1.30 0 2.35 0.35 2.60 0.75 0.65 1 0.65 4.10 0 5.70 -0.45 1.20 -0.65 1.25 -5.35 1.40 l-4.90 0.15 -0.15 2.60 -0.15 2.60 6.15 0.15 6.15 0.15 0.05 2.75 c0.10 5.15 1.05 4.75 -10.45 4.90 -5.55 0.10 -10.30 0 -10.50 -0.20z"/>
  <path d="M821.60 373.15 c-0.20 -0.50 -0.35 -7.80 -0.35 -16.20 0 -12.65 0.15 -15.45 0.75 -16.15 0.55 -0.75 1.30 -0.85 4.10 -0.70 1.85 0.10 3.55 0.35 3.75 0.60 0.20 0.20 0.45 6 0.55 12.85 l0.15 12.45 5.35 0 c2.95 0 5.65 0.20 6 0.45 1 0.60 0.70 6.95 -0.35 7.25 -0.45 0.10 -5.05 0.20 -10.20 0.25 -8.50 0.05 -9.40 0 -9.75 -0.80z m0.25 -24.75 c-0.10 -0.65 -0.20 -0.25 -0.20 0.85 -0.05 1.10 0.05 1.60 0.20 1.15 0.10 -0.50 0.10 -1.40 0 -2z"/>
  <path d="M79.75 301.70 c-2.75 -2.65 -8.50 -8.20 -12.80 -12.35 -4.30 -4.20 -11.05 -10.65 -14.95 -14.35 -3.90 -3.70 -9.85 -9.50 -13.30 -12.85 l-6.20 -6.10 0 -58.50 c0 -36.80 0.20 -58.95 0.50 -59.75 l0.50 -1.30 78.85 0 c43.40 0 79.20 0.20 79.55 0.40 0.50 0.35 0.60 5.80 0.50 25.65 l-0.15 25.20 -53.25 0.25 -53.25 0.25 -0.10 58.50 c-0.05 32.20 -0.15 58.80 -0.15 59.15 0 0.30 -0.15 0.60 -0.35 0.60 -0.25 0 -2.65 -2.15 -5.40 -4.80z"/>
  <path d="M767 301.95 c-2.35 -2.20 -9.10 -8.70 -15 -14.35 -5.85 -5.70 -12.80 -12.35 -15.40 -14.85 -2.60 -2.45 -7.50 -7.20 -10.90 -10.55 l-6.20 -6.05 0 -35.30 0 -35.35 -5.05 -4.85 c-2.75 -2.70 -7.35 -7.15 -10.20 -9.90 -2.80 -2.75 -8 -7.70 -11.45 -11 -8.40 -7.95 -11.45 -10.85 -29.25 -28.20 l-15.05 -14.70 0 -36.20 c0 -23.10 0.20 -36.15 0.50 -36.15 0.30 0 0.50 0.35 0.50 0.75 0 0.35 0.35 0.90 0.75 1.10 0.40 0.25 4.95 4.55 10.10 9.60 5.20 5.05 12 11.65 15.15 14.65 3.15 3 9.15 8.80 13.25 12.80 4.15 4.05 11.55 11.20 16.45 15.85 4.90 4.70 11.80 11.30 15.30 14.75 3.55 3.45 8.30 8.05 10.60 10.20 2.30 2.20 6.35 6.05 9 8.65 3 2.85 5.25 4.65 5.90 4.65 0.65 0 2.90 -1.80 5.85 -4.60 2.65 -2.55 6.10 -5.85 7.60 -7.25 1.55 -1.45 6.30 -6.05 10.55 -10.20 4.25 -4.15 10.95 -10.60 14.90 -14.35 3.95 -3.75 10.15 -9.75 13.80 -13.35 9.10 -8.90 18.10 -17.35 19.05 -17.85 0.40 -0.25 0.75 -0.80 0.75 -1.15 0 -0.40 0.20 -0.75 0.40 -0.75 0.40 0 3.65 -3.10 17.20 -16.30 3.50 -3.40 6.65 -6.20 7 -6.20 0.55 0 0.65 6.60 0.55 35.70 l-0.10 35.70 -6.60 6.45 c-7.40 7.20 -7.15 6.95 -22.45 21.75 -6.20 6 -14.05 13.55 -17.45 16.75 -3.45 3.25 -10.35 9.95 -15.40 14.85 l-9.15 8.95 0 60.20 c0 47.80 -0.15 60.15 -0.60 60.15 -0.35 0 -2.55 -1.85 -4.90 -4.05z"/>
  <path d="M313.25 285.45 c-10.70 -1.25 -15.15 -2.15 -21.20 -4.30 -3.45 -1.25 -6.70 -2.35 -7.15 -2.50 -0.50 -0.15 -0.90 -0.45 -0.90 -0.70 0 -0.25 -0.25 -0.45 -0.60 -0.45 -2.30 0 -11.70 -5.75 -18.35 -11.20 -12.05 -10 -19.65 -19.80 -25.70 -33.30 -2.75 -6.10 -3.20 -7.50 -5.45 -18 l-1.10 -5.25 -0.20 -81.50 c-0.05 -44.80 0 -82 0.15 -82.60 0.20 -0.95 0.80 -0.50 5.15 3.75 2.70 2.65 8.10 7.90 12.05 11.60 3.95 3.70 10.35 9.90 14.25 13.75 10.90 10.75 20.80 20.10 21.05 19.80 0.15 -0.10 0.30 -0.10 0.35 0 0.05 0.10 0.25 25.40 0.40 56.20 0.20 30.80 0.50 56.90 0.70 58 0.20 1.10 1.30 3.85 2.35 6.15 4.35 9.10 14.35 16.95 24 18.90 3.15 0.60 5.75 0.75 10.90 0.55 7.05 -0.25 9.90 -1 14.65 -3.80 0.90 -0.55 2.45 -1.45 3.40 -2 2.45 -1.35 5.45 -4.20 8.30 -8.05 3 -4 3.60 -5 4.50 -7.95 2.25 -6.85 2.15 -5.10 2.20 -62.20 l0 -54.40 1.25 -1.25 c0.70 -0.70 1.25 -1.45 1.25 -1.70 0 -0.25 0.30 -0.65 0.70 -0.85 0.75 -0.40 11.20 -10.25 20.30 -19.15 3 -2.90 10.10 -9.75 15.80 -15.25 5.75 -5.50 10.90 -10.55 11.55 -11.15 0.60 -0.65 1.40 -1.10 1.70 -1 0.85 0.30 1.30 152.90 0.50 160.20 -1.15 9.80 -2.10 14.85 -4 20.60 -2.65 7.95 -6.45 15.90 -8.90 18.60 -0.65 0.70 -1.15 1.45 -1.15 1.65 0 0.50 -3.70 5.40 -6.35 8.35 -5.50 6.20 -12 11.95 -18.15 16 -1.80 1.15 -3.85 2.55 -4.55 3 -2.25 1.55 -12.35 6 -17.70 7.80 -9 3 -26.40 4.75 -36 3.65z"/>
  <path d="M450.70 284.05 c-0.10 -0.10 -0.20 -33.10 -0.20 -73.30 0 -62 0.10 -73.20 0.70 -73.70 0.50 -0.45 14.40 -0.55 54.85 -0.50 39.40 0.10 54.75 -0.05 56.20 -0.45 2.30 -0.65 6.45 -3.60 8.35 -5.85 0.70 -0.85 1.90 -2.75 2.70 -4.25 1.30 -2.50 1.40 -3.25 1.45 -7.75 0 -4.50 -0.15 -5.30 -1.45 -8 -1.55 -3.25 -5.75 -7.65 -8.65 -9 -0.95 -0.45 -3.10 -1.05 -4.80 -1.30 -1.90 -0.30 -27.40 -0.45 -65 -0.35 l-61.85 0.15 0 -27.75 0 -27.75 29.60 0.10 c16.30 0.10 46.85 0.20 67.90 0.30 l38.25 0.15 5.85 1.55 c6.65 1.85 15.60 5.75 18.85 8.25 0.65 0.50 1.50 0.90 1.85 0.90 0.40 0 0.70 0.20 0.70 0.45 0 0.25 1.05 1.20 2.30 2.10 10.45 7.65 21.25 21.90 25.15 33.35 3.25 9.55 4.55 17.35 4.55 27.65 0 8.50 -1 14.75 -3.80 23.20 -0.60 1.95 -1.20 3.85 -1.30 4.25 -0.10 0.40 -1.20 2.90 -2.55 5.50 -4.30 8.60 -12.60 19 -19 23.85 -1.70 1.25 -3.30 2.55 -3.60 2.85 -1.90 2.10 -16.90 9.80 -19.05 9.80 -2 0 -1.40 1.35 2.20 5.10 1.85 1.95 5.05 5.35 7.10 7.50 4.70 4.95 14.90 15.55 21.50 22.40 2.80 2.90 7.15 7.40 9.65 10 2.50 2.60 7.70 8 11.60 11.95 3.85 4 7 7.35 7.05 7.50 0 0.15 3 3.35 6.70 7.05 7.60 7.70 14.15 14.55 19.35 20.15 l3.60 3.85 -37.45 0 -37.50 0 -6.10 -6.35 c-3.40 -3.45 -7.15 -7.35 -8.40 -8.60 -1.25 -1.25 -6.65 -6.90 -12 -12.50 -5.35 -5.60 -11.30 -11.80 -13.25 -13.80 -1.90 -1.95 -7 -7.25 -11.25 -11.70 -4.25 -4.50 -10.30 -10.75 -13.35 -13.95 -3.10 -3.15 -5.65 -5.85 -5.65 -5.90 0 -0.05 -3.25 -3.45 -7.25 -7.50 -4 -4.05 -7.25 -7.60 -7.25 -7.80 0 -0.20 -0.25 -0.40 -0.55 -0.40 -0.30 0 -1.10 -0.70 -1.85 -1.60 l-1.35 -1.60 -0.30 2.95 c-0.20 1.65 -0.35 22.25 -0.40 45.75 l-0.05 42.75 -26.30 0.25 c-14.45 0.15 -26.40 0.15 -26.50 0.05z"/>
  <path d="M117.50 99.50 l-84.75 -0.25 -0.15 -26.50 c-0.05 -14.60 0 -27 0.15 -27.65 l0.25 -1.10 88.50 0 88.50 0 -0.10 27.80 -0.15 27.80 -3.75 0.10 c-2.05 0.05 -41.90 -0.05 -88.50 -0.20z"/>
 </g>
</svg>