<?xml version="1.0" encoding="utf-8"?>
<!DOCTYPE svg PUBLIC "-//W3C//DTD SVG 20010904//EN" "http://www.w3.org/TR/2001/REC-SVG-20010904/DTD/svg10.dtd">
<svg version="1.0" xmlns="http://www.w3.org/2000/svg" width="3508px" height="2480px" viewBox="0 0 3508 2480" preserveAspectRatio="xMidYMid meet">
 <g fill="#ffffff">
  <path d="M261.2 2467 c-17.3 -2.5 -33.5 -20.2 -38.6 -42 -1.4 -5.8 -1.6 -97.7 -1.6 -855.2 l0 -848.7 -48.2 -0.3 c-47.4 -0.3 -48.4 -0.4 -55.3 -2.7 -31 -10.3 -51.9 -35.2 -55.4 -66.2 -2.2 -19.7 3.8 -41 15.8 -55.9 2 -2.5 128.7 -128.8 281.6 -280.6 152.9 -151.8 280.2 -278.7 283 -281.9 9.5 -11.1 19.2 -16.6 31.8 -17.8 l4.7 -0.5 0 947.2 0 947.2 -161.8 246.6 c-89 135.6 -164.7 250.1 -168.2 254.4 -32.9 40.8 -62.9 60 -87.8 56.4z"/>
  <path d="M903.3 2396 c-2.9 -1.7 -3.3 -2.5 -3.3 -6.4 0 -2.4 0.9 -10.4 2 -17.8 5 -33.1 6.7 -63.5 5 -88.5 -1.4 -20 -1.1 -21.7 4.3 -25.7 3.3 -2.4 5.3 -1.6 7.7 3 1.2 2.3 1.4 6.5 1.2 21.4 l-0.2 18.5 5.1 -9 c9.7 -17 18.8 -27.5 29.4 -33.6 11.7 -6.7 23.2 -4.1 28.8 6.4 1.8 3.5 2.2 5.8 2.1 13.7 0 15.3 -5 28.2 -16.4 42.3 -10.9 13.6 -23.2 21.5 -34.7 22.5 -5.8 0.4 -6.4 0.3 -9.1 -2.4 -1.5 -1.6 -3.3 -3.8 -3.9 -4.9 -0.7 -1.1 -1.4 -1.8 -1.6 -1.5 -1 0.9 -2.7 16.4 -4.2 36.8 -1.5 21.1 -1.5 21.3 -4.8 25 -2.5 2.7 -3.3 2.7 -7.4 0.2z m40.5 -67.6 c9 -4.4 21.7 -20.1 26.3 -32.3 3 -8 3.6 -18.6 1.2 -23.1 -4.5 -8.6 -11.8 -7.7 -22.4 2.9 -7.3 7.3 -16.2 20.3 -21.1 30.8 -4.1 8.6 -5 17.3 -2.2 20.5 4.1 4.5 10.7 5 18.2 1.2z"/>
  <path d="M555.3 2375.4 c-2.7 -4.1 -2.7 -11.8 0.1 -29.4 3.9 -25.1 6.7 -52.1 7 -66.4 0.2 -12.1 0.3 -12.9 2.5 -14.7 1.3 -1.1 3.8 -1.9 5.7 -1.9 3.9 0 5.4 1.8 8.3 10.1 4.1 11.9 13.1 26.3 28.8 45.9 14 17.5 24.4 28.5 25.4 26.8 2.2 -3.9 7 -53.6 7.3 -75.2 l0.2 -15.9 2.8 -2.3 c3 -2.7 7.7 -3.1 9.5 -1 2.9 3.4 3.1 7.9 1.1 20.1 -5.2 31.7 -8.4 65.6 -7.7 80.1 0.6 10.7 0.5 11.2 -1.7 13.3 -1.3 1.2 -3.9 2.4 -5.9 2.8 -2.9 0.4 -4.2 0 -7 -2.3 -2 -1.5 -4.6 -4.6 -5.8 -6.8 -1.2 -2.3 -6.8 -9.3 -12.3 -15.6 -14.3 -16.3 -37.2 -46.4 -38.9 -51.3 -0.2 -0.7 -0.7 -1 -1 -0.7 -2.1 1.9 -7.3 61.4 -6.3 71.6 0.7 6.7 -0.2 10.2 -3.4 13.4 -2.8 2.8 -6.6 2.6 -8.7 -0.6z"/>
  <path d="M698 2363.1 c-7.6 -2.3 -12.7 -6.9 -16.2 -14.6 -2 -4.3 -2.3 -6.6 -2.3 -16 0.1 -9.3 0.5 -12.2 2.9 -19 7.5 -21.9 21.2 -35.6 37.1 -37.2 8.5 -0.9 14 1.1 20.6 7.6 7.4 7.3 9.9 13.8 9.9 25.5 0 14.7 -5 26.2 -16.6 38.5 -7.6 8.1 -13.8 12.3 -21.3 14.5 -5.8 1.7 -10 1.9 -14.1 0.7z m16.8 -13.7 c6.7 -3.3 15.7 -13.2 19.6 -21.3 3.5 -7.6 4.7 -20.1 2.6 -26.7 -1.6 -5.1 -5.4 -10 -9 -11.9 -3.6 -1.9 -11 -1.9 -15.3 -0.1 -10.5 4.4 -20.7 24.9 -20.7 41.6 0 8.8 1.6 13.8 5.5 17.7 4.2 4.2 9.7 4.5 17.3 0.7z"/>
  <path d="M767 2357 c-2.6 -2.6 -2.5 -6.2 0.1 -8.6 1.8 -1.6 3.4 -1.9 9.8 -1.6 12.4 0.4 27.4 -4.2 33 -10.2 l2.5 -2.6 -2.1 -2.8 c-2.1 -2.8 -8 -6.1 -22.5 -12.5 -15.7 -7 -20.3 -13.2 -17.9 -24.1 1.6 -7 6.6 -13.9 14.3 -19.9 9.5 -7.1 16.1 -10.1 23.8 -10.5 7.5 -0.4 9.5 0.6 10.9 5.6 0.8 2.7 0.6 3.6 -1.2 5.7 -2 2.3 -2.5 2.4 -6.3 1.3 -3.9 -1.1 -4.7 -0.9 -11.5 2.4 -13.9 6.7 -19.9 13 -18.3 19.3 0.9 3.5 5.9 7.6 12.9 10.5 14.1 5.9 24 11.5 26.2 14.9 2.9 4.3 3.1 11.3 0.3 15.8 -2.8 4.7 -10.3 9.7 -20 13.6 -15.1 6.1 -30 7.7 -34 3.7z"/>
  <path d="M1014.5 2336.6 c-3.5 -5.2 -4.7 -17.9 -4.9 -47.8 l-0.1 -28.7 2.9 -3 c3.5 -3.6 7.4 -4 10.1 -1.1 1.8 1.9 1.8 2.5 0.2 13.3 -1.7 11.3 -2.3 34.7 -0.9 34.7 0.4 0 1.8 -3 3.1 -6.7 6.9 -20 20.7 -39.9 31.6 -45.6 5.1 -2.6 13.1 -2.8 16.9 -0.4 3.3 2.2 6.6 7.4 6.6 10.5 0 1.2 -0.9 3.1 -2.1 4.3 -2.4 2.4 -5.7 2 -9.7 -1.2 -5.3 -4.1 -11.3 -1.5 -19.5 8.6 -12.3 15.3 -19.6 33.1 -21.6 53 -0.7 7.4 -1.3 9.2 -3.1 10.7 -3.2 2.6 -7.6 2.3 -9.5 -0.6z"/>
  <path d="M1106 2330.1 c-7.6 -2.3 -12.7 -6.9 -16.2 -14.6 -2 -4.3 -2.3 -6.6 -2.3 -16 0.1 -9.3 0.5 -12.2 2.9 -19 7.5 -21.9 21.2 -35.6 37.1 -37.2 8.5 -0.9 14 1.1 20.6 7.6 7.4 7.3 9.9 13.8 9.9 25.5 0 14.7 -5 26.2 -16.6 38.5 -7.6 8.1 -13.8 12.3 -21.3 14.5 -5.8 1.7 -10 1.9 -14.1 0.7z m16.8 -13.7 c6.7 -3.3 15.7 -13.2 19.6 -21.3 3.5 -7.6 4.7 -20.1 2.6 -26.7 -1.6 -5.1 -5.4 -10 -9 -11.9 -3.6 -1.9 -11 -1.9 -15.3 -0.1 -10.5 4.4 -20.7 24.9 -20.7 41.6 0 8.8 1.6 13.8 5.5 17.7 4.2 4.2 9.7 4.5 17.3 0.7z"/>
  <path d="M1195.9 2323.9 c-11.6 -1.7 -17.5 -9.1 -18.6 -23.5 -0.8 -9.5 1.7 -20.4 7.2 -32 12.5 -26.6 28.9 -40.3 40.2 -33.4 3.8 2.3 8.9 10.8 9.8 16.2 0.7 4.1 -0.8 10 -3 11.8 -2.4 2 -6.1 -1.2 -8 -6.9 -3.7 -11.4 -8.2 -12.9 -15.5 -5.3 -11.5 12 -21.7 42.5 -17.8 53.6 2 6 5.6 8.1 13.6 8 8.2 -0.1 14.6 -2.7 24.9 -10.1 11.6 -8.3 13.3 -8.8 13.3 -3.7 0 3.2 -7.5 11.3 -15.4 16.7 -10.3 7 -21.1 10 -30.7 8.6z"/>
  <path d="M1272.5 2313.5 c-4.6 -2.3 -9.1 -8 -10.6 -13.3 -2 -6.7 -1.6 -22.2 0.9 -38.8 1.2 -7.8 2.2 -16.2 2.2 -18.7 0 -5.8 2.5 -9 7 -9 3.9 0 7 3.2 7 7.2 0 1.5 -1.3 8.2 -3 14.9 -5 20.4 -5.7 36.2 -2.1 43.1 2.8 5.1 10 3.2 17.9 -4.9 10.1 -10.2 16.5 -22.2 22.8 -42.8 4.1 -13.3 6 -16.2 10.3 -16.2 3.9 0 5.6 3.9 4.2 10.1 -2.2 9.7 -3.1 25.4 -2.1 34.9 1.2 12.1 3.2 17.8 7.5 22 4.2 4.1 4.3 5.2 0.9 7.9 -5.4 4.3 -10.8 2.2 -14.8 -5.6 -2 -4.1 -4.6 -16.1 -4.6 -21.7 0 -2.3 -0.3 -4.5 -0.6 -4.9 -0.4 -0.3 -2.8 3 -5.5 7.5 -2.7 4.5 -6.8 10.5 -9.1 13.5 -9.4 12.3 -21.2 18.4 -28.3 14.8z"/>
  <path d="M1366.5 2307.6 c-3.5 -5.2 -4.7 -17.9 -4.9 -47.8 l-0.1 -28.7 2.9 -3 c3.5 -3.6 7.4 -4 10.1 -1.1 1.8 1.9 1.8 2.5 0.2 13.3 -1.7 11.3 -2.3 34.7 -0.9 34.7 0.4 0 1.8 -3 3.1 -6.7 6.9 -20 20.7 -39.9 31.6 -45.6 5.1 -2.6 13.1 -2.8 16.9 -0.4 3.3 2.2 6.6 7.4 6.6 10.5 0 1.2 -0.9 3.1 -2.1 4.3 -2.4 2.4 -5.7 2 -9.7 -1.2 -5.3 -4.1 -11.3 -1.5 -19.5 8.6 -12.3 15.3 -19.6 33.1 -21.6 53 -0.7 7.4 -1.3 9.2 -3.1 10.7 -3.2 2.6 -7.6 2.3 -9.5 -0.6z"/>
  <path d="M1447.1 2298.4 c-1.8 -1 -4.5 -3.5 -6 -5.8 -2.4 -3.6 -2.6 -4.8 -2.6 -13.5 0 -11.1 2.2 -18.8 8.7 -31.1 11.1 -21 25.9 -34.4 39.1 -35.8 4.7 -0.5 4.9 -0.3 9.1 4.2 2.9 3.1 5.2 4.6 6.8 4.6 5 0 5.2 1.4 3.8 21.3 -1.8 26.6 0.6 39.2 8.4 43.8 4.3 2.5 4.6 5.1 1.1 8.3 -6 5.6 -12.2 3.6 -16.8 -5.5 -2.1 -4.1 -5.1 -15.8 -5.7 -21.8 0 -0.2 -2.3 2.8 -5.1 6.8 -13.2 18.8 -30.9 29.4 -40.8 24.5z m18.5 -14.7 c6.6 -4.5 17.6 -18.4 22.7 -28.6 3.6 -7.3 4.2 -9.5 4.5 -16.1 1.2 -25.7 -19.9 -17 -35.5 14.5 -4.5 9 -6.5 16 -6.5 22.6 0 11.3 5.4 14 14.8 7.6z"/>
  <path d="M1540.3 2287.3 c-1.5 -4.1 -1.8 -7.8 -1.8 -24.8 0 -27.1 1.4 -51.2 3.1 -52.6 2.2 -1.8 6.6 -0.6 8.8 2.4 2.8 3.8 3.1 12 1.2 35.2 -0.8 10.4 -1.3 19.1 -1 19.4 1 1 4.3 -4.3 14 -22.6 13.4 -25.1 19.5 -32.6 27.7 -34 3.1 -0.5 4 -0.1 6.6 2.4 3.7 3.7 5.7 10.4 7.7 25.8 3.8 28.7 5.7 28.5 18.9 -2 9.4 -21.7 14.2 -28.3 22.4 -30.5 4.8 -1.3 8 -0.2 11 3.6 2.5 3.2 4.2 8.7 7.6 24.9 4.6 22 7.7 28.2 16.3 32.7 4.2 2.2 4.1 4.8 -0.3 8.7 -4.8 4.2 -9.2 4.2 -14 -0.1 -6.2 -5.3 -8.7 -12.2 -14.1 -37.8 -2.9 -14 -3.7 -16 -6.3 -16 -4.6 0 -8.9 7.2 -21.5 35.7 -7.8 17.5 -12 23.3 -17 23.3 -3.4 0 -7.8 -3.7 -9 -7.5 -0.3 -1.1 -1.7 -9.7 -3.1 -19.1 -3.1 -21 -4.8 -27.4 -7.5 -27.4 -4.1 0 -14.1 16.1 -26.6 43 -8.3 17.8 -9 18.9 -13.1 20.6 -6 2.6 -7.9 1.9 -10 -3.3z"/>
  <path d="M1717 2280.1 c-7.6 -2.3 -12.7 -6.9 -16.2 -14.6 -2 -4.3 -2.3 -6.6 -2.3 -16 0.1 -9.3 0.5 -12.2 2.9 -19 7.5 -21.9 21.2 -35.6 37.1 -37.2 8.5 -0.9 14 1.1 20.6 7.6 7.4 7.3 9.9 13.8 9.9 25.5 0 14.7 -5 26.2 -16.6 38.5 -7.6 8.1 -13.8 12.3 -21.3 14.5 -5.8 1.7 -10 1.9 -14.1 0.7z m16.8 -13.7 c6.7 -3.3 15.7 -13.2 19.6 -21.3 3.5 -7.6 4.7 -20.1 2.6 -26.7 -1.6 -5.1 -5.4 -10 -9 -11.9 -3.6 -1.9 -11 -1.9 -15.3 -0.1 -10.5 4.4 -20.7 24.9 -20.7 41.6 0 8.8 1.6 13.8 5.5 17.7 4.2 4.2 9.7 4.5 17.3 0.7z"/>
  <path d="M1785 2274 c-2.6 -2.6 -2.5 -6.2 0.1 -8.6 1.8 -1.6 3.4 -1.9 9.8 -1.6 12.4 0.4 27.4 -4.2 33 -10.2 l2.5 -2.6 -2.1 -2.8 c-2.1 -2.8 -8 -6.1 -22.5 -12.5 -15.7 -7 -20.3 -13.2 -17.9 -24.1 1.6 -7 6.6 -13.9 14.3 -19.9 9.5 -7.1 16.1 -10.1 23.8 -10.5 7.5 -0.4 9.5 0.6 10.9 5.6 0.8 2.7 0.6 3.6 -1.2 5.7 -2 2.3 -2.5 2.4 -6.3 1.3 -3.9 -1.1 -4.7 -0.9 -11.5 2.4 -13.9 6.7 -19.9 13 -18.3 19.3 0.9 3.5 5.9 7.6 12.9 10.5 14.1 5.9 24 11.5 26.2 14.9 2.9 4.3 3.1 11.3 0.3 15.8 -2.8 4.7 -10.3 9.7 -20 13.6 -15.1 6.1 -30 7.7 -34 3.7z"/>
  <path d="M709.7 2266.2 c-2.8 -3.1 -2 -5.1 5.1 -12.4 8.2 -8.6 29.8 -25.1 31.8 -24.4 0.8 0.3 1.9 1.7 2.6 3.1 1.4 3.2 0 6.7 -3.9 9.2 -4 2.5 -10.2 7.5 -21.7 17.6 -5.5 4.8 -10.6 8.7 -11.2 8.7 -0.6 0 -1.8 -0.8 -2.7 -1.8z"/>
  <path d="M1940 2262.1 c-7.6 -2.3 -12.7 -6.9 -16.2 -14.6 -2 -4.3 -2.3 -6.6 -2.3 -16 0.1 -9.3 0.5 -12.2 2.9 -19 7.5 -21.9 21.2 -35.6 37.1 -37.2 8.5 -0.9 14 1.1 20.6 7.6 7.4 7.3 9.9 13.8 9.9 25.5 0 14.7 -5 26.2 -16.6 38.5 -7.6 8.1 -13.8 12.3 -21.3 14.5 -5.8 1.7 -10 1.9 -14.1 0.7z m16.8 -13.7 c6.7 -3.3 15.7 -13.2 19.6 -21.3 3.5 -7.6 4.7 -20.1 2.6 -26.7 -1.6 -5.1 -5.4 -10 -9 -11.9 -3.6 -1.9 -11 -1.9 -15.3 -0.1 -10.5 4.4 -20.7 24.9 -20.7 41.6 0 8.8 1.6 13.8 5.5 17.7 4.2 4.2 9.7 4.5 17.3 0.7z"/>
  <path d="M2708.3 2249 c-2.9 -1.7 -3.3 -2.5 -3.3 -6.4 0 -2.4 0.9 -10.4 2 -17.8 5 -33.1 6.7 -63.5 5 -88.5 -1.4 -20 -1.1 -21.7 4.3 -25.7 3.3 -2.4 5.3 -1.6 7.7 3 1.2 2.3 1.4 6.5 1.2 21.4 l-0.2 18.5 5.1 -9 c9.7 -17 18.8 -27.5 29.4 -33.6 11.7 -6.7 23.2 -4.1 28.8 6.4 1.8 3.5 2.2 5.8 2.1 13.7 0 15.3 -5 28.2 -16.4 42.3 -10.9 13.6 -23.2 21.5 -34.7 22.5 -5.8 0.4 -6.4 0.3 -9.1 -2.4 -1.5 -1.6 -3.3 -3.8 -3.9 -4.9 -0.7 -1.1 -1.4 -1.8 -1.6 -1.5 -1 0.9 -2.7 16.4 -4.2 36.8 -1.5 21.1 -1.5 21.3 -4.8 25 -2.5 2.7 -3.3 2.7 -7.4 0.2z m40.5 -67.6 c9 -4.4 21.7 -20.1 26.3 -32.3 3 -8 3.6 -18.6 1.2 -23.1 -4.5 -8.6 -11.8 -7.7 -22.4 2.9 -7.3 7.3 -16.2 20.3 -21.1 30.8 -4.1 8.6 -5 17.3 -2.2 20.5 4.1 4.5 10.7 5 18.2 1.2z"/>
  <path d="M2082.3 2242.3 c-1.5 -4.1 -1.8 -7.8 -1.8 -24.8 0 -27.1 1.4 -51.2 3.1 -52.6 2.2 -1.8 6.6 -0.6 8.8 2.4 2.8 3.8 3.1 12 1.2 35.2 -0.8 10.4 -1.3 19.1 -1 19.4 1 1 4.3 -4.3 14 -22.6 13.4 -25.1 19.5 -32.6 27.7 -34 3.1 -0.5 4 -0.1 6.6 2.4 3.7 3.7 5.7 10.4 7.7 25.8 3.8 28.7 5.7 28.5 18.9 -2 9.4 -21.7 14.2 -28.3 22.4 -30.5 4.8 -1.3 8 -0.2 11 3.6 2.5 3.2 4.2 8.7 7.6 24.9 4.6 22 7.7 28.2 16.3 32.7 4.2 2.2 4.1 4.8 -0.3 8.7 -4.8 4.2 -9.2 4.2 -14 -0.1 -6.2 -5.3 -8.7 -12.2 -14.1 -37.8 -2.9 -14 -3.7 -16 -6.3 -16 -4.6 0 -8.9 7.2 -21.5 35.7 -7.8 17.5 -12 23.3 -17 23.3 -3.4 0 -7.8 -3.7 -9 -7.5 -0.3 -1.1 -1.7 -9.7 -3.1 -19.1 -3.1 -21 -4.8 -27.4 -7.5 -27.4 -4.1 0 -14.1 16.1 -26.6 43 -8.3 17.8 -9 18.9 -13.1 20.6 -6 2.6 -7.9 1.9 -10 -3.3z"/>
  <path d="M2257.4 2236 c-21.8 -5.2 -24.6 -40.7 -5.4 -69 9.1 -13.4 20.2 -21 30.8 -21 4.5 0 5.7 0.4 8.8 3.3 4.9 4.4 5.6 10.5 2.3 19.2 -1.8 5 -3.9 7.6 -11.8 15.5 -5.3 5.3 -13.7 12.4 -18.8 15.8 -5.1 3.4 -9.5 6.8 -9.9 7.4 -1.2 1.9 -0.5 7.8 1.3 10.8 2.7 4.6 6.9 6.3 14.4 5.8 9.7 -0.6 16.6 -4.4 27.4 -15 4.9 -4.8 9.3 -8.8 9.7 -8.8 1.2 0 2 4.7 1.3 7.2 -2.2 7 -15 20 -24.3 24.7 -9 4.5 -18.2 6 -25.8 4.1z m6.6 -47.9 c12.9 -10.2 20 -19.4 20 -25.9 0 -3.4 -1.6 -5.2 -4.7 -5.2 -8.2 0 -20.1 14.4 -24.7 29.9 -2 6.9 -2.1 9.5 -0.2 8.4 0.8 -0.4 5.1 -3.7 9.6 -7.2z"/>
  <path d="M2334.5 2230.6 c-2.6 -4 -3.5 -8.5 -4.6 -24.4 -1.7 -22.4 1.4 -73.5 5.6 -96 2.4 -12.4 8.3 -18.6 12.7 -13.2 2.4 3 2.3 7.5 -0.7 24.5 -4.9 27.4 -5.7 35.3 -5.8 57.5 -0.1 18 0.3 23.4 2.1 33.3 1.2 6.6 2.2 12.6 2.2 13.4 0 2.2 -5.5 7.3 -7.9 7.3 -1.1 0 -2.8 -1.1 -3.6 -2.4z"/>
  <path d="M2372.4 2226.2 c-2.8 -1.8 -3.3 -5 -2.4 -13.5 2.4 -20.8 5 -53 6 -74.7 1.3 -28 2.2 -35.9 4.5 -39.4 2.3 -3.4 6.7 -3.5 10 -0.1 2.4 2.3 2.5 3.1 2.5 13.4 0 7.6 -0.9 16.3 -3 28.3 -5.7 33.4 -8.5 61.5 -6.1 60.6 0.5 -0.1 3.9 -6.3 7.6 -13.5 11.4 -22.9 23 -38.1 32 -41.9 4.8 -2 6.9 -1.8 10.4 1.1 3.5 3.1 6 9.9 9.6 27.3 3.3 15.4 5.5 21.3 11.1 28.7 2.4 3.3 4.4 6.5 4.4 7.2 0 0.6 -1.2 2.1 -2.7 3.3 -5.7 4.5 -14 -0.2 -18.4 -10.4 -1.2 -2.8 -3.6 -12.3 -5.4 -21.2 -3.5 -17.4 -4.4 -19.9 -7.5 -20.9 -5.9 -1.9 -13.5 8.5 -29.9 41 -10.6 21.1 -13.8 25.5 -18.4 25.5 -1.8 0 -3.7 -0.4 -4.3 -0.8z"/>
  <path d="M2489 2217.1 c-7.6 -2.3 -12.7 -6.9 -16.2 -14.6 -2 -4.3 -2.3 -6.6 -2.3 -16 0.1 -9.3 0.5 -12.2 2.9 -19 7.5 -21.9 21.2 -35.6 37.1 -37.2 8.5 -0.9 14 1.1 20.6 7.6 7.4 7.3 9.9 13.8 9.9 25.5 0 14.7 -5 26.2 -16.6 38.5 -7.6 8.1 -13.8 12.3 -21.3 14.5 -5.8 1.7 -10 1.9 -14.1 0.7z m16.8 -13.7 c6.7 -3.3 15.7 -13.2 19.6 -21.3 3.5 -7.6 4.7 -20.1 2.6 -26.7 -1.6 -5.1 -5.4 -10 -9 -11.9 -3.6 -1.9 -11 -1.9 -15.3 -0.1 -10.5 4.4 -20.7 24.9 -20.7 41.6 0 8.8 1.6 13.8 5.5 17.7 4.2 4.2 9.7 4.5 17.3 0.7z"/>
  <path d="M2570.5 2209.6 c-3.5 -5.2 -4.7 -17.9 -4.9 -47.8 l-0.1 -28.7 2.9 -3 c3.5 -3.6 7.4 -4 10.1 -1.1 1.8 1.9 1.8 2.5 0.2 13.3 -1.7 11.3 -2.3 34.7 -0.9 34.7 0.4 0 1.8 -3 3.1 -6.7 6.9 -20 20.7 -39.9 31.6 -45.6 5.1 -2.6 13.1 -2.8 16.9 -0.4 3.3 2.2 6.6 7.4 6.6 10.5 0 1.2 -0.9 3.1 -2.1 4.3 -2.4 2.4 -5.7 2 -9.7 -1.2 -5.3 -4.1 -11.3 -1.5 -19.5 8.6 -12.3 15.3 -19.6 33.1 -21.6 53 -0.7 7.4 -1.3 9.2 -3.1 10.7 -3.2 2.6 -7.6 2.3 -9.5 -0.6z"/>
  <path d="M2818.1 2187.4 c-1.8 -1 -4.5 -3.5 -6 -5.8 -2.4 -3.6 -2.6 -4.8 -2.6 -13.5 0 -11.1 2.2 -18.8 8.7 -31.1 11.1 -21 25.9 -34.4 39.1 -35.8 4.7 -0.5 4.9 -0.3 9.1 4.2 2.9 3.1 5.2 4.6 6.8 4.6 5 0 5.2 1.4 3.8 21.3 -1.8 26.6 0.6 39.2 8.4 43.8 4.3 2.5 4.6 5.1 1.1 8.3 -6 5.6 -12.2 3.6 -16.8 -5.5 -2.1 -4.1 -5.1 -15.8 -5.7 -21.8 0 -0.2 -2.3 2.8 -5.1 6.8 -13.2 18.8 -30.9 29.4 -40.8 24.5z m18.5 -14.7 c6.6 -4.5 17.6 -18.4 22.7 -28.6 3.6 -7.3 4.2 -9.5 4.5 -16.1 1.2 -25.7 -19.9 -17 -35.5 14.5 -4.5 9 -6.5 16 -6.5 22.6 0 11.3 5.4 14 14.8 7.6z"/>
  <path d="M2914.5 2181.6 c-3.5 -5.2 -4.7 -17.9 -4.9 -47.8 l-0.1 -28.7 2.9 -3 c3.5 -3.6 7.4 -4 10.1 -1.1 1.8 1.9 1.8 2.5 0.2 13.3 -1.7 11.3 -2.3 34.7 -0.9 34.7 0.4 0 1.8 -3 3.1 -6.7 6.9 -20 20.7 -39.9 31.6 -45.6 5.1 -2.6 13.1 -2.8 16.9 -0.4 3.3 2.2 6.6 7.4 6.6 10.5 0 1.2 -0.9 3.1 -2.1 4.3 -2.4 2.4 -5.7 2 -9.7 -1.2 -5.3 -4.1 -11.3 -1.5 -19.5 8.6 -12.3 15.3 -19.6 33.1 -21.6 53 -0.7 7.4 -1.3 9.2 -3.1 10.7 -3.2 2.6 -7.6 2.3 -9.5 -0.6z"/>
  <path d="M2994.1 2172.4 c-1.8 -1 -4.5 -3.5 -6 -5.8 -2.4 -3.6 -2.6 -4.8 -2.6 -13.5 0 -11.1 2.2 -18.8 8.7 -31.1 11.1 -21 25.9 -34.4 39.1 -35.8 4.7 -0.5 4.9 -0.3 9.1 4.2 2.9 3.1 5.2 4.6 6.8 4.6 5 0 5.2 1.4 3.8 21.3 -1.8 26.6 0.6 39.2 8.4 43.8 4.3 2.5 4.6 5.1 1.1 8.3 -6 5.6 -12.2 3.6 -16.8 -5.5 -2.1 -4.1 -5.1 -15.8 -5.7 -21.8 0 -0.2 -2.3 2.8 -5.1 6.8 -13.2 18.8 -30.9 29.4 -40.8 24.5z m18.5 -14.7 c6.6 -4.5 17.6 -18.4 22.7 -28.6 3.6 -7.3 4.2 -9.5 4.5 -16.1 1.2 -25.7 -19.9 -17 -35.5 14.5 -4.5 9 -6.5 16 -6.5 22.6 0 11.3 5.4 14 14.8 7.6z"/>
  <path d="M3149.3 2164.6 c-3.9 -1.8 -4.7 -4.2 -2.9 -9.2 1.5 -4.3 1.3 -4.3 11.9 -2.5 15.4 2.6 37.8 -5.3 50.9 -18 4.9 -4.8 5.8 -6.2 5.8 -9.2 0 -6.1 -3.4 -7.6 -31.9 -14.6 -30.5 -7.5 -39.1 -14.2 -39.1 -30.3 0 -11.7 7.9 -21.1 24.5 -29.3 12.9 -6.3 19.7 -7.9 34 -8 10.5 0 12.5 0.3 16.2 2.2 6.6 3.6 8.6 6.8 7.9 12.8 -0.4 3.7 -1.2 5.6 -3.1 7.3 -1.4 1.2 -3 2.2 -3.4 2.2 -0.5 0 -1.4 -1.9 -1.9 -4.3 -0.6 -2.4 -2 -5.1 -3 -6 -6.6 -6 -31.9 -2.8 -46.9 6 -8.6 5 -13.7 13.3 -11.8 19.5 2.5 7.8 9.3 11.5 30.8 16.5 25.3 5.8 34.6 9.8 38.7 16.6 4.7 7.6 1.5 16.2 -9.9 26.9 -14 13.2 -34.3 21.7 -53.1 22.4 -7.7 0.3 -11.3 0.1 -13.7 -1z"/>
  <path d="M3254 2152.8 c-1 -1.7 -2.2 -5.7 -2.6 -8.7 -1.4 -11.4 3.1 -67.1 5.7 -69.5 2.8 -2.8 8.4 -2.4 10.4 0.8 1.4 2.1 1.3 3.8 -1.6 20.2 -2.7 15.8 -3 19.4 -2.5 30.9 0.2 7.2 1.2 15.4 2 18.4 1.6 5.8 1.1 8.2 -2.4 10.1 -3.7 2 -6.9 1.2 -9 -2.2z"/>
  <path d="M3299 2145 c-0.9 -0.6 -1.6 -3.2 -1.8 -7.8 -0.5 -7.9 -0.1 -8.4 7.6 -9.7 6 -1 9.2 1.2 9.2 6.2 0 3 -0.8 4.4 -4.5 8 -4.5 4.2 -7.5 5.2 -10.5 3.3z"/>
  <path d="M3339 2142 c-0.9 -0.6 -1.6 -3.2 -1.8 -7.8 -0.5 -7.9 -0.1 -8.4 7.6 -9.7 6 -1 9.2 1.2 9.2 6.2 0 3 -0.8 4.4 -4.5 8 -4.5 4.2 -7.5 5.2 -10.5 3.3z"/>
  <path d="M3379 2139 c-0.9 -0.6 -1.6 -3.2 -1.8 -7.8 -0.5 -7.9 -0.1 -8.4 7.6 -9.7 6 -1 9.2 1.2 9.2 6.2 0 3 -0.8 4.4 -4.5 8 -4.5 4.2 -7.5 5.2 -10.5 3.3z"/>
  <path d="M3263.6 2041.1 c-3.9 -8.7 -3.3 -12 3.1 -16.3 3.8 -2.4 7.6 -2.3 10.8 0.5 2.5 2.1 2.6 2.4 1.4 7.7 -0.6 3 -1.8 6.5 -2.6 7.8 -1.5 2.4 -7 6.2 -8.9 6.2 -0.6 0 -2.3 -2.6 -3.8 -5.9z"/>
  <path d="M2892.4 1880 c-63.2 -7.3 -114.1 -47.7 -133.4 -105.9 -10.6 -31.8 -11.7 -63.9 -3.3 -96.6 6.5 -25.5 19.2 -48.6 37 -67.4 34.7 -36.9 82.7 -54.5 136.8 -50.2 41 3.4 70.2 16 98 42.4 4.3 4.1 7.6 7.9 7.4 8.6 -0.2 0.6 -12.1 13.6 -26.4 29 l-25.9 27.9 -7.6 -7 c-9.5 -8.8 -22.6 -17.6 -31.3 -21.1 -10.2 -4.1 -23.2 -6 -35.7 -5.4 -18.5 1 -31.6 6.6 -44.7 19.1 -12.1 11.4 -20 24.8 -24.4 41.1 -2.8 10.3 -3.2 36 -0.7 47 7.1 31.2 27.2 53.7 55.4 61.7 10.2 2.9 32 3.1 42.7 0.5 13.4 -3.3 31.4 -13.4 43.9 -24.6 3.1 -2.8 6 -5.1 6.5 -5.1 0.5 0 12.1 11.5 25.7 25.6 l24.9 25.5 -4.9 5.1 c-12.4 12.7 -33 28 -47.7 35.4 -12 6.1 -25.4 10.3 -41.2 13 -10.6 1.7 -41 2.6 -51.1 1.4z"/>
  <path d="M1760.9 1877.4 c-16.1 -2.9 -31.6 -9.1 -44.4 -17.7 -7.9 -5.4 -20.2 -17.9 -24.4 -25 -12 -20.2 -15.5 -44.6 -10.5 -72.7 7 -38.9 37.3 -64.6 86.9 -73.6 12 -2.2 44.2 -3 58.7 -1.5 13.7 1.4 27.9 4.2 41.4 8.2 5.6 1.6 10.5 2.9 10.8 2.9 1.1 0 0.6 -11.8 -0.8 -19.3 -2.1 -11 -5.9 -18.1 -13.5 -25.8 -11.6 -11.6 -23.4 -15.7 -47.7 -16.6 -23.4 -0.9 -47 2.6 -72.9 10.7 -7.1 2.3 -13.9 4.3 -15 4.6 -1.8 0.4 -3 -2.5 -12.4 -31.3 -5.7 -17.5 -10.6 -32.3 -10.8 -32.9 -0.9 -2.6 36.2 -15.6 56.2 -19.7 21.1 -4.4 30.2 -5.2 61.5 -5.2 26.4 0 30.7 0.3 41.2 2.3 49.9 9.5 80.5 36.3 92.4 80.8 5.7 21.4 5.6 19.7 6.1 128.2 l0.4 100.2 -42.5 0 -42.6 0 0 -16.7 0 -16.7 -4.2 4.1 c-18.8 17.9 -39.4 28.4 -64.7 32.7 -11.7 2 -38.4 2 -49.2 0z m63.6 -58.5 c18 -2.2 31.4 -8.3 42.5 -19.3 10.3 -10.2 14 -20.7 14 -39.5 l0 -10.9 -4.8 -2 c-15.9 -6.8 -33.4 -9.7 -55.8 -8.9 -22.7 0.7 -34.2 4.3 -45.1 14.2 -7.8 6.9 -10.7 13.6 -11.1 25.6 -0.7 16.3 3.5 25.5 15.2 33.1 11.6 7.5 26.2 10 45.1 7.7z"/>
  <path d="M3158 1877.5 c-22.6 -4.3 -40.6 -13.2 -55.4 -27.4 -18.5 -17.7 -26.4 -39.7 -25.3 -70.1 0.6 -15.2 2.4 -24.5 7.1 -36 9.3 -23.2 30.7 -41.1 60.1 -50.3 19.4 -6.1 36.8 -8.1 63.5 -7.4 22.1 0.5 37.1 2.8 56.3 8.3 6.5 1.9 12 3.4 12.3 3.4 0.2 0 0.4 -3.6 0.4 -8.1 0 -25.7 -13.7 -43.6 -39 -50.9 -10.3 -3 -35.7 -3.8 -52 -1.7 -15.3 2 -32.8 6 -47.6 10.8 -6.6 2.1 -12.4 3.9 -12.7 3.9 -1.1 0 -21.9 -65.2 -21.1 -65.9 3.2 -2.9 33 -13.1 49.9 -17.1 20.6 -5 31 -6.2 59.5 -6.7 20.8 -0.4 29.1 -0.2 38.6 1.1 33.3 4.4 56 14.3 74.4 32.6 13.9 13.7 21.5 26.9 27.5 47.6 6 20.8 5.9 17.8 6.2 128.7 l0.4 101.7 -42.1 0 -42 0 0 -16.5 c0 -9.1 -0.3 -16.5 -0.6 -16.5 -0.4 0 -3.7 2.9 -7.5 6.4 -15 14.2 -30.8 22.7 -52.4 28.2 -8.8 2.3 -12.5 2.7 -30.5 3 -14.8 0.2 -22.6 -0.1 -28 -1.1z m74.7 -60.5 c15.2 -3.6 28.7 -12 36.8 -23.2 6.2 -8.3 8.5 -16.3 9.2 -31.9 l0.6 -12.6 -7.9 -3.1 c-16.7 -6.3 -24.8 -7.6 -47.9 -7.7 -23.2 0 -28.3 0.9 -39.9 6.7 -8.4 4.3 -11.9 7.1 -16 13.1 -9.4 13.8 -8.6 34.9 1.8 46.4 4.4 4.9 12.6 9.9 19.6 12.2 10.9 3.4 29.3 3.5 43.7 0.1z"/>
  <path d="M720 1672.1 l0 -202.1 83.3 0 c82.5 0 97.8 0.5 116.2 3.6 46.1 7.8 89.3 29.6 118 59.5 15.1 15.8 24.7 29.9 35.1 51.4 27.9 58.3 25.6 129.1 -6.1 186.5 -29.9 53.9 -83.1 89 -152 100.3 -12.4 2 -17 2.1 -103.7 2.4 l-90.8 0.4 0 -202z m180.8 120.3 c51.1 -7.6 87.8 -43.5 96.8 -94.8 2.2 -12.4 2.2 -37 -0.1 -50.1 -4.5 -26.4 -15.1 -47 -33.2 -64.6 -18.2 -17.7 -38 -27.4 -64.3 -31.4 -7.2 -1.1 -19.6 -1.5 -50.7 -1.5 l-41.3 0 0 122 0 122 41.1 0 c32.2 0 43.4 -0.3 51.7 -1.6z"/>
  <path d="M1167 1719.5 l0 -154.5 43.5 0 43.5 0 0 154.5 0 154.5 -43.5 0 -43.5 0 0 -154.5z"/>
  <path d="M1338 1719.5 l0 -154.5 43.5 0 43.5 0 0 22.3 0.1 22.2 4.1 -5 c11.6 -13.9 27.8 -27.8 40.8 -34.8 17.8 -9.7 45.5 -12.9 71.1 -8.1 40.2 7.5 67.1 35.1 77 78.9 l2.3 10 0.3 111.8 0.4 111.7 -43.5 0 -43.5 0 -0.3 -95.2 -0.4 -95.3 -2.2 -7.3 c-3.3 -10.6 -6.7 -16.8 -13 -23.4 -10.3 -10.8 -24.4 -15.6 -42.7 -14.5 -24.4 1.5 -40.2 14.3 -47.7 38.8 l-2.2 7.4 -0.4 94.8 -0.3 94.7 -43.4 0 -43.5 0 0 -154.5z"/>
  <path d="M2040 1719.5 l0 -154.5 43.5 0 43.5 0 0 21.3 c0 11.8 0.3 21.6 0.6 22 0.3 0.3 2.7 -2 5.3 -5.1 11.2 -13.4 28.6 -27.8 41.3 -34.3 17.7 -9 44.6 -11.9 68.3 -7.4 24.9 4.7 45.5 18.2 58.7 38.5 2.7 4.1 5 7.6 5.1 7.7 0.2 0.1 5 -4.5 10.9 -10.1 32.4 -31.6 72.4 -43.9 116.4 -36.1 44.8 8.1 72.9 40.8 78.3 91.3 0.7 6.8 1.1 45.4 1.1 115.7 l0 105.5 -43.4 0 -43.5 0 -0.4 -93.7 c-0.4 -104.6 -0.2 -101.1 -7.4 -116.2 -8.7 -18.3 -26 -27.4 -49.3 -25.8 -13.4 0.9 -22.4 4.6 -31.2 12.6 -6.5 6 -11.9 15.5 -15.1 26.8 -2.1 7.7 -2.1 8.5 -2.5 102.1 l-0.3 94.2 -43.4 0 -43.4 0 -0.3 -94.7 c-0.3 -93.9 -0.4 -94.9 -2.5 -102.5 -7.7 -27.1 -25.1 -39.9 -52.3 -38.5 -12.6 0.6 -21.3 3.5 -29.2 9.5 -12.5 9.5 -19 23.7 -20.8 45.1 -0.5 6.4 -1 49.7 -1 96.4 l0 84.7 -43.5 0 -43.5 0 0 -154.5z"/>
  <path d="M2594 1719.5 l0 -154.5 43.5 0 43.5 0 0 154.5 0 154.5 -43.5 0 -43.5 0 0 -154.5z"/>
  <path d="M1164 1491.5 l0 -38.5 46 0 46 0 0 38.5 0 38.5 -46 0 -46 0 0 -38.5z"/>
  <path d="M1717 1529.5 c0 -0.2 15.7 -20.4 34.8 -44.7 l34.8 -44.3 41.5 -0.3 41.4 -0.2 35.2 45 35.2 45 -33.2 0 -33.2 0 -22.7 -19 c-12.5 -10.5 -23 -19 -23.3 -19 -0.3 0 -10.8 8.5 -23.3 19 l-22.7 19 -32.2 0 c-17.8 0 -32.3 -0.2 -32.3 -0.5z"/>
  <path d="M2592 1491.5 l0 -38.5 46 0 46 0 0 38.5 0 38.5 -46 0 -46 0 0 -38.5z"/>
  <path d="M998.5 1465.8 c-13.6 -7.2 -38.8 -16 -57.5 -20.2 -28.2 -6.2 -23.4 -6 -133.2 -6.3 l-100.8 -0.4 0 -711.9 0 -711.9 3.3 0.4 c1.7 0.3 5.3 0.7 7.8 1 6.6 0.8 17.4 6.4 24.5 12.6 3.3 3 46.9 46.1 96.8 95.9 50 49.8 91.2 90.7 91.7 90.8 0.5 0.2 0.9 -10.4 0.9 -24.3 0 -26.5 1 -34.6 5.5 -45.8 10.1 -24.6 33 -43.2 59 -47.7 5 -0.8 21.5 -1.1 58.5 -0.8 57.5 0.5 56.2 0.3 71.5 7.9 19.5 9.6 33.9 27 40.7 48.9 l2.3 7.5 0.3 145.9 0.3 145.9 72.8 72.6 c71 70.7 73 72.8 76.9 80.6 6.2 12.5 8.3 20.4 8.9 33.5 0.5 12.8 -0.8 21.6 -5 32 -7.7 18.9 -23.7 35.2 -42 42.8 -13.9 5.8 -18.1 6.2 -67.1 6.2 l-44.6 0 -0.3 241.3 -0.3 241.2 -2.2 9.7 c-6 26.3 -17.5 48.8 -40.1 78.7 -4.7 6.3 -34.2 48.4 -65.6 93.5 -31.3 45.1 -57.4 82.1 -58 82.2 -0.5 0.2 -2.8 -0.6 -5 -1.8z"/>
  <path d="M1232 1124 l0 -194 77.8 0 c42.7 0 83.8 0.5 91.2 1 84.8 6.3 131.3 54.2 128.7 132.5 -0.9 28.6 -6.5 47.2 -20 67.5 -9.9 14.8 -28 30.2 -46.5 39.4 -4 2 -7.2 4 -7 4.4 0.4 0.9 82.5 137.7 84.6 141 l1.4 2.2 -49.3 0 -49.4 -0.1 -37.1 -63.2 -37.1 -63.2 -25.7 -0.3 -25.6 -0.2 0 63.5 0 63.5 -43 0 -43 0 0 -194z m172.5 -8.9 c10.7 -3.6 16.4 -6.8 23.1 -13.3 6.9 -6.6 11.5 -14.3 13.8 -23.4 2.1 -7.9 2.1 -25.8 0.1 -34.3 -4.3 -18.2 -17.6 -30.9 -38.5 -36.7 -5.6 -1.5 -11.8 -1.8 -45.7 -2.2 l-39.3 -0.3 0 56.6 0 56.6 39.8 -0.3 c38.4 -0.4 39.9 -0.4 46.7 -2.7z"/>
  <path d="M1624 1124 l0 -194 131 0 131 0 0 37.5 0 37.5 -88.5 0 -88.5 0 0 40 0 40 78 0 78 0 0 37.5 0 37.5 -78 0 -78 0 0 41.5 0 41.5 58 0 c31.9 0 58 0.3 58 0.8 -0.1 0.4 -8.8 17.1 -19.4 37.2 l-19.3 36.5 -81.2 0.3 -81.1 0.2 0 -194z"/>
  <path d="M1877 1317.3 c0 -0.5 45.9 -87.6 101.9 -193.8 l101.9 -193 52.1 -0.3 c28.6 -0.1 52.1 0 52.1 0.3 0 0.3 -46 87.6 -102.1 194 l-102.1 193.5 -51.9 0 c-28.6 0 -51.9 -0.3 -51.9 -0.7z"/>
  <path d="M2188 1208.6 l0 -109.4 44.6 -84.6 44.7 -84.6 11.1 15.8 c6.1 8.6 26.2 37 44.6 63 18.3 25.9 33.6 47.2 33.9 47.1 0.3 0 20.3 -28.3 44.4 -63 l43.9 -62.9 44.9 0 44.9 0 0 194 0 194 -42 0 -42 0 -0.2 -121.2 -0.3 -121.3 -46.5 60.8 c-27.2 35.5 -47.1 60.7 -48 60.7 -1 0 -20.5 -24.5 -46.9 -59 -24.9 -32.5 -45.7 -59.3 -46.2 -59.6 -0.5 -0.3 -0.9 49 -0.9 119.5 l0 120.1 -42 0 -42 0 0 -109.4z"/>
  <path d="M2613 1317.3 c0 -0.3 32.7 -88.1 72.7 -195 l72.6 -194.3 40.6 0 40.6 0 72.5 194 c39.9 106.7 72.7 194.5 72.8 195 0.2 0.6 -15.7 1 -44.1 1 l-44.5 0 -7.1 -19.7 c-3.9 -10.9 -10.6 -29.7 -15 -41.8 l-7.9 -22 -68.8 0 -68.8 0 -14.6 41.5 -14.6 41.5 -43.2 0.3 c-23.8 0.1 -43.2 -0.1 -43.2 -0.5z m225.9 -159 c-0.6 -1.6 -9.6 -27.3 -20.1 -57.3 -22.1 -63.3 -20.7 -59.4 -21.3 -58.8 -0.3 0.3 -8.9 24.1 -19.1 52.9 -10.2 28.8 -19.6 55.4 -20.9 59.2 l-2.5 6.7 42.5 0 42.5 0 -1.1 -2.7z"/>
  <path d="M3019.7 1316.8 c1.6 -2 118.3 -193.7 118.9 -195.3 0.3 -0.7 -25.1 -43.9 -56.5 -95.9 -31.4 -52 -57.1 -94.8 -57.1 -95.1 0 -0.3 21.9 -0.5 48.8 -0.5 l48.7 0.1 33.5 61.1 c18.4 33.6 33.9 61.1 34.4 61 0.6 0 16.3 -27.5 35 -61.1 l34.1 -61 47.8 -0.1 c26.3 0 47.6 0.3 47.4 0.8 -0.2 0.4 -26.2 42.8 -57.7 94.2 -31.5 51.4 -57.4 93.8 -57.6 94.1 -0.2 0.3 26.8 45.1 60 99.5 l60.2 98.9 -48.5 0.3 c-40.2 0.2 -48.8 0 -49.6 -1.1 -0.5 -0.8 -17 -30 -36.5 -65 -19.5 -35 -35.9 -63.5 -36.4 -63.4 -0.5 0.2 -17.4 29.4 -37.4 65 l-36.5 64.7 -48 0 c-38.2 0 -47.7 -0.3 -47 -1.2z"/>
 </g>
</svg>