<svg width="766" height="748" xmlns="http://www.w3.org/2000/svg" xmlns:xlink="http://www.w3.org/1999/xlink" overflow="hidden"><defs><filter id="fx0" x="-10%" y="-10%" width="120%" height="120%" filterUnits="userSpaceOnUse" primitiveUnits="userSpaceOnUse"><feComponentTransfer color-interpolation-filters="sRGB"><feFuncR type="discrete" tableValues="0 0"/><feFuncG type="discrete" tableValues="0 0"/><feFuncB type="discrete" tableValues="0 0"/><feFuncA type="linear" slope="0.4" intercept="0"/></feComponentTransfer><feGaussianBlur stdDeviation="2.22222 2.22222"/></filter><clipPath id="clip1"><rect x="257" y="-14" width="766" height="748"/></clipPath><clipPath id="clip2"><rect x="45" y="42" width="681" height="667"/></clipPath><clipPath id="clip3"><rect x="0" y="0" width="766" height="750"/></clipPath><clipPath id="clip4"><rect x="7" y="7" width="752" height="736"/></clipPath><clipPath id="clip5"><rect x="7" y="7" width="752" height="736"/></clipPath><clipPath id="clip6"><rect x="7" y="7" width="752" height="736"/></clipPath><clipPath id="clip7"><rect x="272" y="0" width="736" height="720"/></clipPath><clipPath id="clip8"><rect x="272" y="0" width="737" height="720"/></clipPath><clipPath id="clip9"><rect x="272" y="0" width="737" height="720"/></clipPath></defs><g clip-path="url(#clip1)" transform="translate(-257 14)"><g clip-path="url(#clip2)" filter="url(#fx0)" transform="translate(257 -15)"><g clip-path="url(#clip3)"><g clip-path="url(#clip4)"><g clip-path="url(#clip5)"><g clip-path="url(#clip6)"><path d="M318.084 441.963C307.857 441.554 248.904 439.304 232.416 438.69L213.024 437.995 213.311 425.108C213.474 418.03 213.638 412.18 213.679 412.139 213.72 412.098 217.811 411.853 222.761 411.607 241.294 410.625 301.515 407.271 312.643 406.657 316.407 406.412 320.416 406.248 321.562 406.248L323.607 406.248 323.607 424.249 323.607 442.25 322.503 442.168C321.848 442.127 319.884 442.045 318.084 441.963Z" fill="#FFFFFF" transform="matrix(1 0 0 1.00118 7.64001 7.8)"/><path d="M213.311 391.438C213.474 384.401 213.679 378.592 213.761 378.51 213.925 378.346 214.947 378.224 275.537 370.655 300.738 367.505 321.766 364.887 322.257 364.805 322.748 364.723 323.362 364.764 323.566 364.928 323.894 365.091 323.935 369.919 323.771 381.21L323.485 397.247 320.989 397.247C319.639 397.247 316.039 397.411 313.011 397.657 309.943 397.861 300.37 398.516 291.697 399.088 276.887 400.029 258.886 401.216 244.853 402.157 226.525 403.384 213.72 404.202 213.393 404.202 213.188 404.202 213.147 398.966 213.311 391.438Z" fill="#FFFFFF" transform="matrix(1 0 0 1.00118 7.64001 7.8)"/><path d="M213.188 363.823C213.229 359.568 213.352 353.268 213.515 349.79L213.761 343.449 216.42 342.958C221.37 342.058 241.09 338.417 255.695 335.676 263.672 334.203 273.614 332.362 277.787 331.585 281.96 330.808 293.906 328.599 304.338 326.635 315.712 324.548 323.444 323.28 323.648 323.485 323.894 323.73 323.935 330.48 323.771 340.095L323.485 356.336 322.421 356.336C321.848 356.336 297.424 359.732 268.173 363.905 238.962 368.078 214.579 371.473 214.088 371.473L213.147 371.473 213.188 363.823Z" fill="#FFFFFF" transform="matrix(1 0 0 1.00118 7.64001 7.8)"/><path d="M213.147 322.707 213.147 308.225 215.315 307.693C216.461 307.366 220.02 306.425 223.17 305.566 226.321 304.747 233.685 302.743 239.535 301.147 245.385 299.592 253.567 297.383 257.74 296.238 269.236 293.169 295.992 285.969 307.243 282.901 312.766 281.428 322.421 278.81 328.721 277.132 335.022 275.455 345.904 272.509 352.859 270.627 368.691 266.332 420.28 252.422 431.817 249.354 436.563 248.085 442.413 246.49 444.827 245.835 447.445 245.058 449.655 244.69 450.227 244.812L451.25 245.058 451.25 261.259C451.25 274.882 451.168 277.419 450.677 277.01 450.268 276.682 447.486 277.255 438.936 279.423 432.758 280.978 420.935 284.005 412.589 286.133 404.284 288.26 394.588 290.756 391.111 291.656 371.923 296.565 358.709 299.961 336.494 305.606 329.294 307.447 321.766 309.37 319.721 309.902 317.716 310.434 310.516 312.275 303.765 313.993 285.519 318.616 260.645 324.998 250.99 327.494 248.085 328.271 238.676 330.644 230.125 332.812 221.575 334.981 214.252 336.822 213.884 336.944 213.188 337.149 213.147 336.29 213.147 322.707Z" fill="#FFFFFF" transform="matrix(1 0 0 1.00118 7.64001 7.8)"/><path d="M213.556 286.215C213.556 272.346 213.597 271.282 214.293 271.077 215.356 270.75 248.085 261.054 260.809 257.249 266.904 255.449 281.878 250.99 294.151 247.349 306.425 243.667 325.939 237.858 337.517 234.38 349.095 230.944 358.259 228.039 357.891 227.957 356.418 227.671 357.073 226.402 358.914 225.952 359.855 225.707 363.946 224.684 367.955 223.62 374.051 222.025 375.442 221.739 376.178 222.148 377.119 222.639 376.301 222.884 435.704 205.129 446.177 202.019 449.982 201.037 450.514 201.324 451.168 201.692 451.25 202.347 451.25 206.97 451.25 209.833 451.373 217.77 451.537 224.602 451.782 236.958 451.782 236.958 450.964 236.712 450.432 236.548 442.045 238.676 429.117 242.235 417.539 245.385 407.107 248.249 405.921 248.576 404.734 248.904 401.134 249.885 397.943 250.745 379.533 255.858 335.144 268.05 327.085 270.218 323.485 271.2 312.439 274.228 302.538 276.969 292.638 279.71 281.592 282.737 277.991 283.719 274.391 284.701 265.023 287.278 257.127 289.447 249.272 291.615 241.908 293.619 240.762 293.947 239.658 294.233 233.316 295.992 226.689 297.792 220.102 299.633 214.415 301.106 214.129 301.106 213.638 301.106 213.556 298.57 213.556 286.215Z" fill="#FFFFFF" transform="matrix(1 0 0 1.00118 7.64001 7.8)"/><path d="M213.638 249.517 213.761 234.298 216.829 233.153C218.507 232.539 228.366 228.939 238.717 225.216 249.067 221.493 258.477 218.057 259.581 217.647 262.036 216.706 289.16 206.888 292.924 205.579 295.87 204.515 300.411 202.878 313.093 198.256 317.757 196.537 322.053 195.146 322.625 195.146L323.607 195.146 323.607 212.861 323.607 230.534 319.803 231.721C317.757 232.375 314.116 233.521 311.743 234.257 309.37 234.994 303.602 236.835 298.856 238.308 294.151 239.78 287.319 241.908 283.719 243.053 280.119 244.158 276.069 245.426 274.719 245.876 247.799 254.386 214.579 264.695 214.088 264.695 213.638 264.695 213.556 261.791 213.638 249.517Z" fill="#FFFFFF" transform="matrix(1 0 0 1.00118 7.64001 7.8)"/><path d="M352.245 228.284C352.245 227.63 352.532 227.466 353.677 227.466 355.314 227.466 355.682 228.448 354.209 228.857 352.654 229.266 352.245 229.143 352.245 228.284Z" fill="#FFFFFF" transform="matrix(1 0 0 1.00118 7.64001 7.8)"/><path d="M213.065 227.589C212.984 227.384 212.984 220.92 213.065 213.147L213.188 199.033 226.361 193.755C241.049 187.864 273.45 174.813 311.129 159.676 324.876 154.153 344.554 146.257 354.904 142.084 378.96 132.429 419.38 116.147 436.522 109.274 443.845 106.328 450.023 103.914 450.268 103.914 451.496 103.914 451.618 105.264 451.741 124.82 451.823 141.266 451.782 144.58 451.332 144.13 451.046 143.844 450.514 143.598 450.187 143.598 449.859 143.598 437.954 147.771 423.717 152.844 391.479 164.34 393.647 163.563 386.815 166.018 379.001 168.799 363.455 174.322 356.664 176.777 353.554 177.882 348.4 179.723 345.208 180.868 341.977 182.014 338.335 183.323 337.108 183.773 335.881 184.223 329.417 186.514 322.789 188.846 316.162 191.219 306.957 194.492 302.334 196.169 286.46 201.856 276.355 205.456 270.218 207.624 263.959 209.833 248.167 215.438 232.375 221.125 227.548 222.843 222.557 224.602 221.329 225.011 220.102 225.421 217.852 226.239 216.297 226.812 213.188 227.998 213.229 227.998 213.065 227.589Z" fill="#FFFFFF" transform="matrix(1 0 0 1.00118 7.64001 7.8)"/><path d="M366.973 212.329C366.973 207.501 367.055 206.601 367.587 206.601 368.119 206.601 368.201 204.842 368.201 193.346L368.201 180.091 370.573 179.232C371.842 178.782 384.238 174.609 398.066 169.986 411.894 165.363 429.199 159.554 436.481 157.099 449 152.844 449.777 152.599 450.473 153.253 451.209 153.908 451.25 154.931 451.25 172.113 451.25 189.664 451.209 190.237 450.473 189.787 449.859 189.378 448.632 189.664 443.641 191.382 440.286 192.528 431.858 195.433 424.863 197.846 417.908 200.219 411.444 202.428 410.544 202.715 409.644 203.001 403.466 205.129 396.838 207.42 390.211 209.711 381.128 212.82 376.669 214.334 370.246 216.502 368.691 217.156 369.101 217.566 369.469 217.934 369.305 218.057 368.282 218.057L366.973 218.057 366.973 212.329Z" fill="#FFFFFF" transform="matrix(1 0 0 1.00118 7.64001 7.8)"/><path d="M213.106 189.664C213.024 189.541 212.984 182.627 213.065 174.282L213.147 159.063 222.884 154.358C228.202 151.78 239.126 146.462 247.103 142.575 267.027 132.879 275.905 128.584 290.469 121.506 297.342 118.192 307.202 113.406 312.357 110.869 317.553 108.333 327.658 103.423 334.858 99.9051 342.058 96.4276 352.082 91.5592 357.155 89.0636 362.228 86.6089 368.978 83.3361 372.169 81.7814 375.36 80.2268 385.22 75.4402 394.056 71.1445 402.893 66.8079 412.18 62.3486 414.635 61.1622 417.13 59.9758 424.985 56.1301 432.145 52.6527 439.263 49.1343 446.218 45.7796 447.568 45.1659 449.982 44.1022 450.064 44.0613 450.637 44.8386 451.127 45.4932 451.209 49.1343 451.25 67.8307 451.25 89.1454 451.209 90.0046 450.514 89.5546 449.737 89.0636 447.855 89.8 431.204 96.9595 428.176 98.2686 417.58 102.769 407.68 106.983 397.779 111.197 388.492 115.165 387.02 115.779 383.133 117.456 350.486 131.325 334.858 137.952 327.453 141.103 318.698 144.826 315.425 146.257 312.152 147.689 308.47 149.244 307.243 149.735 306.016 150.226 303.847 151.167 302.415 151.821 300.983 152.476 299.756 153.008 299.633 153.008 299.429 153.008 291.778 156.24 289.037 157.508 288.096 157.958 286.337 158.694 285.11 159.144 283.883 159.635 281.51 160.617 279.832 161.395 278.155 162.131 271.896 164.831 265.923 167.327 259.95 169.863 251.849 173.3 247.922 174.977 243.994 176.654 234.707 180.623 227.262 183.773 219.857 186.923 213.638 189.582 213.515 189.664 213.393 189.746 213.188 189.746 213.106 189.664Z" fill="#FFFFFF" transform="matrix(1 0 0 1.00118 7.64001 7.8)"/><path d="M322.38 424.249 322.38 406.248 323.321 406.248C323.812 406.248 339.235 407.353 357.564 408.703 445.768 415.167 504.68 419.503 525.709 421.017 538.432 421.917 549.069 422.735 549.355 422.817 549.723 422.94 549.846 424.822 549.846 430.345L549.846 437.709 548.537 437.913C547.801 437.995 498.666 438.936 439.386 439.959 380.106 440.982 329.499 441.922 327.003 442.045L322.38 442.25 322.38 424.249Z" fill="#FFFFFF" transform="matrix(1 0 0 1.00118 7.64001 7.8)"/><path d="M499.116 411.975C473.138 409.766 436.236 406.657 417.089 405.021 397.984 403.425 369.346 401.011 353.473 399.661 337.599 398.352 324.139 397.247 323.526 397.247L322.38 397.247 322.38 388.943C322.38 384.36 322.503 377.037 322.666 372.66L322.912 364.723 328.885 365.582C332.158 366.073 343.613 367.791 354.291 369.428 364.969 371.023 381.006 373.437 389.883 374.746 442.25 382.601 464.628 385.956 471.706 387.02 476.083 387.674 490.811 389.883 504.435 391.929 518.058 393.975 532.868 396.184 537.368 396.838 541.868 397.534 546.491 398.229 547.596 398.393L549.642 398.679 549.764 407.393 549.846 416.067 548.128 416.026C547.146 415.985 525.095 414.185 499.116 411.975Z" fill="#FFFFFF" transform="matrix(1 0 0 1.00118 7.64001 7.8)"/><path d="M493.593 382.069C464.137 377.61 428.299 372.169 414.021 370.042 399.743 367.873 375.36 364.191 359.814 361.859 344.308 359.527 329.499 357.277 326.921 356.868L322.257 356.173 322.503 339.808C322.666 330.849 322.83 323.403 322.912 323.362 322.994 323.28 324.139 323.485 325.448 323.812 326.798 324.098 329.744 324.753 331.994 325.203 334.244 325.653 337.763 326.389 339.767 326.839 341.813 327.289 348.318 328.68 354.291 329.949 360.264 331.217 367.178 332.69 369.632 333.221 372.128 333.753 377.733 334.981 382.11 335.881 386.488 336.822 392.134 338.008 394.588 338.54 397.084 339.072 402.239 340.176 406.043 340.995 409.889 341.813 419.83 343.94 428.135 345.699 458.205 352.122 524.481 366.237 533.073 368.037 537.9 369.06 543.382 370.246 545.223 370.655 547.064 371.105 548.864 371.473 549.192 371.473 549.764 371.473 549.846 372.578 549.846 380.883L549.846 390.293 548.537 390.252C547.801 390.211 523.09 386.57 493.593 382.069Z" fill="#FFFFFF" transform="matrix(1 0 0 1.00118 7.64001 7.8)"/><path d="M542.032 330.071C538.105 327.821 528.204 322.053 519.981 317.266 493.552 301.924 474.651 290.919 462.705 284.005 456.282 280.282 450.8 277.05 450.514 276.764 450.146 276.437 450.023 272.837 450.105 260.481L450.227 244.608 459.637 251.235C464.833 254.917 470.806 259.131 472.933 260.604 475.06 262.118 485.779 269.686 496.703 277.419 507.626 285.151 524.031 296.729 533.195 303.152L549.805 314.811 549.805 324.303C549.846 329.499 549.682 333.876 549.478 333.999 549.314 334.122 545.96 332.362 542.032 330.071Z" fill="#FFFFFF" transform="matrix(1 0 0 1.00118 7.64001 7.8)"/><path d="M546.982 308.348C545.714 307.407 531.641 296.892 515.685 284.946 499.73 273.041 478.824 257.413 469.251 250.254 459.719 243.094 451.578 237.039 451.168 236.753 450.514 236.303 450.432 234.707 450.187 218.793 450.023 209.138 450.023 201.283 450.187 201.283 450.432 201.283 459.882 209.67 471.092 219.857 473.138 221.698 480.583 228.448 487.661 234.789 494.739 241.171 505.908 251.235 512.412 257.127 518.958 263.018 526.936 270.218 530.209 273.123 533.441 276.028 539.127 281.182 542.891 284.578L549.642 290.715 549.764 300.083C549.805 305.238 549.723 309.575 549.56 309.738 549.355 309.902 548.21 309.288 546.982 308.348Z" fill="#FFFFFF" transform="matrix(1 0 0 1.00118 7.64001 7.8)"/><path d="M541.378 277.255C525.913 262.404 500.998 238.389 490.116 227.875 484.143 222.107 472.688 211.061 464.669 203.288L450.023 189.214 450.023 171.131C450.023 161.149 450.105 153.008 450.187 153.008 450.391 153.008 460.005 163.276 473.588 177.964 477.842 182.546 484.102 189.296 487.457 192.896 490.852 196.537 496.825 202.96 500.753 207.256 504.68 211.511 509.385 216.543 511.185 218.466 520.104 227.957 549.273 259.54 549.56 260.031 549.723 260.318 549.805 266.086 549.764 272.878L549.642 285.192 541.378 277.255Z" fill="#FFFFFF" transform="matrix(1 0 0 1.00118 7.64001 7.8)"/><path d="M545.919 247.226C542.278 243.176 527.1 226.648 517.485 216.216 511.103 209.261 487.907 183.978 479.029 174.282 472.156 166.713 451.537 144.294 450.964 143.68 450.555 143.271 450.432 138.771 450.432 123.511 450.432 111.524 450.596 103.955 450.8 104.119 451.25 104.364 451.823 105.06 472.565 131.12 480.993 141.716 495.271 159.554 504.23 170.804 513.231 182.055 527.14 199.524 535.2 209.588L549.846 227.957 549.846 239.371C549.846 245.631 549.682 250.785 549.478 250.785 549.273 250.785 547.678 249.19 545.919 247.226Z" fill="#FFFFFF" transform="matrix(1 0 0 1.00118 7.64001 7.8)"/><path d="M322.38 212.902 322.38 195.064 323.321 195.228C323.812 195.351 327.453 196.292 331.38 197.315 354.863 203.492 361 205.088 364.396 205.906L368.16 206.806 368.282 211.92 368.405 217.034 372.619 219.816C374.951 221.37 376.792 222.68 376.71 222.761 376.669 222.843 373.355 223.743 369.428 224.766 365.5 225.789 359.446 227.384 356.009 228.284 349.872 229.921 349.545 229.962 339.645 230.33 334.081 230.534 327.944 230.739 325.98 230.739L322.38 230.739 322.38 212.902Z" fill="#FFFFFF" transform="matrix(1 0 0 1.00118 7.64001 7.8)"/><path d="M545.714 212.206C541.296 206.479 508.362 164.095 498.953 152.026 495.107 147.076 491.589 142.535 491.139 141.921 490.689 141.307 486.475 135.866 481.77 129.811 456.2 97.0413 452.191 91.8456 451.127 90.4137L450.023 88.8182 450.105 66.5625 450.227 44.2659 472.115 75.1947C484.143 92.1729 496.743 109.969 500.098 114.715 503.453 119.461 507.912 125.761 509.958 128.666 512.044 131.611 516.831 138.402 520.676 143.803 524.481 149.203 532.623 160.699 538.718 169.331L549.846 185.041 549.846 200.915C549.846 209.67 549.723 216.829 549.56 216.829 549.355 216.788 547.637 214.743 545.714 212.206Z" fill="#FFFFFF" transform="matrix(1 0 0 1.00118 7.64001 7.8)"/><path d="M370.492 688.494C368.487 688.003 368.528 688.044 368.814 686.817 369.06 685.835 369.141 685.794 372.046 685.999 375.483 686.203 376.915 685.712 376.71 684.321 376.628 683.585 376.26 683.38 374.828 683.298L373.069 683.176 373.314 680.598 373.601 678.021 371.678 677.775C367.055 677.121 361.614 673.03 359.405 668.529 356.254 662.27 357.441 654.456 362.309 649.219 365.91 645.415 370.41 643.533 376.055 643.533 381.578 643.533 387.388 645.987 390.006 649.424 390.62 650.201 391.111 650.938 391.111 651.06 391.111 651.183 390.374 651.756 389.474 652.329L387.838 653.351 386.161 651.674C385.22 650.733 383.46 649.506 382.151 648.892 380.188 647.992 379.328 647.828 375.974 647.828 372.66 647.828 371.76 647.992 369.837 648.892 363.537 651.838 360.755 658.22 362.882 664.807 365.009 671.352 371.433 675.075 378.551 673.807 381.619 673.234 383.706 672.211 385.997 670.084L387.797 668.448 389.433 669.389C390.374 669.92 391.111 670.452 391.111 670.657 391.111 670.82 390.374 671.761 389.474 672.743 386.897 675.525 383.174 677.244 377.978 678.103 376.71 678.307 376.465 678.512 376.301 679.535 376.137 680.639 376.219 680.762 377.242 680.762 378.919 680.762 379.615 681.13 380.31 682.48 381.374 684.526 380.392 686.735 377.733 688.085 376.465 688.74 372.373 688.985 370.492 688.494Z" fill="#FFFFFF" transform="matrix(1 0 0 1.00118 7.64001 7.8)"/><path d="M62.7986 678.021C60.2212 677.694 56.3756 676.139 54.3709 674.625 42.7522 665.911 46.516 647.869 60.7122 644.105 68.2398 642.101 77.4858 645.169 80.7587 650.774 80.9223 651.101 80.4314 651.674 79.3677 652.329L77.7312 653.351 75.972 651.674C75.0311 650.733 73.231 649.506 72.0037 648.892 70.0808 647.992 69.2217 647.828 65.867 647.828 62.5123 647.828 61.6531 647.992 59.6894 648.892 56.8665 650.242 54.4937 652.533 53.1436 655.233 52.3254 656.87 52.1617 657.852 52.1617 660.715 52.1617 663.702 52.3254 664.52 53.3073 666.525 56.0074 671.966 62.1032 674.953 68.4444 673.807 71.5127 673.234 73.5992 672.211 75.9311 670.043L77.7312 668.366 79.3677 669.47C81.2905 670.739 81.2087 671.148 78.5085 673.562 74.7447 676.998 68.4444 678.757 62.7986 678.021Z" fill="#FFFFFF" transform="matrix(1 0 0 1.00118 7.64001 7.8)"/><path d="M114.224 677.857C107.515 676.712 101.91 670.902 100.601 663.784 99.0869 655.561 104.119 647.051 112.097 644.351 115.942 643.042 121.179 643.328 124.861 645.046 136.889 650.692 138.157 667.793 127.07 675.403 123.838 677.653 118.642 678.635 114.224 677.857ZM122.038 673.152C124.452 672.334 127.725 669.43 128.829 667.138 130.629 663.456 130.711 658.711 129.075 655.192 127.929 652.82 125.311 650.201 122.856 648.974 118.029 646.642 112.219 647.828 108.415 651.96 105.837 654.742 104.978 656.992 104.937 660.92 104.937 663.661 105.101 664.561 106.042 666.484 108.374 671.189 112.342 673.807 117.211 673.807 118.806 673.807 120.974 673.521 122.038 673.152Z" fill="#FFFFFF" transform="matrix(1 0 0 1.00118 7.64001 7.8)"/><path d="M209.465 677.653C207.215 677.039 204.842 675.648 203.533 674.216 202.878 673.521 202.919 673.357 204.269 671.884L205.701 670.33 206.683 671.189C208.565 672.948 210.447 673.807 212.452 673.807 216.011 673.807 218.466 671.721 218.466 668.734 218.425 665.87 217.566 664.888 212.534 662.147 205.497 658.343 203.41 654.742 204.965 649.178 205.497 647.337 208.892 644.146 210.733 643.778 214.62 643.001 219.284 644.392 221.739 647.01L222.72 648.033 221.329 649.424 219.979 650.856 218.507 649.71C216.379 648.074 214.62 647.501 212.615 647.747 209.015 648.237 207.379 652.206 209.711 654.947 210.283 655.642 212.329 657.115 214.252 658.179 221.779 662.311 223.948 665.788 222.393 671.025 220.798 676.507 215.315 679.289 209.465 677.653Z" fill="#FFFFFF" transform="matrix(1 0 0 1.00118 7.64001 7.8)"/><path d="M318.616 677.775C314.034 676.753 310.434 673.521 309.002 669.184 308.47 667.466 308.307 664.97 308.143 655.724L307.979 644.351 310.229 644.351 312.52 644.351 312.643 655.724C312.766 666.525 312.807 667.138 313.666 668.775 314.811 670.902 317.184 672.866 319.312 673.439 321.725 674.093 325.694 673.684 327.739 672.539 328.721 672.007 330.03 670.82 330.644 669.92 332.158 667.752 332.608 663.988 332.608 652.86L332.608 644.351 334.858 644.351 337.108 644.351 337.108 653.065C337.108 657.852 336.904 663.334 336.699 665.216 335.922 671.434 333.262 675.321 328.558 677.121 325.939 678.103 321.48 678.389 318.616 677.775Z" fill="#FFFFFF" transform="matrix(1 0 0 1.00118 7.64001 7.8)"/><path d="M424.576 677.898C419.503 677.039 414.635 673.193 412.303 668.202 411.239 665.952 410.953 664.807 410.83 661.861 410.462 654.17 414.062 648.074 420.976 644.801 422.94 643.86 423.717 643.737 427.522 643.737 431.327 643.737 432.104 643.86 434.149 644.842 435.459 645.456 437.422 646.806 438.568 647.869L440.613 649.792 440.613 647.051 440.613 644.351 442.863 644.351 445.114 644.351 445.032 660.838 444.909 677.284 442.782 677.407 440.613 677.53 440.613 674.789 440.613 672.048 438.731 673.807C436.563 675.812 433.495 677.325 430.386 677.898 427.972 678.348 427.358 678.348 424.576 677.898ZM432.513 673.193C436.522 671.843 439.345 668.693 440.45 664.316 442.127 657.811 438.977 651.306 432.84 648.647 430.017 647.378 425.517 647.542 422.531 649.015 415.003 652.615 412.957 662.229 418.235 669.348 421.221 673.398 427.235 675.034 432.513 673.193Z" fill="#FFFFFF" transform="matrix(1 0 0 1.00118 7.64001 7.8)"/><path d="M479.07 677.734C475.633 676.998 473.26 675.648 470.724 672.989 465.61 667.629 464.342 660.184 467.369 653.515 469.456 648.974 472.81 645.906 477.433 644.351 481.197 643.083 486.434 643.287 489.87 644.883 497.439 648.36 501.448 656.215 499.771 664.275 498.994 668.079 497.889 670.166 495.107 673.071 492.489 675.812 489.748 677.284 485.984 677.857 482.793 678.389 481.974 678.389 479.07 677.734ZM487.375 673.152C492.939 671.271 496.662 664.438 495.434 658.465 493.43 648.769 482.343 644.515 475.06 650.692 469.415 655.438 468.637 664.07 473.383 669.47 475.101 671.393 477.147 672.866 478.988 673.398 480.87 673.971 485.37 673.848 487.375 673.152Z" fill="#FFFFFF" transform="matrix(1 0 0 1.00118 7.64001 7.8)"/><path d="M563.756 677.857C558.356 676.957 553.283 673.112 550.951 668.12 548.496 662.966 549.069 656.256 552.342 651.347 554.224 648.524 556.351 646.765 559.951 645.087 562.201 644.024 563.265 643.778 566.62 643.615 572.47 643.328 577.338 644.965 580.652 648.319 583.148 650.815 583.189 651.06 581.307 652.288L579.63 653.392 577.625 651.51C574.516 648.606 572.511 647.869 567.847 647.828 564.492 647.828 563.633 647.992 561.71 648.892 558.683 650.283 556.801 652.001 555.328 654.661 554.265 656.624 554.142 657.156 554.142 660.715 554.142 664.152 554.265 664.847 555.246 666.648 556.515 669.061 558.806 671.352 561.097 672.539 566.292 675.198 573.288 674.257 577.502 670.289L579.507 668.448 580.857 669.184C583.23 670.452 583.23 670.739 581.061 672.907 578.607 675.362 574.679 677.325 571.12 677.898 568.052 678.348 566.865 678.348 563.756 677.857Z" fill="#FFFFFF" transform="matrix(1 0 0 1.00118 7.64001 7.8)"/><path d="M155.462 660.961 155.462 644.351 157.713 644.351 159.963 644.351 159.963 647.01 159.963 649.628 161.722 647.869C164.34 645.292 167.695 643.778 171.336 643.574 175.836 643.369 179.109 644.883 181.687 648.36 183.773 651.224 184.1 653.515 184.1 666.116L184.1 677.489 182.096 677.489 180.132 677.489 179.886 666.157C179.682 654.456 179.477 652.983 177.882 650.61 175.018 646.396 167.163 646.683 163.195 651.224 160.372 654.415 160.208 655.315 159.963 666.852L159.758 677.284 157.631 677.407 155.462 677.53 155.462 660.961Z" fill="#FFFFFF" transform="matrix(1 0 0 1.00118 7.64001 7.8)"/><path d="M246.694 662.761 246.694 648.033 243.831 648.033 240.967 648.033 240.967 646.192 240.967 644.351 243.831 644.351 246.694 644.351 246.694 638.214 246.694 632.078 248.944 632.078 251.195 632.078 251.195 638.214 251.195 644.351 254.467 644.351 257.74 644.351 257.74 646.192 257.74 648.033 254.467 648.033 251.195 648.033 251.195 662.761 251.195 677.489 248.944 677.489 246.694 677.489 246.694 662.761Z" fill="#FFFFFF" transform="matrix(1 0 0 1.00118 7.64001 7.8)"/><path d="M275.332 660.92 275.332 644.351 277.582 644.351 279.832 644.351 279.832 646.601 279.832 648.851 281.592 646.928C283.555 644.801 285.887 643.574 288.056 643.533 289.487 643.533 292.106 644.228 292.106 644.596 292.106 644.719 291.697 645.537 291.206 646.437 290.306 647.992 290.183 648.074 288.71 647.828 286.46 647.501 283.842 648.769 282.451 650.856 280.487 653.842 280.16 655.97 279.955 667.179L279.71 677.489 277.541 677.489 275.332 677.489 275.332 660.92Z" fill="#FFFFFF" transform="matrix(1 0 0 1.00118 7.64001 7.8)"/><path d="M603.317 677.203C603.153 677.08 603.031 669.593 603.031 660.634L603.031 644.351 605.281 644.351 607.531 644.351 607.531 660.92 607.531 677.489 605.567 677.489C604.463 677.489 603.44 677.366 603.317 677.203Z" fill="#FFFFFF" transform="matrix(1 0 0 1.00118 7.64001 7.8)"/><path d="M640.505 675.566C639.973 674.462 638.623 671.598 637.478 669.102 636.373 666.648 634.655 662.966 633.714 660.92 632.773 658.915 631.218 655.479 630.237 653.351 629.296 651.224 627.946 648.319 627.25 646.928L626.023 644.351 628.396 644.351 630.809 644.351 631.996 646.928C632.65 648.319 635.064 653.556 637.396 658.588 639.728 663.579 641.733 667.589 641.855 667.425 641.978 667.302 644.433 662.106 647.256 655.888L652.41 644.555 654.742 644.433C656.011 644.351 657.033 644.433 657.033 644.596 657.033 644.76 654.17 651.142 650.651 658.833 647.133 666.525 643.778 673.848 643.205 675.157 642.674 676.425 642.06 677.489 641.855 677.489 641.651 677.489 641.078 676.63 640.505 675.566Z" fill="#FFFFFF" transform="matrix(1 0 0 1.00118 7.64001 7.8)"/><path d="M675.853 660.92 675.853 644.351 678.103 644.351 680.353 644.351 680.353 660.92 680.353 677.489 678.103 677.489 675.853 677.489 675.853 660.92Z" fill="#FFFFFF" transform="matrix(1 0 0 1.00118 7.64001 7.8)"/><path d="M701.217 654.62 701.217 631.668 703.468 631.668 705.718 631.668 705.636 654.497 705.513 677.284 703.386 677.407 701.217 677.53 701.217 654.62Z" fill="#FFFFFF" transform="matrix(1 0 0 1.00118 7.64001 7.8)"/><path d="M429.567 637.232C428.79 636.946 427.399 636.373 426.499 635.964 424.617 635.146 422.694 635.35 421.017 636.537 420.362 637.028 419.749 637.396 419.626 637.396 419.135 637.396 417.621 634.491 417.826 633.959 418.194 633.059 422.244 631.259 423.881 631.259 424.74 631.259 426.949 631.832 428.831 632.528 432.431 633.837 433.822 633.878 436.195 632.732 436.89 632.364 437.504 632.078 437.586 632.078 437.668 632.078 438.2 632.773 438.731 633.591L439.795 635.105 437.872 636.332C435.663 637.805 431.94 638.173 429.567 637.232Z" fill="#FFFFFF" transform="matrix(1 0 0 1.00118 7.64001 7.8)"/><path d="M603.031 636.905C599.799 633.428 604.217 628.764 607.776 631.832 609.29 633.1 609.331 635.269 607.94 636.782 606.672 638.132 604.258 638.214 603.031 636.905Z" fill="#FFFFFF" transform="matrix(1 0 0 1.00118 7.64001 7.8)"/><path d="M675.484 636.741C674.216 635.146 674.339 632.773 675.689 631.709 677.284 630.482 679.33 630.564 680.598 631.996 681.498 632.896 681.621 633.387 681.457 634.737 681.171 636.782 679.985 637.805 677.898 637.805 676.671 637.805 676.139 637.56 675.484 636.741Z" fill="#FFFFFF" transform="matrix(1 0 0 1.00118 7.64001 7.8)"/><path d="M533.482 601.803 533.482 598.899 535.036 598.203C538.882 596.444 540.191 594.644 540.764 590.348L541.132 587.894 537.286 587.894 533.482 587.894 533.482 580.734 533.482 573.575 541.459 573.575 549.437 573.575 549.437 581.061C549.437 586.053 549.232 589.325 548.823 590.962 547.228 597.835 543.3 602.212 537.205 604.013 533.482 605.117 533.482 605.117 533.482 601.803Z" fill="#FFFFFF" transform="matrix(1 0 0 1.00118 7.64001 7.8)"/><path d="M480.093 589.694C467.451 588.221 458.942 584.171 454.973 577.625 453.255 574.884 451.741 570.261 451.578 567.233L451.455 564.779 459.76 564.656 468.024 564.574 468.024 566.129C468.024 568.42 470.151 572.429 472.279 574.188 475.797 577.052 481.034 578.484 488.111 578.484 496.989 578.484 503.248 575.948 505.089 571.57 505.989 569.402 505.826 566.17 504.721 564.533 502.348 561.015 498.257 559.542 485.166 557.578 475.265 556.106 469.006 554.796 465.61 553.405 457.019 549.928 453.214 544.691 453.214 536.386 453.214 525.218 460.005 518.099 473.342 515.235 478.211 514.172 491.63 514.172 496.784 515.194 509.671 517.772 517.281 524.113 519.326 533.932 519.613 535.364 519.776 536.673 519.695 536.877 519.613 537.041 515.931 537.164 511.553 537.164 505.539 537.164 503.535 537.041 503.453 536.632 502.144 532.05 500.139 529.636 496.171 527.754 492.857 526.159 488.888 525.586 483.406 525.79 475.347 526.159 470.438 528.695 469.251 533.073 467.983 537.818 470.601 541.132 476.983 542.85 478.742 543.341 484.347 544.282 489.339 544.937 506.562 547.269 511.758 548.864 516.831 553.528 520.963 557.292 522.804 562.979 522.027 569.402 521.331 574.761 519.654 578.034 515.685 581.675 511.226 585.766 504.435 588.425 495.762 589.53 492.652 589.898 482.956 590.021 480.093 589.694Z" fill="#FFFFFF" transform="matrix(1 0 0 1.00118 7.64001 7.8)"/><path d="M46.6387 552.096 46.6387 516.258 71.9218 516.381 97.164 516.504 100.519 517.649C108.987 520.513 113.488 526.936 114.019 536.959 114.592 548.373 108.496 557.21 98.1459 559.91 95.9776 560.483 92.6638 560.647 78.6722 560.769L61.7759 560.974 61.7759 574.434 61.7759 587.894 54.2073 587.894 46.6387 587.894 46.6387 552.096ZM92.5411 548.537C95.2821 547.637 96.7549 546.41 97.8595 544.2 98.6368 542.605 98.8005 541.664 98.7596 538.596 98.7596 534.382 97.9823 532.418 95.5685 530.291 92.8684 527.959 91.3956 527.754 75.8084 527.754L61.7759 527.754 61.7759 538.636 61.7759 549.519 76.2175 549.355C87.7954 549.192 90.9864 549.028 92.5411 548.537Z" fill="#FFFFFF" transform="matrix(1 0 0 1.00118 7.64001 7.8)"/><path d="M124.779 552.096 124.779 516.299 132.348 516.299 139.916 516.299 139.916 552.096 139.916 587.894 132.348 587.894 124.779 587.894 124.779 552.096Z" fill="#FFFFFF" transform="matrix(1 0 0 1.00118 7.64001 7.8)"/><path d="M154.235 552.096 154.235 516.299 179.109 516.299C194.042 516.299 205.006 516.463 206.601 516.708 213.024 517.731 218.097 520.431 220.675 524.195 223.13 527.795 223.539 529.309 223.539 535.527 223.58 540.396 223.457 541.337 222.598 543.423 221.411 546.491 217.607 550.583 214.784 551.933 213.679 552.464 212.738 552.996 212.738 553.16 212.738 553.283 213.515 553.61 214.415 553.896 216.788 554.633 219.775 557.701 220.839 560.524 221.943 563.51 222.557 568.093 222.557 573.493 222.598 578.525 223.334 583.271 224.521 586.012L225.38 587.894 217.116 587.812 208.852 587.689 208.32 586.053C207.992 585.153 207.583 581.266 207.379 577.379 206.888 567.724 206.192 565.024 203.451 562.447 200.833 559.951 200.424 559.869 184.223 559.747L169.372 559.624 169.372 573.738 169.372 587.894 161.804 587.894 154.235 587.894 154.235 552.096ZM202.224 547.473C205.906 546.205 207.992 542.809 207.992 538.023 207.992 534.382 207.297 532.623 205.17 530.659 202.142 527.877 201.201 527.754 184.223 527.754L169.372 527.754 169.372 537.982 169.372 548.251 185.041 548.128C196.169 548.005 201.119 547.841 202.224 547.473Z" fill="#FFFFFF" transform="matrix(1 0 0 1.00118 7.64001 7.8)"/><path d="M227.875 587.73C227.875 587.525 235.403 570.465 237.653 565.597 238.471 563.797 243.749 551.974 249.354 539.332L259.581 516.299 268.623 516.299 277.705 516.299 279.71 520.922C287.442 538.309 308.634 585.807 309.125 586.748L309.738 587.894 301.106 587.812 292.474 587.689 291.533 585.439C288.587 578.279 286.746 573.943 285.969 572.225L285.11 570.302 268.295 570.384 251.481 570.506 250.172 573.575C249.476 575.252 247.799 579.179 246.531 582.289L244.158 587.894 236.017 587.894C231.516 587.894 227.875 587.812 227.875 587.73ZM280.242 558.478C280.242 558.11 278.36 553.242 276.969 550.051 276.6 549.151 274.555 544.119 272.468 538.882 270.341 533.686 268.5 529.513 268.336 529.677 268.05 529.963 265.513 535.977 258.64 552.833L256.145 558.847 268.214 558.847C275.291 558.847 280.242 558.683 280.242 558.478Z" fill="#FFFFFF" transform="matrix(1 0 0 1.00118 7.64001 7.8)"/><path d="M315.834 552.096 315.834 516.299 323.403 516.299 330.971 516.299 330.971 546.164 330.971 576.029 352.654 576.029 374.337 576.029 374.337 581.961 374.337 587.894 345.086 587.894 315.834 587.894 315.834 552.096Z" fill="#FFFFFF" transform="matrix(1 0 0 1.00118 7.64001 7.8)"/><path d="M382.519 552.096 382.519 516.299 413.816 516.299 445.154 516.299 445.032 521.945 444.909 527.55 421.303 527.672 397.657 527.754 397.657 536.55 397.657 545.346 420.28 545.428 442.863 545.55 442.986 551.155 443.109 556.801 420.485 556.883 397.861 557.006 397.738 566.702 397.657 576.438 421.671 576.52 445.727 576.643 445.85 582.289 445.973 587.894 414.226 587.894 382.519 587.894 382.519 552.096Z" fill="#FFFFFF" transform="matrix(1 0 0 1.00118 7.64001 7.8)"/><path d="M601.476 571.243 601.599 554.551 605.199 554.428 608.758 554.305 608.758 568.215 608.758 582.166 618.7 582.248 628.6 582.371 628.723 585.153 628.846 587.894 615.099 587.894 601.394 587.894 601.476 571.243Z" fill="#FFFFFF" transform="matrix(1 0 0 1.00118 7.64001 7.8)"/><path d="M632.568 571.243 632.691 554.551 643.533 554.592C653.474 554.592 654.62 554.674 657.279 555.492 663.947 557.537 666.852 562.283 666.852 571.161 666.852 575.702 665.952 579.179 664.029 582.207 662.556 584.58 660.634 586.053 657.688 587.075 655.642 587.812 654.292 587.894 643.942 587.894L632.487 587.894 632.568 571.243ZM653.638 581.961C656.052 581.225 658.261 579.057 659.12 576.602 659.447 575.702 659.693 573.288 659.693 571.12 659.693 567.683 659.57 566.988 658.547 564.861 657.647 563.06 656.952 562.283 655.479 561.383 653.638 560.319 653.31 560.279 646.724 560.156L639.851 559.992 639.851 571.284 639.851 582.575 645.701 582.575C649.751 582.575 652.206 582.371 653.638 581.961Z" fill="#FFFFFF" transform="matrix(1 0 0 1.00118 7.64001 7.8)"/><path d="M669.061 586.584C669.348 585.848 672.416 578.975 675.853 571.325 679.289 563.674 682.357 556.719 682.726 555.901L683.339 554.346 687.308 554.346C690.008 554.346 691.44 554.51 691.726 554.878 691.931 555.124 693.158 557.66 694.385 560.483 695.613 563.306 698.804 570.384 701.422 576.234 704.04 582.084 706.29 587.116 706.413 587.403 706.577 587.771 705.677 587.894 702.608 587.894L698.558 587.894 696.881 583.884 695.204 579.916 687.43 579.793 679.616 579.711 678.921 581.43C678.553 582.411 677.775 584.252 677.203 585.562L676.139 587.894 672.334 587.894 668.489 587.894 669.061 586.584ZM692.217 572.47C691.808 571.365 690.581 568.338 689.476 565.679 688.412 563.06 687.43 561.015 687.308 561.179 687.021 561.547 681.989 573.82 681.989 574.188 681.989 574.311 684.485 574.393 687.512 574.393L693.035 574.393 692.217 572.47Z" fill="#FFFFFF" transform="matrix(1 0 0 1.00118 7.64001 7.8)"/></g></g></g></g></g><g clip-path="url(#clip7)"><g clip-path="url(#clip8)"><g clip-path="url(#clip9)"><path d="M311.847 433.297C301.82 432.896 244.023 430.69 227.859 430.089L208.848 429.407 209.128 416.773C209.289 409.834 209.449 404.098 209.489 404.058 209.529 404.018 213.54 403.777 218.393 403.537 236.563 402.574 295.603 399.285 306.513 398.683 310.203 398.443 314.134 398.282 315.257 398.282L317.262 398.282 317.262 415.93 317.262 433.578 316.179 433.498C315.537 433.458 313.612 433.378 311.847 433.297Z" fill="#FFFFFF" transform="matrix(1 0 0 1.00118 272 0)"/><path d="M209.128 383.763C209.289 376.864 209.489 371.169 209.569 371.088 209.73 370.928 210.733 370.808 270.134 363.387 294.841 360.299 315.457 357.732 315.939 357.652 316.42 357.572 317.021 357.612 317.222 357.772 317.543 357.933 317.583 362.665 317.423 373.736L317.142 389.458 314.695 389.458C313.372 389.458 309.842 389.619 306.874 389.859 303.866 390.06 294.48 390.702 285.977 391.263 271.458 392.186 253.81 393.349 240.052 394.271 222.083 395.475 209.529 396.277 209.208 396.277 209.008 396.277 208.968 391.143 209.128 383.763Z" fill="#FFFFFF" transform="matrix(1 0 0 1.00118 272 0)"/><path d="M209.008 356.689C209.048 352.518 209.168 346.341 209.329 342.932L209.569 336.715 212.177 336.234C217.03 335.351 236.362 331.782 250.681 329.094 258.502 327.65 268.249 325.845 272.34 325.083 276.431 324.321 288.143 322.155 298.371 320.23 309.521 318.185 317.102 316.941 317.302 317.142 317.543 317.382 317.583 324 317.423 333.426L317.142 349.349 316.099 349.349C315.537 349.349 291.592 352.678 262.914 356.769 234.277 360.861 210.372 364.19 209.89 364.19L208.968 364.19 209.008 356.689Z" fill="#FFFFFF" transform="matrix(1 0 0 1.00118 272 0)"/><path d="M208.968 316.38 208.968 302.181 211.094 301.66C212.217 301.339 215.706 300.416 218.795 299.574 221.883 298.772 229.103 296.807 234.838 295.242 240.574 293.718 248.596 291.552 252.687 290.429 263.957 287.421 290.189 280.362 301.219 277.354 306.633 275.91 316.099 273.343 322.276 271.698 328.453 270.054 339.122 267.166 345.94 265.321 361.462 261.11 412.04 247.472 423.35 244.464 428.003 243.221 433.739 241.657 436.105 241.015 438.672 240.253 440.838 239.892 441.399 240.012L442.402 240.253 442.402 256.136C442.402 269.492 442.322 271.979 441.841 271.578 441.44 271.257 438.712 271.819 430.329 273.944 424.273 275.469 412.681 278.437 404.499 280.522 396.357 282.608 386.851 285.055 383.442 285.937 364.631 290.75 351.676 294.079 329.896 299.614 322.837 301.419 315.457 303.304 313.452 303.826 311.486 304.347 304.427 306.152 297.809 307.837 279.921 312.369 255.534 318.626 246.069 321.072 243.221 321.835 233.996 324.161 225.613 326.287 217.23 328.412 210.051 330.217 209.69 330.338 209.008 330.538 208.968 329.696 208.968 316.38Z" fill="#FFFFFF" transform="matrix(1 0 0 1.00118 272 0)"/><path d="M209.369 280.602C209.369 267.006 209.409 265.963 210.091 265.762 211.134 265.441 243.221 255.935 255.695 252.205 261.671 250.441 276.351 246.069 288.384 242.499 300.416 238.889 319.548 233.194 330.899 229.784 342.25 226.415 351.234 223.568 350.873 223.487 349.43 223.207 350.071 221.963 351.876 221.522 352.799 221.281 356.81 220.279 360.74 219.236 366.716 217.671 368.08 217.391 368.802 217.792 369.725 218.273 368.922 218.514 427.161 201.106 437.429 198.058 441.159 197.096 441.68 197.376 442.322 197.737 442.402 198.379 442.402 202.911 442.402 205.719 442.523 213.5 442.683 220.198 442.924 232.311 442.924 232.311 442.121 232.071 441.6 231.91 433.378 233.996 420.703 237.485 409.352 240.574 399.125 243.381 397.961 243.702 396.798 244.023 393.269 244.986 390.14 245.828 372.091 250.842 328.573 262.794 320.671 264.92 317.142 265.883 306.312 268.851 296.606 271.538 286.9 274.225 276.07 277.193 272.541 278.156 269.011 279.118 259.826 281.645 252.085 283.771 244.384 285.897 237.164 287.862 236.041 288.183 234.958 288.464 228.742 290.189 222.244 291.953 215.786 293.758 210.211 295.202 209.93 295.202 209.449 295.202 209.369 292.715 209.369 280.602Z" fill="#FFFFFF" transform="matrix(1 0 0 1.00118 272 0)"/><path d="M209.449 244.625 209.569 229.704 212.578 228.581C214.222 227.98 223.888 224.45 234.036 220.8 244.184 217.15 253.409 213.781 254.492 213.38 256.898 212.457 283.49 202.831 287.18 201.548 290.068 200.505 294.52 198.9 306.954 194.368 311.527 192.684 315.738 191.32 316.299 191.32L317.262 191.32 317.262 208.687 317.262 226.014 313.532 227.177C311.527 227.819 307.957 228.942 305.631 229.664 303.304 230.386 297.649 232.191 292.996 233.635 288.384 235.079 281.685 237.164 278.156 238.288 274.626 239.37 270.655 240.614 269.332 241.055 242.94 249.398 210.372 259.505 209.89 259.505 209.449 259.505 209.369 256.657 209.449 244.625Z" fill="#FFFFFF" transform="matrix(1 0 0 1.00118 272 0)"/><path d="M345.338 223.808C345.338 223.166 345.619 223.006 346.742 223.006 348.347 223.006 348.708 223.969 347.264 224.37 345.74 224.771 345.338 224.65 345.338 223.808Z" fill="#FFFFFF" transform="matrix(1 0 0 1.00118 272 0)"/><path d="M208.888 223.126C208.807 222.926 208.807 216.589 208.888 208.968L209.008 195.13 221.923 189.956C236.322 184.18 268.089 171.386 305.029 156.545 318.505 151.131 337.798 143.39 347.945 139.299 371.53 129.833 411.157 113.869 427.963 107.131 435.142 104.243 441.199 101.877 441.44 101.877 442.643 101.877 442.763 103.2 442.883 122.373 442.964 138.496 442.924 141.745 442.482 141.304 442.202 141.023 441.68 140.783 441.359 140.783 441.038 140.783 429.367 144.874 415.409 149.847 383.803 161.118 385.929 160.356 379.23 162.762 371.57 165.49 356.328 170.904 349.67 173.311 346.622 174.394 341.568 176.199 338.44 177.322 335.271 178.445 331.701 179.728 330.498 180.17 329.295 180.611 322.958 182.857 316.46 185.143 309.962 187.469 300.938 190.678 296.405 192.323 280.843 197.898 270.936 201.427 264.92 203.553 258.783 205.719 243.301 211.214 227.819 216.789 223.086 218.474 218.193 220.198 216.99 220.599 215.786 221.001 213.58 221.803 212.056 222.364 209.008 223.527 209.048 223.527 208.888 223.126Z" fill="#FFFFFF" transform="matrix(1 0 0 1.00118 272 0)"/><path d="M359.778 208.166C359.778 203.433 359.858 202.55 360.379 202.55 360.901 202.55 360.981 200.826 360.981 189.555L360.981 176.56 363.307 175.717C364.551 175.276 376.704 171.185 390.26 166.653 403.817 162.121 420.783 156.425 427.923 154.019 440.196 149.847 440.958 149.607 441.64 150.248 442.362 150.89 442.402 151.893 442.402 168.739 442.402 185.945 442.362 186.507 441.64 186.066 441.038 185.665 439.835 185.945 434.942 187.63 431.653 188.753 423.391 191.601 416.532 193.967 409.713 196.293 403.376 198.459 402.494 198.74 401.611 199.021 395.555 201.106 389.057 203.353 382.56 205.599 373.655 208.647 369.283 210.131 362.986 212.257 361.462 212.899 361.863 213.3 362.224 213.661 362.064 213.781 361.061 213.781L359.778 213.781 359.778 208.166Z" fill="#FFFFFF" transform="matrix(1 0 0 1.00118 272 0)"/><path d="M208.928 185.945C208.848 185.825 208.807 179.047 208.888 170.864L208.968 155.944 218.514 151.331C223.728 148.804 234.437 143.59 242.258 139.78 261.791 130.274 270.495 126.063 284.774 119.124 291.512 115.875 301.178 111.182 306.232 108.695 311.326 106.209 321.233 101.396 328.292 97.9462 335.351 94.5369 345.178 89.7639 350.151 87.3173 355.125 84.9107 361.743 81.702 364.871 80.1779 368 78.6537 377.666 73.961 386.33 69.7495 394.993 65.498 404.098 61.1261 406.505 59.9629 408.951 58.7998 416.652 55.0295 423.671 51.6203 430.65 48.1709 437.469 44.882 438.792 44.2803 441.159 43.2375 441.239 43.1974 441.801 43.9595 442.282 44.6012 442.362 48.1709 442.402 66.5007 442.402 87.3975 442.362 88.2398 441.68 87.7986 440.918 87.3173 439.073 88.0392 422.749 95.0583 419.781 96.3418 409.392 100.754 399.686 104.885 389.98 109.016 380.875 112.907 379.431 113.508 375.621 115.153 343.614 128.75 328.292 135.248 321.032 138.336 312.449 141.986 309.24 143.39 306.032 144.793 302.422 146.318 301.219 146.799 300.015 147.28 297.889 148.203 296.486 148.844 295.082 149.486 293.879 150.008 293.758 150.008 293.558 150.008 286.057 153.176 283.37 154.42 282.448 154.861 280.723 155.583 279.52 156.024 278.316 156.505 275.99 157.468 274.345 158.23 272.701 158.952 266.564 161.599 260.708 164.046 254.853 166.533 246.911 169.902 243.06 171.546 239.21 173.191 230.105 177.081 222.805 180.17 215.546 183.258 209.449 185.865 209.329 185.945 209.208 186.025 209.008 186.025 208.928 185.945Z" fill="#FFFFFF" transform="matrix(1 0 0 1.00118 272 0)"/><path d="M316.059 415.93 316.059 398.282 316.981 398.282C317.463 398.282 332.584 399.365 350.553 400.689 437.028 407.026 494.784 411.278 515.401 412.762 527.874 413.644 538.303 414.446 538.584 414.526 538.944 414.647 539.065 416.492 539.065 421.906L539.065 429.126 537.781 429.327C537.059 429.407 488.888 430.329 430.771 431.332 372.653 432.335 323.038 433.257 320.591 433.378L316.059 433.578 316.059 415.93Z" fill="#FFFFFF" transform="matrix(1 0 0 1.00118 272 0)"/><path d="M489.33 403.898C463.86 401.732 427.682 398.683 408.911 397.079 390.18 395.515 362.104 393.148 346.542 391.825 330.979 390.541 317.784 389.458 317.182 389.458L316.059 389.458 316.059 381.316C316.059 376.824 316.179 369.644 316.34 365.353L316.58 357.572 322.436 358.414C325.645 358.895 336.875 360.58 347.344 362.184 357.812 363.748 373.535 366.115 382.239 367.398 433.578 375.099 455.518 378.388 462.457 379.431 466.748 380.073 481.188 382.239 494.544 384.244 507.9 386.25 522.42 388.415 526.832 389.057 531.244 389.739 535.776 390.421 536.859 390.581L538.864 390.862 538.985 399.405 539.065 407.908 537.38 407.868C536.418 407.828 514.799 406.063 489.33 403.898Z" fill="#FFFFFF" transform="matrix(1 0 0 1.00118 272 0)"/><path d="M483.915 374.578C455.036 370.206 419.901 364.871 405.903 362.786 391.905 360.66 368 357.05 352.759 354.764 337.557 352.478 323.038 350.272 320.511 349.871L315.939 349.189 316.179 333.145C316.34 324.361 316.5 317.062 316.58 317.021 316.66 316.941 317.784 317.142 319.067 317.463 320.391 317.743 323.278 318.385 325.484 318.826 327.69 319.268 331.14 319.99 333.105 320.431 335.111 320.872 341.488 322.236 347.344 323.479 353.2 324.722 359.978 326.166 362.385 326.688 364.831 327.209 370.326 328.412 374.618 329.295 378.91 330.217 384.445 331.38 386.851 331.902 389.298 332.423 394.352 333.506 398.082 334.308 401.852 335.111 411.598 337.196 419.741 338.921 449.221 345.218 514.197 359.056 522.62 360.82 527.353 361.823 532.728 362.986 534.532 363.387 536.337 363.829 538.102 364.19 538.423 364.19 538.985 364.19 539.065 365.273 539.065 373.415L539.065 382.64 537.781 382.6C537.059 382.56 512.834 378.99 483.915 374.578Z" fill="#FFFFFF" transform="matrix(1 0 0 1.00118 272 0)"/><path d="M531.404 323.599C527.554 321.393 517.847 315.738 509.785 311.045 483.875 296.004 465.344 285.215 453.633 278.437 447.336 274.787 441.961 271.618 441.68 271.337 441.319 271.016 441.199 267.487 441.279 255.374L441.399 239.812 450.625 246.309C455.718 249.919 461.574 254.05 463.66 255.494 465.746 256.978 476.254 264.398 486.963 271.979 497.672 279.56 513.756 290.91 522.74 297.208L539.025 308.639 539.025 317.944C539.065 323.038 538.904 327.329 538.704 327.45 538.543 327.57 535.254 325.845 531.404 323.599Z" fill="#FFFFFF" transform="matrix(1 0 0 1.00118 272 0)"/><path d="M536.257 302.301C535.014 301.379 521.216 291.071 505.574 279.359 489.931 267.687 469.436 252.366 460.05 245.347 450.705 238.328 442.723 232.391 442.322 232.111 441.68 231.67 441.6 230.105 441.359 214.503 441.199 205.037 441.199 197.336 441.359 197.336 441.6 197.336 450.865 205.559 461.855 215.546 463.86 217.351 471.16 223.969 478.099 230.186 485.038 236.443 495.988 246.309 502.365 252.085 508.783 257.861 516.604 264.92 519.812 267.768 522.981 270.615 528.556 275.669 532.246 278.998L538.864 285.014 538.985 294.199C539.025 299.253 538.944 303.505 538.784 303.665 538.584 303.826 537.46 303.224 536.257 302.301Z" fill="#FFFFFF" transform="matrix(1 0 0 1.00118 272 0)"/><path d="M530.762 271.819C515.601 257.259 491.175 233.715 480.506 223.407 474.65 217.752 463.419 206.922 455.558 199.302L441.199 185.504 441.199 167.776C441.199 157.989 441.279 150.008 441.359 150.008 441.56 150.008 450.986 160.075 464.302 174.474 468.473 178.966 474.61 185.584 477.899 189.114 481.228 192.684 487.084 198.981 490.934 203.192 494.784 207.363 499.397 212.297 501.162 214.182 509.906 223.487 538.503 254.451 538.784 254.933 538.944 255.214 539.025 260.869 538.985 267.527L538.864 279.6 530.762 271.819Z" fill="#FFFFFF" transform="matrix(1 0 0 1.00118 272 0)"/><path d="M535.214 242.379C531.645 238.408 516.764 222.204 507.339 211.976 501.082 205.157 478.34 180.37 469.636 170.864 462.898 163.444 442.683 141.464 442.121 140.863 441.72 140.462 441.6 136.05 441.6 121.089 441.6 109.337 441.76 101.917 441.961 102.077 442.402 102.318 442.964 103 463.299 128.549 471.561 138.938 485.559 156.425 494.343 167.455 503.167 178.485 516.804 195.612 524.706 205.478L539.065 223.487 539.065 234.678C539.065 240.814 538.904 245.868 538.704 245.868 538.503 245.868 536.939 244.304 535.214 242.379Z" fill="#FFFFFF" transform="matrix(1 0 0 1.00118 272 0)"/><path d="M316.059 208.727 316.059 191.24 316.981 191.4C317.463 191.52 321.032 192.443 324.883 193.446 347.905 199.502 353.922 201.066 357.251 201.869L360.941 202.751 361.061 207.765 361.181 212.778 365.313 215.506C367.599 217.03 369.404 218.313 369.324 218.393 369.283 218.474 366.035 219.356 362.184 220.359 358.334 221.362 352.398 222.926 349.028 223.808 343.012 225.413 342.691 225.453 332.985 225.814 327.53 226.014 321.514 226.215 319.588 226.215L316.059 226.215 316.059 208.727Z" fill="#FFFFFF" transform="matrix(1 0 0 1.00118 272 0)"/><path d="M535.014 208.045C530.682 202.43 498.394 160.877 489.169 149.045 485.399 144.192 481.95 139.74 481.508 139.138 481.067 138.536 476.936 133.202 472.323 127.266 447.255 95.1385 443.325 90.0447 442.282 88.6409L441.199 87.0766 441.279 65.2573 441.399 43.3979 462.858 73.7203C474.65 90.3656 487.003 107.813 490.292 112.466 493.581 117.118 497.953 123.295 499.959 126.143 502.004 129.031 506.697 135.689 510.467 140.983 514.197 146.277 522.179 157.548 528.155 166.011L539.065 181.413 539.065 196.975C539.065 205.559 538.944 212.578 538.784 212.578 538.584 212.538 536.899 210.532 535.014 208.045Z" fill="#FFFFFF" transform="matrix(1 0 0 1.00118 272 0)"/><path d="M363.227 674.994C361.262 674.513 361.302 674.553 361.583 673.35 361.823 672.387 361.903 672.347 364.751 672.548 368.12 672.748 369.524 672.267 369.324 670.903 369.243 670.181 368.882 669.981 367.479 669.9L365.754 669.78 365.995 667.253 366.275 664.726 364.39 664.486C359.858 663.844 354.523 659.833 352.357 655.421 349.269 649.284 350.432 641.623 355.205 636.49 358.735 632.759 363.147 630.914 368.682 630.914 374.097 630.914 379.792 633.321 382.359 636.69 382.961 637.452 383.442 638.174 383.442 638.294 383.442 638.415 382.72 638.976 381.838 639.538L380.233 640.541 378.589 638.896C377.666 637.974 375.942 636.77 374.658 636.169 372.733 635.286 371.891 635.126 368.602 635.126 365.353 635.126 364.47 635.286 362.585 636.169 356.408 639.057 353.681 645.314 355.767 651.771 357.852 658.189 364.15 661.838 371.128 660.595 374.137 660.034 376.182 659.031 378.428 656.945L380.193 655.341 381.797 656.263C382.72 656.785 383.442 657.306 383.442 657.507 383.442 657.667 382.72 658.59 381.838 659.552 379.311 662.28 375.661 663.964 370.567 664.807 369.324 665.007 369.083 665.208 368.922 666.21 368.762 667.293 368.842 667.414 369.845 667.414 371.489 667.414 372.171 667.775 372.853 669.098 373.896 671.104 372.933 673.27 370.326 674.593 369.083 675.235 365.072 675.476 363.227 674.994Z" fill="#FFFFFF" transform="matrix(1 0 0 1.00118 272 0)"/><path d="M61.5673 664.726C59.0404 664.405 55.2702 662.881 53.3048 661.397 41.9139 652.854 45.6039 635.166 59.5217 631.476 66.9018 629.511 75.9664 632.519 79.1751 638.014 79.3356 638.335 78.8543 638.896 77.8114 639.538L76.2071 640.541 74.4824 638.896C73.5599 637.974 71.7951 636.77 70.5918 636.169 68.7067 635.286 67.8644 635.126 64.5755 635.126 61.2865 635.126 60.4442 635.286 58.519 636.169 55.7515 637.492 53.4252 639.738 52.1016 642.386 51.2994 643.99 51.139 644.953 51.139 647.76 51.139 650.688 51.2994 651.49 52.262 653.456 54.9092 658.79 60.8854 661.718 67.1023 660.595 70.1105 660.034 72.1561 659.031 74.4423 656.905L76.2071 655.261 77.8114 656.344C79.6966 657.587 79.6163 657.988 76.9692 660.354 73.2791 663.724 67.1023 665.448 61.5673 664.726Z" fill="#FFFFFF" transform="matrix(1 0 0 1.00118 272 0)"/><path d="M111.984 664.566C105.406 663.443 99.9115 657.747 98.628 650.768 97.144 642.706 102.077 634.364 109.899 631.717 113.669 630.433 118.803 630.714 122.413 632.398 134.205 637.933 135.448 654.699 124.579 662.159 121.41 664.365 116.316 665.328 111.984 664.566ZM119.645 659.953C122.012 659.151 125.22 656.303 126.303 654.057 128.068 650.448 128.148 645.795 126.544 642.345 125.421 640.019 122.854 637.452 120.447 636.249 115.714 633.963 110.019 635.126 106.289 639.177 103.762 641.904 102.92 644.11 102.88 647.961 102.88 650.648 103.04 651.53 103.963 653.416 106.249 658.028 110.139 660.595 114.912 660.595 116.477 660.595 118.602 660.314 119.645 659.953Z" fill="#FFFFFF" transform="matrix(1 0 0 1.00118 272 0)"/><path d="M205.358 664.365C203.152 663.764 200.826 662.4 199.542 660.996 198.9 660.314 198.941 660.154 200.264 658.71L201.668 657.186 202.631 658.028C204.476 659.753 206.321 660.595 208.286 660.595 211.775 660.595 214.182 658.549 214.182 655.622 214.142 652.814 213.3 651.851 208.366 649.164 201.467 645.434 199.422 641.904 200.946 636.449 201.467 634.645 204.797 631.516 206.601 631.155 210.412 630.393 214.984 631.757 217.391 634.324L218.353 635.326 216.99 636.69 215.666 638.094 214.222 636.971C212.136 635.367 210.412 634.805 208.446 635.046 204.917 635.527 203.312 639.417 205.599 642.105 206.16 642.787 208.166 644.231 210.051 645.273 217.431 649.324 219.557 652.734 218.032 657.868 216.468 663.242 211.094 665.97 205.358 664.365Z" fill="#FFFFFF" transform="matrix(1 0 0 1.00118 272 0)"/><path d="M312.369 664.486C307.877 663.483 304.347 660.314 302.943 656.063 302.422 654.378 302.261 651.932 302.101 642.867L301.94 631.717 304.146 631.717 306.393 631.717 306.513 642.867C306.633 653.456 306.673 654.057 307.516 655.662 308.639 657.747 310.965 659.673 313.051 660.234 315.417 660.876 319.308 660.475 321.313 659.352 322.276 658.83 323.559 657.667 324.161 656.785 325.645 654.659 326.086 650.969 326.086 640.059L326.086 631.717 328.292 631.717 330.498 631.717 330.498 640.26C330.498 644.953 330.298 650.327 330.097 652.172 329.335 658.269 326.728 662.079 322.115 663.844 319.548 664.807 315.176 665.087 312.369 664.486Z" fill="#FFFFFF" transform="matrix(1 0 0 1.00118 272 0)"/><path d="M416.251 664.606C411.278 663.764 406.505 659.993 404.218 655.1 403.176 652.894 402.895 651.771 402.774 648.883 402.414 641.343 405.943 635.367 412.722 632.158 414.647 631.235 415.409 631.115 419.139 631.115 422.869 631.115 423.631 631.235 425.637 632.198 426.92 632.799 428.845 634.123 429.968 635.166L431.974 637.051 431.974 634.364 431.974 631.717 434.18 631.717 436.386 631.717 436.306 647.881 436.185 664.004 434.1 664.125 431.974 664.245 431.974 661.558 431.974 658.87 430.129 660.595C428.003 662.56 424.995 664.044 421.947 664.606 419.58 665.047 418.979 665.047 416.251 664.606ZM424.032 659.993C427.963 658.67 430.73 655.581 431.813 651.29 433.458 644.912 430.369 638.535 424.353 635.928 421.586 634.685 417.174 634.845 414.246 636.289 406.866 639.819 404.86 649.244 410.034 656.223 412.962 660.194 418.858 661.798 424.032 659.993Z" fill="#FFFFFF" transform="matrix(1 0 0 1.00118 272 0)"/><path d="M469.676 664.446C466.307 663.724 463.981 662.4 461.494 659.793 456.48 654.539 455.237 647.239 458.205 640.701 460.251 636.249 463.54 633.241 468.072 631.717 471.762 630.473 476.896 630.674 480.265 632.238 487.685 635.647 491.616 643.348 489.971 651.25 489.209 654.98 488.126 657.025 485.399 659.873 482.832 662.56 480.145 664.004 476.455 664.566 473.326 665.087 472.524 665.087 469.676 664.446ZM477.818 659.953C483.273 658.108 486.923 651.41 485.72 645.554 483.755 636.048 472.885 631.877 465.746 637.933 460.211 642.586 459.448 651.049 464.101 656.344 465.786 658.229 467.791 659.673 469.596 660.194 471.441 660.755 475.853 660.635 477.818 659.953Z" fill="#FFFFFF" transform="matrix(1 0 0 1.00118 272 0)"/><path d="M552.702 664.566C547.408 663.683 542.434 659.913 540.148 655.02 537.741 649.966 538.303 643.388 541.511 638.575 543.357 635.808 545.442 634.083 548.972 632.439 551.178 631.396 552.221 631.155 555.51 630.995 561.245 630.714 566.018 632.318 569.267 635.607 571.714 638.054 571.754 638.294 569.909 639.498L568.264 640.581 566.299 638.736C563.251 635.888 561.285 635.166 556.713 635.126 553.424 635.126 552.582 635.286 550.696 636.169 547.728 637.532 545.883 639.217 544.439 641.824 543.397 643.749 543.276 644.271 543.276 647.76 543.276 651.129 543.397 651.811 544.359 653.576 545.603 655.942 547.849 658.189 550.095 659.352 555.189 661.959 562.047 661.036 566.179 657.146L568.144 655.341 569.467 656.063C571.794 657.306 571.794 657.587 569.668 659.713 567.261 662.119 563.411 664.044 559.922 664.606 556.913 665.047 555.75 665.047 552.702 664.566Z" fill="#FFFFFF" transform="matrix(1 0 0 1.00118 272 0)"/><path d="M152.414 648.001 152.414 631.717 154.62 631.717 156.826 631.717 156.826 634.324 156.826 636.891 158.551 635.166C161.118 632.639 164.407 631.155 167.976 630.955 172.388 630.754 175.597 632.238 178.124 635.647 180.17 638.455 180.49 640.701 180.49 653.055L180.49 664.205 178.525 664.205 176.6 664.205 176.359 653.095C176.159 641.623 175.958 640.18 174.394 637.853 171.586 633.722 163.885 634.003 159.995 638.455 157.227 641.583 157.067 642.466 156.826 653.777L156.626 664.004 154.54 664.125 152.414 664.245 152.414 648.001Z" fill="#FFFFFF" transform="matrix(1 0 0 1.00118 272 0)"/><path d="M241.857 649.766 241.857 635.326 239.05 635.326 236.242 635.326 236.242 633.521 236.242 631.717 239.05 631.717 241.857 631.717 241.857 625.7 241.857 619.684 244.063 619.684 246.269 619.684 246.269 625.7 246.269 631.717 249.478 631.717 252.687 631.717 252.687 633.521 252.687 635.326 249.478 635.326 246.269 635.326 246.269 649.766 246.269 664.205 244.063 664.205 241.857 664.205 241.857 649.766Z" fill="#FFFFFF" transform="matrix(1 0 0 1.00118 272 0)"/><path d="M269.934 647.961 269.934 631.717 272.139 631.717 274.345 631.717 274.345 633.923 274.345 636.129 276.07 634.243C277.995 632.158 280.282 630.955 282.407 630.914 283.811 630.914 286.378 631.596 286.378 631.957 286.378 632.078 285.977 632.88 285.496 633.762 284.613 635.286 284.493 635.367 283.049 635.126 280.843 634.805 278.276 636.048 276.912 638.094 274.987 641.022 274.666 643.108 274.466 654.097L274.225 664.205 272.099 664.205 269.934 664.205 269.934 647.961Z" fill="#FFFFFF" transform="matrix(1 0 0 1.00118 272 0)"/><path d="M591.487 663.924C591.327 663.804 591.207 656.464 591.207 647.68L591.207 631.717 593.413 631.717 595.619 631.717 595.619 647.961 595.619 664.205 593.693 664.205C592.61 664.205 591.608 664.085 591.487 663.924Z" fill="#FFFFFF" transform="matrix(1 0 0 1.00118 272 0)"/><path d="M627.946 662.32C627.425 661.237 626.101 658.429 624.978 655.983 623.895 653.576 622.211 649.966 621.288 647.961 620.366 645.995 618.842 642.626 617.879 640.541 616.956 638.455 615.633 635.607 614.951 634.243L613.748 631.717 616.074 631.717 618.441 631.717 619.604 634.243C620.245 635.607 622.612 640.741 624.898 645.675 627.184 650.568 629.15 654.499 629.27 654.338 629.39 654.218 631.797 649.124 634.564 643.027L639.618 631.917 641.904 631.797C643.148 631.717 644.15 631.797 644.15 631.957 644.15 632.118 641.343 638.375 637.893 645.915 634.444 653.456 631.155 660.635 630.594 661.919 630.072 663.162 629.471 664.205 629.27 664.205 629.069 664.205 628.508 663.363 627.946 662.32Z" fill="#FFFFFF" transform="matrix(1 0 0 1.00118 272 0)"/><path d="M662.601 647.961 662.601 631.717 664.807 631.717 667.013 631.717 667.013 647.961 667.013 664.205 664.807 664.205 662.601 664.205 662.601 647.961Z" fill="#FFFFFF" transform="matrix(1 0 0 1.00118 272 0)"/><path d="M687.468 641.784 687.468 619.283 689.674 619.283 691.88 619.283 691.8 641.664 691.68 664.004 689.594 664.125 687.468 664.245 687.468 641.784Z" fill="#FFFFFF" transform="matrix(1 0 0 1.00118 272 0)"/><path d="M421.144 624.738C420.382 624.457 419.019 623.895 418.136 623.494 416.291 622.692 414.406 622.893 412.762 624.056 412.12 624.537 411.518 624.898 411.398 624.898 410.917 624.898 409.433 622.05 409.633 621.529 409.994 620.647 413.965 618.882 415.569 618.882 416.412 618.882 418.577 619.443 420.422 620.125 423.952 621.409 425.316 621.449 427.642 620.326 428.324 619.965 428.926 619.684 429.006 619.684 429.086 619.684 429.607 620.366 430.129 621.168L431.172 622.652 429.287 623.855C427.121 625.299 423.471 625.66 421.144 624.738Z" fill="#FFFFFF" transform="matrix(1 0 0 1.00118 272 0)"/><path d="M591.207 624.417C588.038 621.008 592.37 616.435 595.859 619.443 597.343 620.687 597.383 622.812 596.02 624.296 594.776 625.62 592.41 625.7 591.207 624.417Z" fill="#FFFFFF" transform="matrix(1 0 0 1.00118 272 0)"/><path d="M662.24 624.256C660.996 622.692 661.117 620.366 662.44 619.323 664.004 618.12 666.01 618.2 667.253 619.604 668.136 620.486 668.256 620.967 668.095 622.291 667.815 624.296 666.652 625.299 664.606 625.299 663.403 625.299 662.881 625.059 662.24 624.256Z" fill="#FFFFFF" transform="matrix(1 0 0 1.00118 272 0)"/><path d="M523.021 590.003 523.021 587.156 524.545 586.474C528.316 584.749 529.599 582.984 530.161 578.773L530.522 576.366 526.751 576.366 523.021 576.366 523.021 569.347 523.021 562.328 530.842 562.328 538.664 562.328 538.664 569.668C538.664 574.561 538.463 577.77 538.062 579.374 536.498 586.113 532.647 590.404 526.671 592.169 523.021 593.252 523.021 593.252 523.021 590.003Z" fill="#FFFFFF" transform="matrix(1 0 0 1.00118 272 0)"/><path d="M470.679 578.131C458.285 576.687 449.943 572.716 446.052 566.299 444.368 563.612 442.883 559.079 442.723 556.111L442.603 553.705 450.745 553.584 458.847 553.504 458.847 555.028C458.847 557.274 460.932 561.205 463.018 562.93 466.468 565.737 471.602 567.141 478.54 567.141 487.244 567.141 493.381 564.654 495.186 560.363 496.068 558.237 495.908 555.068 494.825 553.464 492.498 550.015 488.487 548.571 475.653 546.645 465.946 545.202 459.809 543.918 456.48 542.554 448.058 539.145 444.327 534.011 444.327 525.869 444.327 514.919 450.986 507.94 464.061 505.133 468.834 504.09 481.99 504.09 487.043 505.093 499.678 507.619 507.138 513.836 509.144 523.462 509.424 524.866 509.585 526.15 509.505 526.35 509.424 526.511 505.814 526.631 501.523 526.631 495.627 526.631 493.661 526.511 493.581 526.11 492.298 521.617 490.332 519.251 486.442 517.406 483.193 515.842 479.302 515.28 473.928 515.481 466.026 515.842 461.213 518.328 460.05 522.62 458.807 527.273 461.374 530.522 467.631 532.206 469.355 532.688 474.85 533.61 479.744 534.252 496.63 536.538 501.723 538.102 506.697 542.675 510.748 546.365 512.553 551.94 511.791 558.237 511.109 563.491 509.464 566.7 505.574 570.27 501.202 574.281 494.544 576.888 486.041 577.971 482.992 578.332 473.487 578.452 470.679 578.131Z" fill="#FFFFFF" transform="matrix(1 0 0 1.00118 272 0)"/><path d="M45.7243 541.271 45.7243 506.135 70.5116 506.256 95.2589 506.376 98.5478 507.499C106.85 510.307 111.262 516.604 111.784 526.43 112.345 537.621 106.369 546.284 96.2215 548.932 94.0957 549.493 90.8469 549.654 77.1296 549.774L60.5646 549.974 60.5646 563.17 60.5646 576.366 53.1444 576.366 45.7243 576.366 45.7243 541.271ZM90.7265 537.781C93.4138 536.899 94.8578 535.696 95.9407 533.53 96.7028 531.966 96.8632 531.043 96.8231 528.035 96.8231 523.904 96.061 521.978 93.6946 519.893 91.0474 517.607 89.6035 517.406 74.322 517.406L60.5646 517.406 60.5646 528.075 60.5646 538.744 74.7231 538.584C86.0739 538.423 89.2024 538.263 90.7265 537.781Z" fill="#FFFFFF" transform="matrix(1 0 0 1.00118 272 0)"/><path d="M122.332 541.271 122.332 506.175 129.753 506.175 137.173 506.175 137.173 541.271 137.173 576.366 129.753 576.366 122.332 576.366 122.332 541.271Z" fill="#FFFFFF" transform="matrix(1 0 0 1.00118 272 0)"/><path d="M151.211 541.271 151.211 506.175 175.597 506.175C190.237 506.175 200.986 506.336 202.55 506.577 208.848 507.579 213.821 510.226 216.348 513.917 218.754 517.446 219.156 518.93 219.156 525.027 219.196 529.8 219.075 530.722 218.233 532.768 217.07 535.776 213.34 539.787 210.572 541.11 209.489 541.632 208.567 542.153 208.567 542.314 208.567 542.434 209.329 542.755 210.211 543.036 212.538 543.758 215.465 546.766 216.508 549.533 217.591 552.461 218.193 556.953 218.193 562.248 218.233 567.181 218.955 571.834 220.118 574.521L220.96 576.366 212.858 576.286 204.756 576.166 204.235 574.561C203.914 573.679 203.513 569.869 203.312 566.058 202.831 556.592 202.149 553.945 199.462 551.418 196.895 548.972 196.494 548.892 180.611 548.771L166.051 548.651 166.051 562.489 166.051 576.366 158.631 576.366 151.211 576.366 151.211 541.271ZM198.259 536.738C201.869 535.495 203.914 532.166 203.914 527.473 203.914 523.904 203.232 522.179 201.147 520.254 198.179 517.526 197.256 517.406 180.611 517.406L166.051 517.406 166.051 527.433 166.051 537.501 181.413 537.38C192.323 537.26 197.176 537.099 198.259 536.738Z" fill="#FFFFFF" transform="matrix(1 0 0 1.00118 272 0)"/><path d="M223.407 576.206C223.407 576.005 230.787 559.28 232.993 554.507 233.795 552.742 238.969 541.151 244.464 528.757L254.492 506.175 263.356 506.175 272.26 506.175 274.225 510.708C281.806 527.754 302.582 574.321 303.064 575.243L303.665 576.366 295.202 576.286 286.739 576.166 285.817 573.96C282.929 566.941 281.124 562.689 280.362 561.004L279.52 559.119 263.035 559.2 246.55 559.32 245.266 562.328C244.585 563.973 242.94 567.823 241.697 570.871L239.37 576.366 231.389 576.366C226.977 576.366 223.407 576.286 223.407 576.206ZM274.747 547.528C274.747 547.167 272.902 542.394 271.538 539.265 271.177 538.383 269.171 533.45 267.126 528.316 265.04 523.222 263.235 519.131 263.075 519.291 262.794 519.572 260.307 525.468 253.569 541.993L251.122 547.889 262.955 547.889C269.893 547.889 274.747 547.728 274.747 547.528Z" fill="#FFFFFF" transform="matrix(1 0 0 1.00118 272 0)"/><path d="M309.641 541.271 309.641 506.175 317.062 506.175 324.482 506.175 324.482 535.455 324.482 564.735 345.74 564.735 366.997 564.735 366.997 570.55 366.997 576.366 338.319 576.366 309.641 576.366 309.641 541.271Z" fill="#FFFFFF" transform="matrix(1 0 0 1.00118 272 0)"/><path d="M375.019 541.271 375.019 506.175 405.702 506.175 436.426 506.175 436.306 511.711 436.185 517.205 413.042 517.326 389.859 517.406 389.859 526.029 389.859 534.653 412.04 534.733 434.18 534.853 434.3 540.348 434.42 545.883 412.24 545.964 390.06 546.084 389.94 555.59 389.859 565.136 413.403 565.216 436.987 565.336 437.108 570.871 437.228 576.366 406.104 576.366 375.019 576.366 375.019 541.271Z" fill="#FFFFFF" transform="matrix(1 0 0 1.00118 272 0)"/><path d="M589.682 560.042 589.803 543.677 593.332 543.557 596.822 543.437 596.822 557.074 596.822 570.751 606.568 570.831 616.275 570.951 616.395 573.679 616.515 576.366 603.039 576.366 589.602 576.366 589.682 560.042Z" fill="#FFFFFF" transform="matrix(1 0 0 1.00118 272 0)"/><path d="M620.165 560.042 620.286 543.677 630.914 543.717C640.661 543.717 641.784 543.798 644.391 544.6 650.929 546.605 653.777 551.258 653.777 559.962 653.777 564.414 652.894 567.823 651.009 570.791 649.565 573.117 647.68 574.561 644.792 575.564 642.787 576.286 641.463 576.366 631.315 576.366L620.085 576.366 620.165 560.042ZM640.821 570.55C643.188 569.828 645.354 567.703 646.196 565.296 646.517 564.414 646.757 562.047 646.757 559.922 646.757 556.552 646.637 555.87 645.634 553.785 644.752 552.02 644.07 551.258 642.626 550.376 640.821 549.333 640.5 549.293 634.043 549.172L627.305 549.012 627.305 560.082 627.305 571.152 633.04 571.152C637.011 571.152 639.417 570.951 640.821 570.55Z" fill="#FFFFFF" transform="matrix(1 0 0 1.00118 272 0)"/><path d="M655.942 575.083C656.223 574.361 659.231 567.622 662.601 560.122 665.97 552.622 668.978 545.803 669.339 545.001L669.94 543.477 673.831 543.477C676.478 543.477 677.882 543.637 678.163 543.998 678.363 544.239 679.567 546.726 680.77 549.493 681.973 552.261 685.102 559.2 687.669 564.935 690.236 570.671 692.442 575.604 692.562 575.885 692.722 576.246 691.84 576.366 688.832 576.366L684.861 576.366 683.217 572.435 681.572 568.545 673.951 568.425 666.291 568.344 665.609 570.029C665.248 570.992 664.486 572.797 663.924 574.08L662.881 576.366 659.151 576.366 655.381 576.366 655.942 575.083ZM678.644 561.245C678.243 560.162 677.04 557.194 675.957 554.587 674.914 552.02 673.951 550.015 673.831 550.175 673.55 550.536 668.617 562.569 668.617 562.93 668.617 563.05 671.064 563.13 674.032 563.13L679.446 563.13 678.644 561.245Z" fill="#FFFFFF" transform="matrix(1 0 0 1.00118 272 0)"/></g></g></g></g></svg>