<?xml version="1.0" encoding="utf-8"?>
<!DOCTYPE svg PUBLIC "-//W3C//DTD SVG 1.0//EN" "http://www.w3.org/TR/2001/REC-SVG-20010904/DTD/svg10.dtd">
<svg version="1.0" xmlns="http://www.w3.org/2000/svg" width="678px" height="678px" viewBox="0 0 678 678" preserveAspectRatio="xMidYMid meet">
 <g fill="#FFFFFF">
  <path d="M67.50 500.70 c0 -16.85 0 -17.20 1 -17.20 0.95 0 1 0.35 1 7.70 l0 7.65 2.15 -2.10 c4.70 -4.70 12.95 -4.10 16 1.15 0.90 1.50 1 2.60 0.95 10.75 -0.05 6.05 -0.20 9.10 -0.55 9.05 -0.30 -0.05 -0.70 -0.10 -0.90 -0.15 -0.25 0 -0.40 -3.70 -0.40 -8.20 0 -6.85 -0.15 -8.35 -0.90 -9.75 -2.40 -4.45 -8.90 -5.20 -13.05 -1.55 -2.60 2.25 -3.30 5 -3.30 12.75 0 6.15 -0.05 6.60 -1 6.85 -1 0.25 -1 0 -1 -16.95z"/>
  <path d="M103 517.45 c-2.15 -0.45 -5 -2.85 -6.45 -5.40 -1 -1.80 -1.15 -2.75 -1.10 -6.40 0.05 -3.65 0.25 -4.70 1.30 -6.45 4.45 -7.60 16.10 -7.50 20.60 0.20 1.20 2.05 1.40 2.90 1.40 6.35 0 4.65 -1.20 7.35 -4.40 9.90 -1.60 1.30 -2.40 1.55 -5.80 1.80 -2.20 0.20 -4.65 0.15 -5.55 0z m8 -2.35 c1.85 -0.90 3.25 -2.05 4.25 -3.50 1.30 -1.90 1.50 -2.65 1.50 -5.50 0 -4.65 -1.75 -7.70 -5.40 -9.40 -1.45 -0.65 -3.25 -1.20 -4.05 -1.20 -6.25 0 -11 5.55 -10.05 11.85 0.65 4.30 2.45 6.55 6.55 8.15 3.25 1.25 3.95 1.20 7.20 -0.40z"/>
  <path d="M126.25 517.70 c-0.30 -0.10 -0.45 -4.55 -0.35 -12.20 0.10 -9.75 0.25 -12 0.80 -12 0.45 0 0.85 0.90 1.05 2.50 0.40 2.80 0.80 3.10 1.65 1.25 1.20 -2.60 7.05 -4.35 11.10 -3.25 2.30 0.60 5.50 3.40 5.50 4.80 0 1.20 0.85 0.75 1.90 -1 1.50 -2.55 4.65 -4 8.60 -4.05 3.95 0 6.25 1.15 7.85 4.05 1.05 1.80 1.15 2.55 1.15 11.15 0 8.15 -0.10 9.10 -0.80 8.85 -0.45 -0.15 -0.90 -0.30 -1 -0.30 -0.10 0 -0.20 -3.75 -0.20 -8.35 0 -9.85 -0.40 -11 -4.35 -12.75 -2.10 -0.90 -2.60 -0.95 -5 -0.40 -3.20 0.70 -5.80 3 -6.65 5.85 -0.35 1.05 -0.70 5.05 -0.80 8.90 -0.15 4.15 -0.40 7 -0.70 6.95 -0.30 -0.05 -0.65 -0.10 -0.85 -0.10 -0.25 -0.05 -0.35 -3.35 -0.25 -7.35 0.20 -8.45 -0.25 -10.60 -2.60 -12.65 -3.25 -2.85 -8.05 -2.50 -11.35 0.85 -2.45 2.45 -3 4.55 -3.25 12.55 -0.20 6.50 -0.35 7.15 -1.45 6.70z"/>
  <path d="M179.25 517.25 c-2.75 -1 -4.65 -2.65 -5.95 -5.40 -3.10 -6.35 -0.95 -13.90 4.85 -17 3.25 -1.70 8.55 -1.50 11.70 0.45 2.85 1.75 4.60 4.90 4.80 8.45 l0.10 2.50 -10.35 0.15 c-7.85 0.10 -10.40 0.25 -10.40 0.75 0 3.70 3.70 7.80 7.85 8.80 2.15 0.55 2.90 0.50 4.90 -0.20 1.35 -0.45 3.05 -1.25 3.90 -1.85 1.15 -0.85 1.55 -0.90 1.85 -0.35 1.60 2.55 -8.45 5.30 -13.25 3.70z m13.55 -14.35 c-1.80 -9 -14.40 -9.90 -18.05 -1.30 -0.40 1.05 -0.75 2.10 -0.75 2.40 0 0.30 3.30 0.50 9.55 0.50 l9.60 0 -0.35 -1.60z"/>
  <path d="M341.50 515.55 c-0.60 -0.25 -0.75 -1.70 -0.75 -8.55 0 -7.85 -0.05 -8.35 -1.20 -10.20 -2.05 -3.25 -6.65 -4.25 -10.85 -2.35 -4.10 1.85 -5.20 4.85 -5.20 14.10 0 6.60 -0.05 6.95 -1 6.95 -1 0 -1 -0.35 -1 -17.20 0 -16.95 0 -17.20 1 -16.95 0.95 0.25 1 0.70 1 7.75 l0 7.45 1.70 -1.75 c2.20 -2.35 4.60 -3.30 8.35 -3.30 3.85 0 6.40 1.30 8 4.15 1.10 1.95 1.15 2.50 1 11.05 -0.05 4.95 -0.15 9.05 -0.20 9.10 -0.05 0.05 -0.45 -0.05 -0.85 -0.25z"/>
  <path d="M379.50 515.60 c-0.65 -0.10 -0.75 -1.75 -0.60 -12.05 0.10 -9.70 0.25 -12 0.85 -12.20 0.50 -0.25 0.75 0.40 1.05 2.50 l0.35 2.75 1.25 -1.60 c3.75 -4.80 13.45 -4.70 16.40 0.15 0.80 1.40 1 2.90 1.20 11 0.25 8.65 0.20 9.35 -0.60 9.35 -0.80 0 -0.90 -0.65 -0.90 -7.05 0 -8.40 -0.50 -10.80 -2.75 -12.95 -3.20 -3.10 -9.75 -2.40 -12.55 1.30 -1.75 2.30 -2.20 4.35 -2.60 12.20 -0.30 5.65 -0.50 6.75 -1.10 6.60z"/>
  <path d="M241.50 498.30 c0 -16.95 0 -17.20 1 -16.95 0.95 0.25 1 0.70 1 12.10 l0 11.80 6.90 -6.90 c5.75 -5.70 7.10 -6.85 8.35 -6.85 1.40 0 1.30 0.15 -2.90 4.40 -2.40 2.40 -4.35 4.65 -4.35 4.95 0 0.60 5.70 9 8.60 12.80 l1.50 1.85 -1.45 0 c-1.30 0 -1.90 -0.70 -5.60 -6 -2.30 -3.30 -4.40 -6.15 -4.65 -6.35 -0.30 -0.15 -1.85 1.05 -3.45 2.65 l-2.95 2.90 0 3.40 c0 3.05 -0.10 3.40 -1 3.40 -1 0 -1 -0.35 -1 -17.20z"/>
  <path d="M266.75 503.50 c0 -11.10 0.05 -12 0.90 -12 0.80 0 0.85 0.90 0.85 12 0 11.10 -0.05 12 -0.85 12 -0.85 0 -0.90 -0.90 -0.90 -12z"/>
  <path d="M281.60 515.15 c-1.70 -0.70 -2.10 -2.95 -2.10 -12.40 0 -7.90 -0.10 -9.25 -0.75 -9.25 -0.40 0 -0.75 -0.20 -0.75 -0.50 0 -0.25 0.35 -0.50 0.75 -0.50 0.60 0 0.75 -0.70 0.75 -3.25 0 -1.80 0.10 -3.25 0.20 -3.25 1.25 0 1.55 0.75 1.40 3.30 -0.20 2.45 -0.10 2.80 0.85 3.05 1.35 0.35 1.35 1.15 0.05 1.15 -0.95 0 -1 0.35 -1 8.15 0 6.70 0.15 8.40 0.90 9.85 0.80 1.60 1 1.75 3.10 1.75 1.25 0 2.75 -0.20 3.40 -0.40 1.65 -0.60 1.50 1.30 -0.15 2.05 -1.30 0.60 -5.45 0.75 -6.65 0.25z"/>
  <path d="M299.25 514.65 c-5.35 -2.80 -7.80 -8.80 -6.05 -14.85 1.60 -5.40 5.50 -8.25 11.35 -8.30 4.75 0 10.20 2.85 8 4.25 -0.25 0.15 -1.55 -0.30 -2.85 -1 -6.15 -3.30 -13.25 -0.20 -14.70 6.40 -2.15 9.50 8.25 16.35 15.90 10.55 1.25 -1 1.85 -1.15 2.25 -0.75 0.85 0.85 -0.10 2.05 -2.65 3.40 -2.65 1.40 -8.85 1.60 -11.25 0.30z"/>
  <path d="M354.95 514.35 c-2.50 -1.30 -4.80 -4.30 -5.40 -6.90 -0.25 -1 -0.25 -3.45 -0.10 -5.55 0.40 -4.75 1.95 -7.25 5.70 -9.15 3.25 -1.60 7.95 -1.75 10.80 -0.30 3.45 1.80 5.70 5.20 6.05 9.30 0.25 2.30 0.50 2.25 -10.50 2.25 -5.75 0 -10.50 0.15 -10.50 0.40 0 1.15 1.25 4.55 2.15 5.80 1.20 1.65 5.45 3.80 7.65 3.80 2.15 0 5.70 -1.30 7.05 -2.60 0.90 -0.85 1.30 -0.95 1.75 -0.50 0.90 0.90 0 2.10 -2.65 3.45 -3.15 1.60 -8.90 1.60 -12 0z m15.55 -12.10 c0 -0.10 -0.45 -1.45 -1.05 -3 -3.20 -8.60 -15.35 -7.80 -17.95 1.20 -0.20 0.80 -0.30 1.60 -0.10 1.75 0.30 0.35 19.10 0.40 19.10 0.05z"/>
  <path d="M440.10 512.40 c-2.95 -1.10 -4.75 -2.95 -6.10 -6.05 -1.55 -3.55 -1.25 -8.75 0.70 -12.05 3.15 -5.40 10.85 -7 16.90 -3.45 3.40 2 1.75 3.20 -1.90 1.35 -3.95 -2 -8.45 -1.55 -11.40 1.20 -5.65 5.30 -3.60 15.35 3.55 17.50 3.10 0.95 4.70 0.75 8.10 -0.95 2.05 -1.05 3.30 -1.40 3.60 -1.10 0.80 0.80 -2.25 3.05 -5.20 3.90 -3.10 0.90 -5.20 0.80 -8.25 -0.35z"/>
  <path d="M467.15 513 c-3.30 -0.50 -6.65 -2.85 -8.10 -5.75 -1.75 -3.35 -1.80 -8.95 -0.20 -12.10 3.65 -6.80 13.20 -8.35 18.90 -3.10 2.55 2.35 3.75 5.35 3.75 9.30 0 7.85 -6.20 12.90 -14.35 11.65z m6.90 -2.85 c2.25 -1.15 2.95 -1.85 4.10 -4.10 3.60 -7.20 -0.90 -15.05 -8.65 -15.05 -4.35 0 -8 2.70 -9.45 6.95 -2.10 6.40 2.95 13.45 9.75 13.55 0.85 0 2.75 -0.60 4.25 -1.35z"/>
  <path d="M508.25 512.90 c-0.10 -0.35 -0.25 -4.30 -0.35 -8.75 -0.15 -7.25 -0.25 -8.20 -1.20 -9.45 -1.95 -2.70 -3.55 -3.45 -6.85 -3.45 -4.10 0 -6.30 1.35 -8.05 4.85 -1.20 2.45 -1.30 3.05 -1.30 9.75 0 6.80 -0.05 7.15 -1 7.15 -0.95 0 -1 -0.35 -1 -11.75 0 -11.40 0.05 -11.75 1 -11.75 0.85 0 1 0.35 1 2.25 l0 2.25 1.95 -1.95 c3.25 -3.25 8.60 -4.05 12.85 -2 2.65 1.25 4.05 3.60 4.25 7.20 0.30 5.50 -0.05 16.25 -0.55 16.25 -0.30 0 -0.60 -0.30 -0.75 -0.60z"/>
  <path d="M522.75 513 c-0.55 -0.20 -1.45 -0.90 -2 -1.50 -0.90 -1 -1 -1.95 -1.15 -10.55 l-0.15 -9.45 -1.75 0 c-1.35 0 -1.70 -0.20 -1.70 -1 0 -0.80 0.35 -1 1.75 -1 l1.75 0 0 -3 c0 -2.65 0.10 -3 1 -3 0.90 0 1 0.35 1 3 l0 3 4 0 c3.65 0 4 0.10 4 1 0 0.90 -0.35 1 -4 1 l-4 0 0 8.65 c0 9.35 0.25 10.45 2.75 11.05 0.70 0.20 2.05 0 3.10 -0.45 1.45 -0.60 1.90 -0.65 2.25 -0.15 0.60 1 0.50 1.20 -0.90 1.85 -1.75 0.75 -4.70 1.05 -5.95 0.55z"/>
  <path d="M536.25 512.90 c-0.40 -1.10 -0.50 -23.40 -0.10 -23.50 1.20 -0.20 1.60 -0.05 1.65 0.85 0.10 2.65 0.25 3.25 0.65 3.25 0.25 0 0.60 -0.40 0.75 -0.85 0.70 -2.20 7.80 -4.90 7.80 -3 0 0.95 -1.50 1.85 -3.05 1.85 -1.50 0 -4.70 3.40 -5.45 5.75 -0.35 1.10 -0.70 5.20 -0.85 9.15 -0.25 6.30 -0.70 8.40 -1.40 6.50z"/>
  <path d="M554.15 512.90 c-3.85 -0.80 -6.40 -4.90 -5.20 -8.55 1.25 -3.65 4 -4.80 12 -4.85 l5.70 0 -0.30 -2.30 c-0.65 -5.90 -6.30 -8.15 -12.50 -5 -2.70 1.40 -4.05 1.40 -3.55 0.10 0.15 -0.40 1.65 -1.30 3.30 -2.05 5.95 -2.65 12.20 -1.20 14 3.25 0.30 0.70 0.65 5.30 0.75 10.30 0.25 8.90 0.25 9.05 -0.80 9.35 -0.95 0.25 -1.05 0.05 -1.05 -1.70 0 -2.25 -0.40 -2.40 -2 -0.70 -1.85 2 -6.45 2.95 -10.35 2.15z m6.75 -2.15 c3.50 -1.50 5.60 -4.30 5.60 -7.50 l0 -1.85 -6.20 0.20 c-5.40 0.15 -6.40 0.30 -7.65 1.20 -2.90 2.15 -2.55 5.30 0.80 7.55 2 1.35 4.75 1.50 7.45 0.40z"/>
  <path d="M583.85 512.95 c-3.25 -0.50 -6 -2.40 -7.70 -5.30 -1.20 -2.10 -1.40 -2.90 -1.40 -6.40 0 -4.60 1.05 -7.05 3.95 -9.65 2.80 -2.45 7.55 -3.30 11.90 -2.05 2.45 0.65 4.85 2.65 4.10 3.45 -0.40 0.40 -1.25 0.20 -3.25 -0.75 -7.95 -3.65 -15.90 1.80 -14.75 10.20 1.05 7.70 9.50 11.45 15.90 7 1.55 -1.15 2.90 -1.25 2.90 -0.25 0 0.80 -2.15 2.50 -4.15 3.25 -1.95 0.75 -4.80 0.95 -7.50 0.50z"/>
  <path d="M607.95 513.15 c-2.45 -0.35 -3.65 -2.35 -3.50 -5.75 0.10 -2 0.75 -1.70 1.60 0.75 1.05 2.90 2.80 3.75 5.55 2.65 2.10 -0.80 2.90 -0.70 2.90 0.40 0 1.15 -4 2.30 -6.55 1.95z"/>
  <path d="M604.50 492.50 c0 -0.85 -0.35 -1 -2 -1 -1.65 0 -2 -0.15 -2 -1 0 -0.85 0.35 -1 2 -1 1.45 0 2 -0.20 2 -0.75 0 -0.40 0.25 -0.75 0.50 -0.75 0.30 0 0.50 0.35 0.50 0.75 0 0.60 0.80 0.75 4.25 0.75 3.90 0 4.25 0.10 4.25 1 0 0.90 -0.35 1 -4.05 1 -3.60 0 -4.05 0.10 -4.30 1 -0.15 0.55 -0.45 1 -0.70 1 -0.25 0 -0.45 -0.45 -0.45 -1z"/>
  <path d="M266.90 485.95 c-1.95 -1.10 -0.25 -3.95 1.70 -2.90 1.05 0.55 1.20 1.95 0.30 2.85 -0.70 0.70 -0.90 0.70 -2 0.05z"/>
  <path d="M476.50 461.25 c0 -1.40 0.20 -1.75 1 -1.75 0.55 0 1 0.35 1 0.75 0 0.45 0.45 0.75 1.25 0.75 1.20 0 1.25 -0.10 1.25 -3.25 0 -3.15 -0.05 -3.25 -1.25 -3.25 -0.70 0 -1.25 0.25 -1.25 0.50 0 0.30 -0.45 0.50 -1 0.50 -0.80 0 -1 -0.35 -1 -1.50 0 -1.50 0 -1.50 2.95 -1.50 l3 0 0.30 2.65 c0.20 1.45 0.25 3.75 0.15 5.10 l-0.25 2.50 -3.05 0.15 -3.10 0.15 0 -1.80z"/>
  <path d="M481.50 433.65 c-0.65 -0.15 -0.75 -10.65 -0.75 -90.65 0 -84.55 0.05 -90.45 0.85 -90.65 0.45 -0.15 0.95 -0.10 1.10 0.05 0.40 0.35 0.25 179.15 -0.10 180.35 -0.20 0.55 -0.70 0.95 -1.10 0.90z"/>
  <path d="M476.50 431.50 c0 -1.65 0.15 -2 1 -2 0.85 0 1 0.35 1 2 0 1.65 -0.15 2 -1 2 -0.85 0 -1 -0.35 -1 -2z"/>
  <path d="M85.40 384.65 c-0.50 -0.10 -0.90 -0.55 -0.90 -0.95 0 -0.55 1.15 -0.70 6 -0.70 4.80 0 6 0.15 6 0.70 0 0.35 -0.50 0.80 -1.10 1 -1.30 0.35 -8.70 0.30 -10 -0.05z"/>
  <path d="M225.40 384.65 c-0.50 -0.10 -0.90 -0.55 -0.90 -0.95 0 -0.55 1.15 -0.70 6 -0.70 4.80 0 6 0.15 6 0.70 0 0.35 -0.50 0.80 -1.10 1 -1.30 0.35 -8.70 0.30 -10 -0.05z"/>
  <path d="M421.40 384.65 c-0.50 -0.10 -0.90 -0.55 -0.90 -0.95 0 -0.55 1.15 -0.70 6.25 -0.70 5 0 6.25 0.15 6.25 0.70 0 0.35 -0.50 0.80 -1.10 1 -1.30 0.35 -9.20 0.30 -10.50 -0.05z"/>
  <path d="M561.40 384.65 c-0.50 -0.10 -0.90 -0.55 -0.90 -0.95 0 -0.55 1.15 -0.70 6.25 -0.70 5 0 6.25 0.15 6.25 0.70 0 0.35 -0.50 0.80 -1.10 1 -1.30 0.35 -9.20 0.30 -10.50 -0.05z"/>
  <path d="M77.45 383.75 c-24.90 -4.95 -45.55 -24.50 -51.65 -48.90 -3.40 -13.50 -2.90 -25.65 1.60 -38.85 6.85 -20.05 24.80 -37.05 44.85 -42.35 8.75 -2.30 11.75 -2.60 11.75 -1.25 0 0.75 -0.70 1.05 -3.85 1.50 -6.85 1.10 -15.30 4.35 -23.90 9.20 -1.10 0.65 -2.20 1.40 -2.50 1.70 -1.75 1.75 -5.35 4.20 -6.20 4.20 -0.70 0 -1.05 0.30 -1.05 0.95 0 0.50 -0.90 1.75 -2 2.75 -1.10 1 -2 1.95 -2 2.15 0 0.25 -1.15 1.60 -2.50 3.10 -1.40 1.45 -2.50 2.85 -2.50 3.10 0 0.25 -0.40 0.85 -0.85 1.35 -1.30 1.25 -6.45 11.80 -7.90 16.10 -3.05 9 -3.95 19.60 -2.45 28.90 0.80 5.10 5.10 18.65 6.25 19.60 0.15 0.15 0.95 1.50 1.75 3 0.80 1.50 1.85 3.15 2.35 3.70 0.45 0.55 0.85 1.25 0.85 1.60 0 0.30 0.35 0.70 0.75 0.90 0.40 0.15 0.75 0.55 0.75 0.90 0 0.35 0.45 0.95 1 1.30 0.55 0.35 1 1.05 1 1.60 0 0.55 0.30 1 0.65 1 0.95 0 5.85 5.15 5.85 6.15 0 0.55 0.40 0.85 1.15 0.85 0.65 0 2 0.80 3.05 1.75 1.05 0.95 2.05 1.75 2.20 1.75 0.30 0 5.25 3.10 5.60 3.50 0.45 0.55 9.65 4.35 13 5.40 1.80 0.55 4.90 1.30 6.90 1.65 2.85 0.55 3.60 0.85 3.60 1.55 0 1.05 -0.85 1.10 -5.55 0.15z"/>
  <path d="M98 383.65 c0 -0.75 0.90 -1.05 4.45 -1.75 2.45 -0.50 5.55 -1.25 6.85 -1.70 3.55 -1.15 12.85 -5.30 13.60 -6.05 0.35 -0.35 1 -0.65 1.40 -0.65 0.40 0 0.70 -0.20 0.70 -0.40 0 -0.25 0.60 -0.75 1.35 -1.15 0.75 -0.40 2 -1.30 2.85 -2.05 0.85 -0.80 1.85 -1.40 2.30 -1.40 0.40 0 1 -0.50 1.25 -1.10 0.40 -0.90 1 -1.20 2.50 -1.30 l2 -0.10 -2.25 2.05 c-8 7.35 -19.50 13.20 -30.35 15.40 -6.15 1.25 -6.65 1.30 -6.65 0.20z"/>
  <path d="M216 383.45 c-5.75 -1.20 -13.40 -4.15 -18.75 -7.20 -4.05 -2.30 -10.30 -6.85 -12 -8.75 -0.90 -1 -0.90 -1 0.90 -1 1.30 0 2.05 0.30 2.45 1 0.35 0.55 0.80 1 1 1 0.20 0 2 1.20 4.05 2.65 7.05 5.10 17.15 9.40 25.50 10.90 2.70 0.50 3.35 0.80 3.35 1.55 0 1.10 -0.45 1.10 -6.50 -0.15z"/>
  <path d="M238 383.65 c0 -0.75 0.90 -1.10 4.65 -1.80 2.50 -0.50 6.65 -1.70 9.10 -2.70 2.50 -0.95 5.10 -1.85 5.90 -2 0.75 -0.15 1.35 -0.45 1.35 -0.70 0 -0.25 0.35 -0.45 0.75 -0.45 0.40 0 0.75 -0.20 0.75 -0.45 0 -0.25 0.75 -0.70 1.65 -1.10 0.85 -0.35 1.70 -0.80 1.85 -0.95 0.50 -0.60 5.50 -4 5.90 -4 0.20 0 0.65 -0.45 1 -1 0.35 -0.55 1.05 -1 1.60 -1 0.55 0 1 -0.30 1 -0.65 0 -0.95 4.65 -5.35 5.65 -5.35 0.55 0 0.85 -0.40 0.85 -1.25 0 -0.70 0.45 -1.50 1 -1.85 0.55 -0.35 1 -0.95 1 -1.30 0 -0.35 0.35 -0.75 0.75 -0.90 0.40 -0.20 0.75 -0.60 0.75 -0.90 0 -0.35 0.45 -1.10 1 -1.70 0.55 -0.60 1 -1.30 1 -1.55 0 -0.25 0.30 -0.80 0.65 -1.15 1.05 -1.15 5.25 -10.50 6.55 -14.75 4.90 -15.85 3.25 -32 -4.85 -47.85 -1.45 -2.80 -2.85 -5.25 -3.15 -5.55 -0.90 -0.85 -3.20 -4.15 -3.20 -4.60 0 -0.20 -0.45 -0.70 -1 -1.05 -0.65 -0.40 -1 -1.15 -1 -2.10 0 -1.25 -0.20 -1.50 -1.15 -1.50 -1.45 0 -3.35 -1.95 -3.35 -3.40 0 -0.80 -0.35 -1.05 -1.60 -1.20 -1.15 -0.10 -1.80 -0.50 -2.15 -1.25 -0.25 -0.65 -0.90 -1.15 -1.35 -1.15 -0.50 0 -0.90 -0.20 -0.90 -0.50 0 -0.25 -0.35 -0.50 -0.75 -0.50 -0.45 0 -0.90 -0.30 -1.05 -0.70 -0.15 -0.40 -0.75 -0.85 -1.35 -1 -0.65 -0.15 -1.55 -0.65 -2.10 -1.15 -1.45 -1.35 -10.35 -5.35 -15.25 -6.90 -2.35 -0.75 -6.10 -1.60 -8.35 -1.90 -3.45 -0.45 -4.15 -0.75 -4.15 -1.45 0 -1.10 1.90 -1.20 6.50 -0.20 11.45 2.45 19.30 5.90 27.90 12.25 14.50 10.75 23.80 26.60 26.35 45 0.95 6.55 0.95 9.95 0 16.85 -1.85 14 -6.85 25.15 -16 35.85 -9.25 10.75 -23.45 18.95 -37.60 21.65 -4.75 0.90 -5.15 0.90 -5.15 -0.15z"/>
  <path d="M411.75 383.25 c-10.80 -2.50 -21.40 -8 -29.25 -15.20 l-2.75 -2.50 1.80 -0.05 c1.80 0 3.45 1.15 3.45 2.40 0 0.35 0.45 0.60 1 0.60 0.55 0 1.25 0.45 1.60 1 0.35 0.55 0.90 1 1.25 1 0.35 0 0.65 0.25 0.65 0.50 0 0.30 0.35 0.50 0.75 0.50 0.40 0 0.75 0.15 0.75 0.40 0 0.20 0.70 0.65 1.50 1 0.85 0.40 1.80 0.95 2.15 1.30 2.15 2.05 16.85 7.40 22.25 8.10 2.10 0.25 2.60 0.50 2.60 1.25 0 1.25 -1.40 1.20 -7.75 -0.30z"/>
  <path d="M434 383.60 c0 -0.70 0.70 -1 3.65 -1.45 2 -0.30 6 -1.40 8.85 -2.40 5.75 -2.05 9 -2.70 9 -1.80 0 1.20 -8.25 4.25 -15.65 5.80 -4.75 1 -5.85 0.95 -5.85 -0.15z"/>
  <path d="M555.50 384.15 c-11.20 -1.85 -22.85 -7.35 -32 -15.05 -13.40 -11.35 -21 -25.60 -23.30 -44 -0.80 -6.20 -0.80 -7.65 -0.25 -12.45 1.25 -10.65 3.05 -16.80 7.10 -24.90 2.75 -5.40 6.95 -11.60 9.75 -14.30 l1.70 -1.65 0 1.80 c0 1.40 -0.35 2.10 -1.50 3.05 -0.80 0.70 -1.50 1.55 -1.50 1.85 0 0.30 -0.35 0.65 -0.75 0.80 -0.40 0.20 -0.75 0.50 -0.75 0.75 0 0.85 -3.75 6.40 -4.35 6.45 -0.35 0 -0.65 0.55 -0.65 1.20 0 0.65 -0.15 1.30 -0.35 1.40 -0.25 0.10 -0.80 1.30 -1.35 2.65 -4.60 12.45 -5.50 16.75 -5.55 26 0 7.40 0.55 11.30 2.60 18.25 1.25 4.35 5.35 13.70 6.50 14.90 0.35 0.35 0.65 1 0.65 1.40 0 0.40 0.25 0.70 0.50 0.70 0.30 0 0.80 0.60 1.15 1.40 0.30 0.75 0.85 1.55 1.20 1.75 0.35 0.20 0.65 0.65 0.65 0.95 0 0.25 0.55 0.95 1.25 1.50 0.70 0.55 1.25 1.50 1.25 2.20 0 0.80 0.30 1.20 0.90 1.20 1.25 0 4.10 3.05 4.10 4.40 0 0.90 0.30 1.10 1.55 1.10 1.10 0 1.60 0.25 1.80 1 0.15 0.55 0.70 1 1.20 1 0.50 0 1.10 0.30 1.30 0.65 0.20 0.30 1 0.90 1.75 1.30 0.75 0.40 1.80 1.10 2.30 1.55 0.50 0.50 1.40 1.05 2 1.20 0.60 0.20 1.40 0.65 1.70 1 1.95 1.95 18.40 7.30 22.40 7.30 1.15 0 1.50 0.25 1.50 1 0 1.05 -1.20 1.20 -4.50 0.65z"/>
  <path d="M574 383.70 c0 -0.80 0.75 -1.10 4.50 -1.80 2.45 -0.50 5.90 -1.35 7.60 -1.95 3.70 -1.20 12.85 -5.40 13.80 -6.30 0.35 -0.35 1 -0.65 1.40 -0.65 0.40 0 0.70 -0.20 0.70 -0.40 0 -0.45 4.30 -3.60 4.90 -3.60 0.20 0 0.65 -0.45 1 -1 0.45 -0.70 1.15 -1 2.50 -1 l1.85 0.05 -2.25 2.05 c-8 7.30 -22.35 13.80 -33.60 15.20 -2.10 0.25 -2.40 0.20 -2.40 -0.60z"/>
  <path d="M174.50 382.25 c0 -1.40 0.20 -1.75 1 -1.75 0.55 0 1 0.35 1 0.75 0 0.45 0.45 0.75 1.25 0.75 l1.25 0 0 -10.25 0 -10.25 1.75 0 c1.65 0 1.75 0.10 1.75 1.60 0 1.25 -0.15 1.45 -0.60 1 -0.35 -0.35 -0.70 -0.60 -0.85 -0.60 -0.20 0 -0.30 4.55 -0.30 10.10 l0 10.15 -3.10 0.15 -3.15 0.15 0 -1.80z"/>
  <path d="M313.85 383.65 c-0.20 -0.15 -0.35 -41 -0.35 -90.75 0 -90 0 -90.40 1 -90.40 1 0 1 0.40 1 89.75 l0 89.75 1.25 0 c0.80 0 1.25 -0.30 1.25 -0.75 0 -0.40 0.45 -0.75 1 -0.75 0.80 0 1 0.35 1 1.75 l0 1.75 -2.90 0 c-1.60 0 -3.10 -0.15 -3.25 -0.35z"/>
  <path d="M336.80 383.60 c-0.15 -0.30 -0.25 -34.55 -0.15 -76.15 l0.10 -75.70 2.15 -0.15 c1.85 -0.15 2.10 -0.05 2.10 0.85 0 0.80 -0.30 1.05 -1.25 1.05 l-1.25 0 0 74.25 0 74.25 1.50 0 1.50 0 0 -75.30 c0 -71.40 0.05 -75.25 0.90 -75.10 0.80 0.15 0.85 4.20 0.85 76.15 l0 76 -3.10 0.15 c-1.70 0.10 -3.20 -0.05 -3.35 -0.30z"/>
  <path d="M80.80 379.70 c-2.45 -0.35 -6.15 -1.15 -8.25 -1.70 -4 -1.10 -14.55 -5.85 -14.55 -6.60 0 -0.20 -0.35 -0.40 -0.75 -0.40 -0.40 0 -1.20 -0.45 -1.75 -1 -0.55 -0.55 -1.25 -1 -1.50 -1 -0.30 0 -0.65 -0.30 -0.80 -0.70 -0.15 -0.40 -0.70 -0.80 -1.25 -0.95 -0.50 -0.15 -0.95 -0.60 -0.95 -1.05 0 -0.45 -0.40 -0.80 -0.85 -0.80 -1.30 0 -6.65 -5.50 -6.65 -6.85 0 -0.80 -0.30 -1.15 -1 -1.15 -0.55 0 -1.15 -0.35 -1.35 -0.80 -0.15 -0.45 -0.85 -1.40 -1.45 -2.10 -0.65 -0.70 -1.20 -1.55 -1.20 -1.90 0 -0.40 -0.20 -0.70 -0.45 -0.70 -0.85 0 -5.50 -9.80 -7 -14.85 -2.40 -8.10 -3.35 -17.15 -1.80 -17.15 0.40 0 0.75 0.30 0.80 0.65 0.35 4.50 0.60 6.15 1.25 9.35 3.70 18 15.75 33.75 32.20 42 8.40 4.20 17.50 6.50 25.80 6.50 4.35 0 4.70 0.05 4.70 1 0 0.95 -0.30 1 -4.35 0.95 -2.45 -0.05 -6.40 -0.35 -8.85 -0.75z"/>
  <path d="M227.50 379.55 c0 -1 0.25 -1.05 4.45 -1.05 13.90 0 29.10 -6.35 39.90 -16.60 6.70 -6.45 11.70 -13.75 14.95 -22 1.65 -4.15 3.70 -12.70 3.75 -15.75 0.05 -3.65 0.45 -5.15 1.30 -5.15 0.70 0 0.75 0.65 0.50 5.15 -0.40 5.60 -1.60 11.25 -3.60 16.50 -1.40 3.75 -3.65 8.45 -4.25 8.85 -0.20 0.15 -0.50 0.75 -0.70 1.40 -0.20 0.60 -0.60 1.10 -0.85 1.10 -0.25 0 -0.45 0.25 -0.45 0.55 0 1.15 -3.10 4.95 -4 4.95 -0.70 0 -1 0.35 -1 1.10 0 1.35 -5.30 6.90 -6.55 6.90 -0.45 0 -0.95 0.45 -1.10 1.05 -0.15 0.55 -0.75 1.15 -1.30 1.30 -0.60 0.15 -1.05 0.45 -1.05 0.70 0 0.25 -0.35 0.45 -0.75 0.45 -0.40 0 -0.75 0.20 -0.75 0.45 0 0.45 -5.50 3.80 -8.60 5.25 -7.15 3.25 -15.55 5.25 -24.25 5.65 -5.55 0.30 -5.65 0.30 -5.65 -0.80z"/>
  <path d="M417.25 379.75 c-6.30 -1 -14.75 -3.50 -14.75 -4.35 0 -0.20 -0.50 -0.40 -1.15 -0.40 -1.20 0 -9 -4.20 -9.25 -5 -0.10 -0.30 -0.50 -0.50 -0.85 -0.50 -0.35 0 -1.35 -0.65 -2.25 -1.50 -0.90 -0.80 -1.80 -1.50 -2 -1.50 -0.80 0 -1.55 -1.50 -1.40 -2.70 0.15 -1.25 0.20 -1.20 3.65 1.50 22 17.15 51.55 17.70 73.65 1.25 4.40 -3.30 12.15 -11.25 13.15 -13.50 0.40 -0.85 1 -1.55 1.30 -1.55 0.95 0 0.85 3.45 -0.10 3.80 -0.40 0.20 -0.75 0.65 -0.75 1 0 0.40 -0.35 0.85 -0.75 1 -0.40 0.20 -0.75 0.55 -0.75 0.85 0 0.75 -7.05 7.85 -7.80 7.85 -0.35 0 -0.70 0.35 -0.90 0.75 -0.15 0.40 -0.50 0.75 -0.75 0.75 -0.30 0 -1.05 0.55 -1.75 1.25 -0.70 0.70 -1.60 1.25 -2.05 1.25 -0.40 0 -0.75 0.25 -0.75 0.50 0 0.30 -0.35 0.50 -0.75 0.50 -0.40 0 -0.75 0.20 -0.75 0.45 0 0.80 -9.05 4.90 -13.75 6.30 -9.20 2.65 -19.70 3.40 -28.50 2z"/>
  <path d="M556.75 379.70 c-7.20 -1.10 -18.75 -4.95 -18.75 -6.25 0 -0.25 -0.40 -0.45 -0.90 -0.45 -0.95 0 -6.85 -3.55 -7.85 -4.65 -0.30 -0.35 -0.95 -0.85 -1.50 -1.15 -0.55 -0.30 -1.05 -1.05 -1.15 -1.65 -0.10 -0.70 -0.55 -1.05 -1.25 -1.05 -1.45 0 -5.35 -3.90 -5.35 -5.35 0 -0.85 -0.30 -1.15 -1.05 -1.15 -0.60 0 -1.15 -0.40 -1.30 -0.95 -0.15 -0.55 -0.55 -1.10 -0.95 -1.25 -0.40 -0.15 -0.70 -0.60 -0.70 -1.05 0 -0.40 -0.20 -0.75 -0.50 -0.75 -0.25 0 -0.50 -0.35 -0.50 -0.75 0 -0.40 -0.20 -0.75 -0.50 -0.75 -0.25 0 -0.50 -0.35 -0.50 -0.75 0 -0.40 -0.20 -0.75 -0.50 -0.75 -0.25 0 -0.60 -0.55 -0.80 -1.25 -0.15 -0.70 -0.50 -1.25 -0.70 -1.25 -0.70 0 -4.60 -9.75 -5.80 -14.75 -1.70 -6.80 -2.20 -19.85 -1 -26.50 0.95 -5.40 2.80 -11.75 3.35 -11.75 0.25 0 0.45 -0.50 0.45 -1.05 0 -1.40 5.20 -11.40 6.90 -13.30 0.75 -0.85 1.60 -1.95 1.90 -2.45 0.30 -0.55 1.25 -1 2.15 -1.10 1.40 -0.15 1.55 -0.35 1.55 -1.80 0 -1.95 1.30 -3.30 3.15 -3.30 1 0 1.30 -0.25 1.45 -1.30 0.10 -0.75 0.55 -1.60 1.10 -1.90 0.50 -0.30 1.45 -1.05 2.10 -1.65 0.65 -0.65 1.50 -1.15 1.85 -1.15 0.40 0 0.85 -0.30 1 -0.60 0.30 -0.90 7.95 -4.90 9.30 -4.90 0.55 0 1.05 -0.20 1.05 -0.50 0 -1.10 11.60 -3.95 19.65 -4.75 3.10 -0.35 3.35 -0.30 3.35 0.60 0 0.85 -0.45 1.05 -3.35 1.30 -27.65 2.35 -50.20 22.90 -55.15 50.30 -0.75 4.10 -0.75 15.95 0 20.05 3.35 19.20 15.85 35.80 33.45 44.50 7.55 3.70 16.95 6 24.85 6 4.35 0 4.70 0.05 4.70 1 0 0.95 -0.30 1 -4.35 0.95 -2.45 -0.05 -6.40 -0.35 -8.90 -0.75z"/>
  <path d="M96 379.35 c0 -0.75 0.60 -0.95 4.75 -1.65 9.40 -1.50 18.60 -5.60 26.80 -11.90 4.05 -3.15 4.20 -3.20 4.35 -2 0.15 1.20 -0.60 2.70 -1.40 2.70 -0.20 0 -1.25 0.80 -2.30 1.75 -1.05 0.95 -2.35 1.90 -2.90 2.05 -0.55 0.20 -1.30 0.65 -1.70 1 -0.35 0.40 -1 0.70 -1.40 0.70 -0.40 0 -0.70 0.20 -0.70 0.45 0 0.75 -8.90 4.40 -13.90 5.75 -2.60 0.70 -6.25 1.40 -8.15 1.60 -2.95 0.30 -3.45 0.20 -3.45 -0.45z"/>
  <path d="M216.90 379 c-2.40 -0.50 -5.55 -1.30 -7 -1.75 -3.70 -1.20 -12.90 -5.65 -12.90 -6.25 0 -0.30 -0.35 -0.50 -0.75 -0.50 -0.40 0 -1.15 -0.40 -1.65 -0.90 -0.50 -0.50 -1.30 -1.05 -1.75 -1.25 -0.45 -0.15 -0.85 -0.65 -0.85 -1.10 0 -0.40 -0.40 -0.75 -0.95 -0.75 -1.30 0 -2.15 -1.20 -1.95 -2.75 l0.15 -1.30 2.50 2.10 c8.10 6.80 17.90 11.20 29.90 13.50 1.90 0.35 2.85 0.75 2.85 1.25 0 0.95 -2.15 0.85 -7.60 -0.30z"/>
  <path d="M572.50 379.30 c0 -0.50 0.95 -0.90 2.90 -1.25 11.95 -2.30 21.50 -6.60 30.50 -13.90 l1.70 -1.35 -0.20 1.70 c-0.10 1 -0.55 1.85 -1.15 2.20 -0.55 0.30 -1.20 0.85 -1.40 1.20 -0.20 0.30 -0.60 0.60 -0.85 0.60 -0.30 0 -0.95 0.45 -1.50 1 -0.55 0.55 -1.35 1 -1.75 1 -0.40 0 -0.75 0.25 -0.75 0.50 0 0.30 -0.30 0.50 -0.70 0.50 -0.40 0 -0.80 0.20 -0.90 0.45 -0.05 0.25 -1.70 1.20 -3.65 2.20 -7.80 3.90 -22.25 7.25 -22.25 5.15z"/>
  <path d="M457 376.40 c0 -0.90 0.70 -1.50 2.90 -2.65 1.55 -0.80 3.10 -1.75 3.35 -2.05 1.40 -1.50 4.75 -3.70 5.70 -3.70 0.65 0 1.05 -0.30 1.05 -0.90 0 -0.50 1.10 -1.95 2.40 -3.25 2 -1.95 2.70 -2.35 4.25 -2.35 l1.85 0 0 3.25 c0 2.90 -0.10 3.25 -1 3.25 -0.85 0 -1 -0.35 -1 -2.30 l0 -2.25 -4 3.65 c-4.50 4.05 -9.05 7.35 -12.60 9.20 -2.90 1.45 -2.90 1.45 -2.90 0.10z"/>
  <path d="M376.45 362 c-7.65 -8.85 -12.80 -19.30 -15.15 -30.70 -1.05 -5.05 -1.05 -6.30 0.15 -6.30 0.75 0 0.95 0.50 1.25 2.90 0.30 2.70 1.65 8 2.90 11.35 1.05 2.90 4.65 10.50 5.20 11.10 0.35 0.35 0.90 1.30 1.30 2.15 0.35 0.80 0.80 1.50 1 1.50 0.25 0 0.40 0.35 0.40 0.75 0 0.40 0.25 0.75 0.50 0.75 0.30 0 0.50 0.30 0.50 0.70 0 0.40 0.35 0.80 0.75 1 0.40 0.15 0.75 0.85 0.75 1.55 0 0.90 0.25 1.25 0.90 1.25 1.50 0 2.70 1.70 2.50 3.55 l-0.15 1.65 -2.80 -3.20z"/>
  <path d="M138.50 362.90 c0 -1.35 0.30 -2.05 1.25 -2.80 0.70 -0.55 1.25 -1.25 1.25 -1.55 0 -0.30 0.45 -0.80 1 -1.15 0.55 -0.35 1 -0.90 1 -1.25 0 -0.35 0.35 -0.65 0.75 -0.65 0.40 0 0.75 -0.35 0.75 -0.80 0 -0.45 0.80 -2.15 1.75 -3.75 4.10 -6.70 7.55 -16 8.75 -23.45 1.35 -8.80 0.20 -21.35 -2.75 -29.55 -0.75 -2.05 -1.45 -4.15 -1.60 -4.70 -0.20 -0.55 -0.45 -1.10 -0.60 -1.25 -0.20 -0.15 -0.85 -1.50 -1.55 -3 -0.70 -1.50 -1.55 -3.05 -1.85 -3.40 -0.35 -0.35 -0.65 -1 -0.65 -1.40 0 -0.40 -0.20 -0.70 -0.50 -0.70 -0.25 0 -0.50 -0.35 -0.50 -0.75 0 -0.40 -0.20 -0.75 -0.50 -0.75 -0.25 0 -0.50 -0.30 -0.50 -0.70 0 -0.40 -0.35 -0.80 -0.75 -1 -0.40 -0.15 -0.75 -0.55 -0.75 -0.90 0 -0.35 -0.45 -0.95 -1 -1.30 -0.55 -0.35 -1 -1.05 -1 -1.60 0 -0.55 -0.30 -1 -0.65 -1 -0.35 0 -2.30 -1.70 -4.30 -3.75 -2 -2.05 -3.85 -3.75 -4.10 -3.75 -0.25 0 -0.70 -0.45 -1.05 -1 -0.35 -0.55 -0.95 -1 -1.30 -1 -0.35 0 -0.75 -0.35 -0.90 -0.75 -0.20 -0.40 -0.60 -0.75 -1 -0.75 -0.40 0 -1.15 -0.45 -1.65 -0.95 -0.50 -0.50 -1.40 -1.10 -2 -1.30 -0.55 -0.15 -1.35 -0.60 -1.65 -0.90 -2.15 -2.05 -16.30 -7 -22 -7.65 -2.40 -0.30 -2.90 -0.50 -2.90 -1.25 0 -1.30 1.50 -1.25 8.05 0.25 27.05 6.15 47.30 27.70 51.70 55.05 0.90 5.30 0.85 15.85 -0.05 20.90 -2.20 12.65 -7.95 24.90 -15.65 33.35 l-2.50 2.75 -0.05 -1.85z"/>
  <path d="M615.50 361.90 c0 -1.35 0.30 -2.05 1 -2.50 0.55 -0.35 1 -0.85 1 -1.15 0 -0.30 0.70 -1.25 1.50 -2.15 0.85 -0.90 1.50 -1.85 1.50 -2.15 0 -0.25 0.25 -0.45 0.50 -0.45 0.30 0 0.50 -0.35 0.50 -0.75 0 -0.40 0.20 -0.75 0.45 -0.75 0.25 0 0.60 -0.55 0.75 -1.20 0.15 -0.70 0.60 -1.55 0.95 -1.90 0.35 -0.35 1.20 -1.95 1.85 -3.50 0.65 -1.60 1.35 -2.90 1.60 -2.90 0.20 0 0.40 -0.40 0.40 -0.90 0 -0.55 0.45 -2.20 0.95 -3.75 4.35 -12.60 4.15 -28.30 -0.50 -40.95 -1.30 -3.65 -2.45 -6 -6.75 -13.90 -0.50 -0.95 -1.25 -1.95 -1.55 -2.15 -0.35 -0.20 -0.65 -0.65 -0.65 -1 0 -0.35 -0.45 -0.90 -1 -1.25 -0.55 -0.35 -1 -0.85 -1 -1.15 0 -0.30 -0.55 -1 -1.25 -1.55 -0.95 -0.75 -1.25 -1.45 -1.25 -2.80 l0.05 -1.85 2.50 2.75 c3.10 3.35 7.25 9.55 9.60 14.25 7.75 15.60 9.05 34.10 3.55 50.70 -0.95 2.85 -2.40 6.60 -3.20 8.30 -1.90 4 -6.75 11.35 -9.40 14.25 l-2.05 2.25 -0.05 -1.85z"/>
  <path d="M137.05 356.65 c4.15 -5.15 7.35 -10.40 9.50 -15.60 1.70 -4.10 3.95 -12.45 3.95 -14.80 0 -2.25 0.55 -3.75 1.30 -3.75 0.95 0 0.90 3.30 -0.05 8.35 -0.90 4.70 -3.15 11.65 -3.80 11.65 -0.25 0 -0.45 0.45 -0.45 1 0 1 -1.75 4.95 -2.45 5.50 -0.15 0.15 -0.70 1.10 -1.15 2.15 -0.50 1 -1.10 1.85 -1.40 1.85 -0.25 0 -0.50 0.30 -0.50 0.70 0 0.40 -0.65 1.40 -1.50 2.30 -0.80 0.90 -1.50 1.80 -1.50 2.05 0 0.25 -0.45 0.70 -1 1.05 -0.55 0.35 -1 0.90 -1 1.25 0 0.40 -0.65 0.65 -1.75 0.65 l-1.70 0 3.50 -4.35z"/>
  <path d="M613.20 356.60 c7.05 -8.55 11.35 -18.05 13.05 -28.75 0.45 -2.80 0.90 -5.85 1.05 -6.70 0.15 -1.05 0.55 -1.65 1.05 -1.65 1.75 0 -0.30 12.85 -3.45 21.60 -0.90 2.45 -1.90 4.40 -2.25 4.40 -0.35 0 -0.65 0.45 -0.65 1 0 1.15 -1 3.50 -1.55 3.50 -0.20 0 -0.50 0.55 -0.65 1.25 -0.20 0.70 -0.55 1.25 -0.80 1.25 -0.30 0 -0.50 0.35 -0.50 0.75 0 0.40 -0.20 0.75 -0.50 0.75 -0.25 0 -0.50 0.35 -0.50 0.75 0 0.40 -0.45 1 -1 1.35 -0.55 0.35 -1 0.90 -1 1.25 0 0.35 -0.45 0.90 -1 1.25 -0.55 0.35 -1 0.90 -1 1.25 0 0.40 -0.70 0.65 -1.75 0.65 l-1.80 0 3.25 -3.90z"/>
  <path d="M182.35 358.60 c-0.50 -0.50 -0.85 -1.15 -0.85 -1.45 0 -0.30 -0.35 -0.65 -0.75 -0.85 -0.40 -0.15 -0.75 -0.60 -0.75 -1.05 0 -0.40 -0.20 -0.75 -0.50 -0.75 -0.35 0 -0.50 -12.50 -0.50 -36.50 0 -32.10 0.10 -36.50 0.75 -36.50 0.40 0 0.75 -0.45 0.75 -1 0 -0.65 0.35 -1 1 -1 0.70 0 1 -0.35 1 -1.15 0 -1.55 1.50 -2.85 3.25 -2.85 l1.40 0 -1.20 1.45 c-0.65 0.80 -2.05 2.50 -3.10 3.70 l-1.90 2.25 0.05 35.15 0 35.15 1.90 2.25 c3.50 4.30 3.40 4.05 1.75 4.05 -0.85 0 -1.85 -0.40 -2.30 -0.90z"/>
  <path d="M379.10 358.90 c-0.35 -0.35 -0.60 -1 -0.60 -1.50 0 -0.50 -0.35 -0.90 -0.75 -0.90 -0.40 0 -0.75 -0.45 -0.75 -1 0 -0.55 -0.35 -1 -0.75 -1 -0.40 0 -0.75 -0.35 -0.75 -0.75 0 -0.40 -0.20 -0.75 -0.50 -0.75 -0.25 0 -0.50 -0.35 -0.50 -0.75 0 -0.40 -0.20 -0.75 -0.45 -0.75 -0.70 0 -3.90 -6.50 -5.85 -11.80 -4.45 -12.40 -4.80 -27.05 -0.95 -40.45 1.35 -4.65 5.65 -13.95 7.30 -15.70 0.50 -0.55 0.95 -1.25 0.95 -1.50 0 -0.30 0.30 -0.70 0.65 -0.90 0.40 -0.20 0.80 -0.80 1 -1.25 0.15 -0.50 0.65 -0.90 1.10 -0.90 0.40 0 0.75 -0.40 0.75 -0.90 0 -1.35 1.60 -2.60 3.25 -2.60 l1.40 0 -1.35 1.65 c-4.10 5.05 -5.85 7.45 -7.65 10.60 -5.30 9.10 -8.15 19.60 -8.15 29.85 0 15.20 4.60 27.65 14.80 40.30 l1.35 1.60 -1.50 0 c-0.80 0 -1.70 -0.25 -2.05 -0.60z"/>
  <path d="M174.50 341.50 c0 -2.65 0.10 -3 1 -3 0.90 0 1 0.35 1 3 0 2.65 -0.10 3 -1 3 -0.90 0 -1 -0.35 -1 -3z"/>
  <path d="M360.30 323.40 c-0.15 -0.65 -0.30 -3.05 -0.30 -5.40 0 -4.90 0.35 -6.50 1.30 -6.50 0.55 0 0.70 1.30 0.70 6.50 0 5.20 -0.15 6.50 -0.70 6.50 -0.35 0 -0.80 -0.50 -1 -1.10z"/>
  <path d="M151.15 318.25 c0 -3.30 0.10 -3.75 0.95 -3.75 0.80 0 0.90 0.45 0.90 3.75 0 3.35 -0.10 3.75 -0.95 3.75 -0.85 0 -0.95 -0.40 -0.90 -3.75z"/>
  <path d="M290.85 315.90 c-0.10 -0.65 -0.25 -2.25 -0.30 -3.65 -0.15 -3.05 -1.25 -8.50 -2.65 -12.75 -4.90 -14.95 -15.40 -27.40 -29.40 -34.90 -6.25 -3.35 -10.30 -4.70 -20.10 -6.60 -1.90 -0.40 -2.90 -0.80 -2.90 -1.30 0 -0.40 0.50 -0.70 1.20 -0.70 2.55 0 10.30 1.65 14.55 3.05 8.10 2.75 19.25 9.40 19.25 11.50 0 0.65 0.35 0.95 1.15 0.95 1.60 0 4.85 3.40 4.85 5.10 0 1.10 0.25 1.35 1.40 1.50 0.95 0.10 1.40 0.45 1.50 1.30 0.10 0.60 0.50 1.10 0.90 1.10 0.40 0 0.70 0.35 0.70 0.75 0 0.40 0.25 0.75 0.50 0.75 0.30 0 0.50 0.35 0.50 0.75 0 0.40 0.25 0.75 0.50 0.75 0.30 0 0.50 0.35 0.50 0.75 0 0.40 0.20 0.75 0.50 0.75 0.25 0 0.60 0.55 0.80 1.25 0.15 0.70 0.45 1.25 0.65 1.25 0.50 0 3.20 5.95 4.50 10 1.60 4.80 2.55 9.70 2.90 14.90 0.25 3.95 0.20 4.60 -0.45 4.60 -0.45 0 -0.90 -0.50 -1.05 -1.10z"/>
  <path d="M28.50 313.65 c0 -3.65 1.40 -11.40 2.80 -15.55 1.50 -4.50 4.70 -11.60 5.20 -11.60 0.20 0 0.50 -0.50 0.70 -1.15 0.15 -0.65 0.85 -1.80 1.55 -2.55 0.70 -0.75 1.25 -1.55 1.25 -1.85 0 -0.25 0.35 -0.45 0.75 -0.45 0.40 0 0.75 -0.45 0.75 -1 0 -0.75 0.35 -1 1.25 -1 1.05 0 1.25 -0.25 1.25 -1.35 0 -1.75 3.70 -5.65 5.35 -5.65 0.80 0 1.15 -0.30 1.15 -1 0 -0.65 1.20 -1.80 3.60 -3.50 1.95 -1.35 3.85 -2.50 4.20 -2.50 0.35 0 0.70 -0.20 0.80 -0.45 0.40 -1.05 9.45 -4.90 15.10 -6.35 2.95 -0.80 11.85 -2.15 14.20 -2.20 0.75 0 1.10 0.30 1.10 0.95 0 0.75 -0.55 0.95 -3.60 1.25 -23.45 2.05 -43.10 16.85 -51.85 38.90 -1.60 4.05 -3.50 12.05 -3.60 15.15 -0.10 3 -0.50 4.25 -1.25 4.25 -0.50 0 -0.70 -0.70 -0.70 -2.35z"/>
  <path d="M627.30 314.40 c-0.15 -0.90 -0.65 -3.90 -1.10 -6.65 -1.70 -10.45 -6.15 -19.85 -14 -29.60 l-1.35 -1.65 1.50 0 c1.65 0 2.65 0.80 2.65 2.05 0 0.45 0.40 0.95 0.95 1.10 0.50 0.10 1.20 0.90 1.60 1.80 0.40 0.85 0.85 1.55 1.05 1.55 0.25 0 0.40 0.35 0.40 0.75 0 0.40 0.20 0.75 0.45 0.75 0.60 0 4.10 6.90 5.70 11.25 1.75 4.70 3.20 11.10 3.60 16.15 0.30 3.50 0.25 4.10 -0.45 4.10 -0.45 0 -0.85 -0.60 -1 -1.60z"/>
  <path d="M150.80 312.40 c-0.15 -0.65 -0.30 -1.80 -0.30 -2.65 0 -2.55 -2.40 -10.95 -4.40 -15.60 -2.10 -4.95 -6.20 -11.50 -9.80 -15.65 l-2.35 -2.75 1.30 -0.15 c1.55 -0.20 3.25 1.10 3.25 2.50 0 0.50 0.35 0.90 0.80 0.90 0.45 0 0.90 0.45 1.05 1 0.15 0.55 0.45 1 0.65 1 0.70 0 4.90 7.10 6.75 11.35 3.45 8 6.05 21.15 4.15 21.15 -0.45 0 -0.90 -0.50 -1.10 -1.10z"/>
  <path d="M360.65 308.35 c0.85 -6.85 4.35 -17 8.15 -23.60 9.90 -17 26.60 -28.85 45.65 -32.45 5.60 -1.05 6.55 -1.05 6.55 0.20 0 0.80 -0.35 1 -1.60 1 -0.90 0 -3.90 0.55 -6.70 1.20 -4.75 1.20 -5.80 1.50 -9.55 3.10 -0.85 0.40 -1.90 0.70 -2.30 0.70 -0.45 0 -0.85 0.20 -0.95 0.40 -0.05 0.25 -2.05 1.40 -4.35 2.65 -2.35 1.20 -4.80 2.70 -5.45 3.35 -0.70 0.60 -1.55 1.10 -1.85 1.10 -0.35 0 -0.75 0.35 -0.95 0.75 -0.15 0.40 -0.85 0.75 -1.55 0.75 -0.85 0 -1.25 0.25 -1.25 0.90 0 1 -6.45 7.60 -7.40 7.60 -0.30 0 -0.60 0.35 -0.60 0.85 0 0.45 -0.85 1.95 -1.90 3.35 -5.95 7.95 -11 19.75 -11.90 27.85 -0.30 2.50 -0.50 2.95 -1.35 2.95 -0.90 0 -0.95 -0.25 -0.70 -2.65z"/>
  <path d="M476.50 284.65 c0 -2.85 -8.95 -12.15 -16.45 -17.10 -7.45 -4.90 -16.55 -8.25 -26.65 -9.80 -1.30 -0.20 -1.90 -0.55 -1.90 -1.10 0 -1.90 13.15 0.85 21.30 4.40 2.60 1.15 5.05 2.35 5.35 2.65 0.35 0.30 1.45 1 2.50 1.50 1.05 0.55 2.45 1.45 3.05 2.05 0.65 0.60 1.55 1.25 2.05 1.45 0.45 0.15 0.95 0.75 1.10 1.30 0.15 0.55 0.65 1 1.10 1 1.05 0 6.05 5 6.05 6.10 0 0.40 0.45 0.90 1 1.05 0.60 0.15 1 0.70 1 1.30 0 0.60 0.30 1.05 0.75 1.05 1 0 1.75 1.60 1.75 3.70 0 1.45 -0.20 1.80 -1 1.80 -0.75 0 -1 -0.35 -1 -1.35z"/>
  <path d="M130.25 272.50 c-7.75 -6.65 -17.80 -11.75 -26.45 -13.45 -1.55 -0.30 -4.05 -0.80 -5.55 -1.10 -1.95 -0.35 -2.75 -0.75 -2.75 -1.30 0 -0.65 0.50 -0.75 3.30 -0.45 3.90 0.40 8.20 1.35 12.70 2.85 3.55 1.15 11.15 4.85 11.40 5.50 0.10 0.25 0.50 0.45 0.90 0.45 0.40 0 0.70 0.25 0.70 0.50 0 0.30 0.35 0.50 0.75 0.50 0.40 0 0.75 0.25 0.75 0.50 0 0.30 0.35 0.50 0.75 0.50 0.40 0 0.75 0.25 0.75 0.50 0 0.30 0.35 0.50 0.75 0.50 0.40 0 1 0.45 1.35 1 0.35 0.55 0.90 1 1.20 1 1.10 0 2.80 2.40 2.60 3.70 -0.15 1.35 -0.15 1.35 -3.15 -1.20z"/>
  <path d="M384 273.65 c0 -1.40 1.70 -3.65 2.80 -3.65 0.25 0 0.75 -0.45 1.10 -1 0.35 -0.55 0.85 -1 1.10 -1 0.30 0 0.95 -0.45 1.50 -1 0.55 -0.55 1.35 -1 1.75 -1 0.40 0 0.75 -0.20 0.75 -0.50 0 -0.25 0.30 -0.50 0.70 -0.50 0.40 0 0.80 -0.20 0.90 -0.40 0.30 -0.75 3.75 -2.60 4.85 -2.60 0.55 0 1.05 -0.20 1.05 -0.45 0 -1.20 12.15 -4.70 18.40 -5.35 2.65 -0.30 3.10 -0.20 3.10 0.45 0 0.55 -0.65 0.90 -1.85 1.15 -13.25 2.25 -22.80 6.30 -31.10 13.20 -5.55 4.60 -5.05 4.35 -5.05 2.65z"/>
  <path d="M179 239.55 l0 -35.05 -1.25 0 c-0.70 0 -1.25 0.25 -1.25 0.50 0 0.30 -0.45 0.50 -1 0.50 -0.80 0 -1 -0.35 -1 -1.50 0 -1.50 0 -1.50 2.95 -1.50 l3 0 0.30 2.60 c0.15 1.45 0.25 17.20 0.15 35.05 -0.10 17.80 -0.05 32.35 0.05 32.35 0.10 0 1.70 -1.45 3.55 -3.15 8.75 -8.30 19.35 -13.90 31.50 -16.65 6.70 -1.50 9 -1.55 9 -0.20 0 0.80 -0.35 1 -1.85 1 -2.80 0 -11.30 2.20 -16.15 4.15 -5.35 2.20 -7.20 3 -7.50 3.35 -0.55 0.65 -5.40 3.50 -5.85 3.50 -0.30 0 -0.65 0.35 -0.85 0.75 -0.15 0.40 -0.55 0.75 -0.90 0.75 -0.35 0 -0.95 0.45 -1.30 1 -0.35 0.55 -0.85 1 -1.15 1 -0.30 0 -1.10 0.70 -1.80 1.50 -0.85 1 -1.70 1.50 -2.65 1.50 -1.25 0 -1.45 0.20 -1.60 1.65 -0.15 1.50 -0.30 1.60 -2.25 1.75 l-2.15 0.15 0 -35z"/>
  <path d="M188 273.15 c0 -1.60 1.30 -3.15 2.60 -3.15 0.45 0 0.90 -0.45 1.05 -1 0.15 -0.55 0.60 -1 1.05 -1 0.45 0 0.80 -0.20 0.80 -0.50 0 -0.25 0.35 -0.50 0.75 -0.50 0.40 0 0.75 -0.25 0.75 -0.50 0 -0.30 0.60 -0.80 1.40 -1.15 0.75 -0.30 1.65 -0.90 2.05 -1.25 0.35 -0.35 1.30 -0.80 2.10 -0.95 0.80 -0.15 1.45 -0.45 1.45 -0.70 0 -0.25 0.45 -0.45 1 -0.45 0.55 0 1 -0.20 1 -0.45 0 -1.20 11.80 -4.70 18.15 -5.35 2.85 -0.30 3.35 -0.20 3.35 0.45 0 0.55 -0.80 0.95 -2.75 1.30 -1.50 0.30 -4 0.80 -5.55 1.10 -8.20 1.60 -19.15 7 -25.65 12.65 -3.55 3.10 -3.55 3.10 -3.55 1.45z"/>
  <path d="M472.85 272.60 c-1 -1.05 -1.85 -2.40 -1.85 -3 0 -0.90 -0.30 -1.10 -1.55 -1.10 -1.10 0 -1.60 -0.25 -1.80 -1 -0.15 -0.55 -0.70 -1 -1.20 -1 -0.55 0 -1.10 -0.35 -1.25 -0.75 -0.20 -0.40 -0.50 -0.75 -0.75 -0.75 -0.25 0 -1.90 -0.90 -3.65 -2 -9.50 -6 -19.90 -9.25 -31.40 -9.85 -4.20 -0.20 -5.90 -0.50 -5.90 -0.90 0 -1 2 -1.25 7.05 -1 9.65 0.55 18.45 2.95 27.10 7.35 5.55 2.85 9 5.25 14.80 10.40 l4.05 3.55 0 -2.75 c0 -2.45 0.10 -2.80 1 -2.80 0.90 0 1 0.35 1 3.75 l0 3.75 -1.90 0 c-1.55 0 -2.25 -0.35 -3.75 -1.90z"/>
  <path d="M605.55 271.75 c-6.85 -5.85 -18.85 -11.65 -26.80 -13 -5.85 -0.95 -7.25 -1.35 -7.25 -2.05 0 -0.45 0.50 -0.70 1.45 -0.70 2.55 0 9.70 1.45 13.80 2.80 4.30 1.40 13.90 6.10 15.50 7.60 0.55 0.50 1.40 1.05 1.90 1.25 0.45 0.15 0.85 0.65 0.85 1.10 0 0.40 0.40 0.75 0.90 0.75 1.40 0 2.70 1.70 2.50 3.25 l-0.15 1.30 -2.70 -2.30z"/>
  <path d="M609.35 269.60 c-0.50 -0.50 -0.85 -1.20 -0.85 -1.50 0 -0.35 -0.40 -0.60 -0.90 -0.60 -0.50 0 -1.55 -0.60 -2.40 -1.35 -0.85 -0.80 -2.10 -1.70 -2.85 -2.10 -0.75 -0.40 -1.35 -0.90 -1.35 -1.15 0 -0.20 -0.30 -0.40 -0.70 -0.40 -0.40 0 -1.05 -0.30 -1.40 -0.65 -2.25 -2.15 -15.35 -6.90 -21.85 -7.95 -3.30 -0.50 -4.05 -0.80 -4.05 -1.50 0 -1.20 1.30 -1.15 7.40 0.15 11.65 2.55 22.35 7.85 30.35 15.15 l3 2.75 -1.80 0.05 c-1.15 0 -2.10 -0.35 -2.60 -0.90z"/>
  <path d="M523.20 267.25 c7.50 -6.95 20.30 -13.05 31.30 -15 5.60 -1 6.50 -0.95 6.50 0.15 0 0.75 -0.75 1 -4.25 1.45 -2.30 0.30 -6.55 1.40 -9.45 2.35 -2.85 1 -5.45 1.80 -5.75 1.80 -0.35 0 -0.85 0.25 -1.20 0.50 -0.90 0.80 -9.30 5.50 -9.80 5.50 -0.25 0 -0.55 0.35 -0.75 0.75 -0.15 0.40 -0.60 0.75 -1 0.75 -0.35 0 -0.80 0.35 -1 0.75 -0.15 0.40 -0.50 0.75 -0.85 0.75 -0.30 0 -1 0.55 -1.55 1.25 -0.75 0.95 -1.45 1.25 -2.80 1.25 l-1.85 -0.05 2.45 -2.20z"/>
  <path d="M91.50 256.50 c0 -0.80 0.35 -1 1.75 -1 1.40 0 1.75 0.20 1.75 1 0 0.80 -0.35 1 -1.75 1 -1.40 0 -1.75 -0.20 -1.75 -1z"/>
  <path d="M226 256.50 c0 -0.80 0.35 -1 1.75 -1 1.40 0 1.75 0.20 1.75 1 0 0.80 -0.35 1 -1.75 1 -1.40 0 -1.75 -0.20 -1.75 -1z"/>
  <path d="M231.50 256.50 c0 -0.80 0.35 -1 1.75 -1 1.40 0 1.75 0.20 1.75 1 0 0.80 -0.35 1 -1.75 1 -1.40 0 -1.75 -0.20 -1.75 -1z"/>
  <path d="M567.50 256.50 c0 -0.80 0.35 -1 1.75 -1 1.40 0 1.75 0.20 1.75 1 0 0.80 -0.35 1 -1.75 1 -1.40 0 -1.75 -0.20 -1.75 -1z"/>
  <path d="M476.50 254 c0 -1.15 0.20 -1.50 1 -1.50 0.80 0 1 0.35 1 1.50 0 1.15 -0.20 1.50 -1 1.50 -0.80 0 -1 -0.35 -1 -1.50z"/>
  <path d="M87 252.30 c0 -0.75 1.50 -1.30 3.75 -1.30 2.25 0 3.75 0.55 3.75 1.30 0 0.55 -0.90 0.70 -3.75 0.70 -2.85 0 -3.75 -0.15 -3.75 -0.70z"/>
  <path d="M226.50 252.30 c0 -0.75 1.50 -1.30 3.75 -1.30 2.25 0 3.75 0.55 3.75 1.30 0 0.55 -0.90 0.70 -3.75 0.70 -2.85 0 -3.75 -0.15 -3.75 -0.70z"/>
  <path d="M563.50 252.25 c0 -0.40 0.70 -0.85 1.75 -1.05 2.35 -0.45 5.25 0.15 5.25 1.05 0 0.60 -0.75 0.75 -3.50 0.75 -2.75 0 -3.50 -0.15 -3.50 -0.75z"/>
  <path d="M616 231.50 c-4.20 -0.75 -7.95 -3.60 -9.95 -7.55 -2.95 -5.95 -1.75 -13.50 2.80 -17.50 4 -3.50 9.30 -4.65 14.40 -3.20 4.20 1.25 8.30 5.35 9.55 9.50 2.55 8.95 -3.10 17.80 -11.95 18.70 -1.70 0.20 -3.90 0.20 -4.85 0.05z m8.35 -3.35 c4.20 -1.95 7.15 -6.50 7.15 -10.95 0 -5.10 -4.05 -10.40 -9.20 -12 -11.70 -3.70 -21.10 11.45 -12.65 20.20 2.20 2.30 4.40 3.55 6.95 4.05 2.80 0.50 4.55 0.25 7.75 -1.30z"/>
  <path d="M614.50 216.55 l0 -7.05 3.20 0 c2.25 0 3.45 0.25 4 0.80 1.15 1.15 1.05 4.35 -0.20 5.45 -0.55 0.50 -1 1.10 -1 1.35 0 0.25 0.90 1.65 2 3.15 1.10 1.50 2 2.85 2 3 0 0.15 -0.55 0.25 -1.25 0.25 -0.95 0 -1.70 -0.70 -3.25 -3.05 -2.65 -3.85 -3.75 -3.85 -3.80 0.05 0 2.15 -0.20 2.80 -0.85 2.90 -0.75 0.15 -0.85 -0.55 -0.85 -6.85z m5.50 -1.80 c0.70 -0.45 0.65 -2.40 -0.10 -3.15 -0.35 -0.35 -1.30 -0.60 -2.15 -0.60 -1.50 0 -1.55 0.05 -1.50 2.15 0.05 1.15 0.15 2.25 0.15 2.45 0.10 0.35 2.65 -0.25 3.60 -0.85z"/>
  <path d="M336.85 212.65 c-0.15 -0.20 -0.25 -2.60 -0.25 -5.30 0 -4.45 0.05 -4.85 0.95 -4.85 0.85 0 0.95 0.40 0.95 4.25 l0 4.25 1.50 0 1.50 0 0 -4.25 c0 -3.85 0.10 -4.25 0.95 -4.25 0.85 0 0.95 0.40 0.85 5.15 l-0.05 5.10 -3.10 0.15 c-1.70 0.10 -3.15 -0.05 -3.30 -0.25z"/>
  <path d="M317.80 204.20 c-0.40 -1.50 -0.40 -1.55 0.95 -1.80 0.80 -0.10 1.05 0.15 1.15 1.50 0.15 1.30 0 1.60 -0.80 1.60 -0.65 0 -1.10 -0.45 -1.30 -1.30z"/>
 </g>
 <g fill="#FFFFFF">
  <path d="M67.50 500.50 c0 -9.35 0.15 -17 0.40 -17 0.20 0 0.30 7.50 0.20 16.70 -0.10 15.60 -0.05 16.75 0.75 16.95 0.70 0.20 0.60 0.25 -0.20 0.30 l-1.15 0.05 0 -17z"/>
  <path d="M87.40 517.10 c0.35 -0.25 0.50 -0.75 0.35 -1.15 -0.15 -0.45 -0.05 -1.30 0.20 -2 0.40 -1.05 0.50 -0.90 0.50 1.20 0.05 1.90 -0.10 2.35 -0.80 2.35 -0.65 0 -0.75 -0.10 -0.25 -0.40z"/>
  <path d="M104.90 516.85 c1.40 -0.35 2.80 -0.35 4.25 0 1.95 0.50 1.80 0.55 -2.15 0.55 -3.95 0 -4.10 -0.05 -2.10 -0.55z"/>
  <path d="M126.40 517.10 c0.35 -0.25 0.50 -0.75 0.35 -1.15 -0.15 -0.45 -0.05 -1.30 0.20 -2 0.40 -1.05 0.50 -0.90 0.50 1.20 0.05 1.90 -0.10 2.35 -0.80 2.35 -0.65 0 -0.75 -0.10 -0.25 -0.40z"/>
  <path d="M145.40 517.10 c0.35 -0.25 0.50 -0.75 0.35 -1.15 -0.15 -0.45 -0.05 -1.30 0.20 -2 0.40 -1.05 0.50 -0.90 0.50 1.20 0.05 1.90 -0.10 2.35 -0.80 2.35 -0.65 0 -0.75 -0.10 -0.25 -0.40z"/>
  <path d="M164.10 517.15 c0.80 -0.20 0.90 -1.15 1.05 -8.30 l0.15 -8.10 0.10 8.40 0.10 8.35 -1.10 -0.05 c-0.85 -0.05 -0.90 -0.15 -0.30 -0.30z"/>
  <path d="M181.90 516.85 c1.40 -0.35 2.80 -0.35 4.25 0 1.95 0.50 1.80 0.55 -2.15 0.55 -3.95 0 -4.10 -0.05 -2.10 -0.55z"/>
  <path d="M241.50 498.50 l0 -17 1.15 0.05 c0.85 0.05 0.90 0.10 0.20 0.30 -0.80 0.20 -0.85 1.30 -0.75 16.95 0.10 9.20 0 16.70 -0.20 16.70 -0.25 0 -0.40 -7.65 -0.40 -17z"/>
  <path d="M267.40 515.10 c0.50 -0.35 0.60 -3 0.50 -12 -0.10 -6.40 0 -11.60 0.25 -11.60 0.20 0 0.35 5.40 0.35 12 0 11.10 -0.05 12 -0.85 12 -0.65 0 -0.75 -0.10 -0.25 -0.40z"/>
  <path d="M303.90 515.15 c0.60 -0.10 1.60 -0.10 2.25 0 0.60 0.10 0.10 0.20 -1.15 0.20 -1.25 0 -1.75 -0.10 -1.10 -0.20z"/>
  <path d="M321.50 498.50 l0 -17 1.15 0.05 c0.85 0.05 0.90 0.10 0.20 0.30 -0.80 0.20 -0.85 1.35 -0.75 16.95 0.10 9.20 0 16.70 -0.20 16.70 -0.25 0 -0.40 -7.65 -0.40 -17z"/>
  <path d="M341.80 513.70 c0.20 -2.55 0.70 -2.75 0.70 -0.30 0 1.15 -0.20 2.10 -0.45 2.10 -0.20 0 -0.35 -0.80 -0.25 -1.80z"/>
  <path d="M359.90 515.15 c0.60 -0.10 1.60 -0.10 2.25 0 0.60 0.10 0.10 0.20 -1.15 0.20 -1.25 0 -1.75 -0.10 -1.10 -0.20z"/>
  <path d="M379.80 513.70 c0.20 -2.55 0.70 -2.75 0.70 -0.30 0 1.15 -0.20 2.10 -0.45 2.10 -0.20 0 -0.35 -0.80 -0.25 -1.80z"/>
  <path d="M398.50 507.65 c0 -4.30 0.10 -7.70 0.30 -7.55 0.40 0.45 0.50 15.40 0.10 15.40 -0.25 0 -0.40 -3.50 -0.40 -7.85z"/>
  <path d="M508.75 510.70 c0.20 -3.15 0.75 -3.40 0.75 -0.30 0 1.45 -0.20 2.60 -0.45 2.60 -0.25 0 -0.40 -1 -0.30 -2.30z"/>
  <path d="M536.75 510.70 c0.20 -3.15 0.75 -3.40 0.75 -0.30 0 1.45 -0.20 2.60 -0.45 2.60 -0.25 0 -0.40 -1 -0.30 -2.30z"/>
  <path d="M566.60 511.50 c0 -0.95 0.10 -1.35 0.25 -0.85 0.10 0.45 0.10 1.25 0 1.75 -0.15 0.45 -0.25 0.05 -0.25 -0.90z"/>
  <path d="M444.15 511.65 c0.75 -0.10 1.85 -0.10 2.50 0 0.60 0.10 0 0.20 -1.40 0.20 -1.35 0 -1.90 -0.10 -1.10 -0.20z"/>
  <path d="M468.90 511.65 c0.60 -0.10 1.50 -0.10 2 0 0.45 0.15 -0.05 0.25 -1.15 0.20 -1.10 0 -1.50 -0.10 -0.85 -0.20z"/>
  <path d="M556.90 511.65 c0.60 -0.10 1.50 -0.10 2 0 0.45 0.15 -0.05 0.25 -1.15 0.20 -1.10 0 -1.50 -0.10 -0.85 -0.20z"/>
  <path d="M585.90 511.65 c0.60 -0.10 1.50 -0.10 2 0 0.45 0.15 -0.05 0.25 -1.15 0.20 -1.10 0 -1.50 -0.10 -0.85 -0.20z"/>
  <path d="M608.65 511.65 c0.45 -0.10 1.25 -0.10 1.75 0 0.45 0.15 0.05 0.25 -0.90 0.25 -0.95 0 -1.35 -0.10 -0.85 -0.25z"/>
  <path d="M279.70 502.75 c0 -4.95 0.10 -6.90 0.15 -4.35 0.10 2.55 0.10 6.60 0 9 -0.05 2.40 -0.15 0.30 -0.15 -4.65z"/>
  <path d="M451.95 510.35 c1.35 -1.50 0.95 -1.80 -0.65 -0.45 -1.05 0.85 -1.05 0.85 -0.10 -0.25 0.55 -0.65 1.25 -1.15 1.65 -1.15 1.10 0 0.70 1.20 -0.75 2.20 l-1.35 0.95 1.20 -1.30z"/>
  <path d="M594.15 510.15 c0.90 -1.05 0.90 -1.05 0 -1.30 -0.75 -0.20 -0.80 -0.25 -0.05 -0.30 1.35 -0.10 1.45 0.75 0.25 1.75 l-1.10 0.95 0.90 -1.10z"/>
  <path d="M604.85 510.65 c-0.55 -0.50 -0.40 -5.15 0.15 -5.15 0.35 0 0.55 5.45 0.20 5.50 0 0 -0.20 -0.15 -0.35 -0.35z"/>
  <path d="M256 509 c-0.60 -0.80 -0.95 -1.50 -0.80 -1.50 0.10 0 0.70 0.70 1.30 1.50 0.60 0.85 0.95 1.50 0.80 1.50 -0.10 0 -0.70 -0.65 -1.30 -1.50z"/>
  <path d="M95.60 506 c0 -3.35 0.10 -3.85 0.40 -2.25 0.20 1.10 0.20 3 0 4.25 -0.30 1.90 -0.40 1.60 -0.40 -2z"/>
  <path d="M118.15 505.50 c0 -2.05 0.10 -2.90 0.20 -1.85 0.10 1 0.10 2.70 0 3.75 -0.10 1 -0.20 0.15 -0.20 -1.90z"/>
  <path d="M127.15 506.75 c0 -1.10 0.10 -1.50 0.20 -0.85 0.10 0.60 0.10 1.50 0 2 -0.15 0.45 -0.25 -0.05 -0.20 -1.15z"/>
  <path d="M519.70 499.75 c0 -4.65 0.10 -6.65 0.15 -4.40 0.10 2.25 0.10 6.10 0 8.50 -0.05 2.40 -0.15 0.60 -0.15 -4.10z"/>
  <path d="M146.10 506 c0 -0.95 0.10 -1.35 0.25 -0.85 0.10 0.45 0.10 1.25 0 1.75 -0.15 0.45 -0.25 0.05 -0.25 -0.90z"/>
  <path d="M349.50 503.50 c0 -2.30 0.15 -4.05 0.30 -3.85 0.35 0.35 0.35 7.40 -0.05 7.75 -0.15 0.15 -0.25 -1.60 -0.25 -3.90z"/>
  <path d="M550 506.05 c0 -0.85 0.20 -1.60 0.40 -1.75 0.20 -0.10 0.30 0.55 0.20 1.50 -0.25 2.10 -0.60 2.25 -0.60 0.25z"/>
  <path d="M194.15 504.25 c0 -1.35 0.10 -1.90 0.20 -1.10 0.10 0.75 0.10 1.85 0 2.50 -0.10 0.60 -0.20 0 -0.20 -1.40z"/>
  <path d="M88.15 503.25 c0 -1.65 0.10 -2.25 0.20 -1.35 0.10 0.90 0.10 2.25 0 3 -0.10 0.75 -0.20 0 -0.20 -1.65z"/>
  <path d="M294.15 503.75 c0 -1.35 0.10 -1.90 0.20 -1.10 0.10 0.75 0.10 1.85 0 2.50 -0.10 0.60 -0.20 0 -0.20 -1.40z"/>
  <path d="M566.65 503.75 c0 -1.35 0.10 -1.90 0.20 -1.10 0.10 0.75 0.10 1.85 0 2.50 -0.10 0.60 -0.20 0 -0.20 -1.40z"/>
  <path d="M380.10 504 c0 -0.95 0.10 -1.35 0.25 -0.85 0.10 0.45 0.10 1.25 0 1.75 -0.15 0.45 -0.25 0.05 -0.25 -0.90z"/>
  <path d="M342.15 501 c0 -1.80 0.10 -2.50 0.20 -1.60 0.10 0.85 0.10 2.35 0 3.25 -0.10 0.85 -0.20 0.15 -0.20 -1.65z"/>
  <path d="M479.60 503.25 c0 -0.55 0.15 -1.45 0.40 -2 0.55 -1.25 0.55 0.05 0 1.75 -0.30 1 -0.40 1.05 -0.40 0.25z"/>
  <path d="M360.75 503 l-10 -0.30 9.85 -0.10 c6.15 -0.05 9.95 0.10 10.15 0.40 0.15 0.30 0.25 0.45 0.15 0.40 -0.10 -0.05 -4.65 -0.25 -10.15 -0.40z"/>
  <path d="M459.15 501 c0 -1.50 0.10 -2.15 0.20 -1.35 0.10 0.75 0.10 1.95 0 2.75 -0.10 0.75 -0.20 0.10 -0.20 -1.40z"/>
  <path d="M537.10 501 c0 -0.95 0.10 -1.35 0.25 -0.85 0.10 0.45 0.10 1.25 0 1.75 -0.15 0.45 -0.25 0.05 -0.25 -0.90z"/>
  <path d="M576.15 500.50 c0 -1.25 0.10 -1.75 0.20 -1.10 0.10 0.60 0.10 1.60 0 2.25 -0.10 0.60 -0.20 0.10 -0.20 -1.15z"/>
  <path d="M370.80 500.65 c0.50 -2 0.70 -2.05 0.70 -0.25 0 0.90 -0.25 1.60 -0.50 1.60 -0.30 0 -0.40 -0.55 -0.20 -1.35z"/>
  <path d="M509.15 498.25 c0 -1.65 0.10 -2.25 0.20 -1.35 0.10 0.90 0.10 2.25 0 3 -0.10 0.75 -0.20 0 -0.20 -1.65z"/>
  <path d="M253.75 495.65 c3.05 -3.20 4.25 -4.15 5.25 -4.10 l1.25 0.10 -1.25 0.20 c-0.70 0.15 -3.05 1.95 -5.25 4.05 l-4 3.85 4 -4.10z"/>
  <path d="M566.65 497.50 c0 -1.25 0.10 -1.75 0.20 -1.10 0.10 0.60 0.10 1.60 0 2.25 -0.10 0.60 -0.20 0.10 -0.20 -1.15z"/>
  <path d="M127.15 495.75 c0 -1.35 0.10 -1.90 0.20 -1.10 0.10 0.75 0.10 1.85 0 2.50 -0.10 0.60 -0.20 0 -0.20 -1.40z"/>
  <path d="M379.90 493.75 c-0.10 -1.25 0 -2.25 0.20 -2.25 0.25 0 0.40 1 0.40 2.25 0 1.25 -0.10 2.25 -0.20 2.25 -0.10 0 -0.30 -1 -0.40 -2.25z"/>
  <path d="M77.90 495.15 c0.60 -0.10 1.60 -0.10 2.25 0 0.60 0.10 0.10 0.20 -1.15 0.20 -1.25 0 -1.75 -0.10 -1.10 -0.20z"/>
  <path d="M105.65 495.15 c0.75 -0.10 1.95 -0.10 2.75 0 0.75 0.10 0.10 0.20 -1.40 0.20 -1.50 0 -2.15 -0.10 -1.35 -0.20z"/>
  <path d="M136.40 495.15 c0.60 -0.10 1.60 -0.10 2.25 0 0.60 0.10 0.10 0.20 -1.15 0.20 -1.25 0 -1.75 -0.10 -1.10 -0.20z"/>
  <path d="M155.40 495.15 c0.60 -0.10 1.50 -0.10 2 0 0.45 0.15 -0.05 0.25 -1.15 0.20 -1.10 0 -1.50 -0.10 -0.85 -0.20z"/>
  <path d="M367.75 494.20 c-0.90 -0.80 -1.10 -1.10 -0.45 -0.75 0.90 0.45 2.65 2.10 2.15 2.05 -0.10 -0.05 -0.85 -0.60 -1.70 -1.30z"/>
  <path d="M275.50 492.95 c0 -0.25 2.95 -0.45 7 -0.45 4.30 0 7 0.20 7 0.50 0 0.30 -2.70 0.50 -7 0.45 -4.05 0 -7 -0.20 -7 -0.50z"/>
  <path d="M604.55 490.50 c0 -1.65 0.20 -3 0.50 -3 0.25 0 0.45 1.35 0.45 3 0 1.65 -0.20 3 -0.45 3 -0.25 0 -0.50 -1.35 -0.50 -3z"/>
  <path d="M537 491.55 c0 -0.80 -0.30 -1.60 -0.60 -1.70 -0.40 -0.15 -0.30 -0.30 0.25 -0.30 0.65 -0.05 0.85 0.35 0.85 1.70 0 0.95 -0.10 1.75 -0.25 1.75 -0.15 0 -0.25 -0.65 -0.25 -1.45z"/>
  <path d="M279.60 489.40 c-0.10 -2.40 0.05 -2.90 0.70 -2.90 0.60 0 0.70 0.15 0.30 0.65 -0.30 0.35 -0.60 1.65 -0.75 2.85 -0.15 2.10 -0.20 2.05 -0.25 -0.60z"/>
  <path d="M359.90 491.65 c0.60 -0.10 1.50 -0.10 2 0 0.45 0.15 -0.05 0.25 -1.15 0.20 -1.10 0 -1.50 -0.10 -0.85 -0.20z"/>
  <path d="M545.45 490.60 c0.55 -0.40 0.40 -0.55 -0.75 -0.70 l-1.45 -0.15 1.65 -0.30 c1.30 -0.20 1.60 -0.10 1.50 0.45 -0.10 0.45 -0.50 0.85 -0.90 0.95 -0.65 0.20 -0.65 0.15 -0.05 -0.25z"/>
  <path d="M503.25 490 l-1.50 -0.40 1.35 -0.05 c0.75 0 1.50 0.20 1.65 0.45 0.15 0.30 0.25 0.45 0.15 0.45 -0.10 -0.05 -0.80 -0.25 -1.65 -0.45z"/>
  <path d="M556.25 489.95 c-1 -0.25 -0.45 -0.30 1.50 -0.10 1.65 0.15 3.10 0.35 3.20 0.45 0.40 0.35 -3.15 0.10 -4.70 -0.35z"/>
  <path d="M519.65 486.75 c0 -1.65 0.10 -2.25 0.20 -1.35 0.10 0.90 0.10 2.25 0 3 -0.10 0.75 -0.20 0 -0.20 -1.65z"/>
  <path d="M266.85 485.65 c-0.50 -0.50 -0.40 -2.15 0.10 -2.15 0.25 0 0.40 0.55 0.35 1.25 0 0.70 -0.05 1.25 -0.10 1.25 0 0 -0.20 -0.15 -0.35 -0.35z"/>
  <path d="M476.55 458.40 c0 -2.30 0.10 -4.40 0.35 -4.75 0.20 -0.30 1.55 -0.70 3 -0.80 l2.60 -0.25 0 4.95 0 4.95 -2.95 0 -2.90 0 -0.10 -4.10z"/>
  <path d="M476.65 398.25 c0.05 -19.40 0 -35.25 -0.15 -35.25 -0.15 0 -1.40 1.15 -2.75 2.55 -9.05 9.30 -22.90 16.30 -36.50 18.45 -4.95 0.80 -17.20 0.70 -22.10 -0.20 -27.95 -5.10 -50 -27.65 -54.15 -55.55 -0.80 -5.15 -0.80 -15.35 -0.05 -20.50 0.70 -4.75 3.10 -12.75 5.10 -17.15 6 -13.30 17.35 -25.20 30.20 -31.75 3.20 -1.60 4.40 -2.15 8.40 -3.75 5.15 -2.10 14.50 -3.65 22.10 -3.65 6.10 0 8.20 0.20 13.90 1.35 11.45 2.30 23.15 8.35 31.75 16.45 2.20 2.05 4.10 3.75 4.20 3.75 0.15 0 0.15 -4.60 0.05 -10.25 l-0.20 -10.25 3 0 3.05 0 0 90.50 0 90.50 -3 0 -3 0 0.15 -35.25z m-40.95 -20 c3.70 -0.60 11.50 -2.80 15.05 -4.30 8.70 -3.70 18.40 -11.25 24.15 -18.75 l1.60 -2.05 0 -35.10 0.05 -35.10 -3.05 -3.75 c-7.80 -9.50 -19.30 -16.75 -31.90 -20.05 -7.15 -1.85 -18.75 -2.20 -26.05 -0.70 -6.25 1.30 -10.05 2.60 -15.05 5 -27.70 13.55 -41.15 46.10 -30.80 74.65 3.40 9.45 8.10 16.65 15.35 23.65 9.30 8.95 20.70 14.55 33.70 16.50 4 0.60 13.10 0.60 16.95 0z"/>
  <path d="M83.75 384.40 c-29.15 -2.50 -54.25 -26.10 -58.95 -55.55 -5.25 -32.45 13.70 -63.70 44.85 -74.10 6.90 -2.30 13.30 -3.30 20.80 -3.30 18.90 0 34.95 6.80 48.25 20.45 6.45 6.65 12.45 16.45 15.30 25.10 2.85 8.55 3.95 22.55 2.50 31.75 -1.75 11.25 -6.65 22 -14.35 31.60 -7.50 9.30 -18.75 17.10 -30.45 21.05 -7.85 2.65 -18.55 3.80 -27.95 3z m11.80 -6 c33.40 -2.60 58.40 -32.20 55.45 -65.60 -1.30 -14.45 -7.15 -26.95 -17.50 -37.35 -9.70 -9.75 -20.85 -15.40 -35.15 -17.70 -2.60 -0.40 -11.50 -0.40 -15.10 0 -3.95 0.45 -9.70 1.90 -13.95 3.50 -20.10 7.55 -35.15 25.85 -38.55 46.80 -4.30 26.75 9.05 52.55 33.50 64.50 6.50 3.15 11.10 4.60 18.05 5.60 5.40 0.80 5.95 0.85 13.25 0.25z"/>
  <path d="M223 384.40 c-13.65 -1.25 -28.65 -8.40 -39.60 -18.80 l-2.90 -2.75 0 10.30 0 10.35 -3 0 -3 0 0 -89.60 c0 -49.30 0.20 -89.90 0.40 -90.25 0.20 -0.30 1.55 -0.70 3 -0.80 l2.60 -0.25 0 35.20 c0 33.35 0.15 37.50 1.35 34.45 0.50 -1.35 9.60 -8.60 14.35 -11.45 28.85 -17.40 67.05 -10 87.30 16.90 6.50 8.75 10.75 18.45 12.55 28.70 5.55 32.50 -12.65 63.55 -43.85 74.75 -8.10 2.90 -19.40 4.15 -29.20 3.25z m19.70 -6.95 c11.65 -2.35 21.55 -7.70 30.40 -16.55 8.45 -8.40 13.95 -18.30 16.70 -30.15 1.15 -4.90 1.30 -19.20 0.30 -24 -1.90 -8.60 -4.70 -15.25 -9.45 -22.40 -14.40 -21.75 -40.65 -31.55 -66.40 -24.85 -4.85 1.30 -12.95 5.05 -17.85 8.35 -4.35 2.95 -10.05 8.15 -13.40 12.40 l-2.50 3.15 0 34.60 0 34.60 1.75 2.40 c2.60 3.55 10.55 10.95 14.80 13.75 13.20 8.70 29.75 11.85 45.65 8.70z"/>
  <path d="M558.75 384.20 c-6.60 -0.75 -10.65 -1.75 -16.75 -4.15 -20.95 -8.35 -36.25 -26.70 -40.85 -49.15 -1.25 -5.90 -1.25 -20.10 0 -25.75 6.90 -32 33.60 -53.75 65.90 -53.75 28 0.05 52.60 17.45 62.45 44.15 2.75 7.35 3.70 13.25 3.65 22.45 0 9 -0.70 13.40 -3.20 21.25 -3.85 12.10 -12.35 23.95 -22.75 31.80 -14.15 10.65 -30.85 15.15 -48.45 13.15z m18 -6.25 c4.75 -0.80 12.65 -3.40 16.75 -5.45 5.55 -2.85 9.25 -5.45 14 -9.80 9.60 -8.85 15.30 -18.60 18.55 -31.95 1.60 -6.45 1.60 -19 0.05 -25.50 -2.90 -11.80 -7.80 -20.80 -15.80 -29.15 -5.20 -5.40 -9.30 -8.45 -15.80 -11.80 -9.35 -4.80 -17.45 -6.85 -27.50 -6.85 -18 -0.05 -33.95 7.15 -46 20.80 -15.25 17.30 -19.25 42.50 -10.05 63.70 4.25 9.85 12.55 20 21.20 25.95 4.65 3.20 12.75 7.05 17.85 8.55 8.10 2.30 18.65 2.90 26.75 1.50z"/>
  <path d="M316.40 383.65 l-2.40 -0.20 0 -90.50 0 -90.50 2.90 0.15 2.85 0.15 0 90.45 c0 59.95 -0.15 90.50 -0.50 90.55 -0.25 0.05 -1.55 0 -2.85 -0.10z"/>
  <path d="M337 307.80 l0 -75.65 1.90 -0.35 c1 -0.15 2.35 -0.30 3 -0.30 l1.10 0 0 76 0 76 -3 0 -3 0 0 -75.70z"/>
  <path d="M613.50 230.65 c-3.10 -1.10 -7.10 -5.25 -8.15 -8.35 -3.10 -9.05 2.65 -18.25 12.15 -19.45 1.30 -0.20 1.85 -0.15 1.25 0.10 -0.65 0.25 0.05 0.40 2 0.35 2.40 -0.05 3.45 0.25 5.35 1.30 4.55 2.70 7.20 7.30 6.65 11.50 -0.25 1.65 -0.20 2.40 0.15 2.20 0.65 -0.40 -0.15 3.30 -1.20 5.50 -1.10 2.25 -3.85 5 -6.35 6.30 -2.80 1.40 -8.70 1.70 -11.85 0.55z m8.80 -1.20 c2.85 -0.75 6.70 -4.15 8.15 -7.20 2.65 -5.60 0.30 -12.80 -5.25 -16.05 -5 -2.95 -11.55 -1.90 -15.65 2.55 -1.90 2.10 -3.55 6 -3.55 8.50 0 2.80 1.65 6.40 3.95 8.75 3.55 3.55 7.50 4.65 12.35 3.45z"/>
  <path d="M614.50 216.50 l0 -7 2.90 0 c3.70 0 5.10 0.90 5.10 3.30 0 1.25 -0.40 2.10 -1.25 2.90 l-1.30 1.20 2.40 3.40 c1.30 1.90 2 3.15 1.50 2.75 -0.55 -0.40 -0.85 -0.45 -0.85 -0.15 0 1.20 -1.35 -0.05 -3.20 -2.90 -1.05 -1.65 -2.15 -3 -2.50 -3 -1.10 0 -1.90 0.90 -1.80 2.05 0.20 2.45 0 4.45 -0.50 4.45 -0.30 0 -0.50 -2.65 -0.50 -7z m2.50 -0.50 c1.70 0 3.40 -1.10 3.65 -2.35 0.30 -1.70 -1.35 -3.15 -3.60 -3.15 l-1.80 0 0.20 3.35 c0.10 1.90 0.30 3.10 0.40 2.80 0.15 -0.35 0.65 -0.65 1.15 -0.65z"/>
  <path d="M337 207.50 l0 -5 3 0 3 0 0 5 0 5 -3 0 -3 0 0 -5z"/>
 </g>
 <g fill="#FFFFFF">
  <path d="M87.35 517.10 c0.40 -0.25 0.65 -2.40 0.80 -6.60 l0.15 -6.25 0.10 6.65 c0.10 6 0 6.60 -0.75 6.60 -0.65 0 -0.70 -0.15 -0.30 -0.40z"/>
  <path d="M105.85 516.90 c0.75 -0.35 1.50 -0.35 2.50 0 1.30 0.50 1.20 0.50 -1.10 0.55 -2.10 0 -2.30 -0.10 -1.40 -0.55z"/>
  <path d="M126.35 517.10 c0.40 -0.25 0.65 -2.20 0.80 -5.35 l0.15 -5 0.10 5.40 c0.10 4.80 0 5.35 -0.75 5.35 -0.65 0 -0.70 -0.15 -0.30 -0.40z"/>
  <path d="M145.35 517.10 c0.40 -0.25 0.65 -2.25 0.80 -5.85 l0.15 -5.50 0.10 5.90 c0.10 5.30 0 5.85 -0.75 5.85 -0.65 0 -0.70 -0.15 -0.30 -0.40z"/>
  <path d="M182.65 516.90 c1 -0.35 1.75 -0.35 2.50 0 0.90 0.45 0.70 0.55 -1.40 0.55 -2.30 -0.05 -2.40 -0.05 -1.10 -0.55z"/>
  <path d="M342.20 509 c0 -3.70 0.05 -5.25 0.15 -3.35 0.10 1.85 0.10 4.85 0 6.75 -0.10 1.85 -0.15 0.30 -0.15 -3.40z"/>
  <path d="M380.20 509.75 c0 -3.30 0.05 -4.60 0.15 -2.85 0.10 1.70 0.10 4.40 0 6 -0.10 1.55 -0.15 0.15 -0.15 -3.15z"/>
  <path d="M509.20 506.25 c0 -3.85 0.10 -5.35 0.15 -3.35 0.10 2 0.10 5.15 0 7 -0.10 1.85 -0.15 0.20 -0.15 -3.65z"/>
  <path d="M537.20 507 c0 -3.45 0.05 -4.85 0.15 -3.10 0.10 1.70 0.10 4.50 0 6.25 -0.10 1.70 -0.15 0.30 -0.15 -3.15z"/>
  <path d="M604.55 500.10 c-0.05 -5.65 0.10 -8.55 0.45 -8.35 0.60 0.40 0.60 14.55 0 16 -0.25 0.60 -0.45 -2.35 -0.45 -7.65z"/>
  <path d="M95.65 505.25 c0 -1.35 0.10 -1.90 0.20 -1.10 0.10 0.75 0.10 1.85 0 2.50 -0.10 0.60 -0.20 0 -0.20 -1.40z"/>
  <path d="M349.65 502.75 c0 -1.10 0.10 -1.50 0.20 -0.85 0.10 0.60 0.10 1.50 0 2 -0.15 0.45 -0.25 -0.05 -0.20 -1.15z"/>
  <path d="M275.65 492.90 c-0.10 -0.25 0.60 -0.40 1.55 -0.40 1 0 1.80 0.15 1.80 0.40 0 0.20 -0.70 0.35 -1.55 0.35 -0.85 0 -1.65 -0.15 -1.80 -0.35z"/>
  <path d="M283.75 493 c-2.25 -0.30 -2.05 -0.35 1.75 -0.40 2.90 -0.05 4 0.05 3.50 0.40 -0.80 0.50 -1.45 0.50 -5.25 0z"/>
  <path d="M604.50 486.25 c0 -1.50 0.25 -2.75 0.50 -2.75 0.30 0 0.50 1.25 0.50 2.75 0 1.50 -0.20 2.75 -0.50 2.75 -0.25 0 -0.50 -1.25 -0.50 -2.75z"/>
  <path d="M614.60 216.35 l-0.10 -6.85 2.75 0.10 c1.95 0.10 2.50 0.25 1.95 0.55 -0.45 0.25 -1.55 0.35 -2.50 0.20 l-1.65 -0.30 -0.20 6.60 -0.15 6.60 -0.10 -6.90z"/>
  <path d="M604.65 216.75 c0 -1.10 0.10 -1.50 0.20 -0.85 0.10 0.60 0.10 1.50 0 2 -0.15 0.45 -0.25 -0.05 -0.20 -1.15z"/>
  <path d="M618.15 204.15 c0.45 -0.10 1.25 -0.10 1.75 0 0.45 0.15 0.05 0.25 -0.90 0.25 -0.95 0 -1.35 -0.10 -0.85 -0.25z"/>
 </g>
</svg>