<svg width="44" height="44" xmlns="http://www.w3.org/2000/svg" xmlns:xlink="http://www.w3.org/1999/xlink" overflow="hidden"><defs><filter id="fx0" x="-10%" y="-10%" width="120%" height="120%" filterUnits="userSpaceOnUse" primitiveUnits="userSpaceOnUse"><feComponentTransfer color-interpolation-filters="sRGB"><feFuncR type="discrete" tableValues="0 0"/><feFuncG type="discrete" tableValues="0 0"/><feFuncB type="discrete" tableValues="0 0"/><feFuncA type="linear" slope="1" intercept="0"/></feComponentTransfer><feGaussianBlur stdDeviation="2.22222 2.22222"/></filter><clipPath id="clip1"><rect x="297" y="332" width="44" height="44"/></clipPath><clipPath id="clip2"><rect x="-4" y="-4" width="53" height="53"/></clipPath><clipPath id="clip3"><rect x="0" y="0" width="46" height="46"/></clipPath><clipPath id="clip4"><rect x="7" y="7" width="32" height="32"/></clipPath><clipPath id="clip5"><rect x="7" y="7" width="32" height="32"/></clipPath><clipPath id="clip6"><rect x="7" y="7" width="32" height="32"/></clipPath><clipPath id="clip7"><rect x="304" y="339" width="30" height="30"/></clipPath><clipPath id="clip8"><rect x="304" y="339" width="30" height="30"/></clipPath><clipPath id="clip9"><rect x="304" y="339" width="30" height="30"/></clipPath></defs><g clip-path="url(#clip1)" transform="translate(-297 -332)"><g clip-path="url(#clip2)" filter="url(#fx0)" transform="translate(296 331)"><g clip-path="url(#clip3)"><g clip-path="url(#clip4)"><g clip-path="url(#clip5)"><g clip-path="url(#clip6)"><path d="M7.70001 23 23 38.3" stroke="#FFFFFF" stroke-width="3.06"/><path d="M38.3 23 23 38.3" stroke="#FFFFFF" stroke-width="3.06"/><path d="M23 38.3 23 7.70001" stroke="#FFFFFF" stroke-width="3.06" fill="none"/><path d="M14.1907 31.7304 6.54093 24.0805 7.65914 22.9623 8.77735 21.844 15.0983 28.1647 21.4192 34.4854 21.4192 21.0818 21.4192 7.67822 22.9751 7.67822 24.5311 7.67822 24.5311 21.1142 24.5311 34.5502 30.8686 28.2129 37.2062 21.8755 38.3239 22.9945 39.4415 24.1135 31.8079 31.7469C27.6094 35.9453 24.1445 39.3803 24.108 39.3803 24.0716 39.3803 23.8097 39.1469 23.5261 38.8616L23.0104 38.3429 22.489 38.8616C22.2022 39.1469 21.9389 39.3803 21.904 39.3803 21.869 39.3803 18.398 35.9379 14.1907 31.7304Z" stroke="#D9A325" stroke-width="1.22514" fill="none"/><path d="M21.8082 38.5365C21.8082 38.4843 18.5774 35.2104 14.6286 31.261L7.44901 24.0803 8.11327 23.4161 8.77752 22.7518 15.374 29.3481C19.0021 32.976 21.9923 35.9443 22.019 35.9443 22.0457 35.9443 22.0675 29.7303 22.0675 22.1354L22.0675 8.32652 22.9751 8.32652 23.8827 8.32652 23.8827 22.1678C23.8827 29.7806 23.9047 36.0092 23.9315 36.0092 23.9583 36.0092 26.9556 33.0337 30.5922 29.3969L37.2042 22.7847 37.8697 23.448 38.5352 24.1112 31.3711 31.2764C27.4308 35.2173 24.2069 38.4845 24.2069 38.5369 24.2069 38.5892 23.9452 38.3716 23.6253 38.0531L23.0436 37.4742 22.8635 37.6313C22.7644 37.7177 22.4865 37.978 22.2458 38.2098 22.0051 38.4417 21.8082 38.5886 21.8082 38.5365Z" stroke="#D9A325" stroke-width="1.22514" fill="none"/><path d="M19.0159 34.7892C17.434 33.196 14.3887 30.1349 12.2485 27.9869L8.35729 24.0814 8.56749 23.8712 8.77769 23.661 12.3269 27.1935C20.2292 35.0584 21.0719 35.8835 21.5644 36.2386 22.0373 36.5794 22.0763 36.5954 22.2393 36.5154 22.3345 36.4687 22.4665 36.3575 22.5325 36.2681 22.6482 36.1116 22.6542 35.6079 22.695 22.5403L22.7373 8.97483 22.9752 8.97483 23.2131 8.97483 23.2542 22.4355C23.2918 34.75 23.3043 35.9099 23.4014 36.0581 23.4598 36.1472 23.59 36.2512 23.6909 36.2893 23.7917 36.3274 23.898 36.4118 23.9271 36.4769 23.9747 36.5833 24.0248 36.563 24.4237 36.2758 24.6796 36.0915 27.4821 33.3615 31.0433 29.8273L37.2192 23.6983 37.4167 23.9055 37.6143 24.1128 30.8818 30.8875 24.1492 37.6623 23.634 37.1522C23.3506 36.8716 23.0874 36.6528 23.0491 36.6659 23.0108 36.6791 22.7349 36.914 22.4358 37.1879L21.8921 37.6859Z" stroke="#D9A325" stroke-width="1.22514" fill="#1F4E79"/><path d="M21.3385 39.6235C20.9207 39.3219 18.8399 37.2821 13.205 31.6497L5.63296 24.0812 7.20512 22.5088 8.77728 20.9364 14.7741 26.9329 20.7709 32.9294 20.7709 19.9797 20.7709 7.02991 22.9751 7.02991 25.1794 7.02991 25.1794 20.0121 25.1794 32.9943 31.1927 26.9812 37.206 20.9681 38.7777 22.5407 40.3493 24.1133 32.7805 31.6719C26.0205 38.4228 24.7667 39.6325 24.1641 39.9851 24.0379 40.0589 23.541 39.7987 23.2695 39.5166L23.0128 39.2498 22.7184 39.5364C22.4941 39.7547 22.0448 40.0286 21.911 40.0286 21.905 40.0286 21.6473 39.8463 21.3385 39.6235Z" fill="#FFFFFF"/></g></g></g></g></g><g clip-path="url(#clip7)"><g clip-path="url(#clip8)"><g clip-path="url(#clip9)"><path d="M304 354 319 369" stroke="#FFFFFF" stroke-width="3"/><path d="M334 354 319 369" stroke="#FFFFFF" stroke-width="3"/><path d="M319 369 319 339" stroke="#FFFFFF" stroke-width="3" fill="none"/><path d="M310.363 362.559 302.864 355.059 303.96 353.963 305.056 352.867 311.253 359.063 317.45 365.26 317.45 352.119 317.45 338.979 318.976 338.979 320.501 338.979 320.501 352.151 320.501 365.324 326.714 359.111 332.928 352.898 334.023 353.995 335.119 355.092 327.635 362.575C323.519 366.691 320.122 370.059 320.086 370.059 320.051 370.059 319.794 369.83 319.516 369.551L319.01 369.042 318.499 369.551C318.218 369.83 317.96 370.059 317.925 370.059 317.891 370.059 314.488 366.684 310.363 362.559Z" stroke="#D9A325" stroke-width="1.20112" fill="none"/><path d="M317.832 369.232C317.832 369.181 314.664 365.971 310.793 362.099L303.754 355.059 304.405 354.408 305.056 353.757 311.524 360.224C315.08 363.78 318.012 366.69 318.038 366.69 318.064 366.69 318.086 360.598 318.086 353.152L318.086 339.614 318.976 339.614 319.865 339.614 319.865 353.184C319.865 360.648 319.887 366.754 319.913 366.754 319.939 366.754 322.878 363.837 326.443 360.271L332.926 353.789 333.578 354.439 334.231 355.089 327.207 362.114C323.344 365.978 320.183 369.181 320.183 369.232 320.183 369.284 319.927 369.07 319.613 368.758L319.043 368.19 318.866 368.344C318.769 368.429 318.497 368.684 318.261 368.912 318.025 369.139 317.832 369.283 317.832 369.232Z" stroke="#D9A325" stroke-width="1.20112" fill="none"/><path d="M315.094 365.558C313.543 363.996 310.558 360.995 308.459 358.889L304.644 355.06 304.85 354.854 305.057 354.648 308.536 358.111C316.283 365.822 317.11 366.631 317.593 366.979 318.056 367.313 318.094 367.329 318.254 367.25 318.348 367.205 318.477 367.096 318.542 367.008 318.655 366.855 318.661 366.361 318.701 353.549L318.742 340.25 318.976 340.25 319.209 340.25 319.249 353.447C319.286 365.52 319.298 366.657 319.394 366.802 319.451 366.889 319.578 366.991 319.677 367.029 319.776 367.066 319.88 367.149 319.909 367.213 319.956 367.317 320.005 367.297 320.396 367.015 320.647 366.835 323.394 364.158 326.886 360.693L332.94 354.685 333.134 354.888 333.328 355.091 326.727 361.733 320.127 368.375 319.622 367.875C319.344 367.6 319.086 367.385 319.048 367.398 319.011 367.411 318.74 367.641 318.447 367.91L317.914 368.398Z" stroke="#D9A325" stroke-width="1.20112" fill="#1F4E79"/><path d="M317.371 370.297C316.961 370.002 314.921 368.002 309.397 362.48L301.973 355.06 303.515 353.518 305.056 351.977 310.935 357.856 316.815 363.735 316.815 351.039 316.815 338.343 318.976 338.343 321.137 338.343 321.137 351.071 321.137 363.798 327.032 357.903 332.927 352.008 334.468 353.55 336.009 355.091 328.589 362.502C321.961 369.12 320.732 370.306 320.141 370.652 320.018 370.724 319.53 370.469 319.264 370.193L319.013 369.931 318.724 370.212C318.504 370.426 318.064 370.695 317.932 370.695 317.926 370.695 317.674 370.516 317.371 370.297Z" fill="#FFFFFF"/></g></g></g></g></svg>